<svg id="圖層_1" data-name="圖層 1" xmlns="http://www.w3.org/2000/svg" viewBox="0 0 210.63 202"><defs><style>.cls-1{fill:#fff;}.cls-1,.cls-2,.cls-3{stroke:#515050;stroke-miterlimit:10;stroke-width:2px;}.cls-2{fill:#f6d568;}.cls-3{fill:none;}</style></defs><title>icon</title><rect class="cls-1" x="22.83" y="23.64" width="90.35" height="142.82" rx="2.9"/><rect class="cls-1" x="120.42" y="64.87" width="61.34" height="101.6" rx="3.72"/><circle class="cls-2" cx="68.88" cy="56.27" r="21.67"/><circle class="cls-3" cx="68.88" cy="122.2" r="31.53"/><circle class="cls-2" cx="68.88" cy="122.2" r="11.07"/><circle class="cls-2" cx="150.98" cy="89.38" r="14.83"/><circle class="cls-3" cx="150.98" cy="136.15" r="20.64"/><circle class="cls-3" cx="150.98" cy="136.15" r="7.25"/><rect class="cls-2" x="22.83" y="167.04" width="90.35" height="11.32"/><rect class="cls-2" x="120.42" y="167.04" width="61.13" height="11.32"/><circle class="cls-2" cx="98.28" cy="159.92" r="2.14"/><circle class="cls-3" cx="105.4" cy="159.92" r="2.14"/><circle class="cls-2" cx="164.82" cy="159.92" r="2.14"/><circle class="cls-3" cx="171.95" cy="159.92" r="2.14"/><circle class="cls-1" cx="68.88" cy="56.27" r="6.03"/><circle class="cls-1" cx="68.88" cy="122.2" r="5.94"/><circle class="cls-1" cx="150.98" cy="89.38" r="4.55"/><circle class="cls-3" cx="150.98" cy="136.15" r="3.47"/><path class="cls-3" d="M68.88,85.19a37,37,0,1,1-37,37"/><line class="cls-3" x1="39.54" y1="174.82" x2="113.18" y2="174.82"/><line class="cls-3" x1="127.6" y1="174.82" x2="181.76" y2="174.82"/></svg>