<svg id="5a9faf98-759d-41a3-bd83-6244c1a0c4ce" data-name="圖層 1" xmlns="http://www.w3.org/2000/svg" viewBox="0 0 210.63 202"><defs><style>.\33 704e713-4578-4c61-823f-eb37656514df,.fa32c405-5cfe-40cf-8907-b3ddd91ec8bf{fill:#f6d568;}.\31 db28f79-ee2d-43dc-8522-bbae36acf3f4,.\33 704e713-4578-4c61-823f-eb37656514df,.\34 45ae299-d858-4aed-b87a-74a5c3cc48c0,.\39 a8d8c27-2900-43d2-8d28-4ab3bab5914e,.d858bdc9-dfd7-4b6e-90fb-5cc1aaa5a936,.fa32c405-5cfe-40cf-8907-b3ddd91ec8bf{stroke:#515050;stroke-width:2px;}.\31 db28f79-ee2d-43dc-8522-bbae36acf3f4,.\39 a8d8c27-2900-43d2-8d28-4ab3bab5914e,.fa32c405-5cfe-40cf-8907-b3ddd91ec8bf{stroke-linejoin:round;}.\31 db28f79-ee2d-43dc-8522-bbae36acf3f4,.\34 45ae299-d858-4aed-b87a-74a5c3cc48c0{fill:#fff;}.\39 a8d8c27-2900-43d2-8d28-4ab3bab5914e,.d858bdc9-dfd7-4b6e-90fb-5cc1aaa5a936{fill:none;}.\33 704e713-4578-4c61-823f-eb37656514df,.\34 45ae299-d858-4aed-b87a-74a5c3cc48c0,.d858bdc9-dfd7-4b6e-90fb-5cc1aaa5a936{stroke-miterlimit:10;}</style></defs><title>icon</title><path class="fa32c405-5cfe-40cf-8907-b3ddd91ec8bf" d="M108.45,172.38h-6l-32.75,7.76v6.74s6.37,5.86,38.72,5.86,37.63-5.42,37.63-5.42v-5.57l-33.28-9.38Z"/><path class="1db28f79-ee2d-43dc-8522-bbae36acf3f4" d="M108.45,168.06h-6l-32.75,7.76v6.74s6.37,5.86,38.72,5.86S146.08,183,146.08,183v-5.57l-33.28-9.38Z"/><path class="9a8d8c27-2900-43d2-8d28-4ab3bab5914e" d="M69.73,176.7S76.11,184,108.45,184s37.63-6.71,37.63-6.71"/><circle class="3704e713-4578-4c61-823f-eb37656514df" cx="109.67" cy="74.47" r="67.81"/><circle class="445ae299-d858-4aed-b87a-74a5c3cc48c0" cx="109.67" cy="74.47" r="61.56"/><rect class="9a8d8c27-2900-43d2-8d28-4ab3bab5914e" x="95.07" y="90.24" width="28.31" height="10.94"/><polygon class="1db28f79-ee2d-43dc-8522-bbae36acf3f4" points="97.14 101.17 99.15 106.88 102.33 106.88 102.33 172.38 113.11 172.38 113.11 107.25 116.38 107.25 118.67 101.17 97.14 101.17"/><path class="1db28f79-ee2d-43dc-8522-bbae36acf3f4" d="M111.05,56.28s4.23-18.92,33.67-21.54c0,0,11.9,3.43,16.33,31.26s-14.12,39.12-18.15,28.63-14.27-16.74-14.8-16.13c0,0,.86-5.6-2.35-12.78S112.06,55.24,111.05,56.28Z"/><path class="1db28f79-ee2d-43dc-8522-bbae36acf3f4" d="M93.29,82.86s-18.51,5.79-35.5-18.39c0,0-3-12,18.9-29.77s40.94-7.34,33.87,1.4S103.21,56.82,104,57c0,0-5.28,2.06-9.89,8.43S91.88,82.51,93.29,82.86Z"/><path class="1db28f79-ee2d-43dc-8522-bbae36acf3f4" d="M124.44,85.08s14.27,13.13,1.82,39.94c0,0-8.92,8.59-35.23-1.48s-26.82-31.78-15.72-30,21.63-4,21.37-4.75c0,0,4.42,3.55,12.25,4.35S124.84,86.47,124.44,85.08Z"/><circle class="445ae299-d858-4aed-b87a-74a5c3cc48c0" cx="109.67" cy="74.72" r="18.44"/><circle class="3704e713-4578-4c61-823f-eb37656514df" cx="109.67" cy="74.55" r="13.71"/><path class="1db28f79-ee2d-43dc-8522-bbae36acf3f4" d="M108.18,162.39h-5.51L89,168.46v3s3.16,2.64,19.17,2.64,18.63-2.44,18.63-2.44v-2.51l-14-6.79Z"/><path class="9a8d8c27-2900-43d2-8d28-4ab3bab5914e" d="M90.71,168.46s2.89,1.88,17.58,1.88,17.08-1.73,17.08-1.73"/><circle class="3704e713-4578-4c61-823f-eb37656514df" cx="109.67" cy="74.55" r="2.39"/><circle class="3704e713-4578-4c61-823f-eb37656514df" cx="117.34" cy="178.24" r="1.79"/><circle class="d858bdc9-dfd7-4b6e-90fb-5cc1aaa5a936" cx="123.31" cy="178.24" r="1.79"/><line class="d858bdc9-dfd7-4b6e-90fb-5cc1aaa5a936" x1="105.32" y1="141.37" x2="105.32" y2="162.85"/><path class="d858bdc9-dfd7-4b6e-90fb-5cc1aaa5a936" d="M86.38,74.47a23.29,23.29,0,1,1,23.29,23.29"/></svg>