<svg id="圖層_1" data-name="圖層 1" xmlns="http://www.w3.org/2000/svg" viewBox="0 0 210.63 202"><defs><style>.cls-1{fill:#fff;}.cls-1,.cls-2,.cls-3{stroke:#515050;stroke-miterlimit:10;stroke-width:2px;}.cls-2{fill:#f6d568;}.cls-3{fill:none;}</style></defs><title>icon</title><path class="cls-1" d="M46.33,163.77l2.77,9.07S78,181,110.45,181,173,172.84,173,172.84l2.28-8.22Z"/><path class="cls-1" d="M90.45,24.83s4.91-1.36,20-1.36,19.52.68,19.52.68l-2.62,9.41L129,35.64S122.87,37,110.19,37s-17.75-1.28-17.75-1.28L94,34.36Z"/><path class="cls-1" d="M32,64.77S34.84,52.12,36,50.59s40.16-17.44,75.82-17.44,70.56,11.11,71.69,12.46,6.19,16.29,6.19,16.29Z"/><path class="cls-2" d="M179.53,163.83c10.7-11.19,15.76-95.76,15.76-95.76s-35.46-.87-84.45-.87-84.26,2.62-84.26,2.62c-2.82,24.64,15.57,92.61,15.57,92.61s4.32,7.15,65.68,7.15S179.53,163.83,179.53,163.83Z"/><path class="cls-1" d="M93.57,102.37h33.34s8.91,16.74,7.54,71.9H86.26S82.6,138.32,93.57,102.37Z"/><path class="cls-1" d="M98,109.77h23.91s9.06,13.69,8,58.83H90.78S89.1,139.18,98,109.77Z"/><rect class="cls-1" x="108.01" y="125.14" width="4.68" height="37.77"/><rect class="cls-2" x="103.81" y="127.2" width="13.1" height="11.13"/><path class="cls-1" d="M24.37,63.62v7.69s64.12-3.22,86.47-3.22c22,0,86.37,1.34,86.37,1.34V60s-65.87.33-86.42,0S24.37,63.62,24.37,63.62Z"/><path class="cls-3" d="M175.25,165.16s10.47-28.38,12.45-58.66,1.47-28.31,1.47-28.31"/></svg>