<svg id="d5bc60b0-1557-41e2-9d20-29d2bc049dad" data-name="圖層 1" xmlns="http://www.w3.org/2000/svg" viewBox="0 0 210.63 202"><defs><style>.\37 6ee2bb1-1e25-4ff8-96ef-6f244cbeefe3{fill:#f6d568;}.\31 4601e4b-96b0-4b2e-9166-6693f0ff949f,.\36 b8d0ce3-2bde-4bac-914e-922729753e5a,.\37 6ee2bb1-1e25-4ff8-96ef-6f244cbeefe3{stroke:#515050;stroke-miterlimit:10;stroke-width:2px;}.\31 4601e4b-96b0-4b2e-9166-6693f0ff949f{fill:#fff;}.\36 b8d0ce3-2bde-4bac-914e-922729753e5a{fill:none;}</style></defs><title>icon</title><path class="76ee2bb1-1e25-4ff8-96ef-6f244cbeefe3" d="M36.54,152.87s9.44,24.08,65.69,25.44c56.48,1.37,65.43-26.68,65.43-26.68s-4.18-5.28-5.3-8.17-3.57,19.67-60.44,19.67-60.07-21.36-60.07-21.36Z"/><path class="14601e4b-96b0-4b2e-9166-6693f0ff949f" d="M68,43.71S44.54,76.53,41,147.35c0,0,15.21,21.3,64.76,22.43,18.84.43,40.18-2.61,57.72-22.63,0,0-11.28-102-33.27-119.1C130.2,28.06,90,13.14,68,43.71Z"/><polygon class="14601e4b-96b0-4b2e-9166-6693f0ff949f" points="72.07 39.56 47.69 41.65 53.28 76.53 72.07 39.56"/><path class="76ee2bb1-1e25-4ff8-96ef-6f244cbeefe3" d="M71.63,38.91S153.21,53,131,28c0,0-35.86-15.09-59.32,10.91Z"/><path class="6b8d0ce3-2bde-4bac-914e-922729753e5a" d="M41.25,139.91s12.55,25.14,66.83,25.14"/><path class="6b8d0ce3-2bde-4bac-914e-922729753e5a" d="M70.39,43.53c.18.41,63.7,11.1,66.85-5.16"/><rect class="14601e4b-96b0-4b2e-9166-6693f0ff949f" x="94.84" y="83.5" width="16.97" height="72.35"/><rect class="14601e4b-96b0-4b2e-9166-6693f0ff949f" x="100.88" y="94.53" width="4.73" height="50.3"/><rect class="76ee2bb1-1e25-4ff8-96ef-6f244cbeefe3" x="100.88" y="108.36" width="4.73" height="36.47"/><polygon class="76ee2bb1-1e25-4ff8-96ef-6f244cbeefe3" points="140.91 44.69 137.24 46.89 145.32 66.6 152.09 63.11 142.7 44.69 140.91 44.69"/><path class="76ee2bb1-1e25-4ff8-96ef-6f244cbeefe3" d="M142,48.36c11.45-2.58,27,.92,27,.92,7.28,10.52,13.79,61.44,11.75,62.43s-7.57,1.93-7.57,1.93c-4.51-29.34-12-49.84-13.5-50.78s-11.61-.64-11.61-.64L142.2,50.86Z"/></svg>