<svg id="圖層_1" data-name="圖層 1" xmlns="http://www.w3.org/2000/svg" viewBox="0 0 210.63 202"><defs><style>.cls-1{fill:#fff;}.cls-1,.cls-2,.cls-3{stroke:#515050;stroke-miterlimit:10;stroke-width:2px;}.cls-2{fill:#f6d568;}.cls-3{fill:none;}</style></defs><title>icon</title><path class="cls-1" d="M13,146.68S84,171,173.85,154.13c0,0,9.55-13.57-12.27-31.68C161.58,122.45,15.86,133.5,13,146.68Z"/><path class="cls-1" d="M192,111.79s-7.56-23-6.82-38.19c0,0-1.2-13.75-4.49-15.61s-54.32-6.54-90.59,11.89c0,0-32.57,20-30.94,26.2,0,0-50.76,48.08-44.17,44.81,0,0,68.68,24.88,155.58,6.18,0,0-2.19-10.89,18-15.78,0,0,7.76-8.72,9-8.71S192,111.79,192,111.79ZM157.57,88.22c-9,7.5-55.8,18.4-59.47,11.37,0,0-3.12-12.45,21.38-20.85s40.77-6.32,42.77-4.74S166.6,80.72,157.57,88.22Z"/><path class="cls-2" d="M104.25,101.85s1.23,13.7-13.17,21.88,9.46,8.17,9.46,8.17,91.39-5.35,81.51-15-32.48-12.66-24.48-28.66C157.57,88.22,138,101.85,104.25,101.85Z"/><path class="cls-3" d="M23.86,130.62s29.65,21.49,150,9.69"/><path class="cls-3" d="M42.87,112.4s10.75,6.63,14.45,6.25,27.75-63,127.07-50.23"/><path class="cls-2" d="M61.5,88.91v5.44h7.87V85.2s-.69-2-3.93-2S61.5,85,61.5,85Z"/><path class="cls-2" d="M61.5,85s.44,2.25,3.94,2.25c0,0,3.93.34,3.93-2"/><ellipse class="cls-1" cx="123.82" cy="103.51" rx="16.83" ry="9.55"/><path class="cls-3" d="M118.77,109.1c-7.23-1.61-6.33-6.13-6.33-6.13.26-4.14,10.07-5,10.07-5l1.31,5.69Z"/><path class="cls-3" d="M26.52,126.1s18.34,15.43,100.16,11.55"/></svg>