<svg id="551e5c4a-e0ce-46e6-96e6-923eb08816c6" data-name="圖層 1" xmlns="http://www.w3.org/2000/svg" viewBox="0 0 210.63 202"><defs><style>.\36 edf13ce-6bbf-4c88-99a0-f8212e49c8f9{fill:none;}.\34 77c9051-998c-4a3b-be87-d9f02dc9f557,.\36 edf13ce-6bbf-4c88-99a0-f8212e49c8f9,.c47eebf9-8d53-4617-8a10-638bfa70e328{stroke:#515050;stroke-miterlimit:10;stroke-width:2px;}.c47eebf9-8d53-4617-8a10-638bfa70e328{fill:#f6d568;}.\34 77c9051-998c-4a3b-be87-d9f02dc9f557{fill:#fff;}</style></defs><title>icon</title><rect class="6edf13ce-6bbf-4c88-99a0-f8212e49c8f9" x="22.83" y="23.64" width="90.35" height="142.82" rx="2.9" ry="2.9"/><rect class="6edf13ce-6bbf-4c88-99a0-f8212e49c8f9" x="120.42" y="64.87" width="61.34" height="101.6" rx="3.72" ry="3.72"/><circle class="c47eebf9-8d53-4617-8a10-638bfa70e328" cx="68.88" cy="56.27" r="21.67"/><circle class="6edf13ce-6bbf-4c88-99a0-f8212e49c8f9" cx="68.88" cy="122.2" r="31.53"/><circle class="c47eebf9-8d53-4617-8a10-638bfa70e328" cx="68.88" cy="122.2" r="11.07"/><circle class="c47eebf9-8d53-4617-8a10-638bfa70e328" cx="150.98" cy="89.38" r="14.83"/><circle class="6edf13ce-6bbf-4c88-99a0-f8212e49c8f9" cx="150.98" cy="136.15" r="20.64"/><circle class="6edf13ce-6bbf-4c88-99a0-f8212e49c8f9" cx="150.98" cy="136.15" r="7.25"/><rect class="c47eebf9-8d53-4617-8a10-638bfa70e328" x="22.83" y="167.04" width="90.35" height="11.32"/><rect class="c47eebf9-8d53-4617-8a10-638bfa70e328" x="120.42" y="167.04" width="61.13" height="11.32"/><circle class="c47eebf9-8d53-4617-8a10-638bfa70e328" cx="98.28" cy="159.92" r="2.14"/><circle class="6edf13ce-6bbf-4c88-99a0-f8212e49c8f9" cx="105.4" cy="159.92" r="2.14"/><circle class="c47eebf9-8d53-4617-8a10-638bfa70e328" cx="164.82" cy="159.92" r="2.14"/><circle class="6edf13ce-6bbf-4c88-99a0-f8212e49c8f9" cx="171.95" cy="159.92" r="2.14"/><circle class="477c9051-998c-4a3b-be87-d9f02dc9f557" cx="68.88" cy="56.27" r="6.03"/><circle class="477c9051-998c-4a3b-be87-d9f02dc9f557" cx="68.88" cy="122.2" r="5.94"/><circle class="477c9051-998c-4a3b-be87-d9f02dc9f557" cx="150.98" cy="89.38" r="4.55"/><circle class="6edf13ce-6bbf-4c88-99a0-f8212e49c8f9" cx="150.98" cy="136.15" r="3.47"/><path class="6edf13ce-6bbf-4c88-99a0-f8212e49c8f9" d="M68.88,85.19a37,37,0,1,1-37,37"/><line class="6edf13ce-6bbf-4c88-99a0-f8212e49c8f9" x1="39.54" y1="174.82" x2="113.18" y2="174.82"/><line class="6edf13ce-6bbf-4c88-99a0-f8212e49c8f9" x1="127.6" y1="174.82" x2="181.76" y2="174.82"/></svg>