<svg id="679afbeb-4955-4dc0-b718-e8ed975852cc" data-name="圖層 1" xmlns="http://www.w3.org/2000/svg" viewBox="0 0 210.63 202"><defs><style>.\31 84af9b1-367a-4977-836a-fa94d53ff4a6{fill:none;}.\30 071f06a-445d-4ede-bb3f-9d5fea973412,.\31 84af9b1-367a-4977-836a-fa94d53ff4a6,.\39 8b8415a-c61f-4c57-a215-757d3662b887{stroke:#515050;stroke-miterlimit:10;stroke-width:2px;}.\30 071f06a-445d-4ede-bb3f-9d5fea973412{fill:#f6d568;}.\39 8b8415a-c61f-4c57-a215-757d3662b887{fill:#fff;}</style></defs><title>icon</title><rect class="184af9b1-367a-4977-836a-fa94d53ff4a6" x="40.43" y="14.73" width="132.67" height="168.3" rx="6.77" ry="6.77"/><rect class="184af9b1-367a-4977-836a-fa94d53ff4a6" x="60.81" y="183.02" width="13" height="6.17"/><rect class="184af9b1-367a-4977-836a-fa94d53ff4a6" x="145.31" y="183.02" width="13" height="6.17"/><path class="0071f06a-445d-4ede-bb3f-9d5fea973412" d="M109.79,169.17h52.65V68.48s1.82-26.79-26.79-26.79c-25.93,0-25.86,23.92-25.86,23.92Z"/><circle class="98b8415a-c61f-4c57-a215-757d3662b887" cx="136.12" cy="68.48" r="12.31"/><circle class="184af9b1-367a-4977-836a-fa94d53ff4a6" cx="136.09" cy="68.48" r="22.09"/><rect class="184af9b1-367a-4977-836a-fa94d53ff4a6" x="173.11" y="31.69" width="6.59" height="21.78"/><path class="184af9b1-367a-4977-836a-fa94d53ff4a6" d="M136.09,51.5a17,17,0,1,1-17,17"/><line class="184af9b1-367a-4977-836a-fa94d53ff4a6" x1="47.64" y1="177.36" x2="172.61" y2="177.36"/><rect class="0071f06a-445d-4ede-bb3f-9d5fea973412" x="59.7" y="189.19" width="15.21" height="3.71"/><rect class="0071f06a-445d-4ede-bb3f-9d5fea973412" x="144.2" y="189.19" width="15.21" height="3.71"/><line class="184af9b1-367a-4977-836a-fa94d53ff4a6" x1="136.09" y1="68.48" x2="131.54" y2="80.76"/><circle class="0071f06a-445d-4ede-bb3f-9d5fea973412" cx="116.54" cy="161.97" r="2.55"/><circle class="98b8415a-c61f-4c57-a215-757d3662b887" cx="125.03" cy="161.97" r="2.55"/><circle class="98b8415a-c61f-4c57-a215-757d3662b887" cx="133.58" cy="161.97" r="2.55"/><rect class="98b8415a-c61f-4c57-a215-757d3662b887" x="114" y="149.36" width="39.07" height="4.38"/><line class="184af9b1-367a-4977-836a-fa94d53ff4a6" x1="114" y1="144.07" x2="141.97" y2="144.07"/><rect class="98b8415a-c61f-4c57-a215-757d3662b887" x="49.56" y="42.18" width="22.38" height="86.09"/><rect class="98b8415a-c61f-4c57-a215-757d3662b887" x="57.62" y="69.62" width="6.26" height="51.03"/><path class="0071f06a-445d-4ede-bb3f-9d5fea973412" d="M58.14,58.38s-.27-2.72,1-4.29,1.69-1.18,2.13-2.48c0,0,.34,4.32,1.52,4.88s1.5,3.85.52,4.51a5.32,5.32,0,0,1-5.18,1C55.28,61.25,58.14,58.38,58.14,58.38Z"/><path class="0071f06a-445d-4ede-bb3f-9d5fea973412" d="M58.87,59.2c-.07-1.66-3.37-4.85-3.37-4.85,0,.64-1.22,3.83,0,7.43,1.32,3.79,4,3.42,4,3.42a14.67,14.67,0,0,1,3.61-1.29c2.82-.77,2-6.81,3.38-9.12a4.65,4.65,0,0,0-3.81,3.55"/><rect class="0071f06a-445d-4ede-bb3f-9d5fea973412" x="57.74" y="87.13" width="6.13" height="33.36"/></svg>