<svg id="52799ddb-fe94-4dd4-811d-d8d6de953ae9" data-name="圖層 1" xmlns="http://www.w3.org/2000/svg" viewBox="0 0 210.63 202"><defs><style>.\31 4449532-0858-4961-93f6-e7ddac32079c{fill:#fff;}.\31 4449532-0858-4961-93f6-e7ddac32079c,.a9cf7460-89aa-4ab0-935a-efa7e40eed8a,.ce196ce3-1e18-4c4d-b2e7-bbf0fd78803f{stroke:#515050;stroke-miterlimit:10;stroke-width:2px;}.ce196ce3-1e18-4c4d-b2e7-bbf0fd78803f{fill:#f6d568;}.a9cf7460-89aa-4ab0-935a-efa7e40eed8a{fill:none;}</style></defs><title>icon</title><polygon class="14449532-0858-4961-93f6-e7ddac32079c" points="195.48 156.11 15.15 156.11 34.48 37.02 175.49 37.02 195.48 156.11"/><rect class="ce196ce3-1e18-4c4d-b2e7-bbf0fd78803f" x="15.15" y="156.11" width="180.33" height="4.44"/><rect class="ce196ce3-1e18-4c4d-b2e7-bbf0fd78803f" x="15.15" y="160.55" width="180.33" height="10.82"/><ellipse class="ce196ce3-1e18-4c4d-b2e7-bbf0fd78803f" cx="105.63" cy="88.69" rx="58.3" ry="44.22"/><ellipse class="ce196ce3-1e18-4c4d-b2e7-bbf0fd78803f" cx="105.56" cy="88.69" rx="27.58" ry="20.92"/><polygon class="a9cf7460-89aa-4ab0-935a-efa7e40eed8a" points="34.85 135.39 25.75 135.39 27.92 121.2 37.02 121.2 34.85 135.39"/><polygon class="a9cf7460-89aa-4ab0-935a-efa7e40eed8a" points="43.96 135.39 34.85 135.39 37.02 121.2 46.12 121.2 43.96 135.39"/><polygon class="a9cf7460-89aa-4ab0-935a-efa7e40eed8a" points="53.06 135.39 43.96 135.39 46.12 121.2 55.22 121.2 53.06 135.39"/><line class="a9cf7460-89aa-4ab0-935a-efa7e40eed8a" x1="23.85" y1="142.57" x2="61.18" y2="142.57"/><line class="a9cf7460-89aa-4ab0-935a-efa7e40eed8a" x1="23.37" y1="148.03" x2="42.03" y2="148.03"/><circle class="ce196ce3-1e18-4c4d-b2e7-bbf0fd78803f" cx="155.46" cy="144.81" r="2.98"/><circle class="a9cf7460-89aa-4ab0-935a-efa7e40eed8a" cx="168" cy="144.81" r="2.98"/><circle class="a9cf7460-89aa-4ab0-935a-efa7e40eed8a" cx="180.53" cy="144.81" r="2.98"/><ellipse class="ce196ce3-1e18-4c4d-b2e7-bbf0fd78803f" cx="105.56" cy="88.69" rx="22.25" ry="16.88"/><line class="a9cf7460-89aa-4ab0-935a-efa7e40eed8a" x1="105.56" y1="126.43" x2="105.56" y2="133.96"/><line class="a9cf7460-89aa-4ab0-935a-efa7e40eed8a" x1="105.56" y1="44.46" x2="105.56" y2="52"/><line class="a9cf7460-89aa-4ab0-935a-efa7e40eed8a" x1="57.03" y1="89.21" x2="47.2" y2="89.21"/><line class="a9cf7460-89aa-4ab0-935a-efa7e40eed8a" x1="163.93" y1="89.21" x2="154.1" y2="89.21"/><line class="a9cf7460-89aa-4ab0-935a-efa7e40eed8a" x1="76.38" y1="118.4" x2="70.47" y2="124.31"/><line class="a9cf7460-89aa-4ab0-935a-efa7e40eed8a" x1="140.66" y1="54.12" x2="134.75" y2="60.03"/><line class="a9cf7460-89aa-4ab0-935a-efa7e40eed8a" x1="76.38" y1="60.03" x2="70.47" y2="54.12"/><line class="a9cf7460-89aa-4ab0-935a-efa7e40eed8a" x1="140.66" y1="124.31" x2="134.75" y2="118.4"/><path class="ce196ce3-1e18-4c4d-b2e7-bbf0fd78803f" d="M69.62,149.43a4.6,4.6,0,0,1-2.14-3.53,28.77,28.77,0,0,1,.45-5.91L70,142.85l2.32-4.76L74,143.17l1.66-1.85s2,5.5.55,7.18C74.39,150.65,71.53,150,69.62,149.43Z"/></svg>