<svg id="ebb26a9e-4599-4586-b9cb-7a5cc502eda8" data-name="圖層 1" xmlns="http://www.w3.org/2000/svg" viewBox="0 0 210.63 202"><defs><style>.\35 85478cf-b4c8-4fb5-8ac1-928f9fdf9d9d{fill:none;}.\30 8a10a4f-9973-4251-8d0d-afbe1b5bf95f,.\32 be92ab7-5d08-44c9-81a1-beb96ab4af2d,.\35 85478cf-b4c8-4fb5-8ac1-928f9fdf9d9d{stroke:#515050;stroke-miterlimit:10;stroke-width:2px;}.\30 8a10a4f-9973-4251-8d0d-afbe1b5bf95f{fill:#f6d568;}.\32 be92ab7-5d08-44c9-81a1-beb96ab4af2d{fill:#fff;}</style></defs><title>icon</title><rect class="585478cf-b4c8-4fb5-8ac1-928f9fdf9d9d" x="22.83" y="23.64" width="90.35" height="142.82" rx="2.9" ry="2.9"/><rect class="585478cf-b4c8-4fb5-8ac1-928f9fdf9d9d" x="120.42" y="64.87" width="61.34" height="101.6" rx="3.72" ry="3.72"/><circle class="08a10a4f-9973-4251-8d0d-afbe1b5bf95f" cx="68.88" cy="56.27" r="21.67"/><circle class="585478cf-b4c8-4fb5-8ac1-928f9fdf9d9d" cx="68.88" cy="122.2" r="31.53"/><circle class="08a10a4f-9973-4251-8d0d-afbe1b5bf95f" cx="68.88" cy="122.2" r="11.07"/><circle class="08a10a4f-9973-4251-8d0d-afbe1b5bf95f" cx="150.98" cy="89.38" r="14.83"/><circle class="585478cf-b4c8-4fb5-8ac1-928f9fdf9d9d" cx="150.98" cy="136.15" r="20.64"/><circle class="585478cf-b4c8-4fb5-8ac1-928f9fdf9d9d" cx="150.98" cy="136.15" r="7.25"/><rect class="08a10a4f-9973-4251-8d0d-afbe1b5bf95f" x="22.83" y="167.04" width="90.35" height="11.32"/><rect class="08a10a4f-9973-4251-8d0d-afbe1b5bf95f" x="120.42" y="167.04" width="61.13" height="11.32"/><circle class="08a10a4f-9973-4251-8d0d-afbe1b5bf95f" cx="98.28" cy="159.92" r="2.14"/><circle class="585478cf-b4c8-4fb5-8ac1-928f9fdf9d9d" cx="105.4" cy="159.92" r="2.14"/><circle class="08a10a4f-9973-4251-8d0d-afbe1b5bf95f" cx="164.82" cy="159.92" r="2.14"/><circle class="585478cf-b4c8-4fb5-8ac1-928f9fdf9d9d" cx="171.95" cy="159.92" r="2.14"/><circle class="2be92ab7-5d08-44c9-81a1-beb96ab4af2d" cx="68.88" cy="56.27" r="6.03"/><circle class="2be92ab7-5d08-44c9-81a1-beb96ab4af2d" cx="68.88" cy="122.2" r="5.94"/><circle class="2be92ab7-5d08-44c9-81a1-beb96ab4af2d" cx="150.98" cy="89.38" r="4.55"/><circle class="585478cf-b4c8-4fb5-8ac1-928f9fdf9d9d" cx="150.98" cy="136.15" r="3.47"/><path class="585478cf-b4c8-4fb5-8ac1-928f9fdf9d9d" d="M68.88,85.19a37,37,0,1,1-37,37"/><line class="585478cf-b4c8-4fb5-8ac1-928f9fdf9d9d" x1="39.54" y1="174.82" x2="113.18" y2="174.82"/><line class="585478cf-b4c8-4fb5-8ac1-928f9fdf9d9d" x1="127.6" y1="174.82" x2="181.76" y2="174.82"/></svg>