<svg id="f623e72b-1113-4535-97c6-281263651ca9" data-name="圖層 1" xmlns="http://www.w3.org/2000/svg" viewBox="0 0 210.63 202"><defs><style>.\38 192e574-c451-432d-ac50-dc79327b4c4c{fill:none;}.\32 9feabdd-19e4-4694-9638-38a744716b49,.\38 192e574-c451-432d-ac50-dc79327b4c4c,.c8654f99-1cf7-4dd9-a7b4-d6e9b3a0595c{stroke:#515050;stroke-miterlimit:10;stroke-width:2px;}.\32 9feabdd-19e4-4694-9638-38a744716b49{fill:#f6d568;}.c8654f99-1cf7-4dd9-a7b4-d6e9b3a0595c{fill:#fff;}</style></defs><title>icon</title><rect class="8192e574-c451-432d-ac50-dc79327b4c4c" x="4.28" y="48.23" width="202.7" height="111.2" rx="5.37" ry="5.37"/><path class="8192e574-c451-432d-ac50-dc79327b4c4c" d="M9.55,159.58l3.71,5.83c.6.94,182.45,0,182.45,0l3.12-5.83Z"/><path class="29feabdd-19e4-4694-9638-38a744716b49" d="M165.52,159.44V48.23H10.45A6.17,6.17,0,0,0,4.28,54.4v99.47a5.56,5.56,0,0,0,5.56,5.56Z"/><circle class="8192e574-c451-432d-ac50-dc79327b4c4c" cx="186.56" cy="117.89" r="10.42" transform="translate(61.65 299.83) rotate(-87.82)"/><path class="8192e574-c451-432d-ac50-dc79327b4c4c" d="M186.56,102.16s17,.77,15.75,16.78c-1.2,15.46-15.75,14.74-15.75,14.74s-10.74-.6-14-8"/><path class="c8654f99-1cf7-4dd9-a7b4-d6e9b3a0595c" d="M14.18,152.23H155.62s-1.54-30.64-1.54-45.86,1.54-47.57,1.54-47.57H14.18Z"/><rect class="8192e574-c451-432d-ac50-dc79327b4c4c" x="20.01" y="63.87" width="128.4" height="83.06"/><circle class="8192e574-c451-432d-ac50-dc79327b4c4c" cx="186.56" cy="117.89" r="6" transform="translate(61.65 299.83) rotate(-87.82)"/><rect class="8192e574-c451-432d-ac50-dc79327b4c4c" x="170.82" y="57.24" width="7.32" height="11.42"/><rect class="8192e574-c451-432d-ac50-dc79327b4c4c" x="178.14" y="57.24" width="7.32" height="11.42"/><rect class="8192e574-c451-432d-ac50-dc79327b4c4c" x="185.46" y="57.24" width="7.32" height="11.42"/><rect class="8192e574-c451-432d-ac50-dc79327b4c4c" x="192.78" y="57.24" width="7.32" height="11.42"/><line class="8192e574-c451-432d-ac50-dc79327b4c4c" x1="169.73" y1="74.74" x2="201.39" y2="74.74"/><line class="8192e574-c451-432d-ac50-dc79327b4c4c" x1="169.73" y1="79.37" x2="185.56" y2="79.37"/><polyline class="8192e574-c451-432d-ac50-dc79327b4c4c" points="37.69 63.87 37.69 125.35 20.01 146.93"/><polyline class="8192e574-c451-432d-ac50-dc79327b4c4c" points="37.69 125.35 130.87 125.35 130.87 63.87"/><line class="8192e574-c451-432d-ac50-dc79327b4c4c" x1="148.41" y1="146.93" x2="130.68" y2="125.13"/><path class="c8654f99-1cf7-4dd9-a7b4-d6e9b3a0595c" d="M143.06,134.26c0,5.15-26.16,9.32-60.94,9.32s-58.91-4.17-58.91-9.32,28.19-9.32,63-9.32S143.06,129.11,143.06,134.26Z"/><path class="c8654f99-1cf7-4dd9-a7b4-d6e9b3a0595c" d="M139.74,128.8c0,4.86-24.71,8.81-57.57,8.81s-55.65-3.94-55.65-8.81S49.32,120,82.17,120,139.74,123.94,139.74,128.8Z"/><circle class="29feabdd-19e4-4694-9638-38a744716b49" cx="173.18" cy="152.28" r="2.36"/><circle class="8192e574-c451-432d-ac50-dc79327b4c4c" cx="181.07" cy="152.28" r="2.36"/><circle class="8192e574-c451-432d-ac50-dc79327b4c4c" cx="189.01" cy="152.28" r="2.36"/><circle class="29feabdd-19e4-4694-9638-38a744716b49" cx="172.74" cy="125.76" r="1.92"/></svg>