<svg id="35df481b-5c2f-4ead-b0ae-05b42e2d9c47" data-name="圖層 1" xmlns="http://www.w3.org/2000/svg" viewBox="0 0 210.63 202"><defs><style>.\31 f4f7cad-4e74-4d11-af90-b50b043e93f9,.eb8ee590-eccc-4d25-8c07-295b19520c0a{fill:none;}.\31 f4f7cad-4e74-4d11-af90-b50b043e93f9,.\36 90caca2-75ae-489c-8e33-4965f11c0fbc,.afedf27d-34b0-498d-bfce-3d7def3685d7,.eb8ee590-eccc-4d25-8c07-295b19520c0a,.ed20faaa-030b-48d8-a196-ea2dcd53bbbc{stroke:#515050;stroke-miterlimit:10;}.\31 f4f7cad-4e74-4d11-af90-b50b043e93f9,.\36 90caca2-75ae-489c-8e33-4965f11c0fbc,.ed20faaa-030b-48d8-a196-ea2dcd53bbbc{stroke-width:2px;}.ed20faaa-030b-48d8-a196-ea2dcd53bbbc{fill:#fff;}.\36 90caca2-75ae-489c-8e33-4965f11c0fbc,.afedf27d-34b0-498d-bfce-3d7def3685d7{fill:#f6d568;}</style></defs><title>icon</title><rect class="1f4f7cad-4e74-4d11-af90-b50b043e93f9" x="100.21" y="147.97" width="8.9" height="8.9"/><polygon class="ed20faaa-030b-48d8-a196-ea2dcd53bbbc" points="67.05 154.44 63.82 162.44 144.69 162.44 141.45 154.44 67.05 154.44"/><polygon class="1f4f7cad-4e74-4d11-af90-b50b043e93f9" points="64.64 166.44 63.82 162.44 144.69 162.44 143.87 166.44 64.64 166.44"/><path class="ed20faaa-030b-48d8-a196-ea2dcd53bbbc" d="M97.48,143.12h14.35v1.62l-2.15,2.43.24,10.51a19.43,19.43,0,0,1-10.52,0V147.17l-1.91-1.62Z"/><rect class="ed20faaa-030b-48d8-a196-ea2dcd53bbbc" x="10.38" y="35.57" width="187.74" height="111.6"/><rect class="690caca2-75ae-489c-8e33-4965f11c0fbc" x="19.18" y="41.9" width="170.14" height="98.13"/><line class="1f4f7cad-4e74-4d11-af90-b50b043e93f9" x1="102.98" y1="150.36" x2="102.98" y2="158.53"/><circle class="afedf27d-34b0-498d-bfce-3d7def3685d7" cx="184.04" cy="143.56" r="1.22"/><circle class="eb8ee590-eccc-4d25-8c07-295b19520c0a" cx="188.11" cy="143.56" r="1.22"/></svg>