<svg id="圖層_1" data-name="圖層 1" xmlns="http://www.w3.org/2000/svg" viewBox="0 0 210.63 202"><defs><style>.cls-1{fill:#fff;}.cls-1,.cls-2,.cls-3{stroke:#515050;stroke-miterlimit:10;stroke-width:2px;}.cls-2{fill:#f6d568;}.cls-3{fill:none;}</style></defs><title>icon</title><rect class="cls-1" x="28.14" y="73.65" width="148.39" height="82.26"/><path class="cls-2" d="M28.14,155.91H176.53a0,0,0,0,1,0,0v7.38a6.3,6.3,0,0,1-6.3,6.3H34.44a6.3,6.3,0,0,1-6.3-6.3v-7.38A0,0,0,0,1,28.14,155.91Z"/><path class="cls-1" d="M171.66,79H32.72c-3.26,0-5.54-4.24-4.44-8.27l6-22c.67-2.46,2.45-4.1,4.45-4.1H165.66c2,0,3.77,1.64,4.44,4.1l6,22C177.21,74.74,174.93,79,171.66,79Z"/><polygon class="cls-2" points="47.58 50.55 45.95 57.03 154.72 57.03 153.09 50.55 47.58 50.55"/><polygon class="cls-2" points="44.99 65.39 43.26 72.25 158.49 72.25 156.75 65.39 44.99 65.39"/><rect class="cls-1" x="176.53" y="126.84" width="7.19" height="6.82"/><rect class="cls-2" x="183.72" y="124.82" width="10.87" height="10.87"/><circle class="cls-3" cx="149.11" cy="132.82" r="9.51"/><circle class="cls-3" cx="149.11" cy="132.82" r="15.01"/><line class="cls-3" x1="160.93" y1="123.58" x2="149.11" y2="132.82"/><circle class="cls-3" cx="110.27" cy="132.82" r="9.51"/><circle class="cls-3" cx="110.27" cy="132.82" r="15.01"/><line class="cls-3" x1="101.02" y1="121" x2="110.27" y2="132.82"/><circle class="cls-2" cx="44.84" cy="117.03" r="2.65"/><circle class="cls-3" cx="44.84" cy="129.96" r="2.65"/><circle class="cls-3" cx="44.84" cy="142.9" r="2.65"/><line class="cls-3" x1="28.14" y1="86.15" x2="143.46" y2="86.15"/><line class="cls-3" x1="47.58" y1="50.55" x2="50.29" y2="57.03"/><line class="cls-3" x1="44.99" y1="65.39" x2="47.42" y2="72.94"/><line class="cls-3" x1="153.09" y1="50.55" x2="149.48" y2="57.03"/><line class="cls-3" x1="156.76" y1="65.39" x2="153.02" y2="72.25"/></svg>