<svg id="f0a70366-054c-4412-91b1-821d732b9b90" data-name="圖層 1" xmlns="http://www.w3.org/2000/svg" viewBox="0 0 210.63 202"><defs><style>.\39 7f728df-3cf6-4cb2-b7be-4aa0cf349088{fill:#f6d568;}.\39 7f728df-3cf6-4cb2-b7be-4aa0cf349088,.bba046a6-2fb5-4333-98e0-99d5e113fdd0,.ec2336d4-8a39-43e3-81e5-12991274cce3{stroke:#515050;stroke-miterlimit:10;stroke-width:2px;}.bba046a6-2fb5-4333-98e0-99d5e113fdd0{fill:#fff;}.ec2336d4-8a39-43e3-81e5-12991274cce3{fill:none;}</style></defs><title>icon</title><rect class="97f728df-3cf6-4cb2-b7be-4aa0cf349088" x="12.19" y="112.45" width="186.71" height="24.12"/><rect class="bba046a6-2fb5-4333-98e0-99d5e113fdd0" x="98.66" y="117.94" width="58.64" height="13.13"/><rect class="ec2336d4-8a39-43e3-81e5-12991274cce3" x="19.26" y="97.98" width="100.04" height="7.21"/><rect class="ec2336d4-8a39-43e3-81e5-12991274cce3" x="9.82" y="89.17" width="191.46" height="23.18"/><path class="bba046a6-2fb5-4333-98e0-99d5e113fdd0" d="M17.11,81.28H194a4.92,4.92,0,0,1,4.92,4.92v3a0,0,0,0,1,0,0H12.19a0,0,0,0,1,0,0v-3A4.92,4.92,0,0,1,17.11,81.28Z"/><line class="ec2336d4-8a39-43e3-81e5-12991274cce3" x1="21.67" y1="130.08" x2="89.26" y2="130.08"/><line class="ec2336d4-8a39-43e3-81e5-12991274cce3" x1="105.54" y1="124.51" x2="113.36" y2="124.51"/><line class="ec2336d4-8a39-43e3-81e5-12991274cce3" x1="138.23" y1="124.51" x2="146.04" y2="124.51"/><line class="ec2336d4-8a39-43e3-81e5-12991274cce3" x1="118.04" y1="124.51" x2="132" y2="124.51"/><circle class="97f728df-3cf6-4cb2-b7be-4aa0cf349088" cx="129.39" cy="101.58" r="2.61"/><circle class="ec2336d4-8a39-43e3-81e5-12991274cce3" cx="142.13" cy="101.58" r="2.61"/><circle class="ec2336d4-8a39-43e3-81e5-12991274cce3" cx="154.87" cy="101.58" r="2.61"/><circle class="bba046a6-2fb5-4333-98e0-99d5e113fdd0" cx="174.04" cy="108.71" r="12.57" transform="translate(58.79 278.49) rotate(-87.82)"/><circle class="bba046a6-2fb5-4333-98e0-99d5e113fdd0" cx="174.04" cy="108.71" r="7.24" transform="translate(58.79 278.49) rotate(-87.82)"/></svg>