<svg id="e62cb2c7-c53f-4d4d-9c8b-7ce88f41301e" data-name="圖層 1" xmlns="http://www.w3.org/2000/svg" viewBox="0 0 210.63 202"><defs><style>.\38 37d5541-465e-4c72-b90d-1b86aa998065{fill:#fff;}.\34 06d5ce3-1e81-4529-a740-ddad2963eacf,.\36 1557e60-ea6d-48e9-9b69-5a130bf46075,.\38 37d5541-465e-4c72-b90d-1b86aa998065{stroke:#515050;stroke-miterlimit:10;stroke-width:2px;}.\34 06d5ce3-1e81-4529-a740-ddad2963eacf{fill:#f6d568;}.\36 1557e60-ea6d-48e9-9b69-5a130bf46075{fill:none;}</style></defs><title>icon</title><rect class="837d5541-465e-4c72-b90d-1b86aa998065" x="15.82" y="125.73" width="69.12" height="53.54"/><rect class="837d5541-465e-4c72-b90d-1b86aa998065" x="15.82" y="125.73" width="69.12" height="53.54"/><rect class="837d5541-465e-4c72-b90d-1b86aa998065" x="15.82" y="112.84" width="69.12" height="12.89"/><rect class="406d5ce3-1e81-4529-a740-ddad2963eacf" x="15.82" y="112.84" width="69.12" height="12.89"/><rect class="837d5541-465e-4c72-b90d-1b86aa998065" x="15.82" y="107.96" width="69.12" height="5.09"/><rect class="837d5541-465e-4c72-b90d-1b86aa998065" x="15.82" y="82.55" width="69.12" height="25.4"/><rect class="837d5541-465e-4c72-b90d-1b86aa998065" x="15.82" y="29.8" width="69.12" height="52.96"/><rect class="837d5541-465e-4c72-b90d-1b86aa998065" x="21.88" y="45.35" width="57.01" height="4.65"/><rect class="837d5541-465e-4c72-b90d-1b86aa998065" x="21.88" y="56.28" width="57.01" height="4.65"/><line class="61557e60-ea6d-48e9-9b69-5a130bf46075" x1="21.88" y1="39.69" x2="62.68" y2="39.69"/><circle class="406d5ce3-1e81-4529-a740-ddad2963eacf" cx="24.32" cy="90.08" r="2.44"/><circle class="61557e60-ea6d-48e9-9b69-5a130bf46075" cx="32.46" cy="90.08" r="2.44"/><circle class="61557e60-ea6d-48e9-9b69-5a130bf46075" cx="40.67" cy="90.08" r="2.44"/><circle class="837d5541-465e-4c72-b90d-1b86aa998065" cx="66.94" cy="128.98" r="10.76" transform="translate(-64.49 190.96) rotate(-87.82)"/><circle class="406d5ce3-1e81-4529-a740-ddad2963eacf" cx="66.94" cy="128.98" r="6.2" transform="translate(-64.49 190.96) rotate(-87.82)"/><line class="61557e60-ea6d-48e9-9b69-5a130bf46075" x1="15.82" y1="172.95" x2="69.47" y2="172.95"/><rect class="61557e60-ea6d-48e9-9b69-5a130bf46075" x="133.13" y="164.83" width="8.07" height="6.52"/><polygon class="61557e60-ea6d-48e9-9b69-5a130bf46075" points="100.86 179.04 100.11 173.02 173.49 173.02 172.75 179.04 100.86 179.04"/><path class="837d5541-465e-4c72-b90d-1b86aa998065" d="M130.66,158.48h13V160l-2,2.22.22,9.63a17.47,17.47,0,0,1-9.55,0v-9.63l-1.74-1.48Z"/><rect class="837d5541-465e-4c72-b90d-1b86aa998065" x="75.78" y="78.26" width="121.31" height="82.29"/><rect class="406d5ce3-1e81-4529-a740-ddad2963eacf" x="83.33" y="86.09" width="106.21" height="67.02"/></svg>