<svg id="334e7eff-e774-4985-99fb-d7303fbe6c6c" data-name="圖層 1" xmlns="http://www.w3.org/2000/svg" viewBox="0 0 210.63 202"><defs><style>.f09aebbc-dade-4bfe-8f35-d2bf89b25961{fill:#f6d568;}.\38 e72c290-d903-42d3-abc8-b23cb52ffd89,.b1af1052-5607-443f-869d-028f0cc0e2f0,.f09aebbc-dade-4bfe-8f35-d2bf89b25961{stroke:#515050;stroke-miterlimit:10;stroke-width:2px;}.b1af1052-5607-443f-869d-028f0cc0e2f0{fill:#fff;}.\38 e72c290-d903-42d3-abc8-b23cb52ffd89{fill:none;}</style></defs><title>icon</title><rect class="f09aebbc-dade-4bfe-8f35-d2bf89b25961" x="20.96" y="123.57" width="167.61" height="24.73"/><polygon class="b1af1052-5607-443f-869d-028f0cc0e2f0" points="188.57 123.57 20.96 123.57 20.96 43.6 187.57 43.6 188.57 123.57"/><rect class="b1af1052-5607-443f-869d-028f0cc0e2f0" x="20.96" y="148.34" width="167.61" height="7.64"/><circle class="b1af1052-5607-443f-869d-028f0cc0e2f0" cx="58.04" cy="91.3" r="23.72"/><circle class="f09aebbc-dade-4bfe-8f35-d2bf89b25961" cx="58.04" cy="91.3" r="17.52"/><circle class="f09aebbc-dade-4bfe-8f35-d2bf89b25961" cx="58.04" cy="91.3" r="3.68"/><circle class="b1af1052-5607-443f-869d-028f0cc0e2f0" cx="149.74" cy="91.3" r="23.72"/><circle class="f09aebbc-dade-4bfe-8f35-d2bf89b25961" cx="149.74" cy="91.3" r="17.52"/><circle class="f09aebbc-dade-4bfe-8f35-d2bf89b25961" cx="149.74" cy="91.3" r="4.26"/><path class="b1af1052-5607-443f-869d-028f0cc0e2f0" d="M21,42.55C13.82,42.55,13.82,76,13.82,76H196.19s-.39-33.44-8.62-33.44Z"/><rect class="b1af1052-5607-443f-869d-028f0cc0e2f0" x="13.82" y="75.99" width="182.37" height="6.74"/><circle class="f09aebbc-dade-4bfe-8f35-d2bf89b25961" cx="152.49" cy="62.02" r="2.75"/><circle class="8e72c290-d903-42d3-abc8-b23cb52ffd89" cx="161.77" cy="62.02" r="2.75"/><circle class="8e72c290-d903-42d3-abc8-b23cb52ffd89" cx="171.05" cy="62.02" r="2.75"/><circle class="8e72c290-d903-42d3-abc8-b23cb52ffd89" cx="180.34" cy="62.02" r="2.75"/><polygon class="b1af1052-5607-443f-869d-028f0cc0e2f0" points="189.57 161.5 19.96 161.5 20.96 156.02 188.57 156.02 189.57 161.5"/><polygon class="b1af1052-5607-443f-869d-028f0cc0e2f0" points="13.82 82.74 20.96 155.98 20.96 82.74 13.82 82.74"/><polygon class="b1af1052-5607-443f-869d-028f0cc0e2f0" points="195.71 82.74 188.57 155.98 188.57 82.74 195.71 82.74"/><line class="8e72c290-d903-42d3-abc8-b23cb52ffd89" x1="20.96" y1="129" x2="155.24" y2="129"/></svg>