<svg id="6ace4d15-1736-470e-bfa2-857e94daf63b" data-name="圖層 1" xmlns="http://www.w3.org/2000/svg" viewBox="0 0 210.63 202"><defs><style>.ecc34afe-2d8e-49b6-8fd8-8654580439e2{fill:none;}.\31 e72d13e-cf27-424f-9f70-5984faaeef59,.\33 c7b2f07-4440-4e29-91f4-f230e30a2545,.ecc34afe-2d8e-49b6-8fd8-8654580439e2{stroke:#515050;stroke-miterlimit:10;stroke-width:2px;}.\33 c7b2f07-4440-4e29-91f4-f230e30a2545{fill:#f6d568;}.\31 e72d13e-cf27-424f-9f70-5984faaeef59{fill:#fff;}</style></defs><title>icon</title><rect class="ecc34afe-2d8e-49b6-8fd8-8654580439e2" x="22.83" y="23.64" width="90.35" height="142.82" rx="2.9" ry="2.9"/><rect class="ecc34afe-2d8e-49b6-8fd8-8654580439e2" x="120.42" y="64.87" width="61.34" height="101.6" rx="3.72" ry="3.72"/><circle class="3c7b2f07-4440-4e29-91f4-f230e30a2545" cx="68.88" cy="56.27" r="21.67"/><circle class="ecc34afe-2d8e-49b6-8fd8-8654580439e2" cx="68.88" cy="122.2" r="31.53"/><circle class="3c7b2f07-4440-4e29-91f4-f230e30a2545" cx="68.88" cy="122.2" r="11.07"/><circle class="3c7b2f07-4440-4e29-91f4-f230e30a2545" cx="150.98" cy="89.38" r="14.83"/><circle class="ecc34afe-2d8e-49b6-8fd8-8654580439e2" cx="150.98" cy="136.15" r="20.64"/><circle class="ecc34afe-2d8e-49b6-8fd8-8654580439e2" cx="150.98" cy="136.15" r="7.25"/><rect class="3c7b2f07-4440-4e29-91f4-f230e30a2545" x="22.83" y="167.04" width="90.35" height="11.32"/><rect class="3c7b2f07-4440-4e29-91f4-f230e30a2545" x="120.42" y="167.04" width="61.13" height="11.32"/><circle class="3c7b2f07-4440-4e29-91f4-f230e30a2545" cx="98.28" cy="159.92" r="2.14"/><circle class="ecc34afe-2d8e-49b6-8fd8-8654580439e2" cx="105.4" cy="159.92" r="2.14"/><circle class="3c7b2f07-4440-4e29-91f4-f230e30a2545" cx="164.82" cy="159.92" r="2.14"/><circle class="ecc34afe-2d8e-49b6-8fd8-8654580439e2" cx="171.95" cy="159.92" r="2.14"/><circle class="1e72d13e-cf27-424f-9f70-5984faaeef59" cx="68.88" cy="56.27" r="6.03"/><circle class="1e72d13e-cf27-424f-9f70-5984faaeef59" cx="68.88" cy="122.2" r="5.94"/><circle class="1e72d13e-cf27-424f-9f70-5984faaeef59" cx="150.98" cy="89.38" r="4.55"/><circle class="ecc34afe-2d8e-49b6-8fd8-8654580439e2" cx="150.98" cy="136.15" r="3.47"/><path class="ecc34afe-2d8e-49b6-8fd8-8654580439e2" d="M68.88,85.19a37,37,0,1,1-37,37"/><line class="ecc34afe-2d8e-49b6-8fd8-8654580439e2" x1="39.54" y1="174.82" x2="113.18" y2="174.82"/><line class="ecc34afe-2d8e-49b6-8fd8-8654580439e2" x1="127.6" y1="174.82" x2="181.76" y2="174.82"/></svg>