<svg id="517b2ac1-5b7a-4bbe-b581-a7fa47c04a6d" data-name="圖層 1" xmlns="http://www.w3.org/2000/svg" viewBox="0 0 210.63 202"><defs><style>.\38 11fa48d-5241-49d4-b5a6-381f9acb865e{fill:none;}.\38 11fa48d-5241-49d4-b5a6-381f9acb865e,.d8eb761c-4352-4601-90cc-07a086bf4949{stroke:#515050;stroke-miterlimit:10;stroke-width:2px;}.d8eb761c-4352-4601-90cc-07a086bf4949{fill:#f6d568;}</style></defs><title>icon</title><rect class="811fa48d-5241-49d4-b5a6-381f9acb865e" x="42.75" y="14.76" width="123.52" height="171.82"/><rect class="d8eb761c-4352-4601-90cc-07a086bf4949" x="42.75" y="186.57" width="123.52" height="6.43"/><circle class="811fa48d-5241-49d4-b5a6-381f9acb865e" cx="104.85" cy="104.67" r="56.48"/><circle class="811fa48d-5241-49d4-b5a6-381f9acb865e" cx="104.85" cy="104.67" r="50.53"/><circle class="d8eb761c-4352-4601-90cc-07a086bf4949" cx="104.85" cy="104.67" r="43.16"/><rect class="811fa48d-5241-49d4-b5a6-381f9acb865e" x="51.52" y="164.27" width="28.26" height="21.78"/><polyline class="811fa48d-5241-49d4-b5a6-381f9acb865e" points="42.75 45.78 61.7 45.78 72.51 40.18 139.92 40.18 149.37 45.07 166.27 45.07"/><circle class="811fa48d-5241-49d4-b5a6-381f9acb865e" cx="104.85" cy="27.03" r="8.82" transform="translate(73.85 130.78) rotate(-87.82)"/><circle class="811fa48d-5241-49d4-b5a6-381f9acb865e" cx="104.85" cy="27.03" r="5.08" transform="translate(73.85 130.78) rotate(-87.82)"/><polygon class="d8eb761c-4352-4601-90cc-07a086bf4949" points="49.41 28.6 81.77 28.6 79.79 35.02 51.52 35.02 49.41 28.6"/><circle class="d8eb761c-4352-4601-90cc-07a086bf4949" cx="125.6" cy="32.2" r="2.61"/><circle class="811fa48d-5241-49d4-b5a6-381f9acb865e" cx="134.4" cy="32.2" r="2.61"/><circle class="811fa48d-5241-49d4-b5a6-381f9acb865e" cx="143.21" cy="32.2" r="2.61"/><circle class="811fa48d-5241-49d4-b5a6-381f9acb865e" cx="152.01" cy="32.2" r="2.61"/><circle class="811fa48d-5241-49d4-b5a6-381f9acb865e" cx="104.85" cy="96.67" r="34.11"/><line class="811fa48d-5241-49d4-b5a6-381f9acb865e" x1="87.15" y1="181.41" x2="166.27" y2="181.41"/><line class="811fa48d-5241-49d4-b5a6-381f9acb865e" x1="62.3" y1="167.81" x2="69.01" y2="167.81"/></svg>