<svg id="7ff74bf5-ba04-4a4c-a39f-7a6a6ea50458" data-name="圖層 1" xmlns="http://www.w3.org/2000/svg" viewBox="0 0 210.63 202"><defs><style>.\37 bbd33f5-aeb3-4c97-8107-d27ac9f2e5a3{fill:none;}.\32 f60c24c-868f-4c46-8226-abe9bce010dc,.\36 95d7e46-ce0c-4179-90b3-dc74dae5760d,.\37 bbd33f5-aeb3-4c97-8107-d27ac9f2e5a3{stroke:#515050;stroke-miterlimit:10;stroke-width:2px;}.\36 95d7e46-ce0c-4179-90b3-dc74dae5760d{fill:#f6d568;}.\32 f60c24c-868f-4c46-8226-abe9bce010dc{fill:#fff;}</style></defs><title>icon</title><rect class="7bbd33f5-aeb3-4c97-8107-d27ac9f2e5a3" x="40.43" y="14.73" width="132.67" height="168.3" rx="6.77" ry="6.77"/><rect class="7bbd33f5-aeb3-4c97-8107-d27ac9f2e5a3" x="60.81" y="183.02" width="13" height="6.17"/><rect class="7bbd33f5-aeb3-4c97-8107-d27ac9f2e5a3" x="145.31" y="183.02" width="13" height="6.17"/><path class="695d7e46-ce0c-4179-90b3-dc74dae5760d" d="M109.79,169.17h52.65V68.48s1.82-26.79-26.79-26.79c-25.93,0-25.86,23.92-25.86,23.92Z"/><circle class="2f60c24c-868f-4c46-8226-abe9bce010dc" cx="136.12" cy="68.48" r="12.31"/><circle class="7bbd33f5-aeb3-4c97-8107-d27ac9f2e5a3" cx="136.09" cy="68.48" r="22.09"/><rect class="7bbd33f5-aeb3-4c97-8107-d27ac9f2e5a3" x="173.11" y="31.69" width="6.59" height="21.78"/><path class="7bbd33f5-aeb3-4c97-8107-d27ac9f2e5a3" d="M136.09,51.5a17,17,0,1,1-17,17"/><line class="7bbd33f5-aeb3-4c97-8107-d27ac9f2e5a3" x1="47.64" y1="177.36" x2="172.61" y2="177.36"/><rect class="695d7e46-ce0c-4179-90b3-dc74dae5760d" x="59.7" y="189.19" width="15.21" height="3.71"/><rect class="695d7e46-ce0c-4179-90b3-dc74dae5760d" x="144.2" y="189.19" width="15.21" height="3.71"/><line class="7bbd33f5-aeb3-4c97-8107-d27ac9f2e5a3" x1="136.09" y1="68.48" x2="131.54" y2="80.76"/><circle class="695d7e46-ce0c-4179-90b3-dc74dae5760d" cx="116.54" cy="161.97" r="2.55"/><circle class="2f60c24c-868f-4c46-8226-abe9bce010dc" cx="125.03" cy="161.97" r="2.55"/><circle class="2f60c24c-868f-4c46-8226-abe9bce010dc" cx="133.58" cy="161.97" r="2.55"/><rect class="2f60c24c-868f-4c46-8226-abe9bce010dc" x="114" y="149.36" width="39.07" height="4.38"/><line class="7bbd33f5-aeb3-4c97-8107-d27ac9f2e5a3" x1="114" y1="144.07" x2="141.97" y2="144.07"/><rect class="2f60c24c-868f-4c46-8226-abe9bce010dc" x="49.56" y="42.18" width="22.38" height="86.09"/><rect class="2f60c24c-868f-4c46-8226-abe9bce010dc" x="57.62" y="69.62" width="6.26" height="51.03"/><path class="695d7e46-ce0c-4179-90b3-dc74dae5760d" d="M58.14,58.38s-.27-2.72,1-4.29,1.69-1.18,2.13-2.48c0,0,.34,4.32,1.52,4.88s1.5,3.85.52,4.51a5.32,5.32,0,0,1-5.18,1C55.28,61.25,58.14,58.38,58.14,58.38Z"/><path class="695d7e46-ce0c-4179-90b3-dc74dae5760d" d="M58.87,59.2c-.07-1.66-3.37-4.85-3.37-4.85,0,.64-1.22,3.83,0,7.43,1.32,3.79,4,3.42,4,3.42a14.67,14.67,0,0,1,3.61-1.29c2.82-.77,2-6.81,3.38-9.12a4.65,4.65,0,0,0-3.81,3.55"/><rect class="695d7e46-ce0c-4179-90b3-dc74dae5760d" x="57.74" y="87.13" width="6.13" height="33.36"/></svg>