<svg id="419d21ba-a24d-49fc-a378-1a0aae19f47f" data-name="圖層 1" xmlns="http://www.w3.org/2000/svg" viewBox="0 0 210.63 202"><defs><style>.\34 34aaafe-50b2-4259-8a09-e2b5a6b5b99c{fill:none;}.\34 34aaafe-50b2-4259-8a09-e2b5a6b5b99c,.\39 31d9c7a-95a2-4154-914e-8b60826d3c3f{stroke:#515050;stroke-miterlimit:10;stroke-width:2px;}.\39 31d9c7a-95a2-4154-914e-8b60826d3c3f{fill:#f6d568;}</style></defs><title>icon</title><rect class="434aaafe-50b2-4259-8a09-e2b5a6b5b99c" x="42.75" y="14.76" width="123.52" height="171.82"/><rect class="931d9c7a-95a2-4154-914e-8b60826d3c3f" x="42.75" y="186.57" width="123.52" height="6.43"/><circle class="434aaafe-50b2-4259-8a09-e2b5a6b5b99c" cx="104.85" cy="104.67" r="56.48"/><circle class="434aaafe-50b2-4259-8a09-e2b5a6b5b99c" cx="104.85" cy="104.67" r="50.53"/><circle class="931d9c7a-95a2-4154-914e-8b60826d3c3f" cx="104.85" cy="104.67" r="43.16"/><rect class="434aaafe-50b2-4259-8a09-e2b5a6b5b99c" x="51.52" y="164.27" width="28.26" height="21.78"/><polyline class="434aaafe-50b2-4259-8a09-e2b5a6b5b99c" points="42.75 45.78 61.7 45.78 72.51 40.18 139.92 40.18 149.37 45.07 166.27 45.07"/><circle class="434aaafe-50b2-4259-8a09-e2b5a6b5b99c" cx="104.85" cy="27.03" r="8.82" transform="translate(73.85 130.78) rotate(-87.82)"/><circle class="434aaafe-50b2-4259-8a09-e2b5a6b5b99c" cx="104.85" cy="27.03" r="5.08" transform="translate(73.85 130.78) rotate(-87.82)"/><polygon class="931d9c7a-95a2-4154-914e-8b60826d3c3f" points="49.41 28.6 81.77 28.6 79.79 35.02 51.52 35.02 49.41 28.6"/><circle class="931d9c7a-95a2-4154-914e-8b60826d3c3f" cx="125.6" cy="32.2" r="2.61"/><circle class="434aaafe-50b2-4259-8a09-e2b5a6b5b99c" cx="134.4" cy="32.2" r="2.61"/><circle class="434aaafe-50b2-4259-8a09-e2b5a6b5b99c" cx="143.21" cy="32.2" r="2.61"/><circle class="434aaafe-50b2-4259-8a09-e2b5a6b5b99c" cx="152.01" cy="32.2" r="2.61"/><circle class="434aaafe-50b2-4259-8a09-e2b5a6b5b99c" cx="104.85" cy="96.67" r="34.11"/><line class="434aaafe-50b2-4259-8a09-e2b5a6b5b99c" x1="87.15" y1="181.41" x2="166.27" y2="181.41"/><line class="434aaafe-50b2-4259-8a09-e2b5a6b5b99c" x1="62.3" y1="167.81" x2="69.01" y2="167.81"/></svg>