<svg id="圖層_1" data-name="圖層 1" xmlns="http://www.w3.org/2000/svg" viewBox="0 0 210.63 202"><defs><style>.cls-1{fill:#fff;}.cls-1,.cls-2,.cls-3{stroke:#515050;stroke-miterlimit:10;stroke-width:2px;}.cls-2{fill:#f6d568;}.cls-3{fill:none;}</style></defs><title>icon</title><rect class="cls-1" x="15.9" y="110.23" width="179.28" height="34.32"/><circle class="cls-2" cx="157.74" cy="120.75" r="2.82"/><circle class="cls-3" cx="171.49" cy="120.75" r="2.82"/><circle class="cls-3" cx="185.23" cy="120.75" r="2.82"/><circle class="cls-3" cx="37.84" cy="128" r="9.43"/><circle class="cls-3" cx="37.84" cy="128" r="5.43"/><circle class="cls-3" cx="65.75" cy="128" r="9.43"/><circle class="cls-3" cx="65.75" cy="128" r="5.43"/><path class="cls-2" d="M23,104.92H188a4.92,4.92,0,0,1,4.92,4.92v.39a0,0,0,0,1,0,0H18.13a0,0,0,0,1,0,0v-.39A4.92,4.92,0,0,1,23,104.92Z"/><rect class="cls-1" x="18.13" y="144.55" width="174.83" height="5.7"/><rect class="cls-3" x="86.72" y="119.19" width="56.87" height="17.62"/><line class="cls-3" x1="161.29" y1="130.41" x2="189.17" y2="130.41"/><rect class="cls-2" x="138.85" y="119.19" width="4.74" height="17.62"/><rect class="cls-3" x="86.72" y="119.19" width="8.12" height="17.62"/><rect class="cls-3" x="103.06" y="119.19" width="8.12" height="17.62"/><rect class="cls-3" x="166.48" y="135.3" width="21.57" height="3.64"/></svg>