<svg id="1149b16a-750f-4899-b847-d7d0797fa5e7" data-name="圖層 1" xmlns="http://www.w3.org/2000/svg" viewBox="0 0 853.34 1284.96"><defs><style>.c1bce8e3-fc6b-4dad-ae59-7ddfe2fa81d1,.c84327b4-72f6-4928-a5e5-11d89219a0cf,.cbceeb7a-09dc-4670-981c-52599c8e25ce{fill:#f6d568;}.\32 5ca0e1b-4d8f-4026-8d8f-198a503d09f0,.\36 f541e26-fd9a-4926-b38e-34f5b13579ff,.c1bce8e3-fc6b-4dad-ae59-7ddfe2fa81d1,.c84327b4-72f6-4928-a5e5-11d89219a0cf,.cc59c3ce-1b16-43a7-ad77-29d3b97f6c51,.e7c9abb7-12a9-4f62-af18-2243014d47c9,.edf7334c-ecab-4c1d-afcf-a2fb80c151a8{stroke:#515050;}.\31 aa363c1-600c-4aee-a21d-5fc7a2f3ecb1,.\32 5ca0e1b-4d8f-4026-8d8f-198a503d09f0,.\36 f541e26-fd9a-4926-b38e-34f5b13579ff,.\37 24a4bd9-8380-4bed-828f-fce85f724783,.c84327b4-72f6-4928-a5e5-11d89219a0cf,.cbceeb7a-09dc-4670-981c-52599c8e25ce,.e7c9abb7-12a9-4f62-af18-2243014d47c9{stroke-miterlimit:10;}.fcfbdc5f-affd-49a6-aaa0-f0cb32c30d78{fill:#eeb645;opacity:0.99;}.\32 5ca0e1b-4d8f-4026-8d8f-198a503d09f0,.\37 24a4bd9-8380-4bed-828f-fce85f724783,.\39 b4c69e8-7239-4097-ad35-4f1391ae21a8,.edf7334c-ecab-4c1d-afcf-a2fb80c151a8{fill:none;}.\31 aa363c1-600c-4aee-a21d-5fc7a2f3ecb1,.\36 f541e26-fd9a-4926-b38e-34f5b13579ff,.cc59c3ce-1b16-43a7-ad77-29d3b97f6c51{fill:#fff;}.\34 f054361-192a-466e-9674-2fdf92d99dc3{font-size:16px;}.\34 f054361-192a-466e-9674-2fdf92d99dc3,.eb14a840-fbd7-4b72-8b8e-60d784a78c00{fill:#231815;font-family:PingFangTC-Regular-B5pc-H, PingFang TC;letter-spacing:0.17em;}.eb14a840-fbd7-4b72-8b8e-60d784a78c00{font-size:8px;}.\31 aa363c1-600c-4aee-a21d-5fc7a2f3ecb1,.\37 24a4bd9-8380-4bed-828f-fce85f724783,.cbceeb7a-09dc-4670-981c-52599c8e25ce{stroke:#231815;}.e7c9abb7-12a9-4f62-af18-2243014d47c9{fill:#515050;}.c1bce8e3-fc6b-4dad-ae59-7ddfe2fa81d1,.cc59c3ce-1b16-43a7-ad77-29d3b97f6c51,.edf7334c-ecab-4c1d-afcf-a2fb80c151a8{stroke-linejoin:round;}</style></defs><title>icon</title><text x="32.33" y="340.88"></text><text x="32.33" y="340.88"></text><rect class="c84327b4-72f6-4928-a5e5-11d89219a0cf" x="0.5" y="0.5" width="284" height="197.57"/><rect class="fcfbdc5f-affd-49a6-aaa0-f0cb32c30d78" x="0.5" y="146.09" width="284" height="51.98"/><rect class="c84327b4-72f6-4928-a5e5-11d89219a0cf" x="283.5" y="0.5" width="284" height="197.57"/><rect class="c84327b4-72f6-4928-a5e5-11d89219a0cf" x="568.26" y="0.5" width="284" height="197.57"/><rect class="25ca0e1b-4d8f-4026-8d8f-198a503d09f0" x="0.5" y="195" width="284" height="75"/><rect class="25ca0e1b-4d8f-4026-8d8f-198a503d09f0" x="283.5" y="195" width="284" height="75"/><rect class="25ca0e1b-4d8f-4026-8d8f-198a503d09f0" x="568.84" y="195" width="284" height="75"/><rect class="6f541e26-fd9a-4926-b38e-34f5b13579ff" x="50.5" y="42.5" width="186" height="119" rx="4.43" ry="4.43"/><rect class="25ca0e1b-4d8f-4026-8d8f-198a503d09f0" x="59" y="49" width="112.5" height="2"/><rect class="25ca0e1b-4d8f-4026-8d8f-198a503d09f0" x="59" y="54" width="112.5" height="2"/><rect class="25ca0e1b-4d8f-4026-8d8f-198a503d09f0" x="59" y="59" width="112.5" height="2"/><rect class="25ca0e1b-4d8f-4026-8d8f-198a503d09f0" x="59" y="64" width="112.5" height="2"/><rect class="25ca0e1b-4d8f-4026-8d8f-198a503d09f0" x="59" y="69" width="112.5" height="2"/><rect class="25ca0e1b-4d8f-4026-8d8f-198a503d09f0" x="59" y="74" width="112.5" height="2"/><rect class="25ca0e1b-4d8f-4026-8d8f-198a503d09f0" x="59" y="79" width="112.5" height="2"/><rect class="25ca0e1b-4d8f-4026-8d8f-198a503d09f0" x="59" y="84" width="112.5" height="2"/><rect class="25ca0e1b-4d8f-4026-8d8f-198a503d09f0" x="59" y="89" width="112.5" height="2"/><rect class="25ca0e1b-4d8f-4026-8d8f-198a503d09f0" x="59" y="94" width="112.5" height="2"/><rect class="25ca0e1b-4d8f-4026-8d8f-198a503d09f0" x="59" y="99" width="112.5" height="2"/><rect class="25ca0e1b-4d8f-4026-8d8f-198a503d09f0" x="59" y="104" width="112.5" height="2"/><rect class="25ca0e1b-4d8f-4026-8d8f-198a503d09f0" x="59" y="109" width="112.5" height="2"/><rect class="25ca0e1b-4d8f-4026-8d8f-198a503d09f0" x="59" y="114" width="112.5" height="2"/><rect class="25ca0e1b-4d8f-4026-8d8f-198a503d09f0" x="59" y="119" width="112.5" height="2"/><rect class="25ca0e1b-4d8f-4026-8d8f-198a503d09f0" x="59" y="124" width="112.5" height="2"/><rect class="25ca0e1b-4d8f-4026-8d8f-198a503d09f0" x="59" y="129" width="112.5" height="2"/><rect class="25ca0e1b-4d8f-4026-8d8f-198a503d09f0" x="59" y="134" width="112.5" height="2"/><rect class="25ca0e1b-4d8f-4026-8d8f-198a503d09f0" x="59" y="139" width="112.5" height="2"/><rect class="25ca0e1b-4d8f-4026-8d8f-198a503d09f0" x="59" y="144" width="112.5" height="2"/><rect class="c84327b4-72f6-4928-a5e5-11d89219a0cf" x="187.5" y="48.5" width="43" height="80"/><rect class="25ca0e1b-4d8f-4026-8d8f-198a503d09f0" x="188" y="133.5" width="43" height="21"/><line class="25ca0e1b-4d8f-4026-8d8f-198a503d09f0" x1="181" y1="42.5" x2="181" y2="161.5"/><rect class="c84327b4-72f6-4928-a5e5-11d89219a0cf" x="59" y="151.33" width="26" height="3"/><rect class="25ca0e1b-4d8f-4026-8d8f-198a503d09f0" x="192.5" y="138.9" width="5.61" height="8.6"/><rect class="25ca0e1b-4d8f-4026-8d8f-198a503d09f0" x="199.69" y="138.9" width="5.61" height="8.6"/><rect class="25ca0e1b-4d8f-4026-8d8f-198a503d09f0" x="206.89" y="138.9" width="5.61" height="8.6"/><line class="25ca0e1b-4d8f-4026-8d8f-198a503d09f0" x1="188.5" y1="152.5" x2="231.5" y2="152.5"/><rect class="25ca0e1b-4d8f-4026-8d8f-198a503d09f0" x="215" y="146" width="12" height="2"/><polygon class="25ca0e1b-4d8f-4026-8d8f-198a503d09f0" points="198.9 49.5 198.9 127.5 194.17 126 193.5 50.49 198.9 49.5"/><polygon class="25ca0e1b-4d8f-4026-8d8f-198a503d09f0" points="207.9 49.5 207.9 127.5 203.17 126 202.5 50.49 207.9 49.5"/><polygon class="25ca0e1b-4d8f-4026-8d8f-198a503d09f0" points="226.9 49.5 226.9 127.5 222.17 126 221.5 50.49 226.9 49.5"/><polygon class="25ca0e1b-4d8f-4026-8d8f-198a503d09f0" points="217.5 49.5 217.5 127.5 211.5 126 212.1 50.49 217.5 49.5"/><circle class="c84327b4-72f6-4928-a5e5-11d89219a0cf" cx="95" cy="152.83" r="1.5"/><circle class="25ca0e1b-4d8f-4026-8d8f-198a503d09f0" cx="100" cy="152.83" r="1.5"/><text class="4f054361-192a-466e-9674-2fdf92d99dc3" transform="translate(49.81 228.52)">陳年冷氣機</text><text class="eb14a840-fbd7-4b72-8b8e-60d784a78c00" transform="translate(49.81 244.64)">他們都說我吵鬧，但我只是老了多煩惱</text><rect class="9b4c69e8-7239-4097-ad35-4f1391ae21a8" x="421.46" y="154.04" width="8.9" height="8.9"/><polygon class="1aa363c1-600c-4aee-a21d-5fc7a2f3ecb1" points="388.3 160.51 385.06 167.17 465.94 167.17 462.7 160.51 388.3 160.51"/><polygon class="724a4bd9-8380-4bed-828f-fce85f724783" points="386.28 170.5 385.47 167.65 465.53 167.65 464.72 170.5 386.28 170.5"/><path class="1aa363c1-600c-4aee-a21d-5fc7a2f3ecb1" d="M387.51-191.69h12.13v1.62l-1.82,2.43.2,10.51a14,14,0,0,1-8.9,0v-10.51l-1.62-1.62Z" transform="translate(32.33 340.88)"/><rect class="1aa363c1-600c-4aee-a21d-5fc7a2f3ecb1" x="331.63" y="41.63" width="187.74" height="111.6"/><rect class="cbceeb7a-09dc-4670-981c-52599c8e25ce" x="340.43" y="47.96" width="170.14" height="98.13"/><circle class="cbceeb7a-09dc-4670-981c-52599c8e25ce" cx="505.19" cy="149.41" r="1.22"/><circle class="724a4bd9-8380-4bed-828f-fce85f724783" cx="509.25" cy="149.41" r="1.22"/><path class="1aa363c1-600c-4aee-a21d-5fc7a2f3ecb1" d="M673.37-298.11s2.51-1.14,10.18-1.14,9.94.57,9.94.57l-1.33,7.86.86,1.74s-3.13,1.14-9.59,1.14-9-1.07-9-1.07l.78-1.14Z" transform="translate(32.33 340.88)"/><path class="1aa363c1-600c-4aee-a21d-5fc7a2f3ecb1" d="M616.75-264.75s2.4-10.57,3.36-11.85,34.26-14.57,64.68-14.57,60.19,9.29,61.15,10.41,5.28,13.61,5.28,13.61Z" transform="translate(32.33 340.88)"/><path class="cbceeb7a-09dc-4670-981c-52599c8e25ce" d="M742.58-177.63c9.13-9.88,13.45-84.59,13.45-84.59s-30.26-.77-72-.77-71.88,2.31-71.88,2.31c-2.4,21.77,13.29,81.81,13.29,81.81s3.68,6.32,56,6.32S742.58-177.63,742.58-177.63Z" transform="translate(32.33 340.88)"/><path class="1aa363c1-600c-4aee-a21d-5fc7a2f3ecb1" d="M670.63-223h25.66s6.86,12,5.8,51.49H665S662.19-197.29,670.63-223Z" transform="translate(32.33 340.88)"/><path class="1aa363c1-600c-4aee-a21d-5fc7a2f3ecb1" d="M674-217.75h18.4s7,9.81,6.12,42.13H668.49S667.19-196.68,674-217.75Z" transform="translate(32.33 340.88)"/><rect class="1aa363c1-600c-4aee-a21d-5fc7a2f3ecb1" x="714.08" y="134.14" width="3.6" height="27.05"/><rect class="cbceeb7a-09dc-4670-981c-52599c8e25ce" x="710.84" y="135.62" width="10.08" height="7.97"/><path class="1aa363c1-600c-4aee-a21d-5fc7a2f3ecb1" d="M610.22-266.17v5.47S664.92-263,684-263c18.76,0,73.68,1,73.68,1v-6.74s-56.19.24-73.72,0S610.22-266.17,610.22-266.17Z" transform="translate(32.33 340.88)"/><rect class="6f541e26-fd9a-4926-b38e-34f5b13579ff" x="44.64" y="382.38" width="186" height="119" rx="4.43" ry="4.43"/><rect class="25ca0e1b-4d8f-4026-8d8f-198a503d09f0" x="53.14" y="388.88" width="112.5" height="2"/><rect class="25ca0e1b-4d8f-4026-8d8f-198a503d09f0" x="53.14" y="393.88" width="112.5" height="2"/><rect class="25ca0e1b-4d8f-4026-8d8f-198a503d09f0" x="53.14" y="398.88" width="112.5" height="2"/><rect class="25ca0e1b-4d8f-4026-8d8f-198a503d09f0" x="53.14" y="403.88" width="112.5" height="2"/><rect class="25ca0e1b-4d8f-4026-8d8f-198a503d09f0" x="53.14" y="408.88" width="112.5" height="2"/><rect class="25ca0e1b-4d8f-4026-8d8f-198a503d09f0" x="53.14" y="413.88" width="112.5" height="2"/><rect class="25ca0e1b-4d8f-4026-8d8f-198a503d09f0" x="53.14" y="418.88" width="112.5" height="2"/><rect class="25ca0e1b-4d8f-4026-8d8f-198a503d09f0" x="53.14" y="423.88" width="112.5" height="2"/><rect class="25ca0e1b-4d8f-4026-8d8f-198a503d09f0" x="53.14" y="428.88" width="112.5" height="2"/><rect class="25ca0e1b-4d8f-4026-8d8f-198a503d09f0" x="53.14" y="433.88" width="112.5" height="2"/><rect class="25ca0e1b-4d8f-4026-8d8f-198a503d09f0" x="53.14" y="438.88" width="112.5" height="2"/><rect class="25ca0e1b-4d8f-4026-8d8f-198a503d09f0" x="53.14" y="443.88" width="112.5" height="2"/><rect class="25ca0e1b-4d8f-4026-8d8f-198a503d09f0" x="53.14" y="448.88" width="112.5" height="2"/><rect class="25ca0e1b-4d8f-4026-8d8f-198a503d09f0" x="53.14" y="453.88" width="112.5" height="2"/><rect class="25ca0e1b-4d8f-4026-8d8f-198a503d09f0" x="53.14" y="458.88" width="112.5" height="2"/><rect class="25ca0e1b-4d8f-4026-8d8f-198a503d09f0" x="53.14" y="463.88" width="112.5" height="2"/><rect class="25ca0e1b-4d8f-4026-8d8f-198a503d09f0" x="53.14" y="468.88" width="112.5" height="2"/><rect class="25ca0e1b-4d8f-4026-8d8f-198a503d09f0" x="53.14" y="473.88" width="112.5" height="2"/><rect class="25ca0e1b-4d8f-4026-8d8f-198a503d09f0" x="53.14" y="478.88" width="112.5" height="2"/><rect class="25ca0e1b-4d8f-4026-8d8f-198a503d09f0" x="53.14" y="483.88" width="112.5" height="2"/><rect class="c84327b4-72f6-4928-a5e5-11d89219a0cf" x="181.64" y="388.38" width="43" height="80"/><rect class="25ca0e1b-4d8f-4026-8d8f-198a503d09f0" x="182.14" y="473.38" width="43" height="21"/><line class="25ca0e1b-4d8f-4026-8d8f-198a503d09f0" x1="175.14" y1="382.38" x2="175.14" y2="501.38"/><rect class="c84327b4-72f6-4928-a5e5-11d89219a0cf" x="53.14" y="491.21" width="26" height="3"/><rect class="25ca0e1b-4d8f-4026-8d8f-198a503d09f0" x="186.64" y="478.78" width="5.61" height="8.6"/><rect class="25ca0e1b-4d8f-4026-8d8f-198a503d09f0" x="193.84" y="478.78" width="5.61" height="8.6"/><rect class="25ca0e1b-4d8f-4026-8d8f-198a503d09f0" x="201.03" y="478.78" width="5.61" height="8.6"/><line class="25ca0e1b-4d8f-4026-8d8f-198a503d09f0" x1="182.64" y1="492.38" x2="225.64" y2="492.38"/><rect class="25ca0e1b-4d8f-4026-8d8f-198a503d09f0" x="209.14" y="485.88" width="12" height="2"/><polygon class="25ca0e1b-4d8f-4026-8d8f-198a503d09f0" points="193.04 389.38 193.04 467.38 188.31 465.88 187.65 390.37 193.04 389.38"/><polygon class="25ca0e1b-4d8f-4026-8d8f-198a503d09f0" points="202.04 389.38 202.04 467.38 197.31 465.88 196.65 390.37 202.04 389.38"/><polygon class="25ca0e1b-4d8f-4026-8d8f-198a503d09f0" points="221.04 389.38 221.04 467.38 216.31 465.88 215.65 390.37 221.04 389.38"/><polygon class="25ca0e1b-4d8f-4026-8d8f-198a503d09f0" points="211.65 389.38 211.65 467.38 205.65 465.88 206.25 390.37 211.65 389.38"/><circle class="c84327b4-72f6-4928-a5e5-11d89219a0cf" cx="89.14" cy="492.71" r="1.5"/><circle class="25ca0e1b-4d8f-4026-8d8f-198a503d09f0" cx="94.14" cy="492.71" r="1.5"/><line class="25ca0e1b-4d8f-4026-8d8f-198a503d09f0" x1="109.39" y1="489.51" x2="165.64" y2="489.51"/><rect class="25ca0e1b-4d8f-4026-8d8f-198a503d09f0" x="414.04" y="488.85" width="8.9" height="8.9"/><polygon class="6f541e26-fd9a-4926-b38e-34f5b13579ff" points="380.88 495.32 377.65 503.32 458.52 503.32 455.28 495.32 380.88 495.32"/><polygon class="25ca0e1b-4d8f-4026-8d8f-198a503d09f0" points="378.46 507.32 377.65 503.32 458.52 503.32 457.7 507.32 378.46 507.32"/><path class="6f541e26-fd9a-4926-b38e-34f5b13579ff" d="M380.09,143.12h12.13v1.62l-1.82,2.43.2,10.51a14,14,0,0,1-8.9,0V147.17l-1.62-1.62Z" transform="translate(32.33 340.88)"/><rect class="6f541e26-fd9a-4926-b38e-34f5b13579ff" x="324.21" y="376.45" width="187.74" height="111.6"/><rect class="c84327b4-72f6-4928-a5e5-11d89219a0cf" x="333.01" y="382.78" width="170.14" height="98.13"/><line class="25ca0e1b-4d8f-4026-8d8f-198a503d09f0" x1="415.92" y1="490.48" x2="415.92" y2="498.65"/><circle class="c84327b4-72f6-4928-a5e5-11d89219a0cf" cx="497.87" cy="484.44" r="1.22"/><circle class="25ca0e1b-4d8f-4026-8d8f-198a503d09f0" cx="501.93" cy="484.44" r="1.22"/><path class="6f541e26-fd9a-4926-b38e-34f5b13579ff" d="M628.69,148.89l2.36,6.27a264.26,264.26,0,0,0,52.33,5.64,281.25,281.25,0,0,0,53.33-5.64l1.95-5.68Z" transform="translate(32.33 340.88)"/><path class="6f541e26-fd9a-4926-b38e-34f5b13579ff" d="M666.32,30.36s4.19-1.16,17-1.16,16.65.58,16.65.58l-2.23,8,1.44,1.78s-5.24,1.16-16.06,1.16S668,39.66,668,39.66l1.31-1.16Z" transform="translate(32.33 340.88)"/><path class="6f541e26-fd9a-4926-b38e-34f5b13579ff" d="M616.48,64.44s2.4-10.79,3.36-12.1,34.26-14.88,64.68-14.88,60.19,9.48,61.15,10.63S751,62,751,62Z" transform="translate(32.33 340.88)"/><path class="c84327b4-72f6-4928-a5e5-11d89219a0cf" d="M742.32,148.93c9.13-9.54,13.45-81.68,13.45-81.68s-30.26-.74-72-.74-71.88,2.23-71.88,2.23c-2.4,21,13.29,79,13.29,79s3.68,6.1,56,6.1S742.32,148.93,742.32,148.93Z" transform="translate(32.33 340.88)"/><path class="6f541e26-fd9a-4926-b38e-34f5b13579ff" d="M669,96.51h28.45s7.6,14.28,6.43,61.33H662.75S659.63,127.18,669,96.51Z" transform="translate(32.33 340.88)"/><path class="6f541e26-fd9a-4926-b38e-34f5b13579ff" d="M672.75,102.82h20.39s7.73,11.68,6.79,50.19H666.61S665.17,127.91,672.75,102.82Z" transform="translate(32.33 340.88)"/><rect class="6f541e26-fd9a-4926-b38e-34f5b13579ff" x="713.64" y="456.81" width="3.99" height="32.22"/><rect class="c84327b4-72f6-4928-a5e5-11d89219a0cf" x="710.05" y="458.57" width="11.17" height="9.49"/><path class="6f541e26-fd9a-4926-b38e-34f5b13579ff" d="M610,63.45V70s54.7-2.74,73.77-2.74c18.76,0,73.68,1.14,73.68,1.14V60.32s-56.19.29-73.72,0S610,63.45,610,63.45Z" transform="translate(32.33 340.88)"/><path class="25ca0e1b-4d8f-4026-8d8f-198a503d09f0" d="M738.67,150.07s8.93-24.21,10.62-50,1.26-24.15,1.26-24.15" transform="translate(32.33 340.88)"/><rect class="25ca0e1b-4d8f-4026-8d8f-198a503d09f0" x="89.07" y="600.37" width="99.79" height="170.02" rx="3.38" ry="3.38"/><rect class="25ca0e1b-4d8f-4026-8d8f-198a503d09f0" x="89.07" y="711.95" width="99.79" height="58.44"/><rect class="25ca0e1b-4d8f-4026-8d8f-198a503d09f0" x="89.07" y="600.37" width="48.96" height="106.33"/><rect class="25ca0e1b-4d8f-4026-8d8f-198a503d09f0" x="140.53" y="600.37" width="48.33" height="106.33"/><rect class="25ca0e1b-4d8f-4026-8d8f-198a503d09f0" x="99.07" y="660.24" width="17.75" height="38.7"/><rect class="25ca0e1b-4d8f-4026-8d8f-198a503d09f0" x="130.05" y="611.1" width="3.81" height="85.7"/><rect class="6f541e26-fd9a-4926-b38e-34f5b13579ff" x="129.28" y="682.95" width="5.35" height="14.98"/><rect class="6f541e26-fd9a-4926-b38e-34f5b13579ff" x="129.28" y="609.12" width="5.35" height="14.98"/><rect class="25ca0e1b-4d8f-4026-8d8f-198a503d09f0" x="144.87" y="611.1" width="3.81" height="85.7"/><rect class="6f541e26-fd9a-4926-b38e-34f5b13579ff" x="144.1" y="682.95" width="5.35" height="14.98"/><rect class="6f541e26-fd9a-4926-b38e-34f5b13579ff" x="144.1" y="609.12" width="5.35" height="14.98"/><rect class="c84327b4-72f6-4928-a5e5-11d89219a0cf" x="99.07" y="691.76" width="17.75" height="7.18"/><rect class="25ca0e1b-4d8f-4026-8d8f-198a503d09f0" x="97.88" y="719.18" width="90.98" height="7.15"/><rect class="25ca0e1b-4d8f-4026-8d8f-198a503d09f0" x="89.07" y="719.18" width="8.81" height="7.15"/><rect class="e7c9abb7-12a9-4f62-af18-2243014d47c9" x="89.07" y="716.34" width="99.79" height="2.84"/><line class="25ca0e1b-4d8f-4026-8d8f-198a503d09f0" x1="89.07" y1="729.01" x2="188.86" y2="729.01"/><line class="25ca0e1b-4d8f-4026-8d8f-198a503d09f0" x1="89.07" y1="603.98" x2="138.65" y2="603.98"/><line class="25ca0e1b-4d8f-4026-8d8f-198a503d09f0" x1="139.66" y1="603.98" x2="189.24" y2="603.98"/><circle class="c84327b4-72f6-4928-a5e5-11d89219a0cf" cx="103.53" cy="685.64" r="1.58"/><circle class="25ca0e1b-4d8f-4026-8d8f-198a503d09f0" cx="108.8" cy="685.64" r="1.58"/><rect class="c84327b4-72f6-4928-a5e5-11d89219a0cf" x="89.07" y="759.45" width="99.79" height="11.15"/><line class="25ca0e1b-4d8f-4026-8d8f-198a503d09f0" x1="129.28" y1="685.64" x2="134.62" y2="685.64"/><line class="25ca0e1b-4d8f-4026-8d8f-198a503d09f0" x1="144.1" y1="685.64" x2="149.45" y2="685.64"/><polygon class="25ca0e1b-4d8f-4026-8d8f-198a503d09f0" points="99.07 659.91 101.41 662.72 114.93 662.72 117.05 660.18 99.07 659.91"/><line class="25ca0e1b-4d8f-4026-8d8f-198a503d09f0" x1="105.11" y1="756.14" x2="189.24" y2="756.14"/><path class="6f541e26-fd9a-4926-b38e-34f5b13579ff" d="M295.74,387.62s67.57,23.09,153.05,7.09c0,0,9.08-12.91-11.68-30.14C437.12,364.57,298.48,375.09,295.74,387.62Z" transform="translate(32.33 340.88)"/><path class="6f541e26-fd9a-4926-b38e-34f5b13579ff" d="M297.6,382.11s65.34,23.67,148,5.88c0,0-2.09-10.37,17.12-15,0,0,7.38-8.29,8.55-8.29S466,354.43,466,354.43s-7.19-21.9-6.49-36.33c0,0-1.14-13.08-4.27-14.86s-51.68-6.22-86.19,11.31c0,0-31,19-29.44,24.93C339.62,339.48,291.33,385.23,297.6,382.11Z" transform="translate(32.33 340.88)"/><path class="6f541e26-fd9a-4926-b38e-34f5b13579ff" d="M376.72,342.82s-3-11.84,20.35-19.83,38.78-6,40.69-4.51,4.13,6.39-4.45,13.52S380.22,349.51,376.72,342.82Z" transform="translate(32.33 340.88)"/><path class="c84327b4-72f6-4928-a5e5-11d89219a0cf" d="M382.57,345s1.17,13-12.53,20.81,9,7.78,9,7.78,86.94-5.09,77.54-14.29-30.9-12-23.28-27.27C433.31,332,414.69,345,382.57,345Z" transform="translate(32.33 340.88)"/><path class="25ca0e1b-4d8f-4026-8d8f-198a503d09f0" d="M306.09,372.35s28.21,20.44,142.7,9.21" transform="translate(32.33 340.88)"/><path class="25ca0e1b-4d8f-4026-8d8f-198a503d09f0" d="M324.18,355s10.22,6.31,13.75,5.95,26.39-60,120.9-47.79" transform="translate(32.33 340.88)"/><path class="c84327b4-72f6-4928-a5e5-11d89219a0cf" d="M341.9,332.66v5.18h7.49v-8.7s-.66-1.91-3.74-1.91-3.74,1.69-3.74,1.69Z" transform="translate(32.33 340.88)"/><path class="c84327b4-72f6-4928-a5e5-11d89219a0cf" d="M341.9,328.91s.42,2.14,3.74,2.14c0,0,3.74.32,3.74-1.92" transform="translate(32.33 340.88)"/><ellipse class="6f541e26-fd9a-4926-b38e-34f5b13579ff" cx="433.52" cy="687.44" rx="16.01" ry="9.09"/><path class="25ca0e1b-4d8f-4026-8d8f-198a503d09f0" d="M396.39,351.87c-6.88-1.54-6-5.84-6-5.84.25-3.93,9.58-4.79,9.58-4.79l1.24,5.42Z" transform="translate(32.33 340.88)"/><path class="25ca0e1b-4d8f-4026-8d8f-198a503d09f0" d="M308.62,368s17.45,14.68,95.29,11" transform="translate(32.33 340.88)"/><rect class="25ca0e1b-4d8f-4026-8d8f-198a503d09f0" x="623.58" y="639.27" width="180.11" height="98.81" rx="5.37" ry="5.37"/><path class="25ca0e1b-4d8f-4026-8d8f-198a503d09f0" d="M595.94,397.2l3.3,3.3c.53.53,162.11,0,162.11,0l2.77-3.3Z" transform="translate(32.33 340.88)"/><path class="c84327b4-72f6-4928-a5e5-11d89219a0cf" d="M734.52,397.2V298.39H596.74a5.48,5.48,0,0,0-5.48,5.48v88.38a4.94,4.94,0,0,0,4.94,4.94Z" transform="translate(32.33 340.88)"/><circle class="25ca0e1b-4d8f-4026-8d8f-198a503d09f0" cx="753.22" cy="360.29" r="9.26" transform="translate(396.86 1440.13) rotate(-87.82)"/><path class="25ca0e1b-4d8f-4026-8d8f-198a503d09f0" d="M753.22,346.31s15.09.68,14,14.91c-1.06,13.74-14,13.1-14,13.1s-9.54-.53-12.41-7.13" transform="translate(32.33 340.88)"/><path class="6f541e26-fd9a-4926-b38e-34f5b13579ff" d="M601.13,389.2H724.65s-1.35-26.76-1.35-40,1.35-41.54,1.35-41.54H601.13Z" transform="translate(32.33 340.88)"/><rect class="25ca0e1b-4d8f-4026-8d8f-198a503d09f0" x="637.56" y="653.17" width="114.09" height="73.8"/><circle class="25ca0e1b-4d8f-4026-8d8f-198a503d09f0" cx="753.22" cy="360.29" r="6.84" transform="translate(396.86 1440.13) rotate(-87.82)"/><rect class="25ca0e1b-4d8f-4026-8d8f-198a503d09f0" x="771.56" y="647.27" width="6.51" height="10.14"/><rect class="25ca0e1b-4d8f-4026-8d8f-198a503d09f0" x="778.07" y="647.27" width="6.51" height="10.14"/><rect class="25ca0e1b-4d8f-4026-8d8f-198a503d09f0" x="784.57" y="647.27" width="6.51" height="10.14"/><rect class="25ca0e1b-4d8f-4026-8d8f-198a503d09f0" x="791.08" y="647.27" width="6.51" height="10.14"/><line class="25ca0e1b-4d8f-4026-8d8f-198a503d09f0" x1="771.48" y1="660.77" x2="799.61" y2="660.77"/><line class="25ca0e1b-4d8f-4026-8d8f-198a503d09f0" x1="771.48" y1="662.77" x2="785.55" y2="662.77"/><polyline class="25ca0e1b-4d8f-4026-8d8f-198a503d09f0" points="653.26 653.17 653.26 707.79 637.56 726.97"/><polyline class="25ca0e1b-4d8f-4026-8d8f-198a503d09f0" points="653.26 707.79 736.06 707.79 736.06 653.17"/><line class="25ca0e1b-4d8f-4026-8d8f-198a503d09f0" x1="751.65" y1="726.97" x2="735.9" y2="707.6"/><path class="6f541e26-fd9a-4926-b38e-34f5b13579ff" d="M712,376.5c0,4.35-22.12,7.88-51.53,7.88s-49.81-3.53-49.81-7.88,23.84-7.88,53.25-7.88S712,372.15,712,376.5Z" transform="translate(32.33 340.88)"/><path class="6f541e26-fd9a-4926-b38e-34f5b13579ff" d="M709.19,371.89c0,4.11-20.9,7.45-48.68,7.45s-47.06-3.33-47.06-7.45,19.27-7.45,47.06-7.45S709.19,367.78,709.19,371.89Z" transform="translate(32.33 340.88)"/><circle class="c84327b4-72f6-4928-a5e5-11d89219a0cf" cx="773.26" cy="732.13" r="1.7"/><circle class="25ca0e1b-4d8f-4026-8d8f-198a503d09f0" cx="778.94" cy="732.13" r="1.7"/><circle class="25ca0e1b-4d8f-4026-8d8f-198a503d09f0" cx="784.66" cy="732.13" r="1.7"/><circle class="c84327b4-72f6-4928-a5e5-11d89219a0cf" cx="773.26" cy="708.16" r="1.7"/><rect class="25ca0e1b-4d8f-4026-8d8f-198a503d09f0" x="65.11" y="880.87" width="79.04" height="124.95" rx="2.9" ry="2.9"/><rect class="25ca0e1b-4d8f-4026-8d8f-198a503d09f0" x="150.48" y="916.94" width="53.66" height="88.88" rx="3.72" ry="3.72"/><circle class="c84327b4-72f6-4928-a5e5-11d89219a0cf" cx="105.39" cy="909.42" r="18.96"/><circle class="25ca0e1b-4d8f-4026-8d8f-198a503d09f0" cx="105.39" cy="967.1" r="27.59"/><circle class="c84327b4-72f6-4928-a5e5-11d89219a0cf" cx="105.39" cy="967.1" r="9.68"/><circle class="c84327b4-72f6-4928-a5e5-11d89219a0cf" cx="177.22" cy="938.39" r="12.98"/><circle class="25ca0e1b-4d8f-4026-8d8f-198a503d09f0" cx="177.22" cy="979.3" r="18.05"/><circle class="25ca0e1b-4d8f-4026-8d8f-198a503d09f0" cx="177.22" cy="979.3" r="6.34"/><rect class="c84327b4-72f6-4928-a5e5-11d89219a0cf" x="65.11" y="1006.32" width="79.04" height="9.9"/><rect class="c84327b4-72f6-4928-a5e5-11d89219a0cf" x="150.48" y="1006.32" width="53.48" height="9.9"/><circle class="c84327b4-72f6-4928-a5e5-11d89219a0cf" cx="131.11" cy="1000.09" r="1.87"/><circle class="25ca0e1b-4d8f-4026-8d8f-198a503d09f0" cx="137.34" cy="1000.09" r="1.87"/><circle class="c84327b4-72f6-4928-a5e5-11d89219a0cf" cx="189.32" cy="1000.09" r="1.87"/><circle class="25ca0e1b-4d8f-4026-8d8f-198a503d09f0" cx="195.56" cy="1000.09" r="1.87"/><circle class="6f541e26-fd9a-4926-b38e-34f5b13579ff" cx="105.39" cy="909.42" r="5.27"/><circle class="6f541e26-fd9a-4926-b38e-34f5b13579ff" cx="105.39" cy="967.1" r="5.2"/><circle class="6f541e26-fd9a-4926-b38e-34f5b13579ff" cx="177.22" cy="938.39" r="3.98"/><circle class="25ca0e1b-4d8f-4026-8d8f-198a503d09f0" cx="177.22" cy="979.3" r="3.03"/><path class="25ca0e1b-4d8f-4026-8d8f-198a503d09f0" d="M73.06,593.84a32.38,32.38,0,1,1-32.38,32.38" transform="translate(32.33 340.88)"/><line class="25ca0e1b-4d8f-4026-8d8f-198a503d09f0" x1="79.72" y1="1013.13" x2="144.15" y2="1013.13"/><line class="25ca0e1b-4d8f-4026-8d8f-198a503d09f0" x1="156.76" y1="1013.13" x2="204.14" y2="1013.13"/><path class="c84327b4-72f6-4928-a5e5-11d89219a0cf" d="M324.2,655.12s8.64,22,60.1,23.27C436,679.64,444.15,654,444.15,654s-3.82-4.83-4.84-7.47-3.27,18-55.29,18-55-19.54-55-19.54Z" transform="translate(32.33 340.88)"/><path class="6f541e26-fd9a-4926-b38e-34f5b13579ff" d="M353,555.26s-21.45,30-24.7,94.82c0,0,13.91,19.48,59.24,20.52,17.24.4,36.76-2.39,52.8-20.7,0,0-10.31-93.28-30.44-109C409.88,540.94,373.14,527.3,353,555.26Z" transform="translate(32.33 340.88)"/><polygon class="6f541e26-fd9a-4926-b38e-34f5b13579ff" points="389.03 892.35 366.73 894.25 371.85 926.16 389.03 892.35"/><path class="c84327b4-72f6-4928-a5e5-11d89219a0cf" d="M356.3,550.87s74.63,12.87,54.27-10c0,0-32.8-13.81-54.27,10Z" transform="translate(32.33 340.88)"/><path class="25ca0e1b-4d8f-4026-8d8f-198a503d09f0" d="M328.51,643.26s11.48,23,61.13,23" transform="translate(32.33 340.88)"/><path class="25ca0e1b-4d8f-4026-8d8f-198a503d09f0" d="M355.17,555.09c.17.37,58.27,10.15,61.15-4.72" transform="translate(32.33 340.88)"/><rect class="6f541e26-fd9a-4926-b38e-34f5b13579ff" x="409.86" y="932.54" width="15.53" height="66.19"/><rect class="6f541e26-fd9a-4926-b38e-34f5b13579ff" x="415.38" y="942.63" width="4.33" height="46.01"/><rect class="c84327b4-72f6-4928-a5e5-11d89219a0cf" x="415.38" y="955.28" width="4.33" height="33.36"/><polygon class="c84327b4-72f6-4928-a5e5-11d89219a0cf" points="452.01 897.03 448.65 899.05 456.04 917.08 462.23 913.89 453.64 897.03 452.01 897.03"/><path class="c84327b4-72f6-4928-a5e5-11d89219a0cf" d="M420.64,559.51c10.47-2.36,24.73.84,24.73.84C452,570,458,616.56,456.12,617.45a39.72,39.72,0,0,1-6.92,1.77c-4.12-26.84-11-45.59-12.35-46.46s-10.62-.59-10.62-.59l-5.37-10.37Z" transform="translate(32.33 340.88)"/><rect class="25ca0e1b-4d8f-4026-8d8f-198a503d09f0" x="649.44" y="862.28" width="132.67" height="168.3" rx="6.77" ry="6.77"/><rect class="25ca0e1b-4d8f-4026-8d8f-198a503d09f0" x="669.82" y="1030.57" width="13" height="6.17"/><rect class="25ca0e1b-4d8f-4026-8d8f-198a503d09f0" x="754.32" y="1030.57" width="13" height="6.17"/><path class="c84327b4-72f6-4928-a5e5-11d89219a0cf" d="M686.47,678.84h52.65V578.15s1.82-26.79-26.79-26.79c-25.93,0-25.86,23.92-25.86,23.92Z" transform="translate(32.33 340.88)"/><circle class="6f541e26-fd9a-4926-b38e-34f5b13579ff" cx="745.13" cy="919.03" r="13.81"/><circle class="25ca0e1b-4d8f-4026-8d8f-198a503d09f0" cx="745.1" cy="919.03" r="22.09"/><rect class="25ca0e1b-4d8f-4026-8d8f-198a503d09f0" x="782.11" y="879.24" width="3.7" height="21.78"/><path class="25ca0e1b-4d8f-4026-8d8f-198a503d09f0" d="M712.77,559.62a18.53,18.53,0,1,1-18.53,18.53" transform="translate(32.33 340.88)"/><line class="25ca0e1b-4d8f-4026-8d8f-198a503d09f0" x1="656.65" y1="1025.91" x2="781.61" y2="1025.91"/><rect class="c84327b4-72f6-4928-a5e5-11d89219a0cf" x="668.71" y="1036.74" width="15.21" height="3.71"/><rect class="c84327b4-72f6-4928-a5e5-11d89219a0cf" x="753.21" y="1036.74" width="15.21" height="3.71"/><line class="25ca0e1b-4d8f-4026-8d8f-198a503d09f0" x1="745.09" y1="919.03" x2="739.99" y2="932.8"/><circle class="c84327b4-72f6-4928-a5e5-11d89219a0cf" cx="725.11" cy="1013.96" r="2.11"/><circle class="6f541e26-fd9a-4926-b38e-34f5b13579ff" cx="732.13" cy="1013.96" r="2.11"/><circle class="6f541e26-fd9a-4926-b38e-34f5b13579ff" cx="739.2" cy="1013.96" r="2.11"/><rect class="6f541e26-fd9a-4926-b38e-34f5b13579ff" x="723.01" y="1004.79" width="39.07" height="3.19"/><line class="25ca0e1b-4d8f-4026-8d8f-198a503d09f0" x1="723.01" y1="1000.91" x2="750.97" y2="1000.91"/><rect class="6f541e26-fd9a-4926-b38e-34f5b13579ff" x="658.57" y="889.73" width="22.38" height="86.09"/><rect class="6f541e26-fd9a-4926-b38e-34f5b13579ff" x="667.36" y="917.17" width="4.8" height="51.03"/><path class="c84327b4-72f6-4928-a5e5-11d89219a0cf" d="M634.82,565s-.27-2.72,1-4.29,1.69-1.18,2.13-2.48c0,0,.34,4.32,1.52,4.88s1.5,3.85.52,4.51a5.32,5.32,0,0,1-5.18,1C632,567.91,634.82,565,634.82,565Z" transform="translate(32.33 340.88)"/><path class="c84327b4-72f6-4928-a5e5-11d89219a0cf" d="M635.55,565.87c-.07-1.66-3.37-4.85-3.37-4.85,0,.64-1.22,3.83,0,7.43,1.32,3.79,4,3.42,4,3.42a14.67,14.67,0,0,1,3.61-1.29c2.82-.77,2-6.81,3.38-9.12a4.65,4.65,0,0,0-3.81,3.55" transform="translate(32.33 340.88)"/><rect class="c84327b4-72f6-4928-a5e5-11d89219a0cf" x="667.66" y="934.68" width="4.33" height="33.36"/><path class="c1bce8e3-fc6b-4dad-ae59-7ddfe2fa81d1" d="M108.45,923.21h-6L69.73,931v6.74s6.37,5.86,38.72,5.86,37.63-5.42,37.63-5.42v-5.57l-33.28-9.38Z" transform="translate(32.33 340.88)"/><path class="cc59c3ce-1b16-43a7-ad77-29d3b97f6c51" d="M108.45,918.89h-6l-32.75,7.76v6.74s6.37,5.86,38.72,5.86,37.63-5.42,37.63-5.42v-5.57l-33.28-9.38Z" transform="translate(32.33 340.88)"/><path class="edf7334c-ecab-4c1d-afcf-a2fb80c151a8" d="M69.73,927.54s6.37,7.25,38.72,7.25,37.63-6.71,37.63-6.71" transform="translate(32.33 340.88)"/><circle class="c84327b4-72f6-4928-a5e5-11d89219a0cf" cx="142" cy="1166.19" r="65.21"/><circle class="6f541e26-fd9a-4926-b38e-34f5b13579ff" cx="142" cy="1166.19" r="61.56"/><rect class="edf7334c-ecab-4c1d-afcf-a2fb80c151a8" x="127.4" y="1181.95" width="28.31" height="10.94"/><polygon class="cc59c3ce-1b16-43a7-ad77-29d3b97f6c51" points="129.47 1192.89 131.48 1198.59 134.66 1198.59 134.66 1264.1 145.44 1264.1 145.44 1198.97 148.71 1198.97 151 1192.89 129.47 1192.89"/><path class="cc59c3ce-1b16-43a7-ad77-29d3b97f6c51" d="M111.05,807.11s4.23-18.92,33.67-21.54c0,0,11.9,3.43,16.33,31.26s-14.12,39.12-18.15,28.63-14.27-16.74-14.8-16.13c0,0,.86-5.6-2.35-12.78S112.06,806.07,111.05,807.11Z" transform="translate(32.33 340.88)"/><path class="cc59c3ce-1b16-43a7-ad77-29d3b97f6c51" d="M93.29,833.69s-18.51,5.79-35.5-18.39c0,0-3-12,18.9-29.77s40.94-7.34,33.87,1.4-7.36,20.73-6.57,20.88c0,0-5.28,2.06-9.89,8.43S91.88,833.34,93.29,833.69Z" transform="translate(32.33 340.88)"/><path class="cc59c3ce-1b16-43a7-ad77-29d3b97f6c51" d="M124.44,835.92s14.27,13.13,1.82,39.94c0,0-8.92,8.59-35.23-1.48s-26.82-31.78-15.72-30,21.63-4,21.37-4.75c0,0,4.42,3.55,12.25,4.35S124.84,837.31,124.44,835.92Z" transform="translate(32.33 340.88)"/><circle class="6f541e26-fd9a-4926-b38e-34f5b13579ff" cx="142" cy="1166.44" r="18.44"/><circle class="c84327b4-72f6-4928-a5e5-11d89219a0cf" cx="142" cy="1166.27" r="13.71"/><path class="cc59c3ce-1b16-43a7-ad77-29d3b97f6c51" d="M108.18,913.23h-5.51L89,919.29v3S92.16,925,108.18,925s18.63-2.44,18.63-2.44V920l-14-6.79Z" transform="translate(32.33 340.88)"/><path class="edf7334c-ecab-4c1d-afcf-a2fb80c151a8" d="M90.71,919.29s2.89,1.88,17.58,1.88,17.08-1.73,17.08-1.73" transform="translate(32.33 340.88)"/><circle class="c84327b4-72f6-4928-a5e5-11d89219a0cf" cx="142" cy="1166.27" r="2.39"/><circle class="c84327b4-72f6-4928-a5e5-11d89219a0cf" cx="149.67" cy="1269.95" r="1.79"/><circle class="25ca0e1b-4d8f-4026-8d8f-198a503d09f0" cx="155.64" cy="1269.95" r="1.79"/><line class="25ca0e1b-4d8f-4026-8d8f-198a503d09f0" x1="137.29" y1="1233.09" x2="137.29" y2="1254.57"/><path class="25ca0e1b-4d8f-4026-8d8f-198a503d09f0" d="M86.38,825.31a23.29,23.29,0,1,1,23.29,23.29" transform="translate(32.33 340.88)"/><path class="cc59c3ce-1b16-43a7-ad77-29d3b97f6c51" d="M405.89,852.6,395.78,917l-4.6,6.54s16.45,6.54,26-1.06L429.85,866s.53-6,4.42-8.31,15.07-6.23,15.07-6.23l-36.43,1.14Z" transform="translate(32.33 340.88)"/><path class="cc59c3ce-1b16-43a7-ad77-29d3b97f6c51" d="M323.84,802.49s-1.11,10.89-1.08,19.55a106.19,106.19,0,0,0,2.16,18.55l75.71,5.15L400.44,798Z" transform="translate(32.33 340.88)"/><polygon class="cc59c3ce-1b16-43a7-ad77-29d3b97f6c51" points="431.8 1131.77 417.88 1136.51 417.88 1190.26 431.8 1195.49 431.8 1131.77"/><polygon class="cc59c3ce-1b16-43a7-ad77-29d3b97f6c51" points="427.43 1133.37 413.51 1137.87 413.51 1188.92 427.43 1193.88 427.43 1133.37"/><path class="cc59c3ce-1b16-43a7-ad77-29d3b97f6c51" d="M458.34,789l-58.87,1.91V854.6h6.44l8.24-2,28.11,1.49,16.08.68s2.74-22.21,3.19-32.25A120.31,120.31,0,0,0,458.34,789Z" transform="translate(32.33 340.88)"/><path class="cc59c3ce-1b16-43a7-ad77-29d3b97f6c51" d="M476.35,794l-17.59-3.11s6.25,21.89-.16,61.69c0,0,12.28.83,17.75-2.71C476.35,849.87,481.59,814.74,476.35,794Z" transform="translate(32.33 340.88)"/><path class="c1bce8e3-fc6b-4dad-ae59-7ddfe2fa81d1" d="M464,794l-5.25-3.11s1.87,21.89,0,61.69a4.77,4.77,0,0,0,5.3-2.71S465.53,814.74,464,794Z" transform="translate(32.33 340.88)"/><line class="edf7334c-ecab-4c1d-afcf-a2fb80c151a8" x1="383.63" y1="1179.78" x2="358.44" y2="1178.03"/><polyline class="edf7334c-ecab-4c1d-afcf-a2fb80c151a8" points="426.67 1265.49 429.45 1262.86 432.82 1260.78 446.48 1193.45"/><polygon class="c1bce8e3-fc6b-4dad-ae59-7ddfe2fa81d1" points="447.97 1215.92 443.61 1241.35 449.43 1242.43 453.95 1217 447.97 1215.92"/><polygon class="cc59c3ce-1b16-43a7-ad77-29d3b97f6c51" points="447.91 1228.41 447.06 1234.12 452.5 1235.13 453.5 1229.42 447.91 1228.41"/><polygon class="cc59c3ce-1b16-43a7-ad77-29d3b97f6c51" points="448.21 1226.92 447.36 1232.63 452.8 1233.64 453.8 1227.93 448.21 1226.92"/><circle class="c84327b4-72f6-4928-a5e5-11d89219a0cf" cx="369.06" cy="1162.74" r="1.98"/><circle class="6f541e26-fd9a-4926-b38e-34f5b13579ff" cx="375.65" cy="1162.74" r="1.98"/><circle class="6f541e26-fd9a-4926-b38e-34f5b13579ff" cx="382.29" cy="1162.74" r="1.98"/><polygon class="c1bce8e3-fc6b-4dad-ae59-7ddfe2fa81d1" points="354.94 1143.48 349.51 1143.48 344.66 1143.91 332.94 1135.16 333.58 1192.3 343.64 1179.98 350.22 1181.3 356.38 1181.3 354.94 1143.48"/><polygon class="c1bce8e3-fc6b-4dad-ae59-7ddfe2fa81d1" points="354.18 1143.25 355.01 1181.34 358.58 1181.64 358.41 1142.83 354.18 1143.25"/></svg>