<svg id="8e6968e2-d9b4-4c0a-9ad1-5714fabe6032" data-name="圖層 1" xmlns="http://www.w3.org/2000/svg" viewBox="0 0 210.63 202"><defs><style>.\35 3d739d1-50a7-4fab-b49a-b163b5bf4b31,.\39 ada2316-fee8-4ffc-9864-36a8264d0c46{fill:#f6d568;}.\35 3d739d1-50a7-4fab-b49a-b163b5bf4b31,.\37 b06107a-f489-4e25-8c64-92e15643ca54,.\39 ada2316-fee8-4ffc-9864-36a8264d0c46,.f967149b-5480-4781-b42f-d1a1d4e5adb3,.fdffbe88-f7a6-46d8-92cd-4212a2015f77,.fe942dc8-6914-4906-ac69-19d93472957a{stroke:#515050;stroke-width:2px;}.\35 3d739d1-50a7-4fab-b49a-b163b5bf4b31,.fdffbe88-f7a6-46d8-92cd-4212a2015f77,.fe942dc8-6914-4906-ac69-19d93472957a{stroke-linejoin:round;}.\37 b06107a-f489-4e25-8c64-92e15643ca54,.fe942dc8-6914-4906-ac69-19d93472957a{fill:#fff;}.f967149b-5480-4781-b42f-d1a1d4e5adb3,.fdffbe88-f7a6-46d8-92cd-4212a2015f77{fill:none;}.\37 b06107a-f489-4e25-8c64-92e15643ca54,.\39 ada2316-fee8-4ffc-9864-36a8264d0c46,.f967149b-5480-4781-b42f-d1a1d4e5adb3{stroke-miterlimit:10;}</style></defs><title>icon</title><path class="53d739d1-50a7-4fab-b49a-b163b5bf4b31" d="M108.45,172.38h-6l-32.75,7.76v6.74s6.37,5.86,38.72,5.86,37.63-5.42,37.63-5.42v-5.57l-33.28-9.38Z"/><path class="fe942dc8-6914-4906-ac69-19d93472957a" d="M108.45,168.06h-6l-32.75,7.76v6.74s6.37,5.86,38.72,5.86S146.08,183,146.08,183v-5.57l-33.28-9.38Z"/><path class="fdffbe88-f7a6-46d8-92cd-4212a2015f77" d="M69.73,176.7S76.11,184,108.45,184s37.63-6.71,37.63-6.71"/><circle class="9ada2316-fee8-4ffc-9864-36a8264d0c46" cx="109.67" cy="74.47" r="67.81"/><circle class="7b06107a-f489-4e25-8c64-92e15643ca54" cx="109.67" cy="74.47" r="61.56"/><rect class="fdffbe88-f7a6-46d8-92cd-4212a2015f77" x="95.07" y="90.24" width="28.31" height="10.94"/><polygon class="fe942dc8-6914-4906-ac69-19d93472957a" points="97.14 101.17 99.15 106.88 102.33 106.88 102.33 172.38 113.11 172.38 113.11 107.25 116.38 107.25 118.67 101.17 97.14 101.17"/><path class="fe942dc8-6914-4906-ac69-19d93472957a" d="M111.05,56.28s4.23-18.92,33.67-21.54c0,0,11.9,3.43,16.33,31.26s-14.12,39.12-18.15,28.63-14.27-16.74-14.8-16.13c0,0,.86-5.6-2.35-12.78S112.06,55.24,111.05,56.28Z"/><path class="fe942dc8-6914-4906-ac69-19d93472957a" d="M93.29,82.86s-18.51,5.79-35.5-18.39c0,0-3-12,18.9-29.77s40.94-7.34,33.87,1.4S103.21,56.82,104,57c0,0-5.28,2.06-9.89,8.43S91.88,82.51,93.29,82.86Z"/><path class="fe942dc8-6914-4906-ac69-19d93472957a" d="M124.44,85.08s14.27,13.13,1.82,39.94c0,0-8.92,8.59-35.23-1.48s-26.82-31.78-15.72-30,21.63-4,21.37-4.75c0,0,4.42,3.55,12.25,4.35S124.84,86.47,124.44,85.08Z"/><circle class="7b06107a-f489-4e25-8c64-92e15643ca54" cx="109.67" cy="74.72" r="18.44"/><circle class="9ada2316-fee8-4ffc-9864-36a8264d0c46" cx="109.67" cy="74.55" r="13.71"/><path class="fe942dc8-6914-4906-ac69-19d93472957a" d="M108.18,162.39h-5.51L89,168.46v3s3.16,2.64,19.17,2.64,18.63-2.44,18.63-2.44v-2.51l-14-6.79Z"/><path class="fdffbe88-f7a6-46d8-92cd-4212a2015f77" d="M90.71,168.46s2.89,1.88,17.58,1.88,17.08-1.73,17.08-1.73"/><circle class="9ada2316-fee8-4ffc-9864-36a8264d0c46" cx="109.67" cy="74.55" r="2.39"/><circle class="9ada2316-fee8-4ffc-9864-36a8264d0c46" cx="117.34" cy="178.24" r="1.79"/><circle class="f967149b-5480-4781-b42f-d1a1d4e5adb3" cx="123.31" cy="178.24" r="1.79"/><line class="f967149b-5480-4781-b42f-d1a1d4e5adb3" x1="105.32" y1="141.37" x2="105.32" y2="162.85"/><path class="f967149b-5480-4781-b42f-d1a1d4e5adb3" d="M86.38,74.47a23.29,23.29,0,1,1,23.29,23.29"/></svg>