<svg id="b0672ea9-b3c2-45f4-9846-dadf0acaacf3" data-name="圖層 1" xmlns="http://www.w3.org/2000/svg" viewBox="0 0 210.63 202"><defs><style>.\30 0f3a0c6-1c65-4423-9c4c-d4df277575ae,.\35 fa413a5-ede7-46a0-96f1-00bdecf21140{fill:none;}.\30 0f3a0c6-1c65-4423-9c4c-d4df277575ae,.\30 fe31a6f-0af7-47cf-b036-2e517b1717dc,.\34 b00180c-e20f-4e77-b01c-07fe2e8bc585,.\35 fa413a5-ede7-46a0-96f1-00bdecf21140,.\37 1d78b01-e566-44e3-a68e-3527d6138433{stroke:#515050;stroke-miterlimit:10;}.\34 b00180c-e20f-4e77-b01c-07fe2e8bc585,.\35 fa413a5-ede7-46a0-96f1-00bdecf21140,.\37 1d78b01-e566-44e3-a68e-3527d6138433{stroke-width:2px;}.\37 1d78b01-e566-44e3-a68e-3527d6138433{fill:#fff;}.\30 fe31a6f-0af7-47cf-b036-2e517b1717dc,.\34 b00180c-e20f-4e77-b01c-07fe2e8bc585{fill:#f6d568;}</style></defs><title>icon</title><rect class="5fa413a5-ede7-46a0-96f1-00bdecf21140" x="100.21" y="158" width="8.9" height="9.77"/><polygon class="71d78b01-e566-44e3-a68e-3527d6138433" points="67.05 165.1 63.82 173.88 144.69 173.88 141.45 165.1 67.05 165.1"/><polygon class="5fa413a5-ede7-46a0-96f1-00bdecf21140" points="64.64 178.27 63.82 173.88 144.69 173.88 143.87 178.27 64.64 178.27"/><path class="71d78b01-e566-44e3-a68e-3527d6138433" d="M97.48,152.67h14.35v1.78l-2.15,2.66.24,11.54a17.77,17.77,0,0,1-10.52,0V157.11l-1.91-1.78Z"/><rect class="71d78b01-e566-44e3-a68e-3527d6138433" x="10.38" y="34.57" width="187.74" height="122.55"/><rect class="4b00180c-e20f-4e77-b01c-07fe2e8bc585" x="19.18" y="41.52" width="170.14" height="107.75"/><line class="5fa413a5-ede7-46a0-96f1-00bdecf21140" x1="102.98" y1="160.62" x2="102.98" y2="169.59"/><circle class="0fe31a6f-0af7-47cf-b036-2e517b1717dc" cx="182" cy="153.38" r="1.69"/><circle class="00f3a0c6-1c65-4423-9c4c-d4df277575ae" cx="187.63" cy="153.38" r="1.69"/></svg>