<svg id="415f7fa7-cf35-4db2-abb9-c9f8eaa38545" data-name="圖層 1" xmlns="http://www.w3.org/2000/svg" viewBox="0 0 210.63 202"><defs><style>.de78ff77-869c-4e9c-98fd-3af45e85b4f5{fill:#fff;}.\34 1fb93bc-1f53-469d-a11d-ba57e4b4a8b8,.\34 d6854ac-60fe-4d94-8d2b-ea4aba16a7f6,.de78ff77-869c-4e9c-98fd-3af45e85b4f5{stroke:#515050;stroke-miterlimit:10;stroke-width:2px;}.\34 d6854ac-60fe-4d94-8d2b-ea4aba16a7f6{fill:none;}.\34 1fb93bc-1f53-469d-a11d-ba57e4b4a8b8{fill:#f6d568;}</style></defs><title>icon</title><rect class="de78ff77-869c-4e9c-98fd-3af45e85b4f5" x="12.32" y="41.5" width="186" height="119" rx="4.43" ry="4.43"/><rect class="4d6854ac-60fe-4d94-8d2b-ea4aba16a7f6" x="20.82" y="48" width="112.5" height="2"/><rect class="4d6854ac-60fe-4d94-8d2b-ea4aba16a7f6" x="20.82" y="53.28" width="112.5" height="2"/><rect class="4d6854ac-60fe-4d94-8d2b-ea4aba16a7f6" x="20.82" y="58.56" width="112.5" height="2"/><rect class="4d6854ac-60fe-4d94-8d2b-ea4aba16a7f6" x="20.82" y="63.83" width="112.5" height="2"/><rect class="4d6854ac-60fe-4d94-8d2b-ea4aba16a7f6" x="20.82" y="69.11" width="112.5" height="2"/><rect class="4d6854ac-60fe-4d94-8d2b-ea4aba16a7f6" x="20.82" y="74.39" width="112.5" height="2"/><rect class="4d6854ac-60fe-4d94-8d2b-ea4aba16a7f6" x="20.82" y="79.67" width="112.5" height="2"/><rect class="4d6854ac-60fe-4d94-8d2b-ea4aba16a7f6" x="20.82" y="84.94" width="112.5" height="2"/><rect class="4d6854ac-60fe-4d94-8d2b-ea4aba16a7f6" x="20.82" y="90.22" width="112.5" height="2"/><rect class="4d6854ac-60fe-4d94-8d2b-ea4aba16a7f6" x="20.82" y="95.5" width="112.5" height="2"/><rect class="4d6854ac-60fe-4d94-8d2b-ea4aba16a7f6" x="20.82" y="100.78" width="112.5" height="2"/><rect class="4d6854ac-60fe-4d94-8d2b-ea4aba16a7f6" x="20.82" y="106.06" width="112.5" height="2"/><rect class="4d6854ac-60fe-4d94-8d2b-ea4aba16a7f6" x="20.82" y="111.33" width="112.5" height="2"/><rect class="4d6854ac-60fe-4d94-8d2b-ea4aba16a7f6" x="20.82" y="116.61" width="112.5" height="2"/><rect class="4d6854ac-60fe-4d94-8d2b-ea4aba16a7f6" x="20.82" y="121.89" width="112.5" height="2"/><rect class="4d6854ac-60fe-4d94-8d2b-ea4aba16a7f6" x="20.82" y="127.17" width="112.5" height="2"/><rect class="4d6854ac-60fe-4d94-8d2b-ea4aba16a7f6" x="20.82" y="132.44" width="112.5" height="2"/><rect class="4d6854ac-60fe-4d94-8d2b-ea4aba16a7f6" x="20.82" y="137.72" width="112.5" height="2"/><rect class="4d6854ac-60fe-4d94-8d2b-ea4aba16a7f6" x="20.82" y="143" width="112.5" height="2"/><rect class="41fb93bc-1f53-469d-a11d-ba57e4b4a8b8" x="149.32" y="47.5" width="43" height="80"/><rect class="4d6854ac-60fe-4d94-8d2b-ea4aba16a7f6" x="149.82" y="132.5" width="43" height="23.38"/><line class="4d6854ac-60fe-4d94-8d2b-ea4aba16a7f6" x1="142.82" y1="41.5" x2="142.82" y2="160.5"/><rect class="41fb93bc-1f53-469d-a11d-ba57e4b4a8b8" x="20.82" y="150.33" width="26" height="3"/><rect class="4d6854ac-60fe-4d94-8d2b-ea4aba16a7f6" x="154.32" y="137.9" width="5.61" height="8.6"/><rect class="4d6854ac-60fe-4d94-8d2b-ea4aba16a7f6" x="161.51" y="137.9" width="5.61" height="8.6"/><rect class="4d6854ac-60fe-4d94-8d2b-ea4aba16a7f6" x="168.7" y="137.9" width="5.61" height="8.6"/><line class="4d6854ac-60fe-4d94-8d2b-ea4aba16a7f6" x1="150.32" y1="151.5" x2="193.32" y2="151.5"/><rect class="4d6854ac-60fe-4d94-8d2b-ea4aba16a7f6" x="176.82" y="145" width="12" height="2"/><polygon class="4d6854ac-60fe-4d94-8d2b-ea4aba16a7f6" points="160.71 48.5 160.71 126.5 155.98 125 155.32 49.49 160.71 48.5"/><polygon class="4d6854ac-60fe-4d94-8d2b-ea4aba16a7f6" points="169.71 48.5 169.71 126.5 164.98 125 164.32 49.49 169.71 48.5"/><polygon class="4d6854ac-60fe-4d94-8d2b-ea4aba16a7f6" points="188.71 48.5 188.71 126.5 183.98 125 183.32 49.49 188.71 48.5"/><polygon class="4d6854ac-60fe-4d94-8d2b-ea4aba16a7f6" points="179.32 48.5 179.32 126.5 173.32 125 173.92 49.49 179.32 48.5"/><circle class="41fb93bc-1f53-469d-a11d-ba57e4b4a8b8" cx="56.82" cy="151.83" r="1.5"/><circle class="4d6854ac-60fe-4d94-8d2b-ea4aba16a7f6" cx="61.82" cy="151.83" r="1.5"/><line class="4d6854ac-60fe-4d94-8d2b-ea4aba16a7f6" x1="77.07" y1="148.63" x2="133.32" y2="148.63"/></svg>