<svg id="圖層_1" data-name="圖層 1" xmlns="http://www.w3.org/2000/svg" viewBox="0 0 210.63 202"><defs><style>.cls-1{fill:#f6d568;}.cls-1,.cls-2,.cls-3{stroke:#515050;stroke-miterlimit:10;stroke-width:2px;}.cls-2{fill:#fff;}.cls-3{fill:none;}</style></defs><title>icon</title><path class="cls-1" d="M157.37,122.64,122.55,157.7s2.34,7.3,1.41,11.38-6.09,7.21-6.09,7.21l3.27,4.28,53.35,5.2s-4.91-11.16.88-20.38,13.2-11.24,19.23-7.29c0,0,1.69-10-.69-12.18s-21.11-14-21.11-14Z"/><circle class="cls-2" cx="182.73" cy="170.81" r="16.46"/><polygon class="cls-2" points="114.53 160.3 119.65 160.26 119.89 166.41 116.25 170.54 112.39 169.95 114.53 160.3"/><path class="cls-2" d="M123.74,169.23s4.84-7.68.28-13.74l32.54-32.77L185.5,140.2l-19.88,10.33-6.85,20.07-35-1.37"/><circle class="cls-2" cx="182.73" cy="170.81" r="10.66"/><path class="cls-2" d="M114.29,161.39s-13.38-20.58-1.85-39.88c7.58-12.7,11.7-15.59,11.7-15.59s31.35-34.41,10.42-74.5l-7.11,2.88s21.6,33.29-8.56,68.15c-26,30-19.84,47.75-6.5,67.5"/><polygon class="cls-1" points="134.56 28.95 125.44 22 90.57 85.81 98.11 90.65 134.56 28.95"/><polygon class="cls-2" points="91.64 86.5 88.25 93.35 94.21 96.82 97.57 90.3 91.64 86.5"/><polygon class="cls-2" points="88.79 93.67 57.08 152.54 62.05 156.34 93.49 96.79 88.79 93.67"/><polygon class="cls-2" points="11.99 170.05 65.58 185.88 83.24 170.78 30.95 157.9 11.99 170.05"/><polygon class="cls-2" points="12.73 177.17 12.21 170.12 65.8 185.95 66.33 193.21 12.73 177.17"/><polygon class="cls-2" points="85.25 176.89 83.32 171.72 65.82 185.34 66.33 193.21 85.25 176.89"/><polygon class="cls-2" points="52 151.69 35.44 164.48 64.18 173.35 67.03 156.53 52 151.69"/><line class="cls-3" x1="60.67" y1="145.87" x2="66.02" y2="150.85"/><line class="cls-3" x1="63.09" y1="141.38" x2="67.98" y2="147.14"/><path class="cls-2" d="M125.91,154.68s-6.49,3.37-7,3.67,1.44,5.73.32,8.18-4.85,5.5-4.85,5.5l5.67,5.75s6.1-3.43,7.57-9S125.91,154.68,125.91,154.68Z"/><circle class="cls-1" cx="135.47" cy="162.52" r="2.51"/><circle class="cls-3" cx="143.85" cy="162.52" r="2.51"/><circle class="cls-3" cx="152.3" cy="162.52" r="2.51"/></svg>