<svg id="圖層_1" data-name="圖層 1" xmlns="http://www.w3.org/2000/svg" viewBox="0 0 210.63 202"><defs><style>.cls-1,.cls-5{fill:none;}.cls-1,.cls-2,.cls-3,.cls-4,.cls-5{stroke:#515050;stroke-miterlimit:10;}.cls-1,.cls-2,.cls-3{stroke-width:2px;}.cls-2{fill:#fff;}.cls-3,.cls-4{fill:#f6d568;}</style></defs><title>icon</title><rect class="cls-1" x="100.21" y="158" width="8.9" height="9.77"/><polygon class="cls-2" points="67.05 165.1 63.82 173.88 144.69 173.88 141.45 165.1 67.05 165.1"/><polygon class="cls-2" points="64.64 178.27 63.82 173.88 144.69 173.88 143.87 178.27 64.64 178.27"/><path class="cls-2" d="M97.48,152.67h14.35v1.78l-2.15,2.66.24,11.55a17.81,17.81,0,0,1-10.52,0V157.11l-1.92-1.77Z"/><rect class="cls-2" x="10.38" y="34.57" width="187.74" height="122.55"/><rect class="cls-3" x="19.18" y="41.52" width="170.14" height="107.75"/><line class="cls-1" x1="102.98" y1="160.62" x2="102.98" y2="169.59"/><circle class="cls-4" cx="182" cy="153.38" r="1.69"/><circle class="cls-5" cx="187.63" cy="153.38" r="1.69"/></svg>