<svg id="0775ca1a-cbe3-4ad7-90bf-f2b1b8a44853" data-name="圖層 1" xmlns="http://www.w3.org/2000/svg" viewBox="0 0 210.63 202"><defs><style>.\36 0517456-9806-49e4-8fd4-e4f7da06e78f{fill:none;}.\30 416b7d7-b680-4e79-81e5-28a404ca649d,.\36 0517456-9806-49e4-8fd4-e4f7da06e78f,.c39b2ae5-0d98-4d9c-a319-1a84be8e546f{stroke:#515050;stroke-miterlimit:10;stroke-width:2px;}.\30 416b7d7-b680-4e79-81e5-28a404ca649d{fill:#f6d568;}.c39b2ae5-0d98-4d9c-a319-1a84be8e546f{fill:#fff;}</style></defs><title>icon</title><rect class="60517456-9806-49e4-8fd4-e4f7da06e78f" x="22.83" y="23.64" width="90.35" height="142.82" rx="2.9" ry="2.9"/><rect class="60517456-9806-49e4-8fd4-e4f7da06e78f" x="120.42" y="64.87" width="61.34" height="101.6" rx="3.72" ry="3.72"/><circle class="0416b7d7-b680-4e79-81e5-28a404ca649d" cx="68.88" cy="56.27" r="21.67"/><circle class="60517456-9806-49e4-8fd4-e4f7da06e78f" cx="68.88" cy="122.2" r="31.53"/><circle class="0416b7d7-b680-4e79-81e5-28a404ca649d" cx="68.88" cy="122.2" r="11.07"/><circle class="0416b7d7-b680-4e79-81e5-28a404ca649d" cx="150.98" cy="89.38" r="14.83"/><circle class="60517456-9806-49e4-8fd4-e4f7da06e78f" cx="150.98" cy="136.15" r="20.64"/><circle class="60517456-9806-49e4-8fd4-e4f7da06e78f" cx="150.98" cy="136.15" r="7.25"/><rect class="0416b7d7-b680-4e79-81e5-28a404ca649d" x="22.83" y="167.04" width="90.35" height="11.32"/><rect class="0416b7d7-b680-4e79-81e5-28a404ca649d" x="120.42" y="167.04" width="61.13" height="11.32"/><circle class="0416b7d7-b680-4e79-81e5-28a404ca649d" cx="98.28" cy="159.92" r="2.14"/><circle class="60517456-9806-49e4-8fd4-e4f7da06e78f" cx="105.4" cy="159.92" r="2.14"/><circle class="0416b7d7-b680-4e79-81e5-28a404ca649d" cx="164.82" cy="159.92" r="2.14"/><circle class="60517456-9806-49e4-8fd4-e4f7da06e78f" cx="171.95" cy="159.92" r="2.14"/><circle class="c39b2ae5-0d98-4d9c-a319-1a84be8e546f" cx="68.88" cy="56.27" r="6.03"/><circle class="c39b2ae5-0d98-4d9c-a319-1a84be8e546f" cx="68.88" cy="122.2" r="5.94"/><circle class="c39b2ae5-0d98-4d9c-a319-1a84be8e546f" cx="150.98" cy="89.38" r="4.55"/><circle class="60517456-9806-49e4-8fd4-e4f7da06e78f" cx="150.98" cy="136.15" r="3.47"/><path class="60517456-9806-49e4-8fd4-e4f7da06e78f" d="M68.88,85.19a37,37,0,1,1-37,37"/><line class="60517456-9806-49e4-8fd4-e4f7da06e78f" x1="39.54" y1="174.82" x2="113.18" y2="174.82"/><line class="60517456-9806-49e4-8fd4-e4f7da06e78f" x1="127.6" y1="174.82" x2="181.76" y2="174.82"/></svg>