<svg id="bf90a46a-0b17-42d0-a6f0-f17cc39022f8" data-name="圖層 1" xmlns="http://www.w3.org/2000/svg" viewBox="0 0 210.63 202"><defs><style>.\31 e560129-2fd4-4e2c-b784-e3d4c0514162{fill:#f6d568;}.\31 e560129-2fd4-4e2c-b784-e3d4c0514162,.\36 c7b0990-ecd8-43ac-b779-32dd8748715e,.\38 ce97387-1a46-441a-afe9-80550de0af28{stroke:#515050;stroke-miterlimit:10;stroke-width:2px;}.\38 ce97387-1a46-441a-afe9-80550de0af28{fill:#fff;}.\36 c7b0990-ecd8-43ac-b779-32dd8748715e{fill:none;}</style></defs><title>icon</title><rect class="1e560129-2fd4-4e2c-b784-e3d4c0514162" x="20.96" y="123.57" width="167.61" height="24.73"/><polygon class="8ce97387-1a46-441a-afe9-80550de0af28" points="188.57 123.57 20.96 123.57 20.96 43.6 187.57 43.6 188.57 123.57"/><rect class="8ce97387-1a46-441a-afe9-80550de0af28" x="20.96" y="148.34" width="167.61" height="7.64"/><circle class="8ce97387-1a46-441a-afe9-80550de0af28" cx="58.04" cy="91.3" r="23.72"/><circle class="1e560129-2fd4-4e2c-b784-e3d4c0514162" cx="58.04" cy="91.3" r="17.52"/><circle class="1e560129-2fd4-4e2c-b784-e3d4c0514162" cx="58.04" cy="91.3" r="3.68"/><circle class="8ce97387-1a46-441a-afe9-80550de0af28" cx="149.74" cy="91.3" r="23.72"/><circle class="1e560129-2fd4-4e2c-b784-e3d4c0514162" cx="149.74" cy="91.3" r="17.52"/><circle class="1e560129-2fd4-4e2c-b784-e3d4c0514162" cx="149.74" cy="91.3" r="4.26"/><path class="8ce97387-1a46-441a-afe9-80550de0af28" d="M21,42.55C13.82,42.55,13.82,76,13.82,76H196.19s-.39-33.44-8.62-33.44Z"/><rect class="8ce97387-1a46-441a-afe9-80550de0af28" x="13.82" y="75.99" width="182.37" height="6.74"/><circle class="1e560129-2fd4-4e2c-b784-e3d4c0514162" cx="152.49" cy="62.02" r="2.75"/><circle class="6c7b0990-ecd8-43ac-b779-32dd8748715e" cx="161.77" cy="62.02" r="2.75"/><circle class="6c7b0990-ecd8-43ac-b779-32dd8748715e" cx="171.05" cy="62.02" r="2.75"/><circle class="6c7b0990-ecd8-43ac-b779-32dd8748715e" cx="180.34" cy="62.02" r="2.75"/><polygon class="8ce97387-1a46-441a-afe9-80550de0af28" points="189.57 161.5 19.96 161.5 20.96 156.02 188.57 156.02 189.57 161.5"/><polygon class="8ce97387-1a46-441a-afe9-80550de0af28" points="13.82 82.74 20.96 155.98 20.96 82.74 13.82 82.74"/><polygon class="8ce97387-1a46-441a-afe9-80550de0af28" points="195.71 82.74 188.57 155.98 188.57 82.74 195.71 82.74"/><line class="6c7b0990-ecd8-43ac-b779-32dd8748715e" x1="20.96" y1="129" x2="155.24" y2="129"/></svg>