<svg id="98148718-4b01-4acd-956f-a227f57ef9f4" data-name="圖層 1" xmlns="http://www.w3.org/2000/svg" viewBox="0 0 210.63 202"><defs><style>.\37 8e0d8f5-5693-49b0-b5ed-f90f00a3369f{fill:#f6d568;}.\31 774fd8b-6dfa-4233-868f-cf2b6505c9bc,.\37 8e0d8f5-5693-49b0-b5ed-f90f00a3369f,.\37 9f2b0ee-0e29-4d57-9a27-14333c57b42a{stroke:#515050;stroke-miterlimit:10;stroke-width:2px;}.\37 9f2b0ee-0e29-4d57-9a27-14333c57b42a{fill:#fff;}.\31 774fd8b-6dfa-4233-868f-cf2b6505c9bc{fill:none;}</style></defs><title>icon</title><ellipse class="78e0d8f5-5693-49b0-b5ed-f90f00a3369f" cx="106.68" cy="166.86" rx="3.74" ry="3.95"/><polygon class="79f2b0ee-0e29-4d57-9a27-14333c57b42a" points="24.62 100.78 36.87 162.63 57.12 179.81 152.37 179.81 177.37 160.78 186.21 102.93 159.86 115.92 45.87 120.08 24.62 100.78"/><polygon class="79f2b0ee-0e29-4d57-9a27-14333c57b42a" points="24.62 87.83 36.87 149.68 57.12 166.86 152.37 166.86 177.37 147.83 188.87 89.68 166.62 107.13 45.87 107.13 24.62 87.83"/><path class="79f2b0ee-0e29-4d57-9a27-14333c57b42a" d="M23.49,98.16l13.38,64.47s12.76,14.6,20.69,17.19,85.92,4,95.25,0,24.56-19,24.56-19l10.51-63.71s-7.42,18.79-20.82,20.2c-14.83,1.56-115.89,2.08-124-.46C33.32,113.76,23.49,98.16,23.49,98.16Z"/><path class="79f2b0ee-0e29-4d57-9a27-14333c57b42a" d="M34.24,42l-11,48a14.69,14.69,0,0,0,14.43,18l135-1a14.69,14.69,0,0,0,14.25-17.77l-10-46.77a26.9,26.9,0,0,0-26.31-21.27H60.46A26.9,26.9,0,0,0,34.24,42Z"/><path class="79f2b0ee-0e29-4d57-9a27-14333c57b42a" d="M71.66,34.38l-6.43,37.2c-1,6,2.4,11.69,7,11.64l65.69-.68c4.53,0,7.88-5.61,6.93-11.5L139,34.52c-.71-4.39-3.62-7.52-7-7.52H78.63C75.3,27,72.41,30.06,71.66,34.38Z"/><polygon class="78e0d8f5-5693-49b0-b5ed-f90f00a3369f" points="75.22 63.68 78.46 43.73 132.25 43.73 134.87 63.68 75.22 63.68"/><polygon class="79f2b0ee-0e29-4d57-9a27-14333c57b42a" points="73.22 76.77 74.08 70.41 91.7 70.42 90.99 76.77 73.22 76.77"/><polygon class="79f2b0ee-0e29-4d57-9a27-14333c57b42a" points="97.54 76.77 98.28 70.42 114.62 70.42 115.08 76.77 97.54 76.77"/><polygon class="79f2b0ee-0e29-4d57-9a27-14333c57b42a" points="120.7 76.77 120.04 70.42 136.29 70.42 136.74 76.77 120.7 76.77"/><line class="79f2b0ee-0e29-4d57-9a27-14333c57b42a" x1="71.04" y1="37.97" x2="139" y2="37.97"/><polygon class="79f2b0ee-0e29-4d57-9a27-14333c57b42a" points="182.04 39.75 192.7 87.22 186.93 93.12 174.86 36.7 182.04 39.75"/><polygon class="79f2b0ee-0e29-4d57-9a27-14333c57b42a" points="28.6 39.75 17.93 87.22 23.7 93.12 35.78 36.7 28.6 39.75"/><circle class="78e0d8f5-5693-49b0-b5ed-f90f00a3369f" cx="106.68" cy="170.81" r="3.74"/><rect class="79f2b0ee-0e29-4d57-9a27-14333c57b42a" x="92.7" y="113.35" width="25.43" height="12.48"/><line class="1774fd8b-6dfa-4233-868f-cf2b6505c9bc" x1="53.39" y1="117.79" x2="53.39" y2="177"/><line class="1774fd8b-6dfa-4233-868f-cf2b6505c9bc" x1="158.87" y1="117.79" x2="158.87" y2="177"/></svg>