<svg id="983b8f20-2955-4ff7-9f8f-b94c7279e6b2" data-name="圖層 1" xmlns="http://www.w3.org/2000/svg" viewBox="0 0 210.63 202"><defs><style>.\38 368c370-bb60-4a7e-82a8-360454c27e04{fill:#fff;}.\31 af8f40e-8b8a-48aa-890c-a9bc287c4039,.\38 368c370-bb60-4a7e-82a8-360454c27e04,.b2ea4a33-5b38-4478-9e78-fd561e9cbae3{stroke:#515050;stroke-miterlimit:10;stroke-width:2px;}.b2ea4a33-5b38-4478-9e78-fd561e9cbae3{fill:#f6d568;}.\31 af8f40e-8b8a-48aa-890c-a9bc287c4039{fill:none;}</style></defs><title>icon</title><rect class="8368c370-bb60-4a7e-82a8-360454c27e04" x="15.82" y="125.73" width="69.12" height="53.54"/><rect class="8368c370-bb60-4a7e-82a8-360454c27e04" x="15.82" y="125.73" width="69.12" height="53.54"/><rect class="8368c370-bb60-4a7e-82a8-360454c27e04" x="15.82" y="112.84" width="69.12" height="12.89"/><rect class="b2ea4a33-5b38-4478-9e78-fd561e9cbae3" x="15.82" y="112.84" width="69.12" height="12.89"/><rect class="8368c370-bb60-4a7e-82a8-360454c27e04" x="15.82" y="107.96" width="69.12" height="5.09"/><rect class="8368c370-bb60-4a7e-82a8-360454c27e04" x="15.82" y="82.55" width="69.12" height="25.4"/><rect class="8368c370-bb60-4a7e-82a8-360454c27e04" x="15.82" y="29.8" width="69.12" height="52.96"/><rect class="8368c370-bb60-4a7e-82a8-360454c27e04" x="21.88" y="45.35" width="57.01" height="4.65"/><rect class="8368c370-bb60-4a7e-82a8-360454c27e04" x="21.88" y="56.28" width="57.01" height="4.65"/><line class="1af8f40e-8b8a-48aa-890c-a9bc287c4039" x1="21.88" y1="39.69" x2="62.68" y2="39.69"/><circle class="b2ea4a33-5b38-4478-9e78-fd561e9cbae3" cx="24.32" cy="90.08" r="2.44"/><circle class="1af8f40e-8b8a-48aa-890c-a9bc287c4039" cx="32.46" cy="90.08" r="2.44"/><circle class="1af8f40e-8b8a-48aa-890c-a9bc287c4039" cx="40.67" cy="90.08" r="2.44"/><circle class="8368c370-bb60-4a7e-82a8-360454c27e04" cx="66.94" cy="128.98" r="10.76" transform="translate(-64.49 190.96) rotate(-87.82)"/><circle class="b2ea4a33-5b38-4478-9e78-fd561e9cbae3" cx="66.94" cy="128.98" r="6.2" transform="translate(-64.49 190.96) rotate(-87.82)"/><line class="1af8f40e-8b8a-48aa-890c-a9bc287c4039" x1="15.82" y1="172.95" x2="69.47" y2="172.95"/><rect class="1af8f40e-8b8a-48aa-890c-a9bc287c4039" x="133.13" y="164.83" width="8.07" height="6.52"/><polygon class="1af8f40e-8b8a-48aa-890c-a9bc287c4039" points="100.86 179.04 100.11 173.02 173.49 173.02 172.75 179.04 100.86 179.04"/><path class="8368c370-bb60-4a7e-82a8-360454c27e04" d="M130.66,158.48h13V160l-2,2.22.22,9.63a17.47,17.47,0,0,1-9.55,0v-9.63l-1.74-1.48Z"/><rect class="8368c370-bb60-4a7e-82a8-360454c27e04" x="75.78" y="78.26" width="121.31" height="82.29"/><rect class="b2ea4a33-5b38-4478-9e78-fd561e9cbae3" x="83.33" y="86.09" width="106.21" height="67.02"/></svg>