<svg id="8dab7989-9f24-42b1-81df-9edf15e757e2" data-name="圖層 1" xmlns="http://www.w3.org/2000/svg" viewBox="0 0 210.63 202"><defs><style>.c72c62d7-25a5-437e-8bc5-4234804ecac1{fill:#f6d568;}.\31 8eb8889-8c9b-4d07-ab75-1a0675de622f,.\31 be778d1-55ef-4937-a585-2479c60273eb,.c19e0876-ae4e-4e35-a24f-99cd08a9fa3f,.c72c62d7-25a5-437e-8bc5-4234804ecac1{stroke:#515050;stroke-miterlimit:10;stroke-width:2px;}.c19e0876-ae4e-4e35-a24f-99cd08a9fa3f{fill:none;}.\31 8eb8889-8c9b-4d07-ab75-1a0675de622f{fill:#fefcfd;}.\31 be778d1-55ef-4937-a585-2479c60273eb{fill:#fff;}</style></defs><title>icon</title><path class="c72c62d7-25a5-437e-8bc5-4234804ecac1" d="M161.91,104.43,139.69,22.27H76L53.83,104.43a1.39,1.39,0,0,0-.16.6c0,4.5,24.27,8.15,54.2,8.15s54.2-3.65,54.2-8.15A1.39,1.39,0,0,0,161.91,104.43Z"/><rect class="c19e0876-ae4e-4e35-a24f-99cd08a9fa3f" x="104.49" y="113.18" width="6.72" height="65.94"/><path class="18eb8889-8c9b-4d07-ab75-1a0675de622f" d="M122.05,178.6l-5.84-4.88H99.48l-5.84,4.88s0,0,0,0c0,.27,6.38.48,14.25.48s14.25-.22,14.25-.48C122.1,178.63,122.08,178.62,122.05,178.6Z"/><ellipse class="18eb8889-8c9b-4d07-ab75-1a0675de622f" cx="107.87" cy="22.27" rx="31.82" ry="4.79"/><line class="c19e0876-ae4e-4e35-a24f-99cd08a9fa3f" x1="131.59" y1="113.18" x2="131.05" y2="144.07"/><circle class="c72c62d7-25a5-437e-8bc5-4234804ecac1" cx="131.55" cy="146.74" r="3.98"/><rect class="1be778d1-55ef-4937-a585-2479c60273eb" x="77.53" y="178.82" width="60.62" height="11.85" rx="3.21" ry="3.21"/><ellipse class="c19e0876-ae4e-4e35-a24f-99cd08a9fa3f" cx="107.87" cy="30.46" rx="33.56" ry="5.05"/><ellipse class="18eb8889-8c9b-4d07-ab75-1a0675de622f" cx="107.87" cy="22.27" rx="31.82" ry="4.79"/><line class="c19e0876-ae4e-4e35-a24f-99cd08a9fa3f" x1="131.55" y1="35.51" x2="143.17" y2="111.21"/><line class="c19e0876-ae4e-4e35-a24f-99cd08a9fa3f" x1="77.53" y1="185.54" x2="110.91" y2="185.54"/></svg>