<svg id="65b3c985-81b3-4d09-833f-120a211790c6" data-name="圖層 1" xmlns="http://www.w3.org/2000/svg" viewBox="0 0 210.63 202"><defs><style>.\37 c9ad93f-88ee-4318-b6af-aa3fdc3f0ecd{fill:#f6d568;}.\32 56de39e-26ee-489a-b827-fef1768eba0c,.\36 7469905-2d72-4b70-9283-c16ad7f4d3fb,.\37 c9ad93f-88ee-4318-b6af-aa3fdc3f0ecd{stroke:#515050;stroke-miterlimit:10;stroke-width:2px;}.\36 7469905-2d72-4b70-9283-c16ad7f4d3fb{fill:#fff;}.\32 56de39e-26ee-489a-b827-fef1768eba0c{fill:none;}</style></defs><title>icon</title><path class="7c9ad93f-88ee-4318-b6af-aa3fdc3f0ecd" d="M42.7,148.45s8.64,22,60.1,23.27c51.67,1.25,59.85-24.41,59.85-24.41s-3.82-4.83-4.84-7.47-3.27,18-55.29,18-55-19.54-55-19.54Z"/><path class="67469905-2d72-4b70-9283-c16ad7f4d3fb" d="M71.47,48.59S50,78.62,46.77,143.4c0,0,13.91,19.48,59.24,20.52,17.24.4,36.76-2.39,52.8-20.7,0,0-10.31-93.28-30.44-109C128.38,34.28,91.64,20.63,71.47,48.59Z"/><polygon class="67469905-2d72-4b70-9283-c16ad7f4d3fb" points="75.2 44.8 52.9 46.7 58.02 78.62 75.2 44.8"/><path class="7c9ad93f-88ee-4318-b6af-aa3fdc3f0ecd" d="M74.8,44.2s74.63,12.87,54.27-10c0,0-32.8-13.81-54.27,10Z"/><path class="256de39e-26ee-489a-b827-fef1768eba0c" d="M47,136.59s11.48,23,61.13,23"/><path class="256de39e-26ee-489a-b827-fef1768eba0c" d="M73.67,48.42c.17.37,58.27,10.15,61.15-4.72"/><rect class="67469905-2d72-4b70-9283-c16ad7f4d3fb" x="96.03" y="85" width="15.53" height="66.19"/><rect class="67469905-2d72-4b70-9283-c16ad7f4d3fb" x="101.55" y="95.08" width="4.33" height="46.01"/><rect class="7c9ad93f-88ee-4318-b6af-aa3fdc3f0ecd" x="101.55" y="107.73" width="4.33" height="33.36"/><polygon class="7c9ad93f-88ee-4318-b6af-aa3fdc3f0ecd" points="138.18 49.48 134.82 51.5 142.21 69.53 148.4 66.34 139.81 49.48 138.18 49.48"/><path class="7c9ad93f-88ee-4318-b6af-aa3fdc3f0ecd" d="M139.14,52.84c10.47-2.36,24.73.84,24.73.84,6.66,9.62,12.61,56.21,10.75,57.11a39.72,39.72,0,0,1-6.92,1.77c-4.12-26.84-11-45.59-12.35-46.46s-10.62-.59-10.62-.59l-5.37-10.37Z"/></svg>