<svg id="e503fc20-f4c1-4351-a18b-ff206f61032c" data-name="圖層 1" xmlns="http://www.w3.org/2000/svg" viewBox="0 0 210.63 202"><defs><style>.affbc9c2-33b2-4b09-8e6e-83c67a8f3b14{fill:#f6d568;}.\35 121a372-8245-45e6-8ac4-7406d56a71e8,.\38 843b25f-8d1e-400c-9cec-dcec17afea4b,.affbc9c2-33b2-4b09-8e6e-83c67a8f3b14{stroke:#515050;stroke-miterlimit:10;stroke-width:2px;}.\38 843b25f-8d1e-400c-9cec-dcec17afea4b{fill:none;}.\35 121a372-8245-45e6-8ac4-7406d56a71e8{fill:#fff;}</style></defs><title>icon</title><rect class="affbc9c2-33b2-4b09-8e6e-83c67a8f3b14" x="89.34" y="43.24" width="35.96" height="37.98"/><rect class="8843b25f-8d1e-400c-9cec-dcec17afea4b" x="132.46" y="44.42" width="25.43" height="4.27"/><rect class="8843b25f-8d1e-400c-9cec-dcec17afea4b" x="132.46" y="54.12" width="25.43" height="4.27"/><rect class="8843b25f-8d1e-400c-9cec-dcec17afea4b" x="56.89" y="44.42" width="25.43" height="4.27"/><rect class="8843b25f-8d1e-400c-9cec-dcec17afea4b" x="56.89" y="54.12" width="25.43" height="4.27"/><rect class="8843b25f-8d1e-400c-9cec-dcec17afea4b" x="132.46" y="63.88" width="25.43" height="4.27"/><rect class="8843b25f-8d1e-400c-9cec-dcec17afea4b" x="132.46" y="73.57" width="25.43" height="4.27"/><circle class="affbc9c2-33b2-4b09-8e6e-83c67a8f3b14" cx="60.63" cy="71.97" r="3.74"/><circle class="8843b25f-8d1e-400c-9cec-dcec17afea4b" cx="73.45" cy="71.97" r="3.74"/><rect class="8843b25f-8d1e-400c-9cec-dcec17afea4b" x="49.34" y="121.28" width="115.96" height="61.95"/><rect class="affbc9c2-33b2-4b09-8e6e-83c67a8f3b14" x="49.34" y="116.2" width="115.96" height="67.03"/><polygon class="8843b25f-8d1e-400c-9cec-dcec17afea4b" points="165.3 116.2 49.34 116.2 48.95 34.39 164.91 34.39 165.3 116.2"/><polygon class="8843b25f-8d1e-400c-9cec-dcec17afea4b" points="94.64 183.23 49.34 183.23 53.48 189.44 90.5 189.44 94.64 183.23"/><polygon class="8843b25f-8d1e-400c-9cec-dcec17afea4b" points="165.3 183.23 120 183.23 124.15 189.44 161.16 189.44 165.3 183.23"/><path class="affbc9c2-33b2-4b09-8e6e-83c67a8f3b14" d="M99.4,173.6a2.37,2.37,0,0,0,2.54,2.14h10.77a2.37,2.37,0,0,0,2.54-2.14V141.47H99.4Z"/><path class="5121a372-8245-45e6-8ac4-7406d56a71e8" d="M112.71,132.69H101.93a2.37,2.37,0,0,0-2.54,2.14v6.64h15.85v-6.64A2.37,2.37,0,0,0,112.71,132.69Z"/><polygon class="8843b25f-8d1e-400c-9cec-dcec17afea4b" points="59.17 19.38 158.06 19.38 165.3 34.39 49.34 34.39 59.17 19.38"/><line class="8843b25f-8d1e-400c-9cec-dcec17afea4b" x1="49.27" y1="122.02" x2="165.24" y2="122.02"/><path class="affbc9c2-33b2-4b09-8e6e-83c67a8f3b14" d="M107.32,97.1s-4.23,5-4.23,7.42a4.45,4.45,0,0,0,4.23,4.66,4.39,4.39,0,0,0,4.1-4.1C111.42,103.48,107.32,97.1,107.32,97.1Z"/><line class="8843b25f-8d1e-400c-9cec-dcec17afea4b" x1="89.34" y1="87.2" x2="120" y2="87.2"/><line class="8843b25f-8d1e-400c-9cec-dcec17afea4b" x1="93.6" y1="49.67" x2="101.24" y2="49.67"/><line class="8843b25f-8d1e-400c-9cec-dcec17afea4b" x1="93.6" y1="49.67" x2="101.24" y2="49.67"/><line class="8843b25f-8d1e-400c-9cec-dcec17afea4b" x1="109.26" y1="49.67" x2="120.72" y2="49.67"/><line class="8843b25f-8d1e-400c-9cec-dcec17afea4b" x1="103.95" y1="49.67" x2="106.79" y2="49.67"/><line class="8843b25f-8d1e-400c-9cec-dcec17afea4b" x1="102.19" y1="61.06" x2="120.72" y2="61.06"/><line class="8843b25f-8d1e-400c-9cec-dcec17afea4b" x1="93.6" y1="61.06" x2="98.19" y2="61.06"/><line class="8843b25f-8d1e-400c-9cec-dcec17afea4b" x1="93.6" y1="55.88" x2="107.01" y2="55.88"/><line class="8843b25f-8d1e-400c-9cec-dcec17afea4b" x1="111.78" y1="55.88" x2="116.77" y2="55.88"/><polyline class="8843b25f-8d1e-400c-9cec-dcec17afea4b" points="89.34 73.57 99.39 73.57 102.05 70.92 104.67 75.71 107.46 73.31 125.3 73.31"/><polygon class="8843b25f-8d1e-400c-9cec-dcec17afea4b" points="59.17 19.38 158.06 19.38 165.3 34.39 49.34 34.39 59.17 19.38"/><polygon class="5121a372-8245-45e6-8ac4-7406d56a71e8" points="70.97 13.95 145.63 13.95 151.1 23.65 63.54 23.65 70.97 13.95"/><polygon class="5121a372-8245-45e6-8ac4-7406d56a71e8" points="71.11 20.62 145.77 20.62 151.25 27.83 63.68 27.83 71.11 20.62"/></svg>