<svg id="d2e0ee9b-ab7c-4470-b5fb-e70985bc313b" data-name="圖層 1" xmlns="http://www.w3.org/2000/svg" viewBox="0 0 210.63 202"><defs><style>.\36 7006c05-ac75-4771-bce3-751192a69365{fill:#fff;}.\36 7006c05-ac75-4771-bce3-751192a69365,.bb641d60-0bdf-4533-87e3-55480d2c8bd0,.fca44fcd-1034-46bb-9af8-eb00d4acd554{stroke:#515050;stroke-miterlimit:10;stroke-width:2px;}.fca44fcd-1034-46bb-9af8-eb00d4acd554{fill:#f6d568;}.bb641d60-0bdf-4533-87e3-55480d2c8bd0{fill:none;}</style></defs><title>icon</title><path class="67006c05-ac75-4771-bce3-751192a69365" d="M13,146.68s71,24.27,160.87,7.45c0,0,9.54-13.57-12.27-31.68C161.58,122.45,15.86,133.5,13,146.68Z"/><path class="67006c05-ac75-4771-bce3-751192a69365" d="M14.94,140.89s68.68,24.88,155.58,6.18c0,0-2.19-10.9,18-15.78,0,0,7.76-8.72,9-8.71S192,111.79,192,111.79s-7.56-23-6.82-38.19c0,0-1.2-13.75-4.49-15.62S126.32,51.45,90,69.88c0,0-32.57,20-30.94,26.2C59.11,96.08,8.35,144.16,14.94,140.89Z"/><path class="67006c05-ac75-4771-bce3-751192a69365" d="M98.1,99.59S95,87.14,119.48,78.74s40.76-6.32,42.77-4.74,4.34,6.71-4.68,14.21S101.77,106.62,98.1,99.59Z"/><path class="fca44fcd-1034-46bb-9af8-eb00d4acd554" d="M104.25,101.85s1.23,13.7-13.17,21.87,9.47,8.18,9.47,8.18,91.38-5.35,81.5-15-32.48-12.66-24.47-28.66C157.57,88.22,138,101.85,104.25,101.85Z"/><path class="bb641d60-0bdf-4533-87e3-55480d2c8bd0" d="M23.86,130.62s29.65,21.48,150,9.68"/><path class="bb641d60-0bdf-4533-87e3-55480d2c8bd0" d="M42.87,112.4s10.74,6.63,14.45,6.25,27.74-63,127.07-50.23"/><path class="fca44fcd-1034-46bb-9af8-eb00d4acd554" d="M61.5,88.91v5.44h7.87V85.2s-.69-2-3.94-2S61.5,85,61.5,85Z"/><path class="fca44fcd-1034-46bb-9af8-eb00d4acd554" d="M61.5,85s.44,2.25,3.94,2.25c0,0,3.94.34,3.94-2"/><ellipse class="67006c05-ac75-4771-bce3-751192a69365" cx="123.82" cy="103.51" rx="16.83" ry="9.55"/><path class="bb641d60-0bdf-4533-87e3-55480d2c8bd0" d="M118.77,109.1c-7.23-1.61-6.33-6.13-6.33-6.13.26-4.13,10.07-5,10.07-5l1.31,5.69Z"/><path class="bb641d60-0bdf-4533-87e3-55480d2c8bd0" d="M26.52,126.1s18.34,15.43,100.16,11.55"/></svg>