<svg id="0c2965cc-1f59-4e4f-a705-f449187b1077" data-name="圖層 1" xmlns="http://www.w3.org/2000/svg" viewBox="0 0 210.63 202"><defs><style>.fb401aad-3018-4741-9dc3-1224d9e3d71c{fill:#fff;}.\36 ded6bb4-18ee-45a2-8876-60d0e8d2bc3b,.\38 5c1e029-6cfd-4692-a4a9-02f302b6b009,.fb401aad-3018-4741-9dc3-1224d9e3d71c{stroke:#515050;stroke-miterlimit:10;stroke-width:2px;}.\36 ded6bb4-18ee-45a2-8876-60d0e8d2bc3b{fill:#f6d568;}.\38 5c1e029-6cfd-4692-a4a9-02f302b6b009{fill:none;}</style></defs><title>icon</title><rect class="fb401aad-3018-4741-9dc3-1224d9e3d71c" x="15.29" y="136.43" width="182.53" height="31.42"/><rect class="fb401aad-3018-4741-9dc3-1224d9e3d71c" x="28.77" y="154.21" width="39.37" height="13.41"/><path class="6ded6bb4-18ee-45a2-8876-60d0e8d2bc3b" d="M132.51,168.21c-.41-14.39-11.86-25.94-25.95-25.94S81,153.82,80.61,168.21Z"/><circle class="fb401aad-3018-4741-9dc3-1224d9e3d71c" cx="106.56" cy="156.71" r="9.92"/><rect class="fb401aad-3018-4741-9dc3-1224d9e3d71c" x="103.66" y="151.07" width="5.78" height="11.27" transform="translate(212.88 -0.16) rotate(68.34)"/><path class="fb401aad-3018-4741-9dc3-1224d9e3d71c" d="M198,136.43c2.61-23.87-9.92-100.38-9.92-100.38H25.36c-12.85,69.74-9.92,100.38-9.92,100.38Z"/><ellipse class="fb401aad-3018-4741-9dc3-1224d9e3d71c" cx="53.44" cy="90.49" rx="5.92" ry="45.94"/><ellipse class="fb401aad-3018-4741-9dc3-1224d9e3d71c" cx="71.5" cy="93.81" rx="5.49" ry="42.63"/><ellipse class="fb401aad-3018-4741-9dc3-1224d9e3d71c" cx="87.22" cy="93.81" rx="5.49" ry="42.63"/><ellipse class="fb401aad-3018-4741-9dc3-1224d9e3d71c" cx="107.89" cy="90.49" rx="5.92" ry="45.94"/><ellipse class="fb401aad-3018-4741-9dc3-1224d9e3d71c" cx="126.29" cy="93.81" rx="5.49" ry="42.63"/><ellipse class="fb401aad-3018-4741-9dc3-1224d9e3d71c" cx="144.26" cy="93.81" rx="5.49" ry="42.63"/><ellipse class="fb401aad-3018-4741-9dc3-1224d9e3d71c" cx="163.72" cy="93.81" rx="5.49" ry="42.63"/><circle class="fb401aad-3018-4741-9dc3-1224d9e3d71c" cx="74.36" cy="103.69" r="32.74"/><circle class="fb401aad-3018-4741-9dc3-1224d9e3d71c" cx="74.36" cy="103.69" r="13.71"/><circle class="fb401aad-3018-4741-9dc3-1224d9e3d71c" cx="130.24" cy="112.21" r="22.23"/><circle class="fb401aad-3018-4741-9dc3-1224d9e3d71c" cx="130.24" cy="112.21" r="6.58"/><rect class="fb401aad-3018-4741-9dc3-1224d9e3d71c" x="30.81" y="92.43" width="152.6" height="6.06"/><line class="85c1e029-6cfd-4692-a4a9-02f302b6b009" x1="33.01" y1="98.49" x2="33.01" y2="136.43"/><line class="85c1e029-6cfd-4692-a4a9-02f302b6b009" x1="181.2" y1="98.49" x2="181.2" y2="136.43"/><line class="85c1e029-6cfd-4692-a4a9-02f302b6b009" x1="172.97" y1="98.49" x2="172.97" y2="136.43"/><line class="85c1e029-6cfd-4692-a4a9-02f302b6b009" x1="164.74" y1="98.49" x2="164.74" y2="136.43"/><line class="85c1e029-6cfd-4692-a4a9-02f302b6b009" x1="156.5" y1="98.49" x2="156.5" y2="136.43"/><line class="85c1e029-6cfd-4692-a4a9-02f302b6b009" x1="148.27" y1="98.49" x2="148.27" y2="136.43"/><line class="85c1e029-6cfd-4692-a4a9-02f302b6b009" x1="140.04" y1="98.49" x2="140.04" y2="136.43"/><line class="85c1e029-6cfd-4692-a4a9-02f302b6b009" x1="131.81" y1="98.49" x2="131.81" y2="136.43"/><line class="85c1e029-6cfd-4692-a4a9-02f302b6b009" x1="123.57" y1="98.49" x2="123.57" y2="136.43"/><line class="85c1e029-6cfd-4692-a4a9-02f302b6b009" x1="115.34" y1="98.49" x2="115.34" y2="136.43"/><line class="85c1e029-6cfd-4692-a4a9-02f302b6b009" x1="107.11" y1="98.49" x2="107.11" y2="136.43"/><line class="85c1e029-6cfd-4692-a4a9-02f302b6b009" x1="98.87" y1="98.49" x2="98.87" y2="136.43"/><line class="85c1e029-6cfd-4692-a4a9-02f302b6b009" x1="90.64" y1="98.49" x2="90.64" y2="136.43"/><line class="85c1e029-6cfd-4692-a4a9-02f302b6b009" x1="82.41" y1="98.49" x2="82.41" y2="136.43"/><line class="85c1e029-6cfd-4692-a4a9-02f302b6b009" x1="74.17" y1="98.49" x2="74.17" y2="136.43"/><line class="85c1e029-6cfd-4692-a4a9-02f302b6b009" x1="65.94" y1="98.49" x2="65.94" y2="136.43"/><line class="85c1e029-6cfd-4692-a4a9-02f302b6b009" x1="57.71" y1="98.49" x2="57.71" y2="136.43"/><line class="85c1e029-6cfd-4692-a4a9-02f302b6b009" x1="49.48" y1="98.49" x2="49.48" y2="136.43"/><line class="85c1e029-6cfd-4692-a4a9-02f302b6b009" x1="41.24" y1="98.49" x2="41.24" y2="136.43"/><line class="85c1e029-6cfd-4692-a4a9-02f302b6b009" x1="25.36" y1="36.06" x2="24.26" y2="136.43"/><line class="85c1e029-6cfd-4692-a4a9-02f302b6b009" x1="188.06" y1="36.06" x2="189.16" y2="136.43"/><circle class="6ded6bb4-18ee-45a2-8876-60d0e8d2bc3b" cx="156.63" cy="158.12" r="2.88"/><circle class="85c1e029-6cfd-4692-a4a9-02f302b6b009" cx="166.33" cy="158.12" r="2.88"/><circle class="85c1e029-6cfd-4692-a4a9-02f302b6b009" cx="176.03" cy="158.12" r="2.88"/><circle class="85c1e029-6cfd-4692-a4a9-02f302b6b009" cx="185.74" cy="158.12" r="2.88"/><rect class="6ded6bb4-18ee-45a2-8876-60d0e8d2bc3b" x="19.48" y="168.12" width="174.15" height="6.95"/></svg>