<svg id="74a22442-15e6-4817-b164-eb39482e6871" data-name="圖層 1" xmlns="http://www.w3.org/2000/svg" viewBox="0 0 210.63 202"><defs><style>.\30 af55c37-1d48-46bb-bc52-a5988279065e,.f66cc1c3-533d-4abf-abf6-4c10008220db{fill:none;}.\30 af55c37-1d48-46bb-bc52-a5988279065e,.\34 e2d8e3e-bf78-4f07-ae56-d34e85864724,.\36 e0f615a-fbdf-47da-acbd-70110c2a5de3,.\37 b926678-194b-4125-b7c5-2ec7d17f564f,.f66cc1c3-533d-4abf-abf6-4c10008220db{stroke:#515050;stroke-miterlimit:10;}.\30 af55c37-1d48-46bb-bc52-a5988279065e,.\34 e2d8e3e-bf78-4f07-ae56-d34e85864724,.\37 b926678-194b-4125-b7c5-2ec7d17f564f{stroke-width:2px;}.\37 b926678-194b-4125-b7c5-2ec7d17f564f{fill:#fff;}.\34 e2d8e3e-bf78-4f07-ae56-d34e85864724,.\36 e0f615a-fbdf-47da-acbd-70110c2a5de3{fill:#f6d568;}</style></defs><title>icon</title><rect class="0af55c37-1d48-46bb-bc52-a5988279065e" x="100.21" y="158" width="8.9" height="9.77"/><polygon class="7b926678-194b-4125-b7c5-2ec7d17f564f" points="67.05 165.1 63.82 173.88 144.69 173.88 141.45 165.1 67.05 165.1"/><polygon class="0af55c37-1d48-46bb-bc52-a5988279065e" points="64.64 178.27 63.82 173.88 144.69 173.88 143.87 178.27 64.64 178.27"/><path class="7b926678-194b-4125-b7c5-2ec7d17f564f" d="M97.48,152.67h14.35v1.78l-2.15,2.66.24,11.54a17.77,17.77,0,0,1-10.52,0V157.11l-1.91-1.78Z"/><rect class="7b926678-194b-4125-b7c5-2ec7d17f564f" x="10.38" y="34.57" width="187.74" height="122.55"/><rect class="4e2d8e3e-bf78-4f07-ae56-d34e85864724" x="19.18" y="41.52" width="170.14" height="107.75"/><line class="0af55c37-1d48-46bb-bc52-a5988279065e" x1="102.98" y1="160.62" x2="102.98" y2="169.59"/><circle class="6e0f615a-fbdf-47da-acbd-70110c2a5de3" cx="182" cy="153.38" r="1.69"/><circle class="f66cc1c3-533d-4abf-abf6-4c10008220db" cx="187.63" cy="153.38" r="1.69"/></svg>