<svg id="4b737d20-8b30-4c0c-9e37-72f2652f7a57" data-name="圖層 1" xmlns="http://www.w3.org/2000/svg" viewBox="0 0 210.63 202"><defs><style>.\34 ce5adb2-e4fb-4771-8792-d6039188dd52{fill:#f6d568;}.\30 369c0d3-16d2-46cc-a571-a7bd913866ae,.\34 655ca3e-f8a0-4acd-9621-97960fa9c7a6,.\34 ce5adb2-e4fb-4771-8792-d6039188dd52,.\37 1c37078-50f1-452c-8282-607349d2380b{stroke:#515050;stroke-miterlimit:10;stroke-width:2px;}.\34 655ca3e-f8a0-4acd-9621-97960fa9c7a6{fill:none;}.\37 1c37078-50f1-452c-8282-607349d2380b{fill:#fefcfd;}.\30 369c0d3-16d2-46cc-a571-a7bd913866ae{fill:#fff;}</style></defs><title>icon</title><path class="4ce5adb2-e4fb-4771-8792-d6039188dd52" d="M161.91,104.43,139.69,22.27H76L53.83,104.43a1.39,1.39,0,0,0-.16.6c0,4.5,24.27,8.15,54.2,8.15s54.2-3.65,54.2-8.15A1.39,1.39,0,0,0,161.91,104.43Z"/><rect class="4655ca3e-f8a0-4acd-9621-97960fa9c7a6" x="104.49" y="113.18" width="6.72" height="65.94"/><path class="71c37078-50f1-452c-8282-607349d2380b" d="M122.05,178.6l-5.84-4.88H99.48l-5.84,4.88s0,0,0,0c0,.27,6.38.48,14.25.48s14.25-.22,14.25-.48C122.1,178.63,122.08,178.62,122.05,178.6Z"/><ellipse class="71c37078-50f1-452c-8282-607349d2380b" cx="107.87" cy="22.27" rx="31.82" ry="4.79"/><line class="4655ca3e-f8a0-4acd-9621-97960fa9c7a6" x1="131.59" y1="113.18" x2="131.05" y2="144.07"/><circle class="4ce5adb2-e4fb-4771-8792-d6039188dd52" cx="131.55" cy="146.74" r="3.98"/><rect class="0369c0d3-16d2-46cc-a571-a7bd913866ae" x="77.53" y="178.82" width="60.62" height="11.85" rx="3.21" ry="3.21"/><ellipse class="4655ca3e-f8a0-4acd-9621-97960fa9c7a6" cx="107.87" cy="30.46" rx="33.56" ry="5.05"/><ellipse class="71c37078-50f1-452c-8282-607349d2380b" cx="107.87" cy="22.27" rx="31.82" ry="4.79"/><line class="4655ca3e-f8a0-4acd-9621-97960fa9c7a6" x1="131.55" y1="35.51" x2="143.17" y2="111.21"/><line class="4655ca3e-f8a0-4acd-9621-97960fa9c7a6" x1="77.53" y1="185.54" x2="110.91" y2="185.54"/></svg>