<svg id="圖層_1" data-name="圖層 1" xmlns="http://www.w3.org/2000/svg" viewBox="0 0 210.63 202"><defs><style>.cls-1{fill:#f6d568;}.cls-1,.cls-2,.cls-3{stroke:#515050;stroke-miterlimit:10;stroke-width:2px;}.cls-2{fill:none;}.cls-3{fill:#fff;}</style></defs><title>icon</title><circle class="cls-1" cx="180.28" cy="117.25" r="2.89"/><circle class="cls-2" cx="180.28" cy="127.02" r="2.89"/><circle class="cls-2" cx="180.28" cy="136.79" r="2.89"/><circle class="cls-2" cx="180.28" cy="146.55" r="2.89"/><rect class="cls-3" x="13.69" y="34.72" width="144.02" height="145.68"/><rect class="cls-3" x="157.71" y="34.72" width="40.13" height="145.68"/><circle class="cls-3" cx="178.64" cy="93.71" r="13.79"/><rect class="cls-3" x="174.62" y="85.88" width="8.04" height="15.68" transform="translate(199.82 -106.9) rotate(68.34)"/><rect class="cls-1" x="20.42" y="41.72" width="130.56" height="131.67" rx="8.23"/><rect class="cls-3" x="13.05" y="166.25" width="146.28" height="8.08"/><polygon class="cls-3" points="18.54 137.49 13.04 166.25 159.32 166.25 151.35 137.49 18.54 137.49"/><circle class="cls-1" cx="178.64" cy="121.54" r="2.89"/><circle class="cls-2" cx="178.64" cy="131.3" r="2.89"/><circle class="cls-2" cx="178.64" cy="141.07" r="2.89"/><circle class="cls-2" cx="178.64" cy="150.84" r="2.89"/><rect class="cls-1" x="157.93" y="34.67" width="39.92" height="31.15"/><rect class="cls-1" x="157.93" y="62.68" width="39.92" height="5.87"/><ellipse class="cls-3" cx="80.71" cy="110.94" rx="5.46" ry="42.39"/><ellipse class="cls-3" cx="97.37" cy="113.99" rx="5.07" ry="39.33"/><ellipse class="cls-3" cx="111.89" cy="113.99" rx="5.07" ry="39.33"/><ellipse class="cls-3" cx="130.96" cy="110.94" rx="5.46" ry="42.39"/><circle class="cls-3" cx="100.02" cy="123.11" r="30.21"/><circle class="cls-3" cx="100.02" cy="123.11" r="12.65"/><line class="cls-2" x1="22.48" y1="154.81" x2="145.97" y2="154.81"/><polygon class="cls-3" points="33.13 103.9 69.81 103.9 67.97 90.94 36.11 90.94 33.13 103.9"/><path class="cls-3" d="M68,78.29c0-7.21-3.9-13.06-8.71-13.06S50.6,71.08,50.6,78.29c0,6,2.68,11,6.34,12.56l-4.46,61h8.88L60.7,91.16C64.85,90.16,68,84.79,68,78.29Z"/><path class="cls-3" d="M53.08,69.22c.69,6.89,1.31,13.79,2.11,20.66a7.74,7.74,0,0,1-2,6.59,11.22,11.22,0,0,1-2.81,2.24c-.95.52-1.15,1.15-1,2.37q2.2,21.14,4.32,42.28l.22,2.13-4,.41-.19-1.82c-1.42-14-2.86-28-4.24-42-.14-1.39-.41-2.16-1.7-2.58-2.34-.76-4-2.82-5.43-5.19-.25-.42-.52-.83-.78-1.24L35.29,71l4.07-.42c.11.66.26,1.32.33,2,.72,6.89.23,2.25.76,7.32.18,1.82,1.71,6.1,3.36,6.67L42.16,70.33l4.06-.42L47.86,86c1.92-.74,2.35-4.55,2.15-6.58-.68-6.73-.31-3.1-1-9.83Z"/><rect class="cls-3" x="33.13" y="103.9" width="36.68" height="47.95"/><rect class="cls-3" x="21.38" y="113.65" width="129.6" height="6.15"/><line class="cls-2" x1="23.42" y1="119.8" x2="23.42" y2="154.81"/><line class="cls-2" x1="145.97" y1="119.8" x2="145.97" y2="154.81"/><line class="cls-2" x1="138.37" y1="119.8" x2="138.37" y2="154.81"/><line class="cls-2" x1="129.77" y1="119.8" x2="129.77" y2="154.81"/><line class="cls-2" x1="122.17" y1="119.8" x2="122.17" y2="154.81"/><line class="cls-2" x1="114.58" y1="119.8" x2="114.58" y2="154.81"/><line class="cls-2" x1="106.98" y1="119.8" x2="106.98" y2="154.81"/><line class="cls-2" x1="99.38" y1="119.8" x2="99.38" y2="154.81"/><line class="cls-2" x1="91.79" y1="119.8" x2="91.79" y2="154.81"/><line class="cls-2" x1="84.19" y1="119.8" x2="84.19" y2="154.81"/><line class="cls-2" x1="76.59" y1="119.8" x2="76.59" y2="154.81"/><line class="cls-2" x1="69" y1="119.8" x2="69" y2="154.81"/><line class="cls-2" x1="61.4" y1="154.81" x2="61.4" y2="119.8"/><line class="cls-2" x1="53.8" y1="119.8" x2="53.8" y2="154.81"/><line class="cls-2" x1="46.21" y1="119.8" x2="46.21" y2="154.81"/><line class="cls-2" x1="38.61" y1="119.8" x2="38.61" y2="154.81"/><line class="cls-2" x1="31.01" y1="119.8" x2="31.01" y2="154.81"/><line class="cls-2" x1="22.48" y1="44.78" x2="31.01" y2="51.82"/><line class="cls-2" x1="140.77" y1="51.82" x2="31.01" y2="51.82"/><line class="cls-2" x1="146.49" y1="41.72" x2="140.77" y2="51.82"/><line class="cls-2" x1="31.01" y1="51.82" x2="31.01" y2="113.65"/><line class="cls-2" x1="140.77" y1="51.82" x2="140.77" y2="113.65"/></svg>