<svg id="203e7ac0-fadc-4315-95fe-b8182a25627c" data-name="圖層 1" xmlns="http://www.w3.org/2000/svg" viewBox="0 0 210.63 202"><defs><style>.\37 b0992af-e975-4f76-adfc-048a760e9146{fill:#fff;}.\30 7245be1-4d8c-4cf5-aad5-ecf87776d7ce,.\37 b0992af-e975-4f76-adfc-048a760e9146,.d118e652-df22-4f9a-a188-069e79d95487{stroke:#515050;stroke-miterlimit:10;stroke-width:2px;}.d118e652-df22-4f9a-a188-069e79d95487{fill:#f6d568;}.\30 7245be1-4d8c-4cf5-aad5-ecf87776d7ce{fill:none;}</style></defs><title>icon</title><rect class="7b0992af-e975-4f76-adfc-048a760e9146" x="15.82" y="125.73" width="69.12" height="53.54"/><rect class="7b0992af-e975-4f76-adfc-048a760e9146" x="15.82" y="125.73" width="69.12" height="53.54"/><rect class="7b0992af-e975-4f76-adfc-048a760e9146" x="15.82" y="112.84" width="69.12" height="12.89"/><rect class="d118e652-df22-4f9a-a188-069e79d95487" x="15.82" y="112.84" width="69.12" height="12.89"/><rect class="7b0992af-e975-4f76-adfc-048a760e9146" x="15.82" y="107.96" width="69.12" height="5.09"/><rect class="7b0992af-e975-4f76-adfc-048a760e9146" x="15.82" y="82.55" width="69.12" height="25.4"/><rect class="7b0992af-e975-4f76-adfc-048a760e9146" x="15.82" y="29.8" width="69.12" height="52.96"/><rect class="7b0992af-e975-4f76-adfc-048a760e9146" x="21.88" y="45.35" width="57.01" height="4.65"/><rect class="7b0992af-e975-4f76-adfc-048a760e9146" x="21.88" y="56.28" width="57.01" height="4.65"/><line class="07245be1-4d8c-4cf5-aad5-ecf87776d7ce" x1="21.88" y1="39.69" x2="62.68" y2="39.69"/><circle class="d118e652-df22-4f9a-a188-069e79d95487" cx="24.32" cy="90.08" r="2.44"/><circle class="07245be1-4d8c-4cf5-aad5-ecf87776d7ce" cx="32.46" cy="90.08" r="2.44"/><circle class="07245be1-4d8c-4cf5-aad5-ecf87776d7ce" cx="40.67" cy="90.08" r="2.44"/><circle class="7b0992af-e975-4f76-adfc-048a760e9146" cx="66.94" cy="128.98" r="10.76" transform="translate(-64.49 190.96) rotate(-87.82)"/><circle class="d118e652-df22-4f9a-a188-069e79d95487" cx="66.94" cy="128.98" r="6.2" transform="translate(-64.49 190.96) rotate(-87.82)"/><line class="07245be1-4d8c-4cf5-aad5-ecf87776d7ce" x1="15.82" y1="172.95" x2="69.47" y2="172.95"/><rect class="07245be1-4d8c-4cf5-aad5-ecf87776d7ce" x="133.13" y="164.83" width="8.07" height="6.52"/><polygon class="07245be1-4d8c-4cf5-aad5-ecf87776d7ce" points="100.86 179.04 100.11 173.02 173.49 173.02 172.75 179.04 100.86 179.04"/><path class="7b0992af-e975-4f76-adfc-048a760e9146" d="M130.66,158.48h13V160l-2,2.22.22,9.63a17.47,17.47,0,0,1-9.55,0v-9.63l-1.74-1.48Z"/><rect class="7b0992af-e975-4f76-adfc-048a760e9146" x="75.78" y="78.26" width="121.31" height="82.29"/><rect class="d118e652-df22-4f9a-a188-069e79d95487" x="83.33" y="86.09" width="106.21" height="67.02"/></svg>