<svg id="7f1b1a11-d0b3-45b5-a59e-a8ee7f55256f" data-name="圖層 1" xmlns="http://www.w3.org/2000/svg" viewBox="0 0 210.63 202"><defs><style>.\37 9d9f5cb-2b56-4dd3-a55a-3ab5828c34fe{fill:#fff;}.\37 9d9f5cb-2b56-4dd3-a55a-3ab5828c34fe,.\39 754d329-41de-4c1d-819e-fb57ef003f30,.\39 ef17a33-7a2c-45c9-97fd-8a631b597602{stroke:#515050;stroke-miterlimit:10;stroke-width:2px;}.\39 754d329-41de-4c1d-819e-fb57ef003f30{fill:#f6d568;}.\39 ef17a33-7a2c-45c9-97fd-8a631b597602{fill:none;}</style></defs><title>icon</title><polygon class="79d9f5cb-2b56-4dd3-a55a-3ab5828c34fe" points="195.48 156.11 15.15 156.11 34.48 37.02 175.49 37.02 195.48 156.11"/><rect class="9754d329-41de-4c1d-819e-fb57ef003f30" x="15.15" y="156.11" width="180.33" height="4.44"/><rect class="9754d329-41de-4c1d-819e-fb57ef003f30" x="15.15" y="160.55" width="180.33" height="10.82"/><ellipse class="9754d329-41de-4c1d-819e-fb57ef003f30" cx="105.63" cy="88.69" rx="58.3" ry="44.22"/><ellipse class="9754d329-41de-4c1d-819e-fb57ef003f30" cx="105.56" cy="88.69" rx="27.58" ry="20.92"/><polygon class="9ef17a33-7a2c-45c9-97fd-8a631b597602" points="34.85 135.39 25.75 135.39 27.92 121.2 37.02 121.2 34.85 135.39"/><polygon class="9ef17a33-7a2c-45c9-97fd-8a631b597602" points="43.96 135.39 34.85 135.39 37.02 121.2 46.12 121.2 43.96 135.39"/><polygon class="9ef17a33-7a2c-45c9-97fd-8a631b597602" points="53.06 135.39 43.96 135.39 46.12 121.2 55.22 121.2 53.06 135.39"/><line class="9ef17a33-7a2c-45c9-97fd-8a631b597602" x1="23.85" y1="142.57" x2="61.18" y2="142.57"/><line class="9ef17a33-7a2c-45c9-97fd-8a631b597602" x1="23.37" y1="148.03" x2="42.03" y2="148.03"/><circle class="9754d329-41de-4c1d-819e-fb57ef003f30" cx="155.46" cy="144.81" r="2.98"/><circle class="9ef17a33-7a2c-45c9-97fd-8a631b597602" cx="168" cy="144.81" r="2.98"/><circle class="9ef17a33-7a2c-45c9-97fd-8a631b597602" cx="180.53" cy="144.81" r="2.98"/><ellipse class="9754d329-41de-4c1d-819e-fb57ef003f30" cx="105.56" cy="88.69" rx="22.25" ry="16.88"/><line class="9ef17a33-7a2c-45c9-97fd-8a631b597602" x1="105.56" y1="126.43" x2="105.56" y2="133.96"/><line class="9ef17a33-7a2c-45c9-97fd-8a631b597602" x1="105.56" y1="44.46" x2="105.56" y2="52"/><line class="9ef17a33-7a2c-45c9-97fd-8a631b597602" x1="57.03" y1="89.21" x2="47.2" y2="89.21"/><line class="9ef17a33-7a2c-45c9-97fd-8a631b597602" x1="163.93" y1="89.21" x2="154.1" y2="89.21"/><line class="9ef17a33-7a2c-45c9-97fd-8a631b597602" x1="76.38" y1="118.4" x2="70.47" y2="124.31"/><line class="9ef17a33-7a2c-45c9-97fd-8a631b597602" x1="140.66" y1="54.12" x2="134.75" y2="60.03"/><line class="9ef17a33-7a2c-45c9-97fd-8a631b597602" x1="76.38" y1="60.03" x2="70.47" y2="54.12"/><line class="9ef17a33-7a2c-45c9-97fd-8a631b597602" x1="140.66" y1="124.31" x2="134.75" y2="118.4"/><path class="9754d329-41de-4c1d-819e-fb57ef003f30" d="M69.62,149.43a4.6,4.6,0,0,1-2.14-3.53,28.77,28.77,0,0,1,.45-5.91L70,142.85l2.32-4.76L74,143.17l1.66-1.85s2,5.5.55,7.18C74.39,150.65,71.53,150,69.62,149.43Z"/></svg>