<svg id="圖層_1" data-name="圖層 1" xmlns="http://www.w3.org/2000/svg" viewBox="0 0 210.63 202"><defs><style>.cls-1{fill:#f6d568;}.cls-1,.cls-2,.cls-3{stroke:#515050;stroke-miterlimit:10;stroke-width:2px;}.cls-2{fill:#fff;}.cls-3{fill:none;}</style></defs><title>icon</title><ellipse class="cls-1" cx="106.65" cy="165.66" rx="3.67" ry="3.88"/><polygon class="cls-2" points="26.11 100.8 38.13 161.51 58.01 178.37 151.5 178.37 176.04 159.69 184.72 102.91 158.85 115.66 46.96 119.74 26.11 100.8"/><polygon class="cls-2" points="26.11 88.09 38.13 148.79 58.01 165.66 151.5 165.66 176.04 146.98 187.33 89.91 165.49 107.03 46.96 107.03 26.11 88.09"/><path class="cls-2" d="M25,98.22l13.14,63.29s12.52,14.33,20.3,16.87,84.34,3.93,93.5,0S176,159.69,176,159.69l10.32-62.54s-7.29,18.44-20.44,19.82c-14.56,1.53-113.75,2-121.74-.45C34.65,113.54,25,98.22,25,98.22Z"/><path class="cls-2" d="M35.55,43.06,24.72,90.17a14.41,14.41,0,0,0,14.16,17.65l132.56-1a14.43,14.43,0,0,0,14-17.44L175.6,43.45a26.4,26.4,0,0,0-25.82-20.88H61.28A26.4,26.4,0,0,0,35.55,43.06Z"/><path class="cls-2" d="M72.28,35.62,66,72.13C65,78,68.33,83.6,72.86,83.56l64.48-.67c4.44,0,7.74-5.51,6.81-11.29l-5.77-35.85c-.69-4.3-3.55-7.38-6.86-7.38H79.12C75.85,28.37,73,31.38,72.28,35.62Z"/><polygon class="cls-1" points="75.77 64.38 78.96 44.79 131.75 44.79 134.32 64.38 75.77 64.38"/><polygon class="cls-2" points="73.81 77.23 74.65 70.99 91.95 70.99 91.25 77.23 73.81 77.23"/><polygon class="cls-2" points="97.68 77.23 98.41 70.99 114.45 70.99 114.9 77.23 97.68 77.23"/><polygon class="cls-2" points="120.42 77.23 119.77 70.99 135.72 70.99 136.17 77.23 120.42 77.23"/><line class="cls-2" x1="71.67" y1="39.14" x2="138.38" y2="39.14"/><polygon class="cls-2" points="180.62 40.89 191.09 87.48 185.43 93.28 173.57 37.9 180.62 40.89"/><polygon class="cls-2" points="30.01 40.89 19.54 87.48 25.2 93.28 37.06 37.9 30.01 40.89"/><circle class="cls-1" cx="106.65" cy="169.53" r="3.67"/><rect class="cls-2" x="92.93" y="113.13" width="24.96" height="12.25"/><line class="cls-3" x1="54.34" y1="117.5" x2="54.34" y2="175.61"/><line class="cls-3" x1="157.88" y1="117.5" x2="157.88" y2="175.61"/></svg>