<svg id="125ff318-aef1-41d4-9de4-889627f9f8f5" data-name="圖層 1" xmlns="http://www.w3.org/2000/svg" viewBox="0 0 210.63 202"><defs><style>.\37 e08a9e1-edc9-4db0-885d-9c2a0862188d,.b7c98dd1-9851-41e4-9080-b5e0a1fa7078{fill:none;}.\33 9f12c83-fc99-4985-957e-ffe66e09c2be,.\37 e08a9e1-edc9-4db0-885d-9c2a0862188d,.\37 e673c5e-575b-42fa-a543-1d099839b113,.b7c98dd1-9851-41e4-9080-b5e0a1fa7078,.cb72b159-175e-4693-a15e-7645e64373da{stroke:#515050;stroke-miterlimit:10;}.\33 9f12c83-fc99-4985-957e-ffe66e09c2be,.b7c98dd1-9851-41e4-9080-b5e0a1fa7078,.cb72b159-175e-4693-a15e-7645e64373da{stroke-width:2px;}.\33 9f12c83-fc99-4985-957e-ffe66e09c2be{fill:#fff;}.\37 e673c5e-575b-42fa-a543-1d099839b113,.cb72b159-175e-4693-a15e-7645e64373da{fill:#f6d568;}</style></defs><title>icon</title><rect class="b7c98dd1-9851-41e4-9080-b5e0a1fa7078" x="100.21" y="158" width="8.9" height="9.77"/><polygon class="39f12c83-fc99-4985-957e-ffe66e09c2be" points="67.05 165.1 63.82 173.88 144.69 173.88 141.45 165.1 67.05 165.1"/><polygon class="b7c98dd1-9851-41e4-9080-b5e0a1fa7078" points="64.64 178.27 63.82 173.88 144.69 173.88 143.87 178.27 64.64 178.27"/><path class="39f12c83-fc99-4985-957e-ffe66e09c2be" d="M97.48,152.67h14.35v1.78l-2.15,2.66.24,11.54a17.77,17.77,0,0,1-10.52,0V157.11l-1.91-1.78Z"/><rect class="39f12c83-fc99-4985-957e-ffe66e09c2be" x="10.38" y="34.57" width="187.74" height="122.55"/><rect class="cb72b159-175e-4693-a15e-7645e64373da" x="19.18" y="41.52" width="170.14" height="107.75"/><line class="b7c98dd1-9851-41e4-9080-b5e0a1fa7078" x1="102.98" y1="160.62" x2="102.98" y2="169.59"/><circle class="7e673c5e-575b-42fa-a543-1d099839b113" cx="182" cy="153.38" r="1.69"/><circle class="7e08a9e1-edc9-4db0-885d-9c2a0862188d" cx="187.63" cy="153.38" r="1.69"/></svg>