<svg id="b4885511-ba67-49b1-94aa-3b0b0f61f0e1" data-name="圖層 1" xmlns="http://www.w3.org/2000/svg" viewBox="0 0 210.63 202"><defs><style>.\38 3e7640a-2cfc-4ff8-8cc8-e49b9741cfb0{fill:none;}.\37 0a0c349-be58-46e9-ab21-11169d36a31a,.\38 3e7640a-2cfc-4ff8-8cc8-e49b9741cfb0,.\39 0d3f29a-8b64-4324-a8ed-74280113a869,.\39 bca3431-6545-4a01-b982-58e8016913fc{stroke:#515050;stroke-miterlimit:10;stroke-width:2px;}.\39 0d3f29a-8b64-4324-a8ed-74280113a869{fill:#fff;}.\37 0a0c349-be58-46e9-ab21-11169d36a31a{fill:#f6d568;}.\39 bca3431-6545-4a01-b982-58e8016913fc{fill:#515050;}</style></defs><title>icon</title><rect class="83e7640a-2cfc-4ff8-8cc8-e49b9741cfb0" x="56.74" y="15.89" width="99.79" height="170.02" rx="3.38" ry="3.38"/><rect class="83e7640a-2cfc-4ff8-8cc8-e49b9741cfb0" x="56.74" y="127.46" width="99.79" height="58.44"/><rect class="83e7640a-2cfc-4ff8-8cc8-e49b9741cfb0" x="56.74" y="15.89" width="48.96" height="106.33"/><rect class="83e7640a-2cfc-4ff8-8cc8-e49b9741cfb0" x="108.2" y="15.89" width="48.33" height="106.33"/><rect class="83e7640a-2cfc-4ff8-8cc8-e49b9741cfb0" x="66.74" y="75.76" width="17.75" height="38.7"/><rect class="83e7640a-2cfc-4ff8-8cc8-e49b9741cfb0" x="95.99" y="28.61" width="4.51" height="85.7"/><rect class="90d3f29a-8b64-4324-a8ed-74280113a869" x="95.08" y="100.47" width="6.34" height="14.98"/><rect class="90d3f29a-8b64-4324-a8ed-74280113a869" x="95.08" y="26.64" width="6.34" height="14.98"/><rect class="83e7640a-2cfc-4ff8-8cc8-e49b9741cfb0" x="113.56" y="28.61" width="4.51" height="85.7"/><rect class="90d3f29a-8b64-4324-a8ed-74280113a869" x="112.65" y="100.47" width="6.34" height="14.98"/><rect class="90d3f29a-8b64-4324-a8ed-74280113a869" x="112.65" y="26.64" width="6.34" height="14.98"/><rect class="70a0c349-be58-46e9-ab21-11169d36a31a" x="66.74" y="107.28" width="17.75" height="7.18"/><rect class="83e7640a-2cfc-4ff8-8cc8-e49b9741cfb0" x="65.55" y="134.69" width="90.98" height="7.15"/><rect class="83e7640a-2cfc-4ff8-8cc8-e49b9741cfb0" x="56.74" y="134.69" width="8.81" height="7.15"/><rect class="9bca3431-6545-4a01-b982-58e8016913fc" x="56.74" y="131.85" width="99.79" height="2.84"/><line class="83e7640a-2cfc-4ff8-8cc8-e49b9741cfb0" x1="56.74" y1="146.52" x2="156.53" y2="146.52"/><line class="83e7640a-2cfc-4ff8-8cc8-e49b9741cfb0" x1="56.74" y1="20.49" x2="106.32" y2="20.49"/><line class="83e7640a-2cfc-4ff8-8cc8-e49b9741cfb0" x1="107.33" y1="20.49" x2="156.92" y2="20.49"/><circle class="70a0c349-be58-46e9-ab21-11169d36a31a" cx="71.21" cy="101.15" r="1.58"/><circle class="83e7640a-2cfc-4ff8-8cc8-e49b9741cfb0" cx="76.47" cy="101.15" r="1.58"/><rect class="70a0c349-be58-46e9-ab21-11169d36a31a" x="56.74" y="174.96" width="99.79" height="11.15"/><line class="83e7640a-2cfc-4ff8-8cc8-e49b9741cfb0" x1="96.95" y1="101.15" x2="102.29" y2="101.15"/><line class="83e7640a-2cfc-4ff8-8cc8-e49b9741cfb0" x1="111.77" y1="101.15" x2="117.12" y2="101.15"/><polygon class="83e7640a-2cfc-4ff8-8cc8-e49b9741cfb0" points="66.74 75.42 69.08 78.23 82.61 78.23 84.72 75.69 66.74 75.42"/><line class="83e7640a-2cfc-4ff8-8cc8-e49b9741cfb0" x1="72.78" y1="171.65" x2="156.92" y2="171.65"/></svg>