<svg id="19656280-a391-4d5f-b17f-8c72a416588c" data-name="圖層 1" xmlns="http://www.w3.org/2000/svg" viewBox="0 0 210.63 202"><defs><style>.\33 0a46833-bd03-4e05-9524-86e730719e7d{fill:#fff;}.\33 0a46833-bd03-4e05-9524-86e730719e7d,.\36 da1c563-e4e5-4174-aa3c-8f3335d994c4,.c1b4d0f0-dfba-4862-bd7a-d85bf9ae15c7{stroke:#515050;stroke-miterlimit:10;stroke-width:2px;}.\36 da1c563-e4e5-4174-aa3c-8f3335d994c4{fill:#f6d568;}.c1b4d0f0-dfba-4862-bd7a-d85bf9ae15c7{fill:none;}</style></defs><title>icon</title><rect class="30a46833-bd03-4e05-9524-86e730719e7d" x="64.69" y="16.59" width="88.06" height="150.71" rx="6.08" ry="6.08"/><rect class="6da1c563-e4e5-4174-aa3c-8f3335d994c4" x="72.58" y="23.57" width="72.28" height="113.56"/><rect class="30a46833-bd03-4e05-9524-86e730719e7d" x="72.58" y="135.59" width="72.28" height="31.52"/><rect class="6da1c563-e4e5-4174-aa3c-8f3335d994c4" x="72.58" y="23.57" width="29.23" height="112.02"/><rect class="30a46833-bd03-4e05-9524-86e730719e7d" x="72.58" y="23.57" width="72.28" height="12.43"/><rect class="30a46833-bd03-4e05-9524-86e730719e7d" x="61.5" y="176.99" width="94.45" height="12.38"/><rect class="30a46833-bd03-4e05-9524-86e730719e7d" x="79.3" y="167.3" width="58.84" height="9.61"/><rect class="6da1c563-e4e5-4174-aa3c-8f3335d994c4" x="72.58" y="23.57" width="29.23" height="112.02"/><rect class="6da1c563-e4e5-4174-aa3c-8f3335d994c4" x="96.36" y="23.57" width="24.15" height="112.02"/><line class="c1b4d0f0-dfba-4862-bd7a-d85bf9ae15c7" x1="72.58" y1="43.83" x2="144.86" y2="43.83"/><line class="c1b4d0f0-dfba-4862-bd7a-d85bf9ae15c7" x1="72.58" y1="50.45" x2="144.86" y2="50.45"/><line class="c1b4d0f0-dfba-4862-bd7a-d85bf9ae15c7" x1="72.58" y1="61.07" x2="144.86" y2="61.07"/><line class="c1b4d0f0-dfba-4862-bd7a-d85bf9ae15c7" x1="72.58" y1="67.69" x2="144.86" y2="67.69"/><line class="c1b4d0f0-dfba-4862-bd7a-d85bf9ae15c7" x1="72.58" y1="78.32" x2="144.86" y2="78.32"/><line class="c1b4d0f0-dfba-4862-bd7a-d85bf9ae15c7" x1="72.58" y1="84.94" x2="144.86" y2="84.94"/><line class="c1b4d0f0-dfba-4862-bd7a-d85bf9ae15c7" x1="72.58" y1="95.56" x2="144.86" y2="95.56"/><line class="c1b4d0f0-dfba-4862-bd7a-d85bf9ae15c7" x1="72.58" y1="102.18" x2="144.86" y2="102.18"/><line class="c1b4d0f0-dfba-4862-bd7a-d85bf9ae15c7" x1="72.58" y1="112.8" x2="144.86" y2="112.8"/><line class="c1b4d0f0-dfba-4862-bd7a-d85bf9ae15c7" x1="72.58" y1="119.42" x2="144.86" y2="119.42"/><line class="c1b4d0f0-dfba-4862-bd7a-d85bf9ae15c7" x1="72.58" y1="130.05" x2="144.86" y2="130.05"/><rect class="30a46833-bd03-4e05-9524-86e730719e7d" x="72.58" y="29.78" width="72.28" height="9.87"/><rect class="30a46833-bd03-4e05-9524-86e730719e7d" x="72.58" y="23.57" width="72.28" height="6.56"/><circle class="c1b4d0f0-dfba-4862-bd7a-d85bf9ae15c7" cx="126.83" cy="153.07" r="6.76" transform="translate(-30.96 273.98) rotate(-87.82)"/><path class="c1b4d0f0-dfba-4862-bd7a-d85bf9ae15c7" d="M126.83,141.81s12.15.55,11.27,12c-.86,11.06-11.27,10.54-11.27,10.54s-7.68-.43-10-5.74"/><circle class="6da1c563-e4e5-4174-aa3c-8f3335d994c4" cx="126.66" cy="183.17" r="2.36"/><circle class="c1b4d0f0-dfba-4862-bd7a-d85bf9ae15c7" cx="134.55" cy="183.17" r="2.36"/><circle class="c1b4d0f0-dfba-4862-bd7a-d85bf9ae15c7" cx="142.49" cy="183.17" r="2.36"/><line class="c1b4d0f0-dfba-4862-bd7a-d85bf9ae15c7" x1="73.25" y1="161.57" x2="106.63" y2="161.57"/></svg>