<svg id="2973ab82-aae0-4246-90d1-24de58c7f32d" data-name="圖層 1" xmlns="http://www.w3.org/2000/svg" viewBox="0 0 210.63 202"><defs><style>.\30 242c638-89ed-450a-9295-b95d255c2e13{fill:#fff;}.\30 242c638-89ed-450a-9295-b95d255c2e13,.\31 15edbf3-a747-4dbd-b054-d5518435609b,.\34 a179cfb-f269-4683-b7c0-ba4d674f65c5{stroke:#515050;stroke-miterlimit:10;stroke-width:2px;}.\31 15edbf3-a747-4dbd-b054-d5518435609b{fill:#f6d568;}.\34 a179cfb-f269-4683-b7c0-ba4d674f65c5{fill:none;}</style></defs><title>icon</title><rect class="0242c638-89ed-450a-9295-b95d255c2e13" x="64.69" y="16.59" width="88.06" height="150.71" rx="6.08" ry="6.08"/><rect class="115edbf3-a747-4dbd-b054-d5518435609b" x="72.58" y="23.57" width="72.28" height="113.56"/><rect class="0242c638-89ed-450a-9295-b95d255c2e13" x="72.58" y="135.59" width="72.28" height="31.52"/><rect class="115edbf3-a747-4dbd-b054-d5518435609b" x="72.58" y="23.57" width="29.23" height="112.02"/><rect class="0242c638-89ed-450a-9295-b95d255c2e13" x="72.58" y="23.57" width="72.28" height="12.43"/><rect class="0242c638-89ed-450a-9295-b95d255c2e13" x="61.5" y="176.99" width="94.45" height="12.38"/><rect class="0242c638-89ed-450a-9295-b95d255c2e13" x="79.3" y="167.3" width="58.84" height="9.61"/><rect class="115edbf3-a747-4dbd-b054-d5518435609b" x="72.58" y="23.57" width="29.23" height="112.02"/><rect class="115edbf3-a747-4dbd-b054-d5518435609b" x="96.36" y="23.57" width="24.15" height="112.02"/><line class="4a179cfb-f269-4683-b7c0-ba4d674f65c5" x1="72.58" y1="43.83" x2="144.86" y2="43.83"/><line class="4a179cfb-f269-4683-b7c0-ba4d674f65c5" x1="72.58" y1="50.45" x2="144.86" y2="50.45"/><line class="4a179cfb-f269-4683-b7c0-ba4d674f65c5" x1="72.58" y1="61.07" x2="144.86" y2="61.07"/><line class="4a179cfb-f269-4683-b7c0-ba4d674f65c5" x1="72.58" y1="67.69" x2="144.86" y2="67.69"/><line class="4a179cfb-f269-4683-b7c0-ba4d674f65c5" x1="72.58" y1="78.32" x2="144.86" y2="78.32"/><line class="4a179cfb-f269-4683-b7c0-ba4d674f65c5" x1="72.58" y1="84.94" x2="144.86" y2="84.94"/><line class="4a179cfb-f269-4683-b7c0-ba4d674f65c5" x1="72.58" y1="95.56" x2="144.86" y2="95.56"/><line class="4a179cfb-f269-4683-b7c0-ba4d674f65c5" x1="72.58" y1="102.18" x2="144.86" y2="102.18"/><line class="4a179cfb-f269-4683-b7c0-ba4d674f65c5" x1="72.58" y1="112.8" x2="144.86" y2="112.8"/><line class="4a179cfb-f269-4683-b7c0-ba4d674f65c5" x1="72.58" y1="119.42" x2="144.86" y2="119.42"/><line class="4a179cfb-f269-4683-b7c0-ba4d674f65c5" x1="72.58" y1="130.05" x2="144.86" y2="130.05"/><rect class="0242c638-89ed-450a-9295-b95d255c2e13" x="72.58" y="29.78" width="72.28" height="9.87"/><rect class="0242c638-89ed-450a-9295-b95d255c2e13" x="72.58" y="23.57" width="72.28" height="6.56"/><circle class="4a179cfb-f269-4683-b7c0-ba4d674f65c5" cx="126.83" cy="153.07" r="6.76" transform="translate(-30.96 273.98) rotate(-87.82)"/><path class="4a179cfb-f269-4683-b7c0-ba4d674f65c5" d="M126.83,141.81s12.15.55,11.27,12c-.86,11.06-11.27,10.54-11.27,10.54s-7.68-.43-10-5.74"/><circle class="115edbf3-a747-4dbd-b054-d5518435609b" cx="126.66" cy="183.17" r="2.36"/><circle class="4a179cfb-f269-4683-b7c0-ba4d674f65c5" cx="134.55" cy="183.17" r="2.36"/><circle class="4a179cfb-f269-4683-b7c0-ba4d674f65c5" cx="142.49" cy="183.17" r="2.36"/><line class="4a179cfb-f269-4683-b7c0-ba4d674f65c5" x1="73.25" y1="161.57" x2="106.63" y2="161.57"/></svg>