<svg id="40216f76-f869-427e-ae17-114b89657648" data-name="圖層 1" xmlns="http://www.w3.org/2000/svg" viewBox="0 0 210.63 202"><defs><style>.\32 c4b6fe2-f6d4-47b1-9eac-738856d04dec{fill:none;}.\32 c4b6fe2-f6d4-47b1-9eac-738856d04dec,.\39 31286f1-2837-4ec3-b581-51aa92a8a2ee{stroke:#515050;stroke-miterlimit:10;stroke-width:2px;}.\39 31286f1-2837-4ec3-b581-51aa92a8a2ee{fill:#f6d568;}</style></defs><title>icon</title><rect class="2c4b6fe2-f6d4-47b1-9eac-738856d04dec" x="44.93" y="142.65" width="60.63" height="6.12"/><rect class="2c4b6fe2-f6d4-47b1-9eac-738856d04dec" x="22.45" y="134.02" width="166.18" height="22.05"/><circle class="931286f1-2837-4ec3-b581-51aa92a8a2ee" cx="151.32" cy="145.71" r="2.61"/><circle class="2c4b6fe2-f6d4-47b1-9eac-738856d04dec" cx="164.06" cy="145.71" r="2.61"/><circle class="2c4b6fe2-f6d4-47b1-9eac-738856d04dec" cx="176.8" cy="145.71" r="2.61"/><path class="2c4b6fe2-f6d4-47b1-9eac-738856d04dec" d="M105.16,62.62h.79a2.77,2.77,0,0,1,2.77,2.77v60.73a0,0,0,0,1,0,0h-6.33a0,0,0,0,1,0,0V65.39A2.77,2.77,0,0,1,105.16,62.62Z"/><path class="2c4b6fe2-f6d4-47b1-9eac-738856d04dec" d="M44.15,68.68h.79a2.77,2.77,0,0,1,2.77,2.77v60.61a0,0,0,0,1,0,0H41.38a0,0,0,0,1,0,0V71.45A2.77,2.77,0,0,1,44.15,68.68Z" transform="translate(-30.92 20.6) rotate(-19.48)"/><path class="2c4b6fe2-f6d4-47b1-9eac-738856d04dec" d="M163.22,65.79H164a2.77,2.77,0,0,1,2.77,2.77v65.65a0,0,0,0,1,0,0h-6.33a0,0,0,0,1,0,0V68.56A2.77,2.77,0,0,1,163.22,65.79Z" transform="translate(41.29 -47.67) rotate(18.93)"/><path class="931286f1-2837-4ec3-b581-51aa92a8a2ee" d="M29.43,126.52H181.65a4.92,4.92,0,0,1,4.92,4.92V134a0,0,0,0,1,0,0H24.51a0,0,0,0,1,0,0v-2.58A4.92,4.92,0,0,1,29.43,126.52Z"/><rect class="2c4b6fe2-f6d4-47b1-9eac-738856d04dec" x="24.51" y="156.17" width="162.06" height="13.72"/><line class="2c4b6fe2-f6d4-47b1-9eac-738856d04dec" x1="24.51" y1="160.87" x2="92.11" y2="160.87"/></svg>