<svg id="圖層_1" data-name="圖層 1" xmlns="http://www.w3.org/2000/svg" viewBox="0 0 210.63 202"><defs><style>.cls-1{fill:#fff;}.cls-1,.cls-2,.cls-3{stroke:#515050;stroke-miterlimit:10;stroke-width:2px;}.cls-2{fill:#f6d568;}.cls-3{fill:none;}</style></defs><title>icon</title><rect class="cls-1" x="4.28" y="48.23" width="202.7" height="111.2" rx="5.37"/><path class="cls-1" d="M9.55,159.58l3.72,5.84c.6.94,182.45,0,182.45,0l3.11-5.84Z"/><path class="cls-2" d="M165.52,159.44V48.23H10.45A6.17,6.17,0,0,0,4.28,54.4v99.47a5.57,5.57,0,0,0,5.56,5.57Z"/><circle class="cls-3" cx="186.56" cy="117.89" r="10.42"/><path class="cls-3" d="M186.56,102.16s17,.76,15.75,16.77c-1.2,15.46-15.75,14.74-15.75,14.74s-10.74-.6-14-8"/><path class="cls-1" d="M14.18,152.23H155.62s-1.54-30.65-1.54-45.86,1.54-47.57,1.54-47.57H14.18Z"/><rect class="cls-3" x="20.01" y="63.87" width="128.4" height="83.06"/><circle class="cls-3" cx="186.56" cy="117.89" r="6"/><rect class="cls-3" x="170.82" y="57.24" width="7.32" height="11.42"/><rect class="cls-3" x="178.14" y="57.24" width="7.32" height="11.42"/><rect class="cls-3" x="185.46" y="57.24" width="7.32" height="11.42"/><rect class="cls-3" x="192.78" y="57.24" width="7.32" height="11.42"/><line class="cls-3" x1="169.73" y1="74.74" x2="201.39" y2="74.74"/><line class="cls-3" x1="169.73" y1="79.37" x2="185.56" y2="79.37"/><polyline class="cls-3" points="37.69 63.87 37.69 125.35 20.01 146.93"/><polyline class="cls-3" points="37.69 125.35 130.87 125.35 130.87 63.87"/><line class="cls-3" x1="148.41" y1="146.93" x2="130.68" y2="125.13"/><path class="cls-1" d="M143.06,134.26c0,5.15-26.16,9.32-60.94,9.32s-58.91-4.17-58.91-9.32,28.2-9.32,63-9.32S143.06,129.11,143.06,134.26Z"/><path class="cls-1" d="M139.74,128.8c0,4.87-24.71,8.81-57.57,8.81s-55.64-3.94-55.64-8.81S49.32,120,82.17,120,139.74,123.94,139.74,128.8Z"/><circle class="cls-2" cx="173.18" cy="152.28" r="2.36"/><circle class="cls-3" cx="181.07" cy="152.28" r="2.36"/><circle class="cls-3" cx="189.01" cy="152.28" r="2.36"/><circle class="cls-2" cx="172.74" cy="125.76" r="1.92"/></svg>