<svg id="圖層_1" data-name="圖層 1" xmlns="http://www.w3.org/2000/svg" viewBox="0 0 210.63 202"><defs><style>.cls-1,.cls-4{fill:#f6d568;}.cls-1,.cls-2,.cls-3,.cls-4,.cls-5,.cls-6{stroke:#515050;stroke-width:2px;}.cls-1,.cls-2,.cls-3{stroke-linejoin:round;}.cls-2,.cls-5{fill:#fff;}.cls-3,.cls-6{fill:none;}.cls-4,.cls-5,.cls-6{stroke-miterlimit:10;}</style></defs><title>icon</title><path class="cls-1" d="M108.45,172.38h-6l-32.76,7.76v6.74s6.38,5.86,38.72,5.86,37.63-5.42,37.63-5.42v-5.57l-33.28-9.37Z"/><path class="cls-2" d="M108.45,168.06h-6l-32.76,7.76v6.74s6.38,5.86,38.72,5.86S146.08,183,146.08,183v-5.57l-33.28-9.37Z"/><path class="cls-3" d="M69.73,176.7S76.11,184,108.45,184s37.63-6.71,37.63-6.71"/><circle class="cls-4" cx="109.67" cy="74.47" r="67.81"/><circle class="cls-5" cx="109.67" cy="74.47" r="61.56"/><rect class="cls-3" x="95.07" y="90.24" width="28.31" height="10.94"/><polygon class="cls-2" points="97.14 101.17 99.15 106.88 102.33 106.88 102.33 172.38 113.11 172.38 113.11 107.25 116.38 107.25 118.67 101.17 97.14 101.17"/><path class="cls-2" d="M111.05,56.28s4.24-18.93,33.68-21.55c0,0,11.9,3.43,16.33,31.26S147,105.11,142.91,94.62s-14.27-16.74-14.8-16.13c0,0,.87-5.6-2.35-12.78S112.06,55.24,111.05,56.28Z"/><path class="cls-2" d="M93.29,82.86s-18.51,5.79-35.5-18.39c0,0-3-12,18.9-29.77s40.94-7.34,33.87,1.4S103.21,56.82,104,57c0,0-5.28,2.05-9.89,8.43S91.88,82.51,93.29,82.86Z"/><path class="cls-2" d="M124.44,85.08s14.28,13.13,1.83,39.94c0,0-8.92,8.59-35.24-1.49s-26.82-31.78-15.72-30,21.63-4,21.37-4.75c0,0,4.42,3.55,12.24,4.35S124.84,86.47,124.44,85.08Z"/><circle class="cls-5" cx="109.67" cy="74.72" r="18.44"/><circle class="cls-4" cx="109.67" cy="74.55" r="13.71"/><path class="cls-2" d="M108.18,162.39h-5.51L89,168.46v3s3.15,2.64,19.17,2.64,18.63-2.44,18.63-2.44v-2.51l-14-6.79Z"/><path class="cls-3" d="M90.71,168.46s2.89,1.87,17.58,1.87,17.08-1.73,17.08-1.73"/><circle class="cls-4" cx="109.67" cy="74.55" r="2.39"/><circle class="cls-4" cx="117.34" cy="178.24" r="1.79"/><circle class="cls-6" cx="123.31" cy="178.24" r="1.79"/><line class="cls-6" x1="105.32" y1="141.37" x2="105.32" y2="162.85"/><path class="cls-6" d="M86.38,74.47a23.29,23.29,0,1,1,23.29,23.29"/></svg>