<svg id="c46ea24f-3957-4e44-a853-4d45ac01a352" data-name="圖層 1" xmlns="http://www.w3.org/2000/svg" viewBox="0 0 210.63 202"><defs><style>.\39 e34f19c-68f6-4ef3-af7c-68e5a7de7186{fill:#f6d568;}.\35 f7aef53-7cbc-473b-a06d-8ef9df4e83b6,.\38 273e2d8-8f97-4a1f-b8f2-4d728d83828d,.\39 e34f19c-68f6-4ef3-af7c-68e5a7de7186{stroke:#515050;stroke-miterlimit:10;stroke-width:2px;}.\35 f7aef53-7cbc-473b-a06d-8ef9df4e83b6{fill:#fff;}.\38 273e2d8-8f97-4a1f-b8f2-4d728d83828d{fill:none;}</style></defs><title>icon</title><rect class="9e34f19c-68f6-4ef3-af7c-68e5a7de7186" x="12.19" y="112.45" width="186.71" height="24.12"/><rect class="5f7aef53-7cbc-473b-a06d-8ef9df4e83b6" x="98.66" y="117.94" width="58.64" height="13.13"/><rect class="8273e2d8-8f97-4a1f-b8f2-4d728d83828d" x="19.26" y="97.98" width="100.04" height="7.21"/><rect class="8273e2d8-8f97-4a1f-b8f2-4d728d83828d" x="9.82" y="89.17" width="191.46" height="23.18"/><path class="5f7aef53-7cbc-473b-a06d-8ef9df4e83b6" d="M17.11,81.28H194a4.92,4.92,0,0,1,4.92,4.92v3a0,0,0,0,1,0,0H12.19a0,0,0,0,1,0,0v-3A4.92,4.92,0,0,1,17.11,81.28Z"/><line class="8273e2d8-8f97-4a1f-b8f2-4d728d83828d" x1="21.67" y1="130.08" x2="89.26" y2="130.08"/><line class="8273e2d8-8f97-4a1f-b8f2-4d728d83828d" x1="105.54" y1="124.51" x2="113.36" y2="124.51"/><line class="8273e2d8-8f97-4a1f-b8f2-4d728d83828d" x1="138.23" y1="124.51" x2="146.04" y2="124.51"/><line class="8273e2d8-8f97-4a1f-b8f2-4d728d83828d" x1="118.04" y1="124.51" x2="132" y2="124.51"/><circle class="9e34f19c-68f6-4ef3-af7c-68e5a7de7186" cx="129.39" cy="101.58" r="2.61"/><circle class="8273e2d8-8f97-4a1f-b8f2-4d728d83828d" cx="142.13" cy="101.58" r="2.61"/><circle class="8273e2d8-8f97-4a1f-b8f2-4d728d83828d" cx="154.87" cy="101.58" r="2.61"/><circle class="5f7aef53-7cbc-473b-a06d-8ef9df4e83b6" cx="174.04" cy="108.71" r="12.57" transform="translate(58.79 278.49) rotate(-87.82)"/><circle class="5f7aef53-7cbc-473b-a06d-8ef9df4e83b6" cx="174.04" cy="108.71" r="7.24" transform="translate(58.79 278.49) rotate(-87.82)"/></svg>