<svg id="圖層_1" data-name="圖層 1" xmlns="http://www.w3.org/2000/svg" viewBox="0 0 210.63 202"><defs><style>.cls-1{fill:#f6d568;}.cls-1,.cls-2,.cls-3{stroke:#515050;stroke-miterlimit:10;stroke-width:2px;}.cls-2{fill:#fff;}.cls-3{fill:none;}</style></defs><title>icon</title><rect class="cls-1" x="20.96" y="123.57" width="167.61" height="24.73"/><polygon class="cls-2" points="188.57 123.57 20.96 123.57 20.96 43.6 187.57 43.6 188.57 123.57"/><rect class="cls-2" x="20.96" y="148.34" width="167.61" height="7.64"/><circle class="cls-2" cx="58.04" cy="91.3" r="23.72"/><circle class="cls-1" cx="58.04" cy="91.3" r="17.52"/><circle class="cls-1" cx="58.04" cy="91.3" r="3.68"/><circle class="cls-2" cx="149.74" cy="91.3" r="23.72"/><circle class="cls-1" cx="149.74" cy="91.3" r="17.52"/><circle class="cls-1" cx="149.74" cy="91.3" r="4.26"/><path class="cls-2" d="M21,42.55C13.82,42.55,13.82,76,13.82,76H196.19s-.39-33.43-8.62-33.43Z"/><rect class="cls-2" x="13.82" y="75.99" width="182.37" height="6.74"/><circle class="cls-1" cx="152.49" cy="62.02" r="2.75"/><circle class="cls-3" cx="161.77" cy="62.02" r="2.75"/><circle class="cls-3" cx="171.05" cy="62.02" r="2.75"/><circle class="cls-3" cx="180.34" cy="62.02" r="2.75"/><polygon class="cls-2" points="189.57 161.5 19.96 161.5 20.96 156.02 188.57 156.02 189.57 161.5"/><polygon class="cls-2" points="13.82 82.74 20.96 155.98 20.96 82.74 13.82 82.74"/><polygon class="cls-2" points="195.71 82.74 188.57 155.98 188.57 82.74 195.71 82.74"/><line class="cls-3" x1="20.96" y1="129" x2="155.24" y2="129"/></svg>