<svg id="5d6e165a-f3c7-4c41-a369-d3d54bb99f6d" data-name="圖層 1" xmlns="http://www.w3.org/2000/svg" viewBox="0 0 210.63 202"><defs><style>.\30 a1760ef-c516-48c3-8dba-e0cf7f71e334{fill:none;}.\30 a1760ef-c516-48c3-8dba-e0cf7f71e334,.\32 9719018-dab6-4c27-a007-0be21ef35973{stroke:#515050;stroke-miterlimit:10;stroke-width:2px;}.\32 9719018-dab6-4c27-a007-0be21ef35973{fill:#f6d568;}</style></defs><title>icon</title><rect class="0a1760ef-c516-48c3-8dba-e0cf7f71e334" x="15.9" y="110.23" width="179.28" height="34.32"/><circle class="29719018-dab6-4c27-a007-0be21ef35973" cx="157.74" cy="120.75" r="2.82"/><circle class="0a1760ef-c516-48c3-8dba-e0cf7f71e334" cx="171.49" cy="120.75" r="2.82"/><circle class="0a1760ef-c516-48c3-8dba-e0cf7f71e334" cx="185.23" cy="120.75" r="2.82"/><circle class="0a1760ef-c516-48c3-8dba-e0cf7f71e334" cx="37.84" cy="128" r="9.43"/><circle class="0a1760ef-c516-48c3-8dba-e0cf7f71e334" cx="37.84" cy="128" r="5.43"/><circle class="0a1760ef-c516-48c3-8dba-e0cf7f71e334" cx="65.75" cy="128" r="9.43"/><circle class="0a1760ef-c516-48c3-8dba-e0cf7f71e334" cx="65.75" cy="128" r="5.43"/><path class="29719018-dab6-4c27-a007-0be21ef35973" d="M23,104.92H188a4.92,4.92,0,0,1,4.92,4.92v.39a0,0,0,0,1,0,0H18.13a0,0,0,0,1,0,0v-.39A4.92,4.92,0,0,1,23,104.92Z"/><rect class="0a1760ef-c516-48c3-8dba-e0cf7f71e334" x="18.13" y="144.55" width="174.83" height="5.7"/><rect class="0a1760ef-c516-48c3-8dba-e0cf7f71e334" x="86.72" y="119.19" width="56.87" height="17.62"/><line class="0a1760ef-c516-48c3-8dba-e0cf7f71e334" x1="161.29" y1="130.41" x2="189.17" y2="130.41"/><rect class="29719018-dab6-4c27-a007-0be21ef35973" x="138.85" y="119.19" width="4.74" height="17.62"/><rect class="0a1760ef-c516-48c3-8dba-e0cf7f71e334" x="86.72" y="119.19" width="8.12" height="17.62"/><rect class="0a1760ef-c516-48c3-8dba-e0cf7f71e334" x="103.06" y="119.19" width="8.12" height="17.62"/><rect class="0a1760ef-c516-48c3-8dba-e0cf7f71e334" x="166.48" y="135.3" width="21.57" height="3.64"/></svg>