<svg id="34f4e658-701f-48f2-a7cd-6117a8c2512d" data-name="圖層 1" xmlns="http://www.w3.org/2000/svg" viewBox="0 0 210.63 202"><defs><style>.e5eeadea-cdcd-4d96-adbc-c56aea2d760e{fill:none;}.\32 c002300-82a7-43ba-9c2a-a908c832d019,.\36 66c850b-4390-4dd3-b73a-5daacec7a467,.c6b11e6a-513b-442e-b6a9-a113aa9ccd4e,.e5eeadea-cdcd-4d96-adbc-c56aea2d760e{stroke:#515050;stroke-miterlimit:10;stroke-width:2px;}.\32 c002300-82a7-43ba-9c2a-a908c832d019{fill:#fff;}.c6b11e6a-513b-442e-b6a9-a113aa9ccd4e{fill:#f6d568;}.\36 66c850b-4390-4dd3-b73a-5daacec7a467{fill:#515050;}</style></defs><title>icon</title><rect class="e5eeadea-cdcd-4d96-adbc-c56aea2d760e" x="56.74" y="15.89" width="99.79" height="170.02" rx="3.38" ry="3.38"/><rect class="e5eeadea-cdcd-4d96-adbc-c56aea2d760e" x="56.74" y="127.46" width="99.79" height="58.44"/><rect class="e5eeadea-cdcd-4d96-adbc-c56aea2d760e" x="56.74" y="15.89" width="48.96" height="106.33"/><rect class="e5eeadea-cdcd-4d96-adbc-c56aea2d760e" x="108.2" y="15.89" width="48.33" height="106.33"/><rect class="e5eeadea-cdcd-4d96-adbc-c56aea2d760e" x="66.74" y="75.76" width="17.75" height="38.7"/><rect class="e5eeadea-cdcd-4d96-adbc-c56aea2d760e" x="95.99" y="28.61" width="4.51" height="85.7"/><rect class="2c002300-82a7-43ba-9c2a-a908c832d019" x="95.08" y="100.47" width="6.34" height="14.98"/><rect class="2c002300-82a7-43ba-9c2a-a908c832d019" x="95.08" y="26.64" width="6.34" height="14.98"/><rect class="e5eeadea-cdcd-4d96-adbc-c56aea2d760e" x="113.56" y="28.61" width="4.51" height="85.7"/><rect class="2c002300-82a7-43ba-9c2a-a908c832d019" x="112.65" y="100.47" width="6.34" height="14.98"/><rect class="2c002300-82a7-43ba-9c2a-a908c832d019" x="112.65" y="26.64" width="6.34" height="14.98"/><rect class="c6b11e6a-513b-442e-b6a9-a113aa9ccd4e" x="66.74" y="107.28" width="17.75" height="7.18"/><rect class="e5eeadea-cdcd-4d96-adbc-c56aea2d760e" x="65.55" y="134.69" width="90.98" height="7.15"/><rect class="e5eeadea-cdcd-4d96-adbc-c56aea2d760e" x="56.74" y="134.69" width="8.81" height="7.15"/><rect class="666c850b-4390-4dd3-b73a-5daacec7a467" x="56.74" y="131.85" width="99.79" height="2.84"/><line class="e5eeadea-cdcd-4d96-adbc-c56aea2d760e" x1="56.74" y1="146.52" x2="156.53" y2="146.52"/><line class="e5eeadea-cdcd-4d96-adbc-c56aea2d760e" x1="56.74" y1="20.49" x2="106.32" y2="20.49"/><line class="e5eeadea-cdcd-4d96-adbc-c56aea2d760e" x1="107.33" y1="20.49" x2="156.92" y2="20.49"/><circle class="c6b11e6a-513b-442e-b6a9-a113aa9ccd4e" cx="71.21" cy="101.15" r="1.58"/><circle class="e5eeadea-cdcd-4d96-adbc-c56aea2d760e" cx="76.47" cy="101.15" r="1.58"/><rect class="c6b11e6a-513b-442e-b6a9-a113aa9ccd4e" x="56.74" y="174.96" width="99.79" height="11.15"/><line class="e5eeadea-cdcd-4d96-adbc-c56aea2d760e" x1="96.95" y1="101.15" x2="102.29" y2="101.15"/><line class="e5eeadea-cdcd-4d96-adbc-c56aea2d760e" x1="111.77" y1="101.15" x2="117.12" y2="101.15"/><polygon class="e5eeadea-cdcd-4d96-adbc-c56aea2d760e" points="66.74 75.42 69.08 78.23 82.61 78.23 84.72 75.69 66.74 75.42"/><line class="e5eeadea-cdcd-4d96-adbc-c56aea2d760e" x1="72.78" y1="171.65" x2="156.92" y2="171.65"/></svg>