<svg id="f39e769b-842e-44e2-b6e5-26470ef9aeb3" data-name="圖層 1" xmlns="http://www.w3.org/2000/svg" viewBox="0 0 210.63 202"><defs><style>.\38 0dbb30e-1257-432a-89e0-aec065bad239{fill:none;}.\32 b87f1ae-aa23-4490-8e41-b201b5c862c0,.\38 0dbb30e-1257-432a-89e0-aec065bad239,.d6236db1-7062-4283-ba5a-014b57661803{stroke:#515050;stroke-miterlimit:10;stroke-width:2px;}.d6236db1-7062-4283-ba5a-014b57661803{fill:#f6d568;}.\32 b87f1ae-aa23-4490-8e41-b201b5c862c0{fill:#fff;}</style></defs><title>icon</title><rect class="80dbb30e-1257-432a-89e0-aec065bad239" x="41.43" y="14.73" width="132.67" height="168.3" rx="6.77" ry="6.77"/><rect class="80dbb30e-1257-432a-89e0-aec065bad239" x="61.81" y="183.02" width="13" height="6.17"/><rect class="80dbb30e-1257-432a-89e0-aec065bad239" x="146.31" y="183.02" width="13" height="6.17"/><path class="d6236db1-7062-4283-ba5a-014b57661803" d="M110.79,172.17h52.65V71.48s1.82-26.79-26.79-26.79c-25.93,0-25.86,23.92-25.86,23.92Z"/><circle class="2b87f1ae-aa23-4490-8e41-b201b5c862c0" cx="137.12" cy="71.48" r="13.81"/><circle class="80dbb30e-1257-432a-89e0-aec065bad239" cx="137.09" cy="71.48" r="22.09"/><rect class="80dbb30e-1257-432a-89e0-aec065bad239" x="174.11" y="31.69" width="3.7" height="21.78"/><path class="80dbb30e-1257-432a-89e0-aec065bad239" d="M137.09,52.95a18.53,18.53,0,1,1-18.53,18.53"/><line class="80dbb30e-1257-432a-89e0-aec065bad239" x1="48.64" y1="178.36" x2="173.61" y2="178.36"/><rect class="d6236db1-7062-4283-ba5a-014b57661803" x="60.7" y="189.19" width="15.21" height="3.71"/><rect class="d6236db1-7062-4283-ba5a-014b57661803" x="145.2" y="189.19" width="15.21" height="3.71"/><line class="80dbb30e-1257-432a-89e0-aec065bad239" x1="137.09" y1="71.48" x2="131.99" y2="85.25"/><circle class="d6236db1-7062-4283-ba5a-014b57661803" cx="117.1" cy="166.41" r="2.11"/><circle class="2b87f1ae-aa23-4490-8e41-b201b5c862c0" cx="124.12" cy="166.41" r="2.11"/><circle class="2b87f1ae-aa23-4490-8e41-b201b5c862c0" cx="131.19" cy="166.41" r="2.11"/><rect class="2b87f1ae-aa23-4490-8e41-b201b5c862c0" x="115" y="157.24" width="39.07" height="3.19"/><line class="80dbb30e-1257-432a-89e0-aec065bad239" x1="115" y1="153.36" x2="142.97" y2="153.36"/><rect class="2b87f1ae-aa23-4490-8e41-b201b5c862c0" x="50.56" y="42.18" width="22.38" height="86.09"/><rect class="2b87f1ae-aa23-4490-8e41-b201b5c862c0" x="59.35" y="69.62" width="4.8" height="51.03"/><path class="d6236db1-7062-4283-ba5a-014b57661803" d="M59.14,58.38s-.27-2.72,1-4.29,1.69-1.18,2.13-2.48c0,0,.34,4.32,1.52,4.88s1.5,3.85.52,4.51a5.32,5.32,0,0,1-5.18,1C56.28,61.25,59.14,58.38,59.14,58.38Z"/><path class="d6236db1-7062-4283-ba5a-014b57661803" d="M59.87,59.2c-.07-1.66-3.37-4.85-3.37-4.85,0,.64-1.22,3.83,0,7.43,1.32,3.79,4,3.42,4,3.42a14.67,14.67,0,0,1,3.61-1.29c2.82-.77,2-6.81,3.38-9.12a4.65,4.65,0,0,0-3.81,3.55"/><rect class="d6236db1-7062-4283-ba5a-014b57661803" x="59.65" y="87.13" width="4.33" height="33.36"/></svg>