<svg id="b888f6cc-cfd3-42fb-a822-15bc22e33560" data-name="圖層 1" xmlns="http://www.w3.org/2000/svg" viewBox="0 0 210.63 202"><defs><style>.\31 dfbc326-9067-42fe-b9e4-308dbc10c080{fill:none;}.\31 dfbc326-9067-42fe-b9e4-308dbc10c080,.\36 79b8841-b9e1-4bb7-a249-67ed89f077cc,.e09738f4-95fd-45ff-b301-425f5b6ae880{stroke:#515050;stroke-miterlimit:10;stroke-width:2px;}.\36 79b8841-b9e1-4bb7-a249-67ed89f077cc{fill:#f6d568;}.e09738f4-95fd-45ff-b301-425f5b6ae880{fill:#fff;}</style></defs><title>icon</title><rect class="1dfbc326-9067-42fe-b9e4-308dbc10c080" x="7.34" y="50.01" width="196.59" height="107.85" rx="5.37" ry="5.37"/><path class="1dfbc326-9067-42fe-b9e4-308dbc10c080" d="M12.45,158l3.6,5.66c.58.91,176.95,0,176.95,0l3-5.66Z"/><path class="679b8841-b9e1-4bb7-a249-67ed89f077cc" d="M163.71,157.85V50H13.32a6,6,0,0,0-6,6v96.47a5.4,5.4,0,0,0,5.4,5.4Z"/><circle class="1dfbc326-9067-42fe-b9e4-308dbc10c080" cx="184.12" cy="117.56" r="10.1" transform="translate(59.63 297.08) rotate(-87.82)"/><path class="1dfbc326-9067-42fe-b9e4-308dbc10c080" d="M184.12,102.3s16.48.74,15.27,16.27c-1.16,15-15.27,14.29-15.27,14.29s-10.41-.58-13.55-7.79"/><path class="e09738f4-95fd-45ff-b301-425f5b6ae880" d="M18.11,149.12H152.94s-1.47-29.21-1.47-43.71,1.47-45.34,1.47-45.34H18.11Z"/><rect class="1dfbc326-9067-42fe-b9e4-308dbc10c080" x="22.59" y="65.17" width="124.53" height="80.55"/><circle class="1dfbc326-9067-42fe-b9e4-308dbc10c080" cx="184.12" cy="117.56" r="5.82" transform="translate(59.63 297.08) rotate(-87.82)"/><rect class="1dfbc326-9067-42fe-b9e4-308dbc10c080" x="168.85" y="58.74" width="7.1" height="11.07"/><rect class="1dfbc326-9067-42fe-b9e4-308dbc10c080" x="175.95" y="58.74" width="7.1" height="11.07"/><rect class="1dfbc326-9067-42fe-b9e4-308dbc10c080" x="183.05" y="58.74" width="7.1" height="11.07"/><rect class="1dfbc326-9067-42fe-b9e4-308dbc10c080" x="190.15" y="58.74" width="7.1" height="11.07"/><line class="1dfbc326-9067-42fe-b9e4-308dbc10c080" x1="167.8" y1="75.71" x2="198.5" y2="75.71"/><line class="1dfbc326-9067-42fe-b9e4-308dbc10c080" x1="167.8" y1="80.2" x2="183.15" y2="80.2"/><polyline class="1dfbc326-9067-42fe-b9e4-308dbc10c080" points="39.73 65.17 39.73 124.79 22.59 145.73"/><polyline class="1dfbc326-9067-42fe-b9e4-308dbc10c080" points="39.73 124.79 130.1 124.79 130.1 65.17"/><line class="1dfbc326-9067-42fe-b9e4-308dbc10c080" x1="147.12" y1="145.73" x2="129.92" y2="124.58"/><path class="e09738f4-95fd-45ff-b301-425f5b6ae880" d="M141.93,135.38c0,5-25.37,9-59.1,9s-57.13-4-57.13-9,27.34-9,61.07-9S141.93,130.38,141.93,135.38Z"/><path class="e09738f4-95fd-45ff-b301-425f5b6ae880" d="M138.71,130.08c0,4.72-24,8.54-55.83,8.54s-54-3.82-54-8.54,22.1-8.54,54-8.54S138.71,125.37,138.71,130.08Z"/><circle class="679b8841-b9e1-4bb7-a249-67ed89f077cc" cx="170.71" cy="151.35" r="1.86"/><circle class="1dfbc326-9067-42fe-b9e4-308dbc10c080" cx="176.91" cy="151.35" r="1.86"/><circle class="1dfbc326-9067-42fe-b9e4-308dbc10c080" cx="183.15" cy="151.35" r="1.86"/><circle class="679b8841-b9e1-4bb7-a249-67ed89f077cc" cx="170.71" cy="125.2" r="1.86"/></svg>