<?xml version="1.0" encoding="utf-8"?>
<!-- Generator: Adobe Illustrator 23.0.1, SVG Export Plug-In . SVG Version: 6.00 Build 0)  -->
<svg version="1.1" id="圖層_1" xmlns="http://www.w3.org/2000/svg" xmlns:xlink="http://www.w3.org/1999/xlink" x="0px" y="0px"
	 viewBox="0 0 210.6 202" style="enable-background:new 0 0 210.6 202;" xml:space="preserve">
<style type="text/css">
	.st0{fill:#FFFFFF;stroke:#515050;stroke-width:2;stroke-miterlimit:10;}
	.st1{fill:#F6D568;stroke:#515050;stroke-width:2;stroke-miterlimit:10;}
	.st2{fill:none;stroke:#515050;stroke-width:2;stroke-miterlimit:10;}
	.st3{fill:#E7E6E4;stroke:#515050;stroke-width:2;stroke-miterlimit:10;}
</style>
<title>icon</title>
<path class="st0" d="M58.5,11.7h99.8c3.4,0,6.1,2.7,6.1,6.1V185c0,3.4-2.7,6.1-6.1,6.1H58.5c-3.4,0-6.1-2.7-6.1-6.1V17.7
	C52.4,14.4,55.1,11.7,58.5,11.7z"/>
<rect x="66.1" y="11.7" class="st1" width="84.9" height="48.5"/>
<path class="st2" d="M98.7,191l-8.1-8.1c0,0-24.4-0.6-24.4-21.2v-150"/>
<path class="st2" d="M118.5,191l8.1-8.1c0,0,24.4-0.6,24.4-21.2v-150"/>
<path class="st0" d="M97.9,11.7v39c0,2,1.9,3.6,4.3,3.6H115c2.4,0,4.3-1.6,4.3-3.6v-39H97.9z"/>
<circle class="st1" cx="108.6" cy="28.3" r="3.6"/>
<circle class="st2" cx="108.6" cy="40.7" r="3.6"/>
<ellipse class="st0" cx="84" cy="89.8" rx="6.3" ry="2"/>
<path class="st2" d="M90.2,96.5c-0.1,1.1-2.8,1.9-6.2,1.9s-6.2-0.9-6.2-1.9l0,0v8.3l3.6,9.5h6.3l2.7-9.7L90.2,96.5L90.2,96.5z"/>
<rect x="78.3" y="79.4" class="st0" width="11.3" height="4"/>
<rect x="81.9" y="83.4" class="st0" width="4.1" height="4"/>
<path class="st3" d="M84,96.5c-3,0-5.4-0.7-6.1-1.5h-0.2v4.7c0,1.1,2.8,2,6.2,2s6.3-0.9,6.3-2v-4.7h-0.2
	C89.4,95.8,86.9,96.5,84,96.5z"/>
<path class="st1" d="M84,91.7c-3,0-5.4-0.7-6.1-1.5h-0.2v4.3c0,1.1,2.8,2,6.2,2s6.3-0.9,6.3-2v-4.3h-0.2
	C89.4,91.1,86.9,91.7,84,91.7z"/>
<ellipse class="st0" cx="109.4" cy="89.8" rx="6.3" ry="2"/>
<path class="st2" d="M115.7,96.5c-0.1,1.1-2.8,1.9-6.2,1.9s-6.2-0.9-6.2-1.9l0,0v8.3l3.6,9.5h6.2l2.7-9.7L115.7,96.5L115.7,96.5z"/>
<rect x="103.8" y="79.4" class="st0" width="11.3" height="4"/>
<rect x="107.4" y="83.4" class="st0" width="4.1" height="4"/>
<path class="st3" d="M109.4,96.5c-3,0-5.4-0.7-6.1-1.5h-0.2v4.7c0,1.1,2.8,2,6.3,2s6.2-0.9,6.2-2v-4.7h-0.2
	C114.9,95.8,112.4,96.5,109.4,96.5z"/>
<path class="st0" d="M109.4,91.7c-3,0-5.4-0.7-6.1-1.5h-0.2v4.3c0,1.1,2.8,2,6.3,2s6.2-0.9,6.2-2v-4.3h-0.2
	C114.9,91.1,112.4,91.7,109.4,91.7z"/>
<ellipse class="st0" cx="134.9" cy="89.8" rx="6.3" ry="2"/>
<path class="st2" d="M141.1,96.5c-0.1,1.1-2.8,1.9-6.2,1.9s-6.2-0.9-6.2-1.9l0,0v8.3l3.6,9.5h6.3l2.7-9.7L141.1,96.5L141.1,96.5z"/>
<rect x="129.2" y="79.4" class="st0" width="11.3" height="4"/>
<rect x="132.9" y="83.4" class="st0" width="4.1" height="4"/>
<path class="st3" d="M134.9,96.5c-3,0-5.4-0.7-6.1-1.5h-0.2v4.7c0,1.1,2.8,2,6.3,2s6.2-0.9,6.2-2v-4.7H141
	C140.3,95.8,137.8,96.5,134.9,96.5z"/>
<path class="st0" d="M134.9,91.7c-3,0-5.4-0.7-6.1-1.5h-0.2v4.3c0,1.1,2.8,2,6.3,2s6.2-0.9,6.2-2v-4.3H141
	C140.3,91.1,137.8,91.7,134.9,91.7z"/>
<line class="st2" x1="66.1" y1="60.2" x2="151" y2="60.2"/>
<line class="st2" x1="66.1" y1="65.3" x2="151" y2="65.3"/>
<line class="st2" x1="66.1" y1="162.6" x2="151" y2="162.6"/>
<line class="st2" x1="66.1" y1="169" x2="151" y2="169"/>
<line class="st2" x1="70.5" y1="174.4" x2="146.7" y2="174.4"/>
<line class="st2" x1="80" y1="180.7" x2="137.1" y2="180.7"/>
<line class="st2" x1="92.7" y1="185.5" x2="124.1" y2="185.5"/>
<path class="st2" d="M66.1,158.6c0,0,6.9-3.3,43.3-3c37.2,0.3,41.6,3.4,41.6,3.4"/>
<rect x="66.1" y="60.2" class="st1" width="84.9" height="5.1"/>
</svg>
