<svg id="2900e62a-c7d2-4378-81e6-87995598834e" data-name="圖層 1" xmlns="http://www.w3.org/2000/svg" viewBox="0 0 210.63 202"><defs><style>.\39 d8eaa48-1adf-4b6d-95e1-82c3975f82d0{fill:#f6d568;}.\34 7dc3593-a5f0-4d2b-8633-69dcb2422700,.\39 d8eaa48-1adf-4b6d-95e1-82c3975f82d0,.b4fdb26e-68cf-4db9-a2dc-1cde9237b250{stroke:#515050;stroke-miterlimit:10;stroke-width:2px;}.b4fdb26e-68cf-4db9-a2dc-1cde9237b250{fill:#fff;}.\34 7dc3593-a5f0-4d2b-8633-69dcb2422700{fill:none;}</style></defs><title>icon</title><path class="9d8eaa48-1adf-4b6d-95e1-82c3975f82d0" d="M157.37,122.64,122.55,157.7s2.34,7.3,1.41,11.38-6.09,7.21-6.09,7.21l3.26,4.27,53.36,5.21s-4.92-11.17.88-20.38,13.2-11.24,19.23-7.29c0,0,1.69-10-.69-12.17s-21.11-14-21.11-14Z"/><circle class="b4fdb26e-68cf-4db9-a2dc-1cde9237b250" cx="182.73" cy="170.81" r="16.46" transform="translate(-13.92 325.39) rotate(-81.24)"/><polygon class="b4fdb26e-68cf-4db9-a2dc-1cde9237b250" points="114.53 160.3 119.65 160.26 119.89 166.41 116.25 170.54 112.39 169.95 114.53 160.3"/><path class="b4fdb26e-68cf-4db9-a2dc-1cde9237b250" d="M123.74,169.23s4.84-7.68.28-13.75l32.54-32.77L185.5,140.2l-19.88,10.33-6.85,20.08-35-1.37"/><circle class="b4fdb26e-68cf-4db9-a2dc-1cde9237b250" cx="182.73" cy="170.81" r="10.66" transform="translate(-13.92 325.39) rotate(-81.24)"/><path class="47dc3593-a5f0-4d2b-8633-69dcb2422700" d="M114.29,161.39s-13.39-20.59-1.85-39.89c7.58-12.7,11.7-15.59,11.7-15.59s31.35-34.41,10.42-74.5l-7.11,2.89s21.6,33.29-8.57,68.15c-26,30-19.84,47.74-6.5,67.5"/><polygon class="9d8eaa48-1adf-4b6d-95e1-82c3975f82d0" points="134.56 28.95 125.44 22 90.57 85.81 98.11 90.65 134.56 28.95"/><polygon class="b4fdb26e-68cf-4db9-a2dc-1cde9237b250" points="91.64 86.5 88.25 93.35 94.21 96.82 97.57 90.3 91.64 86.5"/><polygon class="b4fdb26e-68cf-4db9-a2dc-1cde9237b250" points="88.79 93.67 57.08 152.54 62.05 156.34 93.49 96.79 88.79 93.67"/><polygon class="b4fdb26e-68cf-4db9-a2dc-1cde9237b250" points="11.99 170.05 65.58 185.88 83.24 170.78 30.95 157.9 11.99 170.05"/><polygon class="b4fdb26e-68cf-4db9-a2dc-1cde9237b250" points="12.73 177.17 12.21 170.12 65.8 185.95 66.33 193.21 12.73 177.17"/><polygon class="b4fdb26e-68cf-4db9-a2dc-1cde9237b250" points="85.25 176.89 83.32 171.72 65.82 185.34 66.33 193.21 85.25 176.89"/><polygon class="b4fdb26e-68cf-4db9-a2dc-1cde9237b250" points="52 151.69 35.44 164.48 64.18 173.35 67.03 156.53 52 151.69"/><line class="47dc3593-a5f0-4d2b-8633-69dcb2422700" x1="60.67" y1="145.87" x2="66.02" y2="150.85"/><line class="47dc3593-a5f0-4d2b-8633-69dcb2422700" x1="63.09" y1="141.38" x2="67.98" y2="147.14"/><path class="b4fdb26e-68cf-4db9-a2dc-1cde9237b250" d="M125.91,154.68s-6.49,3.37-7,3.68,1.45,5.72.32,8.17-4.85,5.5-4.85,5.5l5.68,5.75s6.09-3.44,7.57-9S125.91,154.68,125.91,154.68Z"/><circle class="9d8eaa48-1adf-4b6d-95e1-82c3975f82d0" cx="135.47" cy="162.52" r="2.51"/><circle class="47dc3593-a5f0-4d2b-8633-69dcb2422700" cx="143.85" cy="162.52" r="2.51"/><circle class="47dc3593-a5f0-4d2b-8633-69dcb2422700" cx="152.3" cy="162.52" r="2.51"/></svg>