<svg id="8826d7ea-6f18-430a-a5d9-2699d963720f" data-name="圖層 1" xmlns="http://www.w3.org/2000/svg" viewBox="0 0 210.63 202"><defs><style>.\36 201750a-2300-4f2a-8590-548f796b5f9c,.b39f03b9-cdf6-43a6-b5a3-1f9443528026{fill:none;}.\35 5af503e-4bf7-44f8-9bff-96c21918ef96,.\36 201750a-2300-4f2a-8590-548f796b5f9c,.\36 3a026a3-adec-41f4-9a14-5fdc92a39112,.b39f03b9-cdf6-43a6-b5a3-1f9443528026,.f0e6e8bc-aee8-4d48-81a9-c35672dcd9a0{stroke:#515050;stroke-miterlimit:10;}.\35 5af503e-4bf7-44f8-9bff-96c21918ef96,.b39f03b9-cdf6-43a6-b5a3-1f9443528026,.f0e6e8bc-aee8-4d48-81a9-c35672dcd9a0{stroke-width:2px;}.f0e6e8bc-aee8-4d48-81a9-c35672dcd9a0{fill:#fff;}.\35 5af503e-4bf7-44f8-9bff-96c21918ef96,.\36 3a026a3-adec-41f4-9a14-5fdc92a39112{fill:#f6d568;}</style></defs><title>icon</title><rect class="b39f03b9-cdf6-43a6-b5a3-1f9443528026" x="100.21" y="158" width="8.9" height="9.77"/><polygon class="f0e6e8bc-aee8-4d48-81a9-c35672dcd9a0" points="67.05 165.1 63.82 173.88 144.69 173.88 141.45 165.1 67.05 165.1"/><polygon class="b39f03b9-cdf6-43a6-b5a3-1f9443528026" points="64.64 178.27 63.82 173.88 144.69 173.88 143.87 178.27 64.64 178.27"/><path class="f0e6e8bc-aee8-4d48-81a9-c35672dcd9a0" d="M97.48,152.67h14.35v1.78l-2.15,2.66.24,11.54a17.77,17.77,0,0,1-10.52,0V157.11l-1.91-1.78Z"/><rect class="f0e6e8bc-aee8-4d48-81a9-c35672dcd9a0" x="10.38" y="34.57" width="187.74" height="122.55"/><rect class="55af503e-4bf7-44f8-9bff-96c21918ef96" x="19.18" y="41.52" width="170.14" height="107.75"/><line class="b39f03b9-cdf6-43a6-b5a3-1f9443528026" x1="102.98" y1="160.62" x2="102.98" y2="169.59"/><circle class="63a026a3-adec-41f4-9a14-5fdc92a39112" cx="182" cy="153.38" r="1.69"/><circle class="6201750a-2300-4f2a-8590-548f796b5f9c" cx="187.63" cy="153.38" r="1.69"/></svg>