<svg id="圖層_1" data-name="圖層 1" xmlns="http://www.w3.org/2000/svg" viewBox="0 0 210.63 202"><defs><style>.cls-1{fill:#fff;}.cls-1,.cls-2,.cls-3{stroke:#515050;stroke-miterlimit:10;stroke-width:2px;}.cls-2{fill:#f6d568;}.cls-3{fill:none;}</style></defs><title>icon</title><rect class="cls-1" x="4.28" y="48.23" width="202.7" height="111.2" rx="5.37"/><path class="cls-1" d="M9.55,159.58l3.72,5.84c.6.94,182.45,0,182.45,0l3.11-5.84Z"/><path class="cls-2" d="M165.52,159.44V48.23H10.45A6.17,6.17,0,0,0,4.28,54.4v99.47a5.57,5.57,0,0,0,5.56,5.57Z"/><rect class="cls-1" x="12.19" y="57.82" width="143.75" height="94.62"/><rect class="cls-3" x="18.41" y="62.83" width="131.59" height="85.12"/><polyline class="cls-3" points="36.53 62.83 36.53 125.84 18.41 147.96"/><polyline class="cls-3" points="36.53 125.84 132.02 125.84 132.02 62.83"/><line class="cls-3" x1="148.41" y1="146.93" x2="130.68" y2="125.13"/><line class="cls-3" x1="18.41" y1="133.76" x2="150" y2="133.76"/><line class="cls-3" x1="36.98" y1="112.35" x2="131.83" y2="112.35"/><line class="cls-3" x1="18.41" y1="133.76" x2="36.98" y2="112.35"/><line class="cls-3" x1="150" y1="133.76" x2="131.83" y2="112.35"/><line class="cls-3" x1="27.7" y1="133.74" x2="43.86" y2="112.35"/><line class="cls-3" x1="43.86" y1="133.76" x2="54.21" y2="112.35"/><line class="cls-3" x1="59.33" y1="133.76" x2="63.94" y2="112.35"/><line class="cls-3" x1="76.75" y1="133.74" x2="77.27" y2="112.35"/><line class="cls-3" x1="90.08" y1="133.74" x2="88.03" y2="112.35"/><line class="cls-3" x1="105.71" y1="133.74" x2="98.79" y2="112.35"/><line class="cls-3" x1="119.28" y1="133.74" x2="110.57" y2="112.35"/><line class="cls-3" x1="137.73" y1="133.74" x2="122.87" y2="112.35"/><rect class="cls-2" x="171.94" y="147.66" width="23.33" height="5.67"/><circle class="cls-2" cx="186.65" cy="70.17" r="6.04"/><circle class="cls-3" cx="186.65" cy="70.17" r="11.04"/><line class="cls-3" x1="179.85" y1="61.47" x2="186.65" y2="70.17"/><circle class="cls-1" cx="186.65" cy="116.02" r="6.04"/><circle class="cls-3" cx="186.65" cy="116.02" r="11.04"/><line class="cls-3" x1="179.85" y1="107.32" x2="186.65" y2="116.02"/><line class="cls-3" x1="171.94" y1="133.76" x2="171.94" y2="140.45"/><line class="cls-3" x1="189.94" y1="133.76" x2="189.94" y2="140.45"/><line class="cls-3" x1="176.84" y1="133.76" x2="176.84" y2="137.11"/><line class="cls-3" x1="194.84" y1="133.76" x2="194.84" y2="137.11"/><line class="cls-3" x1="181.53" y1="133.76" x2="181.53" y2="137.11"/><line class="cls-3" x1="199.53" y1="133.76" x2="199.53" y2="137.11"/><line class="cls-3" x1="185.84" y1="133.76" x2="185.84" y2="137.11"/><path class="cls-2" d="M183.25,96.45a4.62,4.62,0,0,1-2.15-3.54,29.18,29.18,0,0,1,.45-5.91l2.13,2.86L186,85.11l1.65,5.08,1.66-1.85s2,5.5.56,7.18C188,97.66,185.16,97.05,183.25,96.45Z"/></svg>