<svg id="圖層_1" data-name="圖層 1" xmlns="http://www.w3.org/2000/svg" viewBox="0 0 210.63 202"><defs><style>.cls-1{fill:#f6d568;}.cls-1,.cls-2,.cls-3,.cls-4{stroke:#515050;stroke-miterlimit:10;stroke-width:2px;}.cls-2{fill:#fff;}.cls-3{fill:#fefcfd;}.cls-4{fill:none;}</style></defs><title>icon</title><path class="cls-1" d="M161.91,104.43,139.69,22.27H76.05L53.83,104.43a1.35,1.35,0,0,0-.16.6c0,4.5,24.26,8.15,54.2,8.15s54.2-3.65,54.2-8.15A1.49,1.49,0,0,0,161.91,104.43Z"/><rect class="cls-2" x="104.49" y="113.18" width="6.72" height="65.94"/><path class="cls-3" d="M122.05,178.6l-5.84-4.88H99.48l-5.84,4.88,0,0c0,.27,6.38.48,14.26.48s14.25-.21,14.25-.48Z"/><ellipse class="cls-3" cx="107.87" cy="22.27" rx="31.82" ry="4.79"/><line class="cls-4" x1="131.59" y1="113.18" x2="131.05" y2="144.07"/><circle class="cls-1" cx="131.55" cy="146.74" r="3.98"/><rect class="cls-2" x="77.53" y="178.82" width="60.62" height="11.85" rx="3.21"/><ellipse class="cls-4" cx="107.87" cy="30.46" rx="33.56" ry="5.05"/><ellipse class="cls-3" cx="107.87" cy="22.27" rx="31.82" ry="4.79"/><line class="cls-4" x1="131.55" y1="35.51" x2="143.17" y2="111.21"/><line class="cls-4" x1="77.53" y1="185.54" x2="110.91" y2="185.54"/></svg>