<svg id="240fd1c7-8836-473c-ad7e-9ece8827481a" data-name="圖層 1" xmlns="http://www.w3.org/2000/svg" viewBox="0 0 210.63 202"><defs><style>.c5b2c46d-b261-4caa-818b-7529a2c2a533{fill:none;}.\31 5ebb7b9-1d85-4684-b2f4-697558d85986,.c5b2c46d-b261-4caa-818b-7529a2c2a533,.e3553f16-bfe7-4c90-b94f-c971fe5b3b02{stroke:#515050;stroke-miterlimit:10;stroke-width:2px;}.\31 5ebb7b9-1d85-4684-b2f4-697558d85986{fill:#f6d568;}.e3553f16-bfe7-4c90-b94f-c971fe5b3b02{fill:#fff;}</style></defs><title>icon</title><rect class="c5b2c46d-b261-4caa-818b-7529a2c2a533" x="22.83" y="23.64" width="90.35" height="142.82" rx="2.9" ry="2.9"/><rect class="c5b2c46d-b261-4caa-818b-7529a2c2a533" x="120.42" y="64.87" width="61.34" height="101.6" rx="3.72" ry="3.72"/><circle class="15ebb7b9-1d85-4684-b2f4-697558d85986" cx="68.88" cy="56.27" r="21.67"/><circle class="c5b2c46d-b261-4caa-818b-7529a2c2a533" cx="68.88" cy="122.2" r="31.53"/><circle class="15ebb7b9-1d85-4684-b2f4-697558d85986" cx="68.88" cy="122.2" r="11.07"/><circle class="15ebb7b9-1d85-4684-b2f4-697558d85986" cx="150.98" cy="89.38" r="14.83"/><circle class="c5b2c46d-b261-4caa-818b-7529a2c2a533" cx="150.98" cy="136.15" r="20.64"/><circle class="c5b2c46d-b261-4caa-818b-7529a2c2a533" cx="150.98" cy="136.15" r="7.25"/><rect class="15ebb7b9-1d85-4684-b2f4-697558d85986" x="22.83" y="167.04" width="90.35" height="11.32"/><rect class="15ebb7b9-1d85-4684-b2f4-697558d85986" x="120.42" y="167.04" width="61.13" height="11.32"/><circle class="15ebb7b9-1d85-4684-b2f4-697558d85986" cx="98.28" cy="159.92" r="2.14"/><circle class="c5b2c46d-b261-4caa-818b-7529a2c2a533" cx="105.4" cy="159.92" r="2.14"/><circle class="15ebb7b9-1d85-4684-b2f4-697558d85986" cx="164.82" cy="159.92" r="2.14"/><circle class="c5b2c46d-b261-4caa-818b-7529a2c2a533" cx="171.95" cy="159.92" r="2.14"/><circle class="e3553f16-bfe7-4c90-b94f-c971fe5b3b02" cx="68.88" cy="56.27" r="6.03"/><circle class="e3553f16-bfe7-4c90-b94f-c971fe5b3b02" cx="68.88" cy="122.2" r="5.94"/><circle class="e3553f16-bfe7-4c90-b94f-c971fe5b3b02" cx="150.98" cy="89.38" r="4.55"/><circle class="c5b2c46d-b261-4caa-818b-7529a2c2a533" cx="150.98" cy="136.15" r="3.47"/><path class="c5b2c46d-b261-4caa-818b-7529a2c2a533" d="M68.88,85.19a37,37,0,1,1-37,37"/><line class="c5b2c46d-b261-4caa-818b-7529a2c2a533" x1="39.54" y1="174.82" x2="113.18" y2="174.82"/><line class="c5b2c46d-b261-4caa-818b-7529a2c2a533" x1="127.6" y1="174.82" x2="181.76" y2="174.82"/></svg>