<svg id="253bbbe9-2fc8-496b-a2ff-c10666bb6aac" data-name="圖層 1" xmlns="http://www.w3.org/2000/svg" viewBox="0 0 210.63 202"><defs><style>.b48c30e6-4c7e-4a03-be6b-5f882f5125bb{fill:none;}.\31 a5a1cf4-004a-494d-a6c2-06959d4c53eb,.\31 f9bc2c4-c183-4ae6-b8c0-ed5f319589cb,.\38 0f460bb-ca40-4856-ae34-4a16d2f62d6a,.b48c30e6-4c7e-4a03-be6b-5f882f5125bb{stroke:#515050;stroke-miterlimit:10;stroke-width:2px;}.\31 f9bc2c4-c183-4ae6-b8c0-ed5f319589cb{fill:#fff;}.\31 a5a1cf4-004a-494d-a6c2-06959d4c53eb{fill:#f6d568;}.\38 0f460bb-ca40-4856-ae34-4a16d2f62d6a{fill:#515050;}</style></defs><title>icon</title><rect class="b48c30e6-4c7e-4a03-be6b-5f882f5125bb" x="56.74" y="15.89" width="99.79" height="170.02" rx="3.38" ry="3.38"/><rect class="b48c30e6-4c7e-4a03-be6b-5f882f5125bb" x="56.74" y="127.46" width="99.79" height="58.44"/><rect class="b48c30e6-4c7e-4a03-be6b-5f882f5125bb" x="56.74" y="15.89" width="48.96" height="106.33"/><rect class="b48c30e6-4c7e-4a03-be6b-5f882f5125bb" x="108.2" y="15.89" width="48.33" height="106.33"/><rect class="b48c30e6-4c7e-4a03-be6b-5f882f5125bb" x="66.74" y="75.76" width="17.75" height="38.7"/><rect class="b48c30e6-4c7e-4a03-be6b-5f882f5125bb" x="95.99" y="26.61" width="4.51" height="85.7"/><rect class="1f9bc2c4-c183-4ae6-b8c0-ed5f319589cb" x="95.08" y="98.47" width="6.34" height="14.98"/><rect class="1f9bc2c4-c183-4ae6-b8c0-ed5f319589cb" x="95.08" y="24.64" width="6.34" height="14.98"/><rect class="b48c30e6-4c7e-4a03-be6b-5f882f5125bb" x="113.56" y="26.61" width="4.51" height="85.7"/><rect class="1f9bc2c4-c183-4ae6-b8c0-ed5f319589cb" x="112.65" y="98.47" width="6.34" height="14.98"/><rect class="1f9bc2c4-c183-4ae6-b8c0-ed5f319589cb" x="112.65" y="24.64" width="6.34" height="14.98"/><rect class="1a5a1cf4-004a-494d-a6c2-06959d4c53eb" x="66.74" y="107.28" width="17.75" height="7.18"/><rect class="b48c30e6-4c7e-4a03-be6b-5f882f5125bb" x="65.55" y="134.69" width="90.98" height="7.15"/><rect class="b48c30e6-4c7e-4a03-be6b-5f882f5125bb" x="56.74" y="134.69" width="8.81" height="7.15"/><rect class="80f460bb-ca40-4856-ae34-4a16d2f62d6a" x="56.74" y="131.85" width="99.79" height="2.84"/><line class="b48c30e6-4c7e-4a03-be6b-5f882f5125bb" x1="56.74" y1="144.52" x2="156.53" y2="144.52"/><line class="b48c30e6-4c7e-4a03-be6b-5f882f5125bb" x1="56.74" y1="19.49" x2="106.32" y2="19.49"/><line class="b48c30e6-4c7e-4a03-be6b-5f882f5125bb" x1="107.33" y1="19.49" x2="156.92" y2="19.49"/><circle class="1a5a1cf4-004a-494d-a6c2-06959d4c53eb" cx="71.21" cy="101.15" r="1.58"/><circle class="b48c30e6-4c7e-4a03-be6b-5f882f5125bb" cx="76.47" cy="101.15" r="1.58"/><rect class="1a5a1cf4-004a-494d-a6c2-06959d4c53eb" x="56.74" y="174.96" width="99.79" height="11.15"/><line class="b48c30e6-4c7e-4a03-be6b-5f882f5125bb" x1="96.95" y1="101.15" x2="102.29" y2="101.15"/><line class="b48c30e6-4c7e-4a03-be6b-5f882f5125bb" x1="111.77" y1="101.15" x2="117.12" y2="101.15"/><polygon class="b48c30e6-4c7e-4a03-be6b-5f882f5125bb" points="66.74 75.42 69.08 78.23 82.61 78.23 84.72 75.69 66.74 75.42"/><line class="b48c30e6-4c7e-4a03-be6b-5f882f5125bb" x1="72.78" y1="171.65" x2="156.92" y2="171.65"/></svg>