<svg id="989f0544-556b-40b7-aff1-348217410090" data-name="圖層 1" xmlns="http://www.w3.org/2000/svg" viewBox="0 0 210.63 202"><defs><style>.\32 9814bab-26a0-4259-9812-062fe2e270d5{fill:none;}.\32 9814bab-26a0-4259-9812-062fe2e270d5,.edc44b85-b9ff-4212-b7f3-56cdff8769e3,.f1b66d67-6624-4479-b45c-6c24506a2671{stroke:#515050;stroke-miterlimit:10;stroke-width:2px;}.edc44b85-b9ff-4212-b7f3-56cdff8769e3{fill:#f6d568;}.f1b66d67-6624-4479-b45c-6c24506a2671{fill:#fff;}</style></defs><title>icon</title><rect class="29814bab-26a0-4259-9812-062fe2e270d5" x="42.75" y="14.17" width="123.52" height="171.82"/><rect class="edc44b85-b9ff-4212-b7f3-56cdff8769e3" x="42.75" y="185.99" width="123.52" height="6.43"/><circle class="edc44b85-b9ff-4212-b7f3-56cdff8769e3" cx="104.85" cy="104.08" r="56.48"/><circle class="f1b66d67-6624-4479-b45c-6c24506a2671" cx="104.85" cy="104.08" r="43.16"/><polyline class="29814bab-26a0-4259-9812-062fe2e270d5" points="42.75 45.19 61.7 45.19 72.51 39.59 139.92 39.59 149.37 44.48 166.27 44.48"/><circle class="29814bab-26a0-4259-9812-062fe2e270d5" cx="151.66" cy="28.44" r="8.82" transform="translate(117.46 178.91) rotate(-87.82)"/><circle class="edc44b85-b9ff-4212-b7f3-56cdff8769e3" cx="151.66" cy="28.44" r="5.08" transform="translate(117.46 178.91) rotate(-87.82)"/><circle class="edc44b85-b9ff-4212-b7f3-56cdff8769e3" cx="54.71" cy="31.61" r="2.61"/><circle class="29814bab-26a0-4259-9812-062fe2e270d5" cx="63.51" cy="31.61" r="2.61"/><circle class="29814bab-26a0-4259-9812-062fe2e270d5" cx="72.32" cy="31.61" r="2.61"/><circle class="29814bab-26a0-4259-9812-062fe2e270d5" cx="81.12" cy="31.61" r="2.61"/><polyline class="29814bab-26a0-4259-9812-062fe2e270d5" points="42.75 157.45 48.37 157.45 52.79 161.87 52.79 180.13 155.38 180.13 155.38 162.56 159.54 158.4 165.27 158.4"/><circle class="f1b66d67-6624-4479-b45c-6c24506a2671" cx="104.85" cy="104.08" r="35.65"/></svg>