<svg id="bd79592a-71e8-41c4-b299-0657d0d392fc" data-name="圖層 1" xmlns="http://www.w3.org/2000/svg" viewBox="0 0 210.63 202"><defs><style>.b7fd339e-fedb-4417-934e-5cfb41eafeca{fill:none;}.\36 0b67846-1490-4a6f-9e4f-adba42b1dacf,.b7fd339e-fedb-4417-934e-5cfb41eafeca,.fadea1ba-47e6-4035-bcfd-e7dd21219f7a{stroke:#515050;stroke-miterlimit:10;stroke-width:2px;}.\36 0b67846-1490-4a6f-9e4f-adba42b1dacf{fill:#f6d568;}.fadea1ba-47e6-4035-bcfd-e7dd21219f7a{fill:#fff;}</style></defs><title>icon</title><rect class="b7fd339e-fedb-4417-934e-5cfb41eafeca" x="42.75" y="14.17" width="123.52" height="171.82"/><rect class="60b67846-1490-4a6f-9e4f-adba42b1dacf" x="42.75" y="185.99" width="123.52" height="6.43"/><circle class="60b67846-1490-4a6f-9e4f-adba42b1dacf" cx="104.85" cy="104.08" r="56.48"/><circle class="fadea1ba-47e6-4035-bcfd-e7dd21219f7a" cx="104.85" cy="104.08" r="43.16"/><polyline class="b7fd339e-fedb-4417-934e-5cfb41eafeca" points="42.75 45.19 61.7 45.19 72.51 39.59 139.92 39.59 149.37 44.48 166.27 44.48"/><circle class="b7fd339e-fedb-4417-934e-5cfb41eafeca" cx="151.66" cy="28.44" r="8.82" transform="translate(117.46 178.91) rotate(-87.82)"/><circle class="60b67846-1490-4a6f-9e4f-adba42b1dacf" cx="151.66" cy="28.44" r="5.08" transform="translate(117.46 178.91) rotate(-87.82)"/><circle class="60b67846-1490-4a6f-9e4f-adba42b1dacf" cx="54.71" cy="31.61" r="2.61"/><circle class="b7fd339e-fedb-4417-934e-5cfb41eafeca" cx="63.51" cy="31.61" r="2.61"/><circle class="b7fd339e-fedb-4417-934e-5cfb41eafeca" cx="72.32" cy="31.61" r="2.61"/><circle class="b7fd339e-fedb-4417-934e-5cfb41eafeca" cx="81.12" cy="31.61" r="2.61"/><polyline class="b7fd339e-fedb-4417-934e-5cfb41eafeca" points="42.75 157.45 48.37 157.45 52.79 161.87 52.79 180.13 155.38 180.13 155.38 162.56 159.54 158.4 165.27 158.4"/><circle class="fadea1ba-47e6-4035-bcfd-e7dd21219f7a" cx="104.85" cy="104.08" r="35.65"/></svg>