<svg id="fa18708b-40c3-45eb-acec-4885fa03bf3f" data-name="圖層 1" xmlns="http://www.w3.org/2000/svg" viewBox="0 0 210.63 202"><defs><style>.ba8881e3-6836-4267-a97a-fe89e8ae8f2b{fill:#fff;}.\38 c689520-0ff3-4686-b33f-1d6e08f5b13f,.ba8881e3-6836-4267-a97a-fe89e8ae8f2b,.ffa7db5d-acf9-4ac7-9d22-ca4a1ede1a17{stroke:#515050;stroke-miterlimit:10;stroke-width:2px;}.ffa7db5d-acf9-4ac7-9d22-ca4a1ede1a17{fill:#f6d568;}.\38 c689520-0ff3-4686-b33f-1d6e08f5b13f{fill:none;}</style></defs><title>icon</title><path class="ba8881e3-6836-4267-a97a-fe89e8ae8f2b" d="M46.33,163.77l2.77,9.06S78,181,110.45,181,173,172.84,173,172.84l2.29-8.21Z"/><path class="ba8881e3-6836-4267-a97a-fe89e8ae8f2b" d="M90.45,24.83s4.92-1.36,20-1.36,19.51.68,19.51.68l-2.61,9.41L129,35.64S122.87,37,110.19,37s-17.75-1.28-17.75-1.28L94,34.36Z"/><path class="ba8881e3-6836-4267-a97a-fe89e8ae8f2b" d="M32,64.77S34.84,52.12,36,50.59s40.16-17.44,75.82-17.44,70.56,11.12,71.69,12.46,6.19,16.29,6.19,16.29Z"/><path class="ffa7db5d-acf9-4ac7-9d22-ca4a1ede1a17" d="M179.53,163.83c10.7-11.18,15.76-95.75,15.76-95.75s-35.47-.87-84.45-.87-84.26,2.61-84.26,2.61c-2.82,24.64,15.58,92.61,15.58,92.61s4.31,7.15,65.68,7.15S179.53,163.83,179.53,163.83Z"/><path class="ba8881e3-6836-4267-a97a-fe89e8ae8f2b" d="M93.57,102.37h33.35s8.91,16.74,7.54,71.9H86.26S82.6,138.32,93.57,102.37Z"/><path class="ba8881e3-6836-4267-a97a-fe89e8ae8f2b" d="M98,109.77h23.91s9.06,13.69,8,58.83H90.78S89.1,139.18,98,109.77Z"/><rect class="ba8881e3-6836-4267-a97a-fe89e8ae8f2b" x="108.01" y="125.14" width="4.68" height="37.77"/><rect class="ffa7db5d-acf9-4ac7-9d22-ca4a1ede1a17" x="103.81" y="127.2" width="13.1" height="11.13"/><path class="ba8881e3-6836-4267-a97a-fe89e8ae8f2b" d="M24.37,63.62v7.69s64.13-3.22,86.48-3.22c22,0,86.37,1.34,86.37,1.34V59.95s-65.87.33-86.42,0S24.37,63.62,24.37,63.62Z"/><path class="8c689520-0ff3-4686-b33f-1d6e08f5b13f" d="M175.25,165.16s10.46-28.38,12.44-58.67,1.48-28.31,1.48-28.31"/></svg>