<svg id="圖層_1" data-name="圖層 1" xmlns="http://www.w3.org/2000/svg" viewBox="0 0 210.63 202"><defs><style>.cls-1{fill:#fff;}.cls-1,.cls-2,.cls-3{stroke:#515050;stroke-miterlimit:10;stroke-width:2px;}.cls-2{fill:#f6d568;}.cls-3{fill:none;}</style></defs><title>icon</title><rect class="cls-1" x="15.82" y="125.73" width="69.12" height="53.54"/><rect class="cls-1" x="15.82" y="125.73" width="69.12" height="53.54"/><rect class="cls-1" x="15.82" y="112.84" width="69.12" height="12.89"/><rect class="cls-2" x="15.82" y="112.84" width="69.12" height="12.89"/><rect class="cls-1" x="15.82" y="107.96" width="69.12" height="5.09"/><rect class="cls-1" x="15.82" y="82.55" width="69.12" height="25.4"/><rect class="cls-1" x="15.82" y="29.8" width="69.12" height="52.96"/><rect class="cls-1" x="21.88" y="45.35" width="57.01" height="4.65"/><rect class="cls-1" x="21.88" y="56.28" width="57.01" height="4.65"/><line class="cls-3" x1="21.88" y1="39.69" x2="62.68" y2="39.69"/><circle class="cls-2" cx="24.32" cy="90.08" r="2.44"/><circle class="cls-3" cx="32.46" cy="90.08" r="2.44"/><circle class="cls-3" cx="40.67" cy="90.08" r="2.44"/><circle class="cls-1" cx="66.94" cy="128.98" r="10.76"/><circle class="cls-2" cx="66.94" cy="128.98" r="6.2"/><line class="cls-3" x1="15.82" y1="172.95" x2="69.47" y2="172.95"/><rect class="cls-3" x="133.13" y="164.83" width="8.07" height="6.52"/><polygon class="cls-1" points="100.86 179.04 100.11 173.02 173.49 173.02 172.75 179.04 100.86 179.04"/><path class="cls-1" d="M130.66,158.48h13V160l-2,2.22.21,9.63a17.49,17.49,0,0,1-9.55,0v-9.63l-1.73-1.48Z"/><rect class="cls-1" x="75.78" y="78.26" width="121.31" height="82.29"/><rect class="cls-2" x="83.33" y="86.09" width="106.21" height="67.02"/></svg>