<svg id="999d699e-0cb4-4d0f-85bd-88e8bf299924" data-name="圖層 1" xmlns="http://www.w3.org/2000/svg" viewBox="0 0 210.63 202"><defs><style>.\37 45607d0-41b4-4e73-a75e-2926642b4e7f{fill:none;}.\37 45607d0-41b4-4e73-a75e-2926642b4e7f,.aee8ce0e-a39f-4d49-86ee-1ffc27491655{stroke:#515050;stroke-miterlimit:10;stroke-width:2px;}.aee8ce0e-a39f-4d49-86ee-1ffc27491655{fill:#f6d568;}</style></defs><title>icon</title><rect class="745607d0-41b4-4e73-a75e-2926642b4e7f" x="42.75" y="14.76" width="123.52" height="171.82"/><rect class="aee8ce0e-a39f-4d49-86ee-1ffc27491655" x="42.75" y="186.57" width="123.52" height="6.43"/><circle class="745607d0-41b4-4e73-a75e-2926642b4e7f" cx="104.85" cy="104.67" r="56.48"/><circle class="745607d0-41b4-4e73-a75e-2926642b4e7f" cx="104.85" cy="104.67" r="50.53"/><circle class="aee8ce0e-a39f-4d49-86ee-1ffc27491655" cx="104.85" cy="104.67" r="43.16"/><rect class="745607d0-41b4-4e73-a75e-2926642b4e7f" x="51.52" y="164.27" width="28.26" height="21.78"/><polyline class="745607d0-41b4-4e73-a75e-2926642b4e7f" points="42.75 45.78 61.7 45.78 72.51 40.18 139.92 40.18 149.37 45.07 166.27 45.07"/><circle class="745607d0-41b4-4e73-a75e-2926642b4e7f" cx="104.85" cy="27.03" r="8.82" transform="translate(73.85 130.78) rotate(-87.82)"/><circle class="745607d0-41b4-4e73-a75e-2926642b4e7f" cx="104.85" cy="27.03" r="5.08" transform="translate(73.85 130.78) rotate(-87.82)"/><polygon class="aee8ce0e-a39f-4d49-86ee-1ffc27491655" points="49.41 28.6 81.77 28.6 79.79 35.02 51.52 35.02 49.41 28.6"/><circle class="aee8ce0e-a39f-4d49-86ee-1ffc27491655" cx="125.6" cy="32.2" r="2.61"/><circle class="745607d0-41b4-4e73-a75e-2926642b4e7f" cx="134.4" cy="32.2" r="2.61"/><circle class="745607d0-41b4-4e73-a75e-2926642b4e7f" cx="143.21" cy="32.2" r="2.61"/><circle class="745607d0-41b4-4e73-a75e-2926642b4e7f" cx="152.01" cy="32.2" r="2.61"/><circle class="745607d0-41b4-4e73-a75e-2926642b4e7f" cx="104.85" cy="96.67" r="34.11"/><line class="745607d0-41b4-4e73-a75e-2926642b4e7f" x1="87.15" y1="181.41" x2="166.27" y2="181.41"/><line class="745607d0-41b4-4e73-a75e-2926642b4e7f" x1="62.3" y1="167.81" x2="69.01" y2="167.81"/></svg>