<svg id="b4120bad-c6f6-4cdb-b725-b75a18a69434" data-name="圖層 1" xmlns="http://www.w3.org/2000/svg" viewBox="0 0 210.63 202"><defs><style>.\32 29ddc8d-695f-492b-ac63-75ec701481c2,.\38 63ff4d6-8e09-4ef2-ae18-b977e6b88ef3{fill:#fff;}.\32 29ddc8d-695f-492b-ac63-75ec701481c2,.\34 06e9cb3-1827-46f3-9411-916401461c75,.\34 aa2d67f-ae96-4101-adf9-c29858296d66,.\38 63ff4d6-8e09-4ef2-ae18-b977e6b88ef3,.c4fee7c1-dfde-4d75-ad90-88050f9f0485{stroke:#515050;stroke-width:2px;}.\34 aa2d67f-ae96-4101-adf9-c29858296d66,.\38 63ff4d6-8e09-4ef2-ae18-b977e6b88ef3,.c4fee7c1-dfde-4d75-ad90-88050f9f0485{stroke-linejoin:round;}.\34 06e9cb3-1827-46f3-9411-916401461c75,.c4fee7c1-dfde-4d75-ad90-88050f9f0485{fill:#f6d568;}.\34 aa2d67f-ae96-4101-adf9-c29858296d66{fill:none;}.\32 29ddc8d-695f-492b-ac63-75ec701481c2,.\34 06e9cb3-1827-46f3-9411-916401461c75{stroke-miterlimit:10;}</style></defs><title>icon</title><path class="863ff4d6-8e09-4ef2-ae18-b977e6b88ef3" d="M125,101.56l-10.52,67.06-4.79,6.81s17.12,6.81,27.06-1.1L150,115.46s.55-6.26,4.6-8.65,15.69-6.48,15.69-6.48l-37.92,1.19Z"/><path class="863ff4d6-8e09-4ef2-ae18-b977e6b88ef3" d="M39.66,49.4S38.5,60.74,38.53,69.75a110.53,110.53,0,0,0,2.25,19.31l78.8,5.36-.2-49.7Z"/><polygon class="863ff4d6-8e09-4ef2-ae18-b977e6b88ef3" points="118.37 37.33 103.89 42.26 103.89 98.21 118.37 103.65 118.37 37.33"/><polygon class="863ff4d6-8e09-4ef2-ae18-b977e6b88ef3" points="113.82 39 99.33 43.68 99.33 96.82 113.82 101.98 113.82 39"/><path class="863ff4d6-8e09-4ef2-ae18-b977e6b88ef3" d="M179.64,35.35l-61.27,2v66.32l6.71,0,8.58-2.13,29.26,1.55,16.73.71s2.85-23.12,3.32-33.57A125.23,125.23,0,0,0,179.64,35.35Z"/><path class="863ff4d6-8e09-4ef2-ae18-b977e6b88ef3" d="M198.39,40.57l-18.3-3.24s6.51,22.79-.17,64.21c0,0,12.78.86,18.48-2.82C198.39,98.72,203.85,62.16,198.39,40.57Z"/><path class="c4fee7c1-dfde-4d75-ad90-88050f9f0485" d="M185.5,40.57,180,37.33S182,60.12,180,101.54a5,5,0,0,0,5.52-2.82S187.13,62.16,185.5,40.57Z"/><line class="4aa2d67f-ae96-4101-adf9-c29858296d66" x1="68.24" y1="87.31" x2="42.01" y2="85.48"/><polyline class="4aa2d67f-ae96-4101-adf9-c29858296d66" points="113.03 176.51 115.93 173.77 119.44 171.61 133.66 101.53"/><polygon class="c4fee7c1-dfde-4d75-ad90-88050f9f0485" points="135.21 124.92 130.66 151.38 136.72 152.5 141.43 126.04 135.21 124.92"/><polygon class="863ff4d6-8e09-4ef2-ae18-b977e6b88ef3" points="135.14 137.91 134.25 143.86 139.92 144.91 140.96 138.96 135.14 137.91"/><polygon class="863ff4d6-8e09-4ef2-ae18-b977e6b88ef3" points="135.45 136.37 134.57 142.31 140.23 143.36 141.27 137.41 135.45 136.37"/><circle class="406e9cb3-1827-46f3-9411-916401461c75" cx="53.07" cy="69.57" r="2.06"/><circle class="229ddc8d-695f-492b-ac63-75ec701481c2" cx="59.93" cy="69.57" r="2.06"/><circle class="229ddc8d-695f-492b-ac63-75ec701481c2" cx="66.84" cy="69.57" r="2.06"/><polygon class="c4fee7c1-dfde-4d75-ad90-88050f9f0485" points="38.37 49.52 32.73 49.52 27.67 49.96 15.47 40.85 16.15 100.33 26.61 87.51 33.46 88.88 39.87 88.88 38.37 49.52"/><polygon class="c4fee7c1-dfde-4d75-ad90-88050f9f0485" points="37.58 49.28 38.45 88.92 42.16 89.24 41.99 48.84 37.58 49.28"/></svg>