<svg id="圖層_1" data-name="圖層 1" xmlns="http://www.w3.org/2000/svg" viewBox="0 0 210.63 202"><defs><style>.cls-1{fill:#f6d568;}.cls-1,.cls-2,.cls-3{stroke:#515050;stroke-miterlimit:10;stroke-width:2px;}.cls-2{fill:#fff;}.cls-3{fill:none;}</style></defs><title>icon</title><rect class="cls-1" x="12.19" y="112.45" width="186.71" height="24.12"/><rect class="cls-2" x="9.82" y="89.17" width="191.46" height="23.18"/><path class="cls-2" d="M17.11,81.28H194a4.92,4.92,0,0,1,4.92,4.92v3a0,0,0,0,1,0,0H12.19a0,0,0,0,1,0,0v-3A4.92,4.92,0,0,1,17.11,81.28Z"/><rect class="cls-2" x="98.66" y="117.94" width="58.64" height="13.13"/><rect class="cls-3" x="19.26" y="97.98" width="100.04" height="7.21"/><line class="cls-3" x1="21.67" y1="130.08" x2="89.26" y2="130.08"/><line class="cls-3" x1="105.54" y1="124.51" x2="113.36" y2="124.51"/><line class="cls-3" x1="138.23" y1="124.51" x2="146.04" y2="124.51"/><line class="cls-3" x1="118.04" y1="124.51" x2="132" y2="124.51"/><circle class="cls-1" cx="129.39" cy="101.58" r="2.61"/><circle class="cls-3" cx="142.13" cy="101.58" r="2.61"/><circle class="cls-3" cx="154.87" cy="101.58" r="2.61"/><circle class="cls-2" cx="174.04" cy="108.71" r="12.56"/><circle class="cls-2" cx="174.04" cy="108.71" r="7.24"/></svg>