<svg id="圖層_1" data-name="圖層 1" xmlns="http://www.w3.org/2000/svg" viewBox="0 0 210.63 202"><defs><style>.cls-1,.cls-3{fill:#fff;}.cls-1,.cls-2,.cls-3,.cls-4,.cls-5,.cls-6{stroke:#515050;stroke-width:2px;}.cls-1,.cls-2,.cls-6{stroke-linejoin:round;}.cls-2,.cls-4{fill:#f6d568;}.cls-3,.cls-4,.cls-5{stroke-miterlimit:10;}.cls-5,.cls-6{fill:none;}</style></defs><title>icon</title><path class="cls-1" d="M161.11,179.22s-20.23-2.34-53.1-2.34-53.1,2.34-53.1,2.34V168.48s21.19-3.36,53.09-3.36,53.11,3.36,53.11,3.36Z"/><path class="cls-2" d="M54.91,163.69s20.23,3.51,53.1,3.51,53.1-3.51,53.1-3.51v16.12s-21.19,5-53.09,5-53.11-5-53.11-5Z"/><path class="cls-1" d="M135.55,42.34c5,.51,8.62.93,8.62.93s-3.58-.42-8.62-.93H80.43c-5,.51-8.6.93-8.6.93s3.57-.42,8.6-.93H54.91V170c0,6,21.16-.63,53.07-.63s53.13,6.92,53.13.63V42.34Z"/><rect class="cls-3" x="125.18" y="94.12" width="18.98" height="67.26"/><rect class="cls-3" x="129.9" y="101.38" width="9.56" height="53.69"/><rect class="cls-4" x="130.09" y="119.8" width="9.36" height="35.11"/><line class="cls-5" x1="134.77" y1="127.75" x2="139.45" y2="127.75"/><line class="cls-5" x1="136.2" y1="141.52" x2="139.45" y2="141.52"/><line class="cls-5" x1="136.2" y1="114.05" x2="139.45" y2="114.05"/><path class="cls-1" d="M155.28,36c0-9.6-21.17-14-47.27-14S60.75,26.4,60.75,36c0,.49-6,5.2-5.84,5.68v8.13c0,10.79,23.77,26.53,53.1,26.53s53.1-15.74,53.1-26.53V41.68C161.22,41.2,155.28,36.49,155.28,36ZM108,40.33c-10.93,0-36.15,2.94-36.15,2.94S97.05,40.33,108,40.33s36.19,2.94,36.19,2.94S118.9,40.33,108,40.33Z"/><path class="cls-1" d="M108,76.33c-15.11,0-28.6-4-37.5-9a3.87,3.87,0,0,0-.16,1.6C73.07,78.74,87.21,87.66,108,87.66S144.17,77.52,145.67,69a4.92,4.92,0,0,0-.16-1.6C136.61,72.37,123.12,76.33,108,76.33Z"/><path class="cls-1" d="M113.13,96.39H102.9V84.63s-.79-2,5.1-2,5.13,2,5.13,2Z"/><path class="cls-6" d="M68.46,36.72A118.43,118.43,0,0,1,108,29.41a118.43,118.43,0,0,1,39.55,7.31"/><path class="cls-1" d="M155.1,34.51a4.11,4.11,0,0,0,.18-1.14c0-7.63-21.17-13.81-47.27-13.81S60.75,25.74,60.75,33.37a4.09,4.09,0,0,0,.17,1.14c-3.83,2.14-6,4.58-6,7.17,0,8.56,23.77,21,53.1,21s53.1-12.49,53.1-21C161.11,39.09,158.93,36.65,155.1,34.51ZM108,40.33c-10.93,0-36.15,2.94-36.15,2.94S97.05,40.33,108,40.33s36.19,2.94,36.19,2.94S118.9,40.33,108,40.33Z"/><path class="cls-1" d="M72.21,43.23C79.3,49.84,92.67,55.87,108,55.87s28.71-6,35.8-12.64c-3.08-.35-25.67-2.9-35.83-2.9S75.35,42.87,72.21,43.23Z"/><path class="cls-2" d="M149.19,33.84c0-8.78-18.43-15.9-41.18-15.9s-41.18,7.12-41.18,15.9c0,2.86,2,6.19,5.38,9.39,3.14-.36,25.62-2.9,35.77-2.9s32.75,2.55,35.83,2.9C147.23,40,149.19,36.7,149.19,33.84Z"/><rect class="cls-2" x="104.38" y="44.34" width="7.26" height="7.81"/><line class="cls-6" x1="63.7" y1="62.73" x2="63.7" y2="171.87"/><line class="cls-6" x1="151.68" y1="62.73" x2="151.68" y2="171.87"/><circle class="cls-4" cx="99.27" cy="69.22" r="2.61"/><circle class="cls-5" cx="107.98" cy="69.22" r="2.61"/><circle class="cls-5" cx="116.75" cy="69.22" r="2.61"/><polygon class="cls-3" points="119.36 34.91 96.66 34.91 98.17 22.91 118.06 22.91 119.36 34.91"/></svg>