<svg id="0ad56f19-ee6b-4bbf-ace2-f3d23ab58136" data-name="圖層 1" xmlns="http://www.w3.org/2000/svg" viewBox="0 0 210.63 202"><defs><style>.a873a3b3-a388-4b58-b5e3-d91ab76594d4{fill:none;}.\37 d21b8c7-b2c1-4219-9eff-01e117a23266,.a873a3b3-a388-4b58-b5e3-d91ab76594d4,.d1b71e1d-e3ae-4f14-b323-5badf1f1896c{stroke:#515050;stroke-miterlimit:10;stroke-width:2px;}.\37 d21b8c7-b2c1-4219-9eff-01e117a23266{fill:#f6d568;}.d1b71e1d-e3ae-4f14-b323-5badf1f1896c{fill:#fff;}</style></defs><title>icon</title><rect class="a873a3b3-a388-4b58-b5e3-d91ab76594d4" x="22.83" y="23.64" width="90.35" height="142.82" rx="2.9" ry="2.9"/><rect class="a873a3b3-a388-4b58-b5e3-d91ab76594d4" x="120.42" y="64.87" width="61.34" height="101.6" rx="3.72" ry="3.72"/><circle class="7d21b8c7-b2c1-4219-9eff-01e117a23266" cx="68.88" cy="56.27" r="21.67"/><circle class="a873a3b3-a388-4b58-b5e3-d91ab76594d4" cx="68.88" cy="122.2" r="31.53"/><circle class="7d21b8c7-b2c1-4219-9eff-01e117a23266" cx="68.88" cy="122.2" r="11.07"/><circle class="7d21b8c7-b2c1-4219-9eff-01e117a23266" cx="150.98" cy="89.38" r="14.83"/><circle class="a873a3b3-a388-4b58-b5e3-d91ab76594d4" cx="150.98" cy="136.15" r="20.64"/><circle class="a873a3b3-a388-4b58-b5e3-d91ab76594d4" cx="150.98" cy="136.15" r="7.25"/><rect class="7d21b8c7-b2c1-4219-9eff-01e117a23266" x="22.83" y="167.04" width="90.35" height="11.32"/><rect class="7d21b8c7-b2c1-4219-9eff-01e117a23266" x="120.42" y="167.04" width="61.13" height="11.32"/><circle class="7d21b8c7-b2c1-4219-9eff-01e117a23266" cx="98.28" cy="159.92" r="2.14"/><circle class="a873a3b3-a388-4b58-b5e3-d91ab76594d4" cx="105.4" cy="159.92" r="2.14"/><circle class="7d21b8c7-b2c1-4219-9eff-01e117a23266" cx="164.82" cy="159.92" r="2.14"/><circle class="a873a3b3-a388-4b58-b5e3-d91ab76594d4" cx="171.95" cy="159.92" r="2.14"/><circle class="d1b71e1d-e3ae-4f14-b323-5badf1f1896c" cx="68.88" cy="56.27" r="6.03"/><circle class="d1b71e1d-e3ae-4f14-b323-5badf1f1896c" cx="68.88" cy="122.2" r="5.94"/><circle class="d1b71e1d-e3ae-4f14-b323-5badf1f1896c" cx="150.98" cy="89.38" r="4.55"/><circle class="a873a3b3-a388-4b58-b5e3-d91ab76594d4" cx="150.98" cy="136.15" r="3.47"/><path class="a873a3b3-a388-4b58-b5e3-d91ab76594d4" d="M68.88,85.19a37,37,0,1,1-37,37"/><line class="a873a3b3-a388-4b58-b5e3-d91ab76594d4" x1="39.54" y1="174.82" x2="113.18" y2="174.82"/><line class="a873a3b3-a388-4b58-b5e3-d91ab76594d4" x1="127.6" y1="174.82" x2="181.76" y2="174.82"/></svg>