<svg id="21596b2d-4f73-48f3-a2f2-e50fc2f3da94" data-name="圖層 1" xmlns="http://www.w3.org/2000/svg" viewBox="0 0 210.63 202"><defs><style>.\33 1837ddc-599d-4933-98de-a6600fe54d44,.\36 61c1721-1601-483d-bfb4-f907cf5b9ba7{fill:#fff;}.\32 562e62a-bc0f-46fa-b466-b3a99cb16966,.\33 1837ddc-599d-4933-98de-a6600fe54d44,.\34 550d98e-fb38-4b8e-abf4-3c0fe5b73806,.\36 61c1721-1601-483d-bfb4-f907cf5b9ba7,.a28e3f2a-7ff6-4988-a6d3-7748d4771ce0,.eefa11da-672d-4514-be2b-a323ed8bbc9b{stroke:#515050;stroke-width:2px;}.\32 562e62a-bc0f-46fa-b466-b3a99cb16966,.\36 61c1721-1601-483d-bfb4-f907cf5b9ba7,.a28e3f2a-7ff6-4988-a6d3-7748d4771ce0{stroke-linejoin:round;}.\32 562e62a-bc0f-46fa-b466-b3a99cb16966,.eefa11da-672d-4514-be2b-a323ed8bbc9b{fill:#f6d568;}.\33 1837ddc-599d-4933-98de-a6600fe54d44,.\34 550d98e-fb38-4b8e-abf4-3c0fe5b73806,.eefa11da-672d-4514-be2b-a323ed8bbc9b{stroke-miterlimit:10;}.\34 550d98e-fb38-4b8e-abf4-3c0fe5b73806,.a28e3f2a-7ff6-4988-a6d3-7748d4771ce0{fill:none;}</style></defs><title>icon</title><path class="661c1721-1601-483d-bfb4-f907cf5b9ba7" d="M161.11,179.22s-20.23-2.34-53.1-2.34-53.1,2.34-53.1,2.34V168.48s21.19-3.35,53.09-3.35,53.11,3.35,53.11,3.35Z"/><path class="2562e62a-bc0f-46fa-b466-b3a99cb16966" d="M54.91,163.69s20.23,3.51,53.1,3.51,53.1-3.51,53.1-3.51v16.11s-21.19,5-53.09,5-53.11-5-53.11-5Z"/><path class="661c1721-1601-483d-bfb4-f907cf5b9ba7" d="M135.55,42.34c5,.52,8.61.94,8.61.94s-3.57-.42-8.61-.94H80.43c-5,.52-8.6.94-8.6.94s3.57-.42,8.6-.94H54.91V170c0,6,21.16-.63,53.07-.63s53.14,6.92,53.14.63V42.34Z"/><rect class="31837ddc-599d-4933-98de-a6600fe54d44" x="125.18" y="94.12" width="18.98" height="67.26"/><rect class="31837ddc-599d-4933-98de-a6600fe54d44" x="129.9" y="101.38" width="9.56" height="53.69"/><rect class="eefa11da-672d-4514-be2b-a323ed8bbc9b" x="130.09" y="119.8" width="9.36" height="35.11"/><line class="4550d98e-fb38-4b8e-abf4-3c0fe5b73806" x1="134.77" y1="127.75" x2="139.45" y2="127.75"/><line class="4550d98e-fb38-4b8e-abf4-3c0fe5b73806" x1="136.2" y1="141.52" x2="139.45" y2="141.52"/><line class="4550d98e-fb38-4b8e-abf4-3c0fe5b73806" x1="136.2" y1="114.05" x2="139.45" y2="114.05"/><path class="661c1721-1601-483d-bfb4-f907cf5b9ba7" d="M155.28,36c0-9.6-21.16-14.05-47.27-14.05S60.75,26.4,60.75,36c0,.49-5.94,5.2-5.84,5.67v8.13c0,10.79,23.77,26.53,53.1,26.53s53.1-15.74,53.1-26.53V41.68C161.22,41.2,155.28,36.49,155.28,36ZM108,40.33c-10.92,0-36.14,2.94-36.14,2.94S97.05,40.33,108,40.33s36.19,2.94,36.19,2.94S118.9,40.33,108,40.33Z"/><path class="661c1721-1601-483d-bfb4-f907cf5b9ba7" d="M108,76.33c-15.11,0-28.6-4-37.5-9a3.83,3.83,0,0,0-.15,1.6C73.07,78.74,87.21,87.66,108,87.66S144.17,77.52,145.67,69a4.83,4.83,0,0,0-.15-1.6C136.61,72.37,123.12,76.33,108,76.33Z"/><path class="661c1721-1601-483d-bfb4-f907cf5b9ba7" d="M113.13,96.39H102.9V84.63s-.78-2.05,5.11-2.05,5.13,2.05,5.13,2.05Z"/><path class="a28e3f2a-7ff6-4988-a6d3-7748d4771ce0" d="M68.46,36.72A118.4,118.4,0,0,1,108,29.41a118.39,118.39,0,0,1,39.55,7.31"/><path class="661c1721-1601-483d-bfb4-f907cf5b9ba7" d="M155.1,34.51a4.23,4.23,0,0,0,.17-1.14c0-7.62-21.16-13.8-47.27-13.8s-47.27,6.18-47.27,13.8a4.22,4.22,0,0,0,.17,1.14c-3.83,2.14-6,4.58-6,7.16,0,8.56,23.77,21.05,53.1,21.05s53.1-12.49,53.1-21.05C161.11,39.09,158.93,36.65,155.1,34.51ZM108,40.33c-10.92,0-36.14,2.94-36.14,2.94S97.05,40.33,108,40.33s36.19,2.94,36.19,2.94S118.9,40.33,108,40.33Z"/><path class="661c1721-1601-483d-bfb4-f907cf5b9ba7" d="M72.21,43.23C79.3,49.84,92.67,55.87,108,55.87s28.71-6,35.8-12.64c-3.08-.35-25.66-2.9-35.83-2.9S75.35,42.87,72.21,43.23Z"/><path class="2562e62a-bc0f-46fa-b466-b3a99cb16966" d="M149.19,33.84c0-8.78-18.44-15.9-41.18-15.9s-41.18,7.12-41.18,15.9c0,2.86,2,6.19,5.39,9.39,3.14-.36,25.62-2.9,35.77-2.9s32.75,2.55,35.83,2.9C147.23,40,149.19,36.7,149.19,33.84Z"/><rect class="2562e62a-bc0f-46fa-b466-b3a99cb16966" x="104.38" y="44.34" width="7.26" height="7.81"/><line class="a28e3f2a-7ff6-4988-a6d3-7748d4771ce0" x1="63.7" y1="62.73" x2="63.7" y2="171.87"/><line class="a28e3f2a-7ff6-4988-a6d3-7748d4771ce0" x1="151.68" y1="62.73" x2="151.68" y2="171.87"/><circle class="eefa11da-672d-4514-be2b-a323ed8bbc9b" cx="99.27" cy="69.22" r="2.61"/><circle class="4550d98e-fb38-4b8e-abf4-3c0fe5b73806" cx="107.98" cy="69.22" r="2.61"/><circle class="4550d98e-fb38-4b8e-abf4-3c0fe5b73806" cx="116.75" cy="69.22" r="2.61"/><polygon class="31837ddc-599d-4933-98de-a6600fe54d44" points="119.36 34.91 96.66 34.91 98.17 22.91 118.06 22.91 119.36 34.91"/></svg>