<svg id="85a66e0d-9418-46fa-9d8b-6032114e104d" data-name="圖層 1" xmlns="http://www.w3.org/2000/svg" viewBox="0 0 210.63 202"><defs><style>.\39 37ff207-c29f-4a23-8167-02e3d376ba2a,.f046d742-e85c-4f1e-8797-f1d17babf700{fill:none;}.\30 2fe0853-bdc2-484b-941a-d2bf7dce0b4a,.\35 4ad3dcf-a090-4ab1-8ea2-4aa0de47d717,.\39 37ff207-c29f-4a23-8167-02e3d376ba2a,.ef898f7e-43c5-4ea3-a0c9-ab3d6d0bf359,.f046d742-e85c-4f1e-8797-f1d17babf700{stroke:#515050;stroke-miterlimit:10;}.\35 4ad3dcf-a090-4ab1-8ea2-4aa0de47d717,.ef898f7e-43c5-4ea3-a0c9-ab3d6d0bf359,.f046d742-e85c-4f1e-8797-f1d17babf700{stroke-width:2px;}.ef898f7e-43c5-4ea3-a0c9-ab3d6d0bf359{fill:#fff;}.\30 2fe0853-bdc2-484b-941a-d2bf7dce0b4a,.\35 4ad3dcf-a090-4ab1-8ea2-4aa0de47d717{fill:#f6d568;}</style></defs><title>icon</title><rect class="f046d742-e85c-4f1e-8797-f1d17babf700" x="100.21" y="158" width="8.9" height="9.77"/><polygon class="ef898f7e-43c5-4ea3-a0c9-ab3d6d0bf359" points="67.05 165.1 63.82 173.88 144.69 173.88 141.45 165.1 67.05 165.1"/><polygon class="f046d742-e85c-4f1e-8797-f1d17babf700" points="64.64 178.27 63.82 173.88 144.69 173.88 143.87 178.27 64.64 178.27"/><path class="ef898f7e-43c5-4ea3-a0c9-ab3d6d0bf359" d="M97.48,152.67h14.35v1.78l-2.15,2.66.24,11.54a17.77,17.77,0,0,1-10.52,0V157.11l-1.91-1.78Z"/><rect class="ef898f7e-43c5-4ea3-a0c9-ab3d6d0bf359" x="10.38" y="34.57" width="187.74" height="122.55"/><rect class="54ad3dcf-a090-4ab1-8ea2-4aa0de47d717" x="19.18" y="41.52" width="170.14" height="107.75"/><line class="f046d742-e85c-4f1e-8797-f1d17babf700" x1="102.98" y1="160.62" x2="102.98" y2="169.59"/><circle class="02fe0853-bdc2-484b-941a-d2bf7dce0b4a" cx="182" cy="153.38" r="1.69"/><circle class="937ff207-c29f-4a23-8167-02e3d376ba2a" cx="187.63" cy="153.38" r="1.69"/></svg>