<svg id="14469931-9409-4764-bc7f-7a31e636dd77" data-name="圖層 1" xmlns="http://www.w3.org/2000/svg" viewBox="0 0 210.63 202"><defs><style>.\34 2bad119-4ecc-4140-a7d9-f3455b8e9d10{fill:#fff;}.\34 2bad119-4ecc-4140-a7d9-f3455b8e9d10,.\37 b59ae1e-bb6e-4650-b69e-91da4b515825,.c0a92015-757c-4c47-a817-f0bc717b48e6{stroke:#515050;stroke-miterlimit:10;stroke-width:2px;}.c0a92015-757c-4c47-a817-f0bc717b48e6{fill:none;}.\37 b59ae1e-bb6e-4650-b69e-91da4b515825{fill:#f6d568;}</style></defs><title>icon</title><rect class="42bad119-4ecc-4140-a7d9-f3455b8e9d10" x="12.32" y="41.5" width="186" height="119" rx="4.43" ry="4.43"/><rect class="c0a92015-757c-4c47-a817-f0bc717b48e6" x="20.82" y="48" width="112.5" height="2"/><rect class="c0a92015-757c-4c47-a817-f0bc717b48e6" x="20.82" y="53.28" width="112.5" height="2"/><rect class="c0a92015-757c-4c47-a817-f0bc717b48e6" x="20.82" y="58.56" width="112.5" height="2"/><rect class="c0a92015-757c-4c47-a817-f0bc717b48e6" x="20.82" y="63.83" width="112.5" height="2"/><rect class="c0a92015-757c-4c47-a817-f0bc717b48e6" x="20.82" y="69.11" width="112.5" height="2"/><rect class="c0a92015-757c-4c47-a817-f0bc717b48e6" x="20.82" y="74.39" width="112.5" height="2"/><rect class="c0a92015-757c-4c47-a817-f0bc717b48e6" x="20.82" y="79.67" width="112.5" height="2"/><rect class="c0a92015-757c-4c47-a817-f0bc717b48e6" x="20.82" y="84.94" width="112.5" height="2"/><rect class="c0a92015-757c-4c47-a817-f0bc717b48e6" x="20.82" y="90.22" width="112.5" height="2"/><rect class="c0a92015-757c-4c47-a817-f0bc717b48e6" x="20.82" y="95.5" width="112.5" height="2"/><rect class="c0a92015-757c-4c47-a817-f0bc717b48e6" x="20.82" y="100.78" width="112.5" height="2"/><rect class="c0a92015-757c-4c47-a817-f0bc717b48e6" x="20.82" y="106.06" width="112.5" height="2"/><rect class="c0a92015-757c-4c47-a817-f0bc717b48e6" x="20.82" y="111.33" width="112.5" height="2"/><rect class="c0a92015-757c-4c47-a817-f0bc717b48e6" x="20.82" y="116.61" width="112.5" height="2"/><rect class="c0a92015-757c-4c47-a817-f0bc717b48e6" x="20.82" y="121.89" width="112.5" height="2"/><rect class="c0a92015-757c-4c47-a817-f0bc717b48e6" x="20.82" y="127.17" width="112.5" height="2"/><rect class="c0a92015-757c-4c47-a817-f0bc717b48e6" x="20.82" y="132.44" width="112.5" height="2"/><rect class="c0a92015-757c-4c47-a817-f0bc717b48e6" x="20.82" y="137.72" width="112.5" height="2"/><rect class="c0a92015-757c-4c47-a817-f0bc717b48e6" x="20.82" y="143" width="112.5" height="2"/><rect class="7b59ae1e-bb6e-4650-b69e-91da4b515825" x="149.32" y="47.5" width="43" height="80"/><rect class="c0a92015-757c-4c47-a817-f0bc717b48e6" x="149.82" y="132.5" width="43" height="23.38"/><line class="c0a92015-757c-4c47-a817-f0bc717b48e6" x1="142.82" y1="41.5" x2="142.82" y2="160.5"/><rect class="7b59ae1e-bb6e-4650-b69e-91da4b515825" x="20.82" y="150.33" width="26" height="3"/><rect class="c0a92015-757c-4c47-a817-f0bc717b48e6" x="154.32" y="137.9" width="5.61" height="8.6"/><rect class="c0a92015-757c-4c47-a817-f0bc717b48e6" x="161.51" y="137.9" width="5.61" height="8.6"/><rect class="c0a92015-757c-4c47-a817-f0bc717b48e6" x="168.7" y="137.9" width="5.61" height="8.6"/><line class="c0a92015-757c-4c47-a817-f0bc717b48e6" x1="150.32" y1="151.5" x2="193.32" y2="151.5"/><rect class="c0a92015-757c-4c47-a817-f0bc717b48e6" x="176.82" y="145" width="12" height="2"/><polygon class="c0a92015-757c-4c47-a817-f0bc717b48e6" points="160.71 48.5 160.71 126.5 155.98 125 155.32 49.49 160.71 48.5"/><polygon class="c0a92015-757c-4c47-a817-f0bc717b48e6" points="169.71 48.5 169.71 126.5 164.98 125 164.32 49.49 169.71 48.5"/><polygon class="c0a92015-757c-4c47-a817-f0bc717b48e6" points="188.71 48.5 188.71 126.5 183.98 125 183.32 49.49 188.71 48.5"/><polygon class="c0a92015-757c-4c47-a817-f0bc717b48e6" points="179.32 48.5 179.32 126.5 173.32 125 173.92 49.49 179.32 48.5"/><circle class="7b59ae1e-bb6e-4650-b69e-91da4b515825" cx="56.82" cy="151.83" r="1.5"/><circle class="c0a92015-757c-4c47-a817-f0bc717b48e6" cx="61.82" cy="151.83" r="1.5"/><line class="c0a92015-757c-4c47-a817-f0bc717b48e6" x1="77.07" y1="148.63" x2="133.32" y2="148.63"/></svg>