<svg id="cac1268e-ebd5-4da6-9380-d1d1d13e4a65" data-name="圖層 1" xmlns="http://www.w3.org/2000/svg" viewBox="0 0 210.63 202"><defs><style>.\37 0ec26de-44ee-45a1-b67d-f02af59c98c6{fill:none;}.\31 2223c16-e2ce-42ff-9490-ead1b8c5c5c4,.\37 0ec26de-44ee-45a1-b67d-f02af59c98c6,.bf7785c4-7641-4073-8346-cee3803007e2{stroke:#515050;stroke-miterlimit:10;stroke-width:2px;}.bf7785c4-7641-4073-8346-cee3803007e2{fill:#f6d568;}.\31 2223c16-e2ce-42ff-9490-ead1b8c5c5c4{fill:#fff;}</style></defs><title>icon</title><rect class="70ec26de-44ee-45a1-b67d-f02af59c98c6" x="41.43" y="14.73" width="132.67" height="168.3" rx="6.77" ry="6.77"/><rect class="70ec26de-44ee-45a1-b67d-f02af59c98c6" x="61.81" y="183.02" width="13" height="6.17"/><rect class="70ec26de-44ee-45a1-b67d-f02af59c98c6" x="146.31" y="183.02" width="13" height="6.17"/><path class="bf7785c4-7641-4073-8346-cee3803007e2" d="M110.79,172.17h52.65V71.48s1.82-26.79-26.79-26.79c-25.93,0-25.86,23.92-25.86,23.92Z"/><circle class="12223c16-e2ce-42ff-9490-ead1b8c5c5c4" cx="137.12" cy="71.48" r="13.81"/><circle class="70ec26de-44ee-45a1-b67d-f02af59c98c6" cx="137.09" cy="71.48" r="22.09"/><rect class="70ec26de-44ee-45a1-b67d-f02af59c98c6" x="174.11" y="31.69" width="3.7" height="21.78"/><path class="70ec26de-44ee-45a1-b67d-f02af59c98c6" d="M137.09,52.95a18.53,18.53,0,1,1-18.53,18.53"/><line class="70ec26de-44ee-45a1-b67d-f02af59c98c6" x1="48.64" y1="178.36" x2="173.61" y2="178.36"/><rect class="bf7785c4-7641-4073-8346-cee3803007e2" x="60.7" y="189.19" width="15.21" height="3.71"/><rect class="bf7785c4-7641-4073-8346-cee3803007e2" x="145.2" y="189.19" width="15.21" height="3.71"/><line class="70ec26de-44ee-45a1-b67d-f02af59c98c6" x1="137.09" y1="71.48" x2="131.99" y2="85.25"/><circle class="bf7785c4-7641-4073-8346-cee3803007e2" cx="117.1" cy="166.41" r="2.11"/><circle class="12223c16-e2ce-42ff-9490-ead1b8c5c5c4" cx="124.12" cy="166.41" r="2.11"/><circle class="12223c16-e2ce-42ff-9490-ead1b8c5c5c4" cx="131.19" cy="166.41" r="2.11"/><rect class="12223c16-e2ce-42ff-9490-ead1b8c5c5c4" x="115" y="157.24" width="39.07" height="3.19"/><line class="70ec26de-44ee-45a1-b67d-f02af59c98c6" x1="115" y1="153.36" x2="142.97" y2="153.36"/><rect class="12223c16-e2ce-42ff-9490-ead1b8c5c5c4" x="50.56" y="42.18" width="22.38" height="86.09"/><rect class="12223c16-e2ce-42ff-9490-ead1b8c5c5c4" x="59.35" y="69.62" width="4.8" height="51.03"/><path class="bf7785c4-7641-4073-8346-cee3803007e2" d="M59.14,58.38s-.27-2.72,1-4.29,1.69-1.18,2.13-2.48c0,0,.34,4.32,1.52,4.88s1.5,3.85.52,4.51a5.32,5.32,0,0,1-5.18,1C56.28,61.25,59.14,58.38,59.14,58.38Z"/><path class="bf7785c4-7641-4073-8346-cee3803007e2" d="M59.87,59.2c-.07-1.66-3.37-4.85-3.37-4.85,0,.64-1.22,3.83,0,7.43,1.32,3.79,4,3.42,4,3.42a14.67,14.67,0,0,1,3.61-1.29c2.82-.77,2-6.81,3.38-9.12a4.65,4.65,0,0,0-3.81,3.55"/><rect class="bf7785c4-7641-4073-8346-cee3803007e2" x="59.65" y="87.13" width="4.33" height="33.36"/></svg>