<svg id="238b8422-f4c8-4cfb-9820-9ad3d55a482a" data-name="圖層 1" xmlns="http://www.w3.org/2000/svg" viewBox="0 0 210.63 202"><defs><style>.\38 f47bb1f-af3a-421c-a861-070c30e62456{fill:none;}.\36 84cac75-0915-4cec-8efd-0acbef701dd5,.\38 f47bb1f-af3a-421c-a861-070c30e62456,.a09a1bf0-b36c-4ca0-8460-69d001b3672d{stroke:#515050;stroke-miterlimit:10;stroke-width:2px;}.\36 84cac75-0915-4cec-8efd-0acbef701dd5{fill:#f6d568;}.a09a1bf0-b36c-4ca0-8460-69d001b3672d{fill:#fff;}</style></defs><title>icon</title><rect class="8f47bb1f-af3a-421c-a861-070c30e62456" x="42.75" y="14.17" width="123.52" height="171.82"/><rect class="684cac75-0915-4cec-8efd-0acbef701dd5" x="42.75" y="185.99" width="123.52" height="6.43"/><circle class="684cac75-0915-4cec-8efd-0acbef701dd5" cx="104.85" cy="104.08" r="56.48"/><circle class="a09a1bf0-b36c-4ca0-8460-69d001b3672d" cx="104.85" cy="104.08" r="43.16"/><polyline class="8f47bb1f-af3a-421c-a861-070c30e62456" points="42.75 45.19 61.7 45.19 72.51 39.59 139.92 39.59 149.37 44.48 166.27 44.48"/><circle class="8f47bb1f-af3a-421c-a861-070c30e62456" cx="151.66" cy="28.44" r="8.82" transform="translate(117.46 178.91) rotate(-87.82)"/><circle class="684cac75-0915-4cec-8efd-0acbef701dd5" cx="151.66" cy="28.44" r="5.08" transform="translate(117.46 178.91) rotate(-87.82)"/><circle class="684cac75-0915-4cec-8efd-0acbef701dd5" cx="54.71" cy="31.61" r="2.61"/><circle class="8f47bb1f-af3a-421c-a861-070c30e62456" cx="63.51" cy="31.61" r="2.61"/><circle class="8f47bb1f-af3a-421c-a861-070c30e62456" cx="72.32" cy="31.61" r="2.61"/><circle class="8f47bb1f-af3a-421c-a861-070c30e62456" cx="81.12" cy="31.61" r="2.61"/><polyline class="8f47bb1f-af3a-421c-a861-070c30e62456" points="42.75 157.45 48.37 157.45 52.79 161.87 52.79 180.13 155.38 180.13 155.38 162.56 159.54 158.4 165.27 158.4"/><circle class="a09a1bf0-b36c-4ca0-8460-69d001b3672d" cx="104.85" cy="104.08" r="35.65"/></svg>