<svg id="圖層_1" data-name="圖層 1" xmlns="http://www.w3.org/2000/svg" viewBox="0 0 210.63 202"><defs><style>.cls-1{fill:#fff;}.cls-1,.cls-2,.cls-3{stroke:#515050;stroke-miterlimit:10;stroke-width:2px;}.cls-2{fill:#f6d568;}.cls-3{fill:none;}</style></defs><title>icon</title><rect class="cls-1" x="42.75" y="14.17" width="123.52" height="171.82"/><rect class="cls-2" x="42.75" y="185.99" width="123.52" height="6.43"/><circle class="cls-2" cx="104.85" cy="104.08" r="56.48"/><circle class="cls-1" cx="104.85" cy="104.08" r="43.16"/><polyline class="cls-3" points="42.75 45.19 61.7 45.19 72.51 39.59 139.92 39.59 149.37 44.48 166.27 44.48"/><circle class="cls-3" cx="151.66" cy="28.44" r="8.82"/><circle class="cls-2" cx="151.66" cy="28.44" r="5.08"/><circle class="cls-2" cx="54.71" cy="31.61" r="2.61"/><circle class="cls-3" cx="63.51" cy="31.61" r="2.61"/><circle class="cls-3" cx="72.32" cy="31.61" r="2.61"/><circle class="cls-3" cx="81.12" cy="31.61" r="2.61"/><polyline class="cls-3" points="42.75 157.45 48.37 157.45 52.79 161.87 52.79 180.13 155.38 180.13 155.38 162.56 159.54 158.4 165.27 158.4"/><circle class="cls-1" cx="104.85" cy="104.08" r="35.65"/></svg>