<svg id="圖層_1" data-name="圖層 1" xmlns="http://www.w3.org/2000/svg" viewBox="0 0 210.63 202"><defs><style>.cls-1{fill:#fff;}.cls-1,.cls-2,.cls-3{stroke:#515050;stroke-miterlimit:10;stroke-width:2px;}.cls-2{fill:#f6d568;}.cls-3{fill:none;}</style></defs><title>icon</title><path class="cls-1" d="M84.21.54h0A2.77,2.77,0,0,1,87,3.31V97.16a0,0,0,0,1,0,0H81.44a0,0,0,0,1,0,0V3.31A2.77,2.77,0,0,1,84.21.54Z" transform="translate(76.7 -48.22) rotate(55.46)"/><rect class="cls-1" x="22.45" y="80.41" width="164.12" height="89.26"/><rect class="cls-1" x="28.4" y="169.67" width="154.28" height="7.41"/><rect class="cls-2" x="40.11" y="94.46" width="70.27" height="43.41"/><path class="cls-1" d="M48.58,78.53l-4.94-7.17L59.77,60.27c1.41-1,3.66-.15,5,1.83h0c1.36,2,1.32,4.37-.09,5.34Z"/><rect class="cls-3" x="44.93" y="149.88" width="60.63" height="6.61"/><circle class="cls-2" cx="146.1" cy="160.7" r="2.61"/><circle class="cls-3" cx="158.84" cy="160.7" r="2.61"/><circle class="cls-3" cx="171.58" cy="160.7" r="2.61"/><path class="cls-2" d="M29.41,71.78H179.62a4.92,4.92,0,0,1,4.92,4.92v3.71a0,0,0,0,1,0,0h-160a0,0,0,0,1,0,0V76.7A4.92,4.92,0,0,1,29.41,71.78Z"/><rect class="cls-3" x="32.23" y="88.33" width="86.66" height="75.17"/><polyline class="cls-3" points="39.28 117.41 57.51 117.41 63.6 112.59 69.69 127.03 79.96 110.03 84.91 116.17 111.2 116.17"/><rect class="cls-3" x="131.88" y="89.32" width="43.11" height="4.3"/><rect class="cls-3" x="131.88" y="99.09" width="43.11" height="4.3"/><rect class="cls-3" x="131.88" y="108.92" width="43.11" height="4.3"/><rect class="cls-3" x="131.88" y="118.69" width="43.11" height="4.3"/><line class="cls-3" x1="49.41" y1="149.88" x2="49.41" y2="156.49"/></svg>