<svg id="圖層_1" data-name="圖層 1" xmlns="http://www.w3.org/2000/svg" viewBox="0 0 210.63 202"><defs><style>.cls-1{fill:#f6d568;}.cls-1,.cls-2,.cls-3{stroke:#515050;stroke-miterlimit:10;stroke-width:2px;}.cls-2{fill:#fff;}.cls-3{fill:none;}</style></defs><title>icon</title><path class="cls-1" d="M36.54,152.87S46,177,102.23,178.31c56.49,1.36,65.43-26.69,65.43-26.69s-4.18-5.27-5.3-8.16-3.57,19.66-60.44,19.66-60.07-21.36-60.07-21.36Z"/><path class="cls-2" d="M68,43.71S44.54,76.53,41,147.35c0,0,15.21,21.3,64.76,22.44,18.85.43,40.19-2.61,57.73-22.63,0,0-11.28-102-33.28-119.1C130.2,28.06,90,13.14,68,43.71Z"/><polygon class="cls-2" points="72.07 39.56 47.69 41.65 53.28 76.53 72.07 39.56"/><path class="cls-1" d="M71.63,38.91S153.21,53,131,28c0,0-35.85-15.09-59.32,10.91Z"/><path class="cls-3" d="M41.25,139.91s12.55,25.14,66.83,25.14"/><path class="cls-3" d="M70.39,43.53c.19.4,63.7,11.1,66.85-5.16"/><rect class="cls-2" x="94.84" y="83.5" width="16.97" height="72.35"/><rect class="cls-2" x="100.88" y="94.53" width="4.73" height="50.3"/><rect class="cls-1" x="100.88" y="108.36" width="4.73" height="36.47"/><polygon class="cls-1" points="140.91 44.69 137.24 46.89 145.32 66.6 152.09 63.11 142.7 44.69 140.91 44.69"/><path class="cls-1" d="M142,48.36c11.45-2.58,27,.91,27,.91,7.27,10.52,13.79,61.45,11.75,62.43s-7.57,1.93-7.57,1.93c-4.51-29.34-12-49.84-13.5-50.78s-11.61-.65-11.61-.65L142.2,50.86Z"/></svg>