<svg id="07d692f7-1951-4076-8657-0a9f4599ab18" data-name="圖層 1" xmlns="http://www.w3.org/2000/svg" viewBox="0 0 210.63 202"><defs><style>.e45c626a-b14a-4a9e-8ad4-76f8b67cb612{fill:none;}.\37 7f26886-59e6-414f-8e75-984dff449e08,.\38 794d39e-c103-4947-847d-161b072a55f7,.b7713460-4293-445a-99fd-146ea961697d,.e45c626a-b14a-4a9e-8ad4-76f8b67cb612{stroke:#515050;stroke-miterlimit:10;stroke-width:2px;}.\38 794d39e-c103-4947-847d-161b072a55f7{fill:#fff;}.b7713460-4293-445a-99fd-146ea961697d{fill:#f6d568;}.\37 7f26886-59e6-414f-8e75-984dff449e08{fill:#515050;}</style></defs><title>icon</title><rect class="e45c626a-b14a-4a9e-8ad4-76f8b67cb612" x="56.74" y="15.89" width="99.79" height="170.02" rx="3.38" ry="3.38"/><rect class="e45c626a-b14a-4a9e-8ad4-76f8b67cb612" x="56.74" y="127.46" width="99.79" height="58.44"/><rect class="e45c626a-b14a-4a9e-8ad4-76f8b67cb612" x="56.74" y="15.89" width="48.96" height="106.33"/><rect class="e45c626a-b14a-4a9e-8ad4-76f8b67cb612" x="108.2" y="15.89" width="48.33" height="106.33"/><rect class="e45c626a-b14a-4a9e-8ad4-76f8b67cb612" x="66.74" y="75.76" width="17.75" height="38.7"/><rect class="e45c626a-b14a-4a9e-8ad4-76f8b67cb612" x="95.99" y="26.61" width="4.51" height="85.7"/><rect class="8794d39e-c103-4947-847d-161b072a55f7" x="95.08" y="98.47" width="6.34" height="14.98"/><rect class="8794d39e-c103-4947-847d-161b072a55f7" x="95.08" y="24.64" width="6.34" height="14.98"/><rect class="e45c626a-b14a-4a9e-8ad4-76f8b67cb612" x="113.56" y="26.61" width="4.51" height="85.7"/><rect class="8794d39e-c103-4947-847d-161b072a55f7" x="112.65" y="98.47" width="6.34" height="14.98"/><rect class="8794d39e-c103-4947-847d-161b072a55f7" x="112.65" y="24.64" width="6.34" height="14.98"/><rect class="b7713460-4293-445a-99fd-146ea961697d" x="66.74" y="107.28" width="17.75" height="7.18"/><rect class="e45c626a-b14a-4a9e-8ad4-76f8b67cb612" x="65.55" y="134.69" width="90.98" height="7.15"/><rect class="e45c626a-b14a-4a9e-8ad4-76f8b67cb612" x="56.74" y="134.69" width="8.81" height="7.15"/><rect class="77f26886-59e6-414f-8e75-984dff449e08" x="56.74" y="131.85" width="99.79" height="2.84"/><line class="e45c626a-b14a-4a9e-8ad4-76f8b67cb612" x1="56.74" y1="144.52" x2="156.53" y2="144.52"/><line class="e45c626a-b14a-4a9e-8ad4-76f8b67cb612" x1="56.74" y1="19.49" x2="106.32" y2="19.49"/><line class="e45c626a-b14a-4a9e-8ad4-76f8b67cb612" x1="107.33" y1="19.49" x2="156.92" y2="19.49"/><circle class="b7713460-4293-445a-99fd-146ea961697d" cx="71.21" cy="101.15" r="1.58"/><circle class="e45c626a-b14a-4a9e-8ad4-76f8b67cb612" cx="76.47" cy="101.15" r="1.58"/><rect class="b7713460-4293-445a-99fd-146ea961697d" x="56.74" y="174.96" width="99.79" height="11.15"/><line class="e45c626a-b14a-4a9e-8ad4-76f8b67cb612" x1="96.95" y1="101.15" x2="102.29" y2="101.15"/><line class="e45c626a-b14a-4a9e-8ad4-76f8b67cb612" x1="111.77" y1="101.15" x2="117.12" y2="101.15"/><polygon class="e45c626a-b14a-4a9e-8ad4-76f8b67cb612" points="66.74 75.42 69.08 78.23 82.61 78.23 84.72 75.69 66.74 75.42"/><line class="e45c626a-b14a-4a9e-8ad4-76f8b67cb612" x1="72.78" y1="171.65" x2="156.92" y2="171.65"/></svg>