<svg id="202f77da-d1a3-4591-bdca-de28ee488f6f" data-name="圖層 1" xmlns="http://www.w3.org/2000/svg" viewBox="0 0 210.63 202"><defs><style>.\33 05ab73f-6c5b-4d30-864f-3dc4a1219732{fill:#f6d568;}.\33 05ab73f-6c5b-4d30-864f-3dc4a1219732,.\33 a71f400-d0f4-46a3-9cd4-b7167c1407d1,.\39 8f8e87e-20c9-41c9-b2b9-c59ed7ea5599,.c193ae0d-7f50-4dd6-b042-6ae7d7c653ee{stroke:#515050;stroke-miterlimit:10;stroke-width:2px;}.\33 a71f400-d0f4-46a3-9cd4-b7167c1407d1{fill:none;}.\39 8f8e87e-20c9-41c9-b2b9-c59ed7ea5599{fill:#fefcfd;}.c193ae0d-7f50-4dd6-b042-6ae7d7c653ee{fill:#fff;}</style></defs><title>icon</title><path class="305ab73f-6c5b-4d30-864f-3dc4a1219732" d="M161.91,104.43,139.69,22.27H76L53.83,104.43a1.39,1.39,0,0,0-.16.6c0,4.5,24.27,8.15,54.2,8.15s54.2-3.65,54.2-8.15A1.39,1.39,0,0,0,161.91,104.43Z"/><rect class="3a71f400-d0f4-46a3-9cd4-b7167c1407d1" x="104.49" y="113.18" width="6.72" height="65.94"/><path class="98f8e87e-20c9-41c9-b2b9-c59ed7ea5599" d="M122.05,178.6l-5.84-4.88H99.48l-5.84,4.88s0,0,0,0c0,.27,6.38.48,14.25.48s14.25-.22,14.25-.48C122.1,178.63,122.08,178.62,122.05,178.6Z"/><ellipse class="98f8e87e-20c9-41c9-b2b9-c59ed7ea5599" cx="107.87" cy="22.27" rx="31.82" ry="4.79"/><line class="3a71f400-d0f4-46a3-9cd4-b7167c1407d1" x1="131.59" y1="113.18" x2="131.05" y2="144.07"/><circle class="305ab73f-6c5b-4d30-864f-3dc4a1219732" cx="131.55" cy="146.74" r="3.98"/><rect class="c193ae0d-7f50-4dd6-b042-6ae7d7c653ee" x="77.53" y="178.82" width="60.62" height="11.85" rx="3.21" ry="3.21"/><ellipse class="3a71f400-d0f4-46a3-9cd4-b7167c1407d1" cx="107.87" cy="30.46" rx="33.56" ry="5.05"/><ellipse class="98f8e87e-20c9-41c9-b2b9-c59ed7ea5599" cx="107.87" cy="22.27" rx="31.82" ry="4.79"/><line class="3a71f400-d0f4-46a3-9cd4-b7167c1407d1" x1="131.55" y1="35.51" x2="143.17" y2="111.21"/><line class="3a71f400-d0f4-46a3-9cd4-b7167c1407d1" x1="77.53" y1="185.54" x2="110.91" y2="185.54"/></svg>