<svg id="4c28296d-7747-4fbb-84c2-8ddd410ed9e2" data-name="圖層 1" xmlns="http://www.w3.org/2000/svg" viewBox="0 0 210.63 202"><defs><style>.\36 acb918b-6199-44ab-a6e1-a43180c4112d{fill:#f6d568;}.\36 acb918b-6199-44ab-a6e1-a43180c4112d,.b2832847-c5b8-4927-8073-df3b7c33023d,.d59166c6-b9be-4354-888d-cfbcfe129f9d{stroke:#515050;stroke-miterlimit:10;stroke-width:2px;}.d59166c6-b9be-4354-888d-cfbcfe129f9d{fill:#fff;}.b2832847-c5b8-4927-8073-df3b7c33023d{fill:none;}</style></defs><title>icon</title><rect class="6acb918b-6199-44ab-a6e1-a43180c4112d" x="12.19" y="112.45" width="186.71" height="24.12"/><rect class="d59166c6-b9be-4354-888d-cfbcfe129f9d" x="98.66" y="117.94" width="58.64" height="13.13"/><rect class="b2832847-c5b8-4927-8073-df3b7c33023d" x="19.26" y="97.98" width="100.04" height="7.21"/><rect class="b2832847-c5b8-4927-8073-df3b7c33023d" x="9.82" y="89.17" width="191.46" height="23.18"/><path class="d59166c6-b9be-4354-888d-cfbcfe129f9d" d="M17.11,81.28H194a4.92,4.92,0,0,1,4.92,4.92v3a0,0,0,0,1,0,0H12.19a0,0,0,0,1,0,0v-3A4.92,4.92,0,0,1,17.11,81.28Z"/><line class="b2832847-c5b8-4927-8073-df3b7c33023d" x1="21.67" y1="130.08" x2="89.26" y2="130.08"/><line class="b2832847-c5b8-4927-8073-df3b7c33023d" x1="105.54" y1="124.51" x2="113.36" y2="124.51"/><line class="b2832847-c5b8-4927-8073-df3b7c33023d" x1="138.23" y1="124.51" x2="146.04" y2="124.51"/><line class="b2832847-c5b8-4927-8073-df3b7c33023d" x1="118.04" y1="124.51" x2="132" y2="124.51"/><circle class="6acb918b-6199-44ab-a6e1-a43180c4112d" cx="129.39" cy="101.58" r="2.61"/><circle class="b2832847-c5b8-4927-8073-df3b7c33023d" cx="142.13" cy="101.58" r="2.61"/><circle class="b2832847-c5b8-4927-8073-df3b7c33023d" cx="154.87" cy="101.58" r="2.61"/><circle class="d59166c6-b9be-4354-888d-cfbcfe129f9d" cx="174.04" cy="108.71" r="12.57" transform="translate(58.79 278.49) rotate(-87.82)"/><circle class="d59166c6-b9be-4354-888d-cfbcfe129f9d" cx="174.04" cy="108.71" r="7.24" transform="translate(58.79 278.49) rotate(-87.82)"/></svg>