<svg id="252bd2f3-5bd0-4373-8ab5-3f4d3057c223" data-name="圖層 1" xmlns="http://www.w3.org/2000/svg" viewBox="0 0 210.63 202"><defs><style>.bcf86aa0-89ea-4e80-82f3-f43d18a35c8c{fill:#fff;}.\32 fbbb51a-78a3-4d07-a092-cb928fa1426d,.a775aa44-c591-4b8c-91fd-b25e96937d7a,.bcf86aa0-89ea-4e80-82f3-f43d18a35c8c{stroke:#515050;stroke-miterlimit:10;stroke-width:2px;}.\32 fbbb51a-78a3-4d07-a092-cb928fa1426d{fill:#f6d568;}.a775aa44-c591-4b8c-91fd-b25e96937d7a{fill:none;}</style></defs><title>icon</title><rect class="bcf86aa0-89ea-4e80-82f3-f43d18a35c8c" x="64.69" y="16.59" width="88.06" height="150.71" rx="6.08" ry="6.08"/><rect class="2fbbb51a-78a3-4d07-a092-cb928fa1426d" x="72.58" y="23.57" width="72.28" height="113.56"/><rect class="bcf86aa0-89ea-4e80-82f3-f43d18a35c8c" x="72.58" y="135.59" width="72.28" height="31.52"/><rect class="2fbbb51a-78a3-4d07-a092-cb928fa1426d" x="72.58" y="23.57" width="29.23" height="112.02"/><rect class="bcf86aa0-89ea-4e80-82f3-f43d18a35c8c" x="72.58" y="23.57" width="72.28" height="12.43"/><rect class="bcf86aa0-89ea-4e80-82f3-f43d18a35c8c" x="61.5" y="176.99" width="94.45" height="12.38"/><rect class="bcf86aa0-89ea-4e80-82f3-f43d18a35c8c" x="79.3" y="167.3" width="58.84" height="9.61"/><rect class="2fbbb51a-78a3-4d07-a092-cb928fa1426d" x="72.58" y="23.57" width="29.23" height="112.02"/><rect class="2fbbb51a-78a3-4d07-a092-cb928fa1426d" x="96.36" y="23.57" width="24.15" height="112.02"/><line class="a775aa44-c591-4b8c-91fd-b25e96937d7a" x1="72.58" y1="43.83" x2="144.86" y2="43.83"/><line class="a775aa44-c591-4b8c-91fd-b25e96937d7a" x1="72.58" y1="50.45" x2="144.86" y2="50.45"/><line class="a775aa44-c591-4b8c-91fd-b25e96937d7a" x1="72.58" y1="61.07" x2="144.86" y2="61.07"/><line class="a775aa44-c591-4b8c-91fd-b25e96937d7a" x1="72.58" y1="67.69" x2="144.86" y2="67.69"/><line class="a775aa44-c591-4b8c-91fd-b25e96937d7a" x1="72.58" y1="78.32" x2="144.86" y2="78.32"/><line class="a775aa44-c591-4b8c-91fd-b25e96937d7a" x1="72.58" y1="84.94" x2="144.86" y2="84.94"/><line class="a775aa44-c591-4b8c-91fd-b25e96937d7a" x1="72.58" y1="95.56" x2="144.86" y2="95.56"/><line class="a775aa44-c591-4b8c-91fd-b25e96937d7a" x1="72.58" y1="102.18" x2="144.86" y2="102.18"/><line class="a775aa44-c591-4b8c-91fd-b25e96937d7a" x1="72.58" y1="112.8" x2="144.86" y2="112.8"/><line class="a775aa44-c591-4b8c-91fd-b25e96937d7a" x1="72.58" y1="119.42" x2="144.86" y2="119.42"/><line class="a775aa44-c591-4b8c-91fd-b25e96937d7a" x1="72.58" y1="130.05" x2="144.86" y2="130.05"/><rect class="bcf86aa0-89ea-4e80-82f3-f43d18a35c8c" x="72.58" y="29.78" width="72.28" height="9.87"/><rect class="bcf86aa0-89ea-4e80-82f3-f43d18a35c8c" x="72.58" y="23.57" width="72.28" height="6.56"/><circle class="a775aa44-c591-4b8c-91fd-b25e96937d7a" cx="126.83" cy="153.07" r="6.76" transform="translate(-30.96 273.98) rotate(-87.82)"/><path class="a775aa44-c591-4b8c-91fd-b25e96937d7a" d="M126.83,141.81s12.15.55,11.27,12c-.86,11.06-11.27,10.54-11.27,10.54s-7.68-.43-10-5.74"/><circle class="2fbbb51a-78a3-4d07-a092-cb928fa1426d" cx="126.66" cy="183.17" r="2.36"/><circle class="a775aa44-c591-4b8c-91fd-b25e96937d7a" cx="134.55" cy="183.17" r="2.36"/><circle class="a775aa44-c591-4b8c-91fd-b25e96937d7a" cx="142.49" cy="183.17" r="2.36"/><line class="a775aa44-c591-4b8c-91fd-b25e96937d7a" x1="73.25" y1="161.57" x2="106.63" y2="161.57"/></svg>