<svg id="5ae3da7b-8ddd-4318-bfeb-a20cf5a86f8e" data-name="圖層 1" xmlns="http://www.w3.org/2000/svg" viewBox="0 0 210.63 202"><defs><style>.d122a8f7-2eee-465d-b658-6e0f110ed6ad{fill:none;}.\35 cb58dd9-4def-4011-8d77-5e46374367b1,.d122a8f7-2eee-465d-b658-6e0f110ed6ad,.f69c2800-da5f-4455-b829-910d78d95ab9{stroke:#515050;stroke-miterlimit:10;stroke-width:2px;}.f69c2800-da5f-4455-b829-910d78d95ab9{fill:#f6d568;}.\35 cb58dd9-4def-4011-8d77-5e46374367b1{fill:#fff;}</style></defs><title>icon</title><rect class="d122a8f7-2eee-465d-b658-6e0f110ed6ad" x="28.14" y="73.65" width="148.39" height="82.26"/><path class="f69c2800-da5f-4455-b829-910d78d95ab9" d="M28.14,155.91H176.53a0,0,0,0,1,0,0v7.38a6.3,6.3,0,0,1-6.3,6.3H34.44a6.3,6.3,0,0,1-6.3-6.3v-7.38A0,0,0,0,1,28.14,155.91Z"/><path class="5cb58dd9-4def-4011-8d77-5e46374367b1" d="M173.66,79H34.72c-3.27,0-5.55-4.24-4.45-8.27l6-22c.67-2.46,2.45-4.1,4.45-4.1H167.66c2,0,3.78,1.64,4.45,4.1l6,22C179.21,74.74,176.93,79,173.66,79Z"/><polygon class="f69c2800-da5f-4455-b829-910d78d95ab9" points="49.58 50.55 47.95 57.03 156.72 57.03 155.09 50.55 49.58 50.55"/><polygon class="f69c2800-da5f-4455-b829-910d78d95ab9" points="46.99 65.39 45.26 72.25 160.49 72.25 158.75 65.39 46.99 65.39"/><rect class="5cb58dd9-4def-4011-8d77-5e46374367b1" x="176.53" y="126.84" width="7.19" height="6.82"/><rect class="f69c2800-da5f-4455-b829-910d78d95ab9" x="183.72" y="124.82" width="10.87" height="10.87"/><circle class="d122a8f7-2eee-465d-b658-6e0f110ed6ad" cx="149.11" cy="132.82" r="9.51" transform="translate(10.71 276.77) rotate(-87.82)"/><circle class="d122a8f7-2eee-465d-b658-6e0f110ed6ad" cx="149.11" cy="132.82" r="15.01" transform="translate(10.71 276.77) rotate(-87.82)"/><line class="d122a8f7-2eee-465d-b658-6e0f110ed6ad" x1="160.93" y1="123.58" x2="149.11" y2="132.82"/><circle class="d122a8f7-2eee-465d-b658-6e0f110ed6ad" cx="110.27" cy="132.82" r="9.51" transform="translate(-26.66 237.96) rotate(-87.82)"/><circle class="d122a8f7-2eee-465d-b658-6e0f110ed6ad" cx="110.27" cy="132.82" r="15.01" transform="translate(-26.66 237.96) rotate(-87.82)"/><line class="d122a8f7-2eee-465d-b658-6e0f110ed6ad" x1="101.02" y1="121" x2="110.27" y2="132.82"/><circle class="f69c2800-da5f-4455-b829-910d78d95ab9" cx="44.84" cy="117.03" r="2.65"/><circle class="d122a8f7-2eee-465d-b658-6e0f110ed6ad" cx="44.84" cy="129.96" r="2.65"/><circle class="d122a8f7-2eee-465d-b658-6e0f110ed6ad" cx="44.84" cy="142.9" r="2.65"/><line class="d122a8f7-2eee-465d-b658-6e0f110ed6ad" x1="28.14" y1="86.15" x2="143.46" y2="86.15"/><line class="d122a8f7-2eee-465d-b658-6e0f110ed6ad" x1="49.58" y1="50.55" x2="52.29" y2="57.03"/><line class="d122a8f7-2eee-465d-b658-6e0f110ed6ad" x1="46.99" y1="65.39" x2="49.42" y2="72.94"/><line class="d122a8f7-2eee-465d-b658-6e0f110ed6ad" x1="155.09" y1="50.55" x2="151.48" y2="57.03"/><line class="d122a8f7-2eee-465d-b658-6e0f110ed6ad" x1="158.76" y1="65.39" x2="155.02" y2="72.25"/></svg>