<svg id="5cc6c8ec-c0ed-4609-aff5-3f855694e992" data-name="圖層 1" xmlns="http://www.w3.org/2000/svg" viewBox="0 0 210.63 202"><defs><style>.\30 4f2f00b-c708-40dd-8cf5-35487b887062{fill:none;}.\30 4f2f00b-c708-40dd-8cf5-35487b887062,.\33 40ca893-8b4f-496a-97b1-b5906ac37402,.dbd1f175-4327-45f2-b841-cf01e7a2085a{stroke:#515050;stroke-miterlimit:10;stroke-width:2px;}.\33 40ca893-8b4f-496a-97b1-b5906ac37402{fill:#f6d568;}.dbd1f175-4327-45f2-b841-cf01e7a2085a{fill:#fff;}</style></defs><title>icon</title><rect class="04f2f00b-c708-40dd-8cf5-35487b887062" x="22.83" y="23.64" width="90.35" height="142.82" rx="2.9" ry="2.9"/><rect class="04f2f00b-c708-40dd-8cf5-35487b887062" x="120.42" y="64.87" width="61.34" height="101.6" rx="3.72" ry="3.72"/><circle class="340ca893-8b4f-496a-97b1-b5906ac37402" cx="68.88" cy="56.27" r="21.67"/><circle class="04f2f00b-c708-40dd-8cf5-35487b887062" cx="68.88" cy="122.2" r="31.53"/><circle class="340ca893-8b4f-496a-97b1-b5906ac37402" cx="68.88" cy="122.2" r="11.07"/><circle class="340ca893-8b4f-496a-97b1-b5906ac37402" cx="150.98" cy="89.38" r="14.83"/><circle class="04f2f00b-c708-40dd-8cf5-35487b887062" cx="150.98" cy="136.15" r="20.64"/><circle class="04f2f00b-c708-40dd-8cf5-35487b887062" cx="150.98" cy="136.15" r="7.25"/><rect class="340ca893-8b4f-496a-97b1-b5906ac37402" x="22.83" y="167.04" width="90.35" height="11.32"/><rect class="340ca893-8b4f-496a-97b1-b5906ac37402" x="120.42" y="167.04" width="61.13" height="11.32"/><circle class="340ca893-8b4f-496a-97b1-b5906ac37402" cx="98.28" cy="159.92" r="2.14"/><circle class="04f2f00b-c708-40dd-8cf5-35487b887062" cx="105.4" cy="159.92" r="2.14"/><circle class="340ca893-8b4f-496a-97b1-b5906ac37402" cx="164.82" cy="159.92" r="2.14"/><circle class="04f2f00b-c708-40dd-8cf5-35487b887062" cx="171.95" cy="159.92" r="2.14"/><circle class="dbd1f175-4327-45f2-b841-cf01e7a2085a" cx="68.88" cy="56.27" r="6.03"/><circle class="dbd1f175-4327-45f2-b841-cf01e7a2085a" cx="68.88" cy="122.2" r="5.94"/><circle class="dbd1f175-4327-45f2-b841-cf01e7a2085a" cx="150.98" cy="89.38" r="4.55"/><circle class="04f2f00b-c708-40dd-8cf5-35487b887062" cx="150.98" cy="136.15" r="3.47"/><path class="04f2f00b-c708-40dd-8cf5-35487b887062" d="M68.88,85.19a37,37,0,1,1-37,37"/><line class="04f2f00b-c708-40dd-8cf5-35487b887062" x1="39.54" y1="174.82" x2="113.18" y2="174.82"/><line class="04f2f00b-c708-40dd-8cf5-35487b887062" x1="127.6" y1="174.82" x2="181.76" y2="174.82"/></svg>