<svg id="80135125-c1e0-44bc-b9dc-c0dbe99397dc" data-name="圖層 1" xmlns="http://www.w3.org/2000/svg" viewBox="0 0 210.63 202"><defs><style>.a83fc54f-f673-4059-bac1-688e93a84189{fill:#f6d568;}.\37 a0da59c-2a88-4121-a9e4-86703592b728,.\38 0f8039b-6451-4880-9769-6d5506cabab5,.a83fc54f-f673-4059-bac1-688e93a84189,.a922bd95-281f-4274-b1e6-1e6c5505a39a{stroke:#515050;stroke-miterlimit:10;stroke-width:2px;}.\38 0f8039b-6451-4880-9769-6d5506cabab5{fill:none;}.\37 a0da59c-2a88-4121-a9e4-86703592b728{fill:#fff;}.a922bd95-281f-4274-b1e6-1e6c5505a39a{fill:#e7e6e4;}</style></defs><title>icon</title><rect class="a83fc54f-f673-4059-bac1-688e93a84189" x="66.12" y="11.66" width="84.92" height="48.51"/><rect class="80f8039b-6451-4880-9769-6d5506cabab5" x="52.43" y="11.66" width="111.91" height="179.37" rx="6.07" ry="6.07"/><path class="80f8039b-6451-4880-9769-6d5506cabab5" d="M98.66,191l-8.14-8.14s-24.4-.6-24.4-21.23v-150"/><path class="80f8039b-6451-4880-9769-6d5506cabab5" d="M118.5,191l8.14-8.14s24.4-.6,24.4-21.23v-150"/><path class="7a0da59c-2a88-4121-a9e4-86703592b728" d="M97.87,11.66v39c0,2,1.92,3.59,4.29,3.59H115c2.37,0,4.29-1.61,4.29-3.59v-39Z"/><circle class="a83fc54f-f673-4059-bac1-688e93a84189" cx="108.58" cy="28.33" r="3.61"/><circle class="80f8039b-6451-4880-9769-6d5506cabab5" cx="108.58" cy="40.72" r="3.61"/><ellipse class="7a0da59c-2a88-4121-a9e4-86703592b728" cx="83.97" cy="89.75" rx="6.26" ry="1.97"/><path class="80f8039b-6451-4880-9769-6d5506cabab5" d="M90.22,96.5c-.08,1.07-2.84,1.93-6.24,1.93s-6.16-.86-6.24-1.93h0v8.26l3.59,9.49h6.26l2.66-9.72v-8Z"/><rect class="7a0da59c-2a88-4121-a9e4-86703592b728" x="78.3" y="79.41" width="11.34" height="3.97"/><rect class="7a0da59c-2a88-4121-a9e4-86703592b728" x="81.95" y="83.37" width="4.05" height="3.97"/><path class="a922bd95-281f-4274-b1e6-1e6c5505a39a" d="M84,96.46c-3,0-5.44-.65-6.08-1.53h-.18v4.74c0,1.09,2.8,2,6.26,2s6.26-.88,6.26-2V94.93h-.18C89.41,95.8,86.94,96.46,84,96.46Z"/><path class="a83fc54f-f673-4059-bac1-688e93a84189" d="M84,91.72c-3,0-5.44-.65-6.08-1.53h-.18v4.34c0,1.09,2.8,2,6.26,2s6.26-.88,6.26-2V90.19h-.18C89.41,91.07,86.94,91.72,84,91.72Z"/><ellipse class="7a0da59c-2a88-4121-a9e4-86703592b728" cx="109.43" cy="89.75" rx="6.26" ry="1.97"/><path class="80f8039b-6451-4880-9769-6d5506cabab5" d="M115.67,96.5c-.08,1.07-2.84,1.93-6.24,1.93s-6.16-.86-6.24-1.93h0v8.26l3.59,9.49H113l2.66-9.72v-8Z"/><rect class="7a0da59c-2a88-4121-a9e4-86703592b728" x="103.75" y="79.41" width="11.34" height="3.97"/><rect class="7a0da59c-2a88-4121-a9e4-86703592b728" x="107.4" y="83.37" width="4.05" height="3.97"/><path class="a922bd95-281f-4274-b1e6-1e6c5505a39a" d="M109.43,96.46c-3,0-5.44-.65-6.08-1.53h-.18v4.74c0,1.09,2.8,2,6.26,2s6.26-.88,6.26-2V94.93h-.18C114.86,95.8,112.39,96.46,109.43,96.46Z"/><path class="7a0da59c-2a88-4121-a9e4-86703592b728" d="M109.43,91.72c-3,0-5.44-.65-6.08-1.53h-.18v4.34c0,1.09,2.8,2,6.26,2s6.26-.88,6.26-2V90.19h-.18C114.86,91.07,112.39,91.72,109.43,91.72Z"/><ellipse class="7a0da59c-2a88-4121-a9e4-86703592b728" cx="134.88" cy="89.75" rx="6.26" ry="1.97"/><path class="80f8039b-6451-4880-9769-6d5506cabab5" d="M141.12,96.5c-.08,1.07-2.84,1.93-6.24,1.93s-6.16-.86-6.24-1.93h0v8.26l3.59,9.49h6.26l2.66-9.72v-8Z"/><rect class="7a0da59c-2a88-4121-a9e4-86703592b728" x="129.21" y="79.41" width="11.34" height="3.97"/><rect class="7a0da59c-2a88-4121-a9e4-86703592b728" x="132.85" y="83.37" width="4.05" height="3.97"/><path class="a922bd95-281f-4274-b1e6-1e6c5505a39a" d="M134.88,96.46c-3,0-5.44-.65-6.08-1.53h-.18v4.74c0,1.09,2.8,2,6.26,2s6.26-.88,6.26-2V94.93H141C140.31,95.8,137.84,96.46,134.88,96.46Z"/><path class="7a0da59c-2a88-4121-a9e4-86703592b728" d="M134.88,91.72c-3,0-5.44-.65-6.08-1.53h-.18v4.34c0,1.09,2.8,2,6.26,2s6.26-.88,6.26-2V90.19H141C140.31,91.07,137.84,91.72,134.88,91.72Z"/><line class="80f8039b-6451-4880-9769-6d5506cabab5" x1="66.12" y1="60.17" x2="151.04" y2="60.17"/><line class="80f8039b-6451-4880-9769-6d5506cabab5" x1="66.12" y1="65.29" x2="151.04" y2="65.29"/><line class="80f8039b-6451-4880-9769-6d5506cabab5" x1="66.12" y1="162.64" x2="151.04" y2="162.64"/><line class="80f8039b-6451-4880-9769-6d5506cabab5" x1="66.12" y1="168.99" x2="151.04" y2="168.99"/><line class="80f8039b-6451-4880-9769-6d5506cabab5" x1="70.49" y1="174.36" x2="146.68" y2="174.36"/><line class="80f8039b-6451-4880-9769-6d5506cabab5" x1="80.03" y1="180.71" x2="137.13" y2="180.71"/><line class="80f8039b-6451-4880-9769-6d5506cabab5" x1="92.71" y1="185.47" x2="124.06" y2="185.47"/><path class="80f8039b-6451-4880-9769-6d5506cabab5" d="M66.12,158.57s6.92-3.29,43.31-3C146.68,155.84,151,159,151,159"/></svg>