<svg id="圖層_1" data-name="圖層 1" xmlns="http://www.w3.org/2000/svg" viewBox="0 0 210.63 202"><defs><style>.cls-1{fill:#fff;}.cls-1,.cls-2,.cls-3{stroke:#515050;stroke-miterlimit:10;stroke-width:2px;}.cls-2{fill:#f6d568;}.cls-3{fill:none;}</style></defs><title>icon</title><rect class="cls-1" x="42.75" y="14.76" width="123.52" height="171.82"/><rect class="cls-2" x="42.75" y="186.57" width="123.52" height="6.43"/><circle class="cls-3" cx="104.85" cy="104.67" r="56.48"/><circle class="cls-3" cx="104.85" cy="104.67" r="50.53"/><circle class="cls-2" cx="104.85" cy="104.67" r="43.16"/><rect class="cls-3" x="51.52" y="164.27" width="28.26" height="21.78"/><polyline class="cls-3" points="42.75 45.78 61.7 45.78 72.51 40.18 139.92 40.18 149.37 45.07 166.27 45.07"/><circle class="cls-3" cx="104.85" cy="27.03" r="8.82"/><circle class="cls-3" cx="104.85" cy="27.03" r="5.08"/><polygon class="cls-2" points="49.41 28.6 81.77 28.6 79.79 35.02 51.52 35.02 49.41 28.6"/><circle class="cls-2" cx="125.6" cy="32.2" r="2.61"/><circle class="cls-3" cx="134.4" cy="32.2" r="2.61"/><circle class="cls-3" cx="143.21" cy="32.2" r="2.61"/><circle class="cls-3" cx="152.01" cy="32.2" r="2.61"/><circle class="cls-3" cx="104.85" cy="96.67" r="34.11"/><line class="cls-3" x1="87.15" y1="181.41" x2="166.27" y2="181.41"/><line class="cls-3" x1="62.3" y1="167.81" x2="69.01" y2="167.81"/></svg>