<svg id="7143489d-acf9-4565-842b-d541a206170a" data-name="圖層 1" xmlns="http://www.w3.org/2000/svg" viewBox="0 0 210.63 202"><defs><style>.\31 230e3ae-bf71-49ee-a619-3fbdcd39e4a3{fill:#f6d568;}.\31 230e3ae-bf71-49ee-a619-3fbdcd39e4a3,.\33 f581d62-8094-456b-8306-7800395dc158,.\37 627baec-abbe-45d6-ab8e-ce25c8e7a4f9,.fdf67cd3-93b1-4755-965d-f8222edcdc73{stroke:#515050;stroke-miterlimit:10;stroke-width:2px;}.fdf67cd3-93b1-4755-965d-f8222edcdc73{fill:none;}.\37 627baec-abbe-45d6-ab8e-ce25c8e7a4f9{fill:#fefcfd;}.\33 f581d62-8094-456b-8306-7800395dc158{fill:#fff;}</style></defs><title>icon</title><path class="1230e3ae-bf71-49ee-a619-3fbdcd39e4a3" d="M161.91,104.43,139.69,22.27H76L53.83,104.43a1.39,1.39,0,0,0-.16.6c0,4.5,24.27,8.15,54.2,8.15s54.2-3.65,54.2-8.15A1.39,1.39,0,0,0,161.91,104.43Z"/><rect class="fdf67cd3-93b1-4755-965d-f8222edcdc73" x="104.49" y="113.18" width="6.72" height="65.94"/><path class="7627baec-abbe-45d6-ab8e-ce25c8e7a4f9" d="M122.05,178.6l-5.84-4.88H99.48l-5.84,4.88s0,0,0,0c0,.27,6.38.48,14.25.48s14.25-.22,14.25-.48C122.1,178.63,122.08,178.62,122.05,178.6Z"/><ellipse class="7627baec-abbe-45d6-ab8e-ce25c8e7a4f9" cx="107.87" cy="22.27" rx="31.82" ry="4.79"/><line class="fdf67cd3-93b1-4755-965d-f8222edcdc73" x1="131.59" y1="113.18" x2="131.05" y2="144.07"/><circle class="1230e3ae-bf71-49ee-a619-3fbdcd39e4a3" cx="131.55" cy="146.74" r="3.98"/><rect class="3f581d62-8094-456b-8306-7800395dc158" x="77.53" y="178.82" width="60.62" height="11.85" rx="3.21" ry="3.21"/><ellipse class="fdf67cd3-93b1-4755-965d-f8222edcdc73" cx="107.87" cy="30.46" rx="33.56" ry="5.05"/><ellipse class="7627baec-abbe-45d6-ab8e-ce25c8e7a4f9" cx="107.87" cy="22.27" rx="31.82" ry="4.79"/><line class="fdf67cd3-93b1-4755-965d-f8222edcdc73" x1="131.55" y1="35.51" x2="143.17" y2="111.21"/><line class="fdf67cd3-93b1-4755-965d-f8222edcdc73" x1="77.53" y1="185.54" x2="110.91" y2="185.54"/></svg>