<svg id="36f1dd18-b935-4729-bf97-dcd67ed96064" data-name="圖層 1" xmlns="http://www.w3.org/2000/svg" viewBox="0 0 210.63 202"><defs><style>.\37 e09045c-a7d0-49b1-ae78-ed1bbaffee58{fill:none;}.\33 0725667-0292-418f-aedd-ce9ece64f896,.\37 cb6538f-aff5-490c-9e81-53b190f87c15,.\37 e09045c-a7d0-49b1-ae78-ed1bbaffee58,.ca240d37-328b-4a74-a80a-63576e4a976e{stroke:#515050;stroke-miterlimit:10;stroke-width:2px;}.ca240d37-328b-4a74-a80a-63576e4a976e{fill:#fff;}.\33 0725667-0292-418f-aedd-ce9ece64f896{fill:#f6d568;}.\37 cb6538f-aff5-490c-9e81-53b190f87c15{fill:#515050;}</style></defs><title>icon</title><rect class="7e09045c-a7d0-49b1-ae78-ed1bbaffee58" x="56.74" y="15.89" width="99.79" height="170.02" rx="3.38" ry="3.38"/><rect class="7e09045c-a7d0-49b1-ae78-ed1bbaffee58" x="56.74" y="127.46" width="99.79" height="58.44"/><rect class="7e09045c-a7d0-49b1-ae78-ed1bbaffee58" x="56.74" y="15.89" width="48.96" height="106.33"/><rect class="7e09045c-a7d0-49b1-ae78-ed1bbaffee58" x="108.2" y="15.89" width="48.33" height="106.33"/><rect class="7e09045c-a7d0-49b1-ae78-ed1bbaffee58" x="66.74" y="75.76" width="17.75" height="38.7"/><rect class="7e09045c-a7d0-49b1-ae78-ed1bbaffee58" x="95.99" y="28.61" width="4.51" height="85.7"/><rect class="ca240d37-328b-4a74-a80a-63576e4a976e" x="95.08" y="100.47" width="6.34" height="14.98"/><rect class="ca240d37-328b-4a74-a80a-63576e4a976e" x="95.08" y="26.64" width="6.34" height="14.98"/><rect class="7e09045c-a7d0-49b1-ae78-ed1bbaffee58" x="113.56" y="28.61" width="4.51" height="85.7"/><rect class="ca240d37-328b-4a74-a80a-63576e4a976e" x="112.65" y="100.47" width="6.34" height="14.98"/><rect class="ca240d37-328b-4a74-a80a-63576e4a976e" x="112.65" y="26.64" width="6.34" height="14.98"/><rect class="30725667-0292-418f-aedd-ce9ece64f896" x="66.74" y="107.28" width="17.75" height="7.18"/><rect class="7e09045c-a7d0-49b1-ae78-ed1bbaffee58" x="65.55" y="134.69" width="90.98" height="7.15"/><rect class="7e09045c-a7d0-49b1-ae78-ed1bbaffee58" x="56.74" y="134.69" width="8.81" height="7.15"/><rect class="7cb6538f-aff5-490c-9e81-53b190f87c15" x="56.74" y="131.85" width="99.79" height="2.84"/><line class="7e09045c-a7d0-49b1-ae78-ed1bbaffee58" x1="56.74" y1="146.52" x2="156.53" y2="146.52"/><line class="7e09045c-a7d0-49b1-ae78-ed1bbaffee58" x1="56.74" y1="20.49" x2="106.32" y2="20.49"/><line class="7e09045c-a7d0-49b1-ae78-ed1bbaffee58" x1="107.33" y1="20.49" x2="156.92" y2="20.49"/><circle class="30725667-0292-418f-aedd-ce9ece64f896" cx="71.21" cy="101.15" r="1.58"/><circle class="7e09045c-a7d0-49b1-ae78-ed1bbaffee58" cx="76.47" cy="101.15" r="1.58"/><rect class="30725667-0292-418f-aedd-ce9ece64f896" x="56.74" y="174.96" width="99.79" height="11.15"/><line class="7e09045c-a7d0-49b1-ae78-ed1bbaffee58" x1="96.95" y1="101.15" x2="102.29" y2="101.15"/><line class="7e09045c-a7d0-49b1-ae78-ed1bbaffee58" x1="111.77" y1="101.15" x2="117.12" y2="101.15"/><polygon class="7e09045c-a7d0-49b1-ae78-ed1bbaffee58" points="66.74 75.42 69.08 78.23 82.61 78.23 84.72 75.69 66.74 75.42"/><line class="7e09045c-a7d0-49b1-ae78-ed1bbaffee58" x1="72.78" y1="171.65" x2="156.92" y2="171.65"/></svg>