<svg id="b7933bd0-e10a-4ece-a16b-2cbc87fce331" data-name="圖層 1" xmlns="http://www.w3.org/2000/svg" viewBox="0 0 210.63 202"><defs><style>.\30 df04770-b5bc-478b-867c-b6a9a04f64e0{fill:none;}.\30 df04770-b5bc-478b-867c-b6a9a04f64e0,.\35 fb5956c-e0b2-411e-97f5-e2cc3d5112ae,.e7dedd19-b70f-49c1-8745-c4bfd29edc40{stroke:#515050;stroke-miterlimit:10;stroke-width:2px;}.\35 fb5956c-e0b2-411e-97f5-e2cc3d5112ae{fill:#f6d568;}.e7dedd19-b70f-49c1-8745-c4bfd29edc40{fill:#fff;}</style></defs><title>icon</title><rect class="0df04770-b5bc-478b-867c-b6a9a04f64e0" x="42.75" y="14.17" width="123.52" height="171.82"/><rect class="5fb5956c-e0b2-411e-97f5-e2cc3d5112ae" x="42.75" y="185.99" width="123.52" height="6.43"/><circle class="5fb5956c-e0b2-411e-97f5-e2cc3d5112ae" cx="104.85" cy="104.08" r="56.48"/><circle class="e7dedd19-b70f-49c1-8745-c4bfd29edc40" cx="104.85" cy="104.08" r="43.16"/><polyline class="0df04770-b5bc-478b-867c-b6a9a04f64e0" points="42.75 45.19 61.7 45.19 72.51 39.59 139.92 39.59 149.37 44.48 166.27 44.48"/><circle class="0df04770-b5bc-478b-867c-b6a9a04f64e0" cx="151.66" cy="28.44" r="8.82" transform="translate(117.46 178.91) rotate(-87.82)"/><circle class="5fb5956c-e0b2-411e-97f5-e2cc3d5112ae" cx="151.66" cy="28.44" r="5.08" transform="translate(117.46 178.91) rotate(-87.82)"/><circle class="5fb5956c-e0b2-411e-97f5-e2cc3d5112ae" cx="54.71" cy="31.61" r="2.61"/><circle class="0df04770-b5bc-478b-867c-b6a9a04f64e0" cx="63.51" cy="31.61" r="2.61"/><circle class="0df04770-b5bc-478b-867c-b6a9a04f64e0" cx="72.32" cy="31.61" r="2.61"/><circle class="0df04770-b5bc-478b-867c-b6a9a04f64e0" cx="81.12" cy="31.61" r="2.61"/><polyline class="0df04770-b5bc-478b-867c-b6a9a04f64e0" points="42.75 157.45 48.37 157.45 52.79 161.87 52.79 180.13 155.38 180.13 155.38 162.56 159.54 158.4 165.27 158.4"/><circle class="e7dedd19-b70f-49c1-8745-c4bfd29edc40" cx="104.85" cy="104.08" r="35.65"/></svg>