<svg id="0008e4cf-0ab0-4fe0-8325-4698e20d45c5" data-name="圖層 1" xmlns="http://www.w3.org/2000/svg" viewBox="0 0 210.63 202"><defs><style>.\36 174f348-06c7-4812-bd67-246954954abb{fill:#f6d568;}.\30 58c61d5-bf86-4131-8427-4372362e99f6,.\31 6ecac43-e2a7-4574-917c-5832a995287c,.\36 174f348-06c7-4812-bd67-246954954abb,.e52f869e-56d3-4c4d-a4cc-1ff3dce643e9{stroke:#515050;stroke-miterlimit:10;stroke-width:2px;}.e52f869e-56d3-4c4d-a4cc-1ff3dce643e9{fill:none;}.\31 6ecac43-e2a7-4574-917c-5832a995287c{fill:#fefcfd;}.\30 58c61d5-bf86-4131-8427-4372362e99f6{fill:#fff;}</style></defs><title>icon</title><path class="6174f348-06c7-4812-bd67-246954954abb" d="M161.91,104.43,139.69,22.27H76L53.83,104.43a1.39,1.39,0,0,0-.16.6c0,4.5,24.27,8.15,54.2,8.15s54.2-3.65,54.2-8.15A1.39,1.39,0,0,0,161.91,104.43Z"/><rect class="e52f869e-56d3-4c4d-a4cc-1ff3dce643e9" x="104.49" y="113.18" width="6.72" height="65.94"/><path class="16ecac43-e2a7-4574-917c-5832a995287c" d="M122.05,178.6l-5.84-4.88H99.48l-5.84,4.88s0,0,0,0c0,.27,6.38.48,14.25.48s14.25-.22,14.25-.48C122.1,178.63,122.08,178.62,122.05,178.6Z"/><ellipse class="16ecac43-e2a7-4574-917c-5832a995287c" cx="107.87" cy="22.27" rx="31.82" ry="4.79"/><line class="e52f869e-56d3-4c4d-a4cc-1ff3dce643e9" x1="131.59" y1="113.18" x2="131.05" y2="144.07"/><circle class="6174f348-06c7-4812-bd67-246954954abb" cx="131.55" cy="146.74" r="3.98"/><rect class="058c61d5-bf86-4131-8427-4372362e99f6" x="77.53" y="178.82" width="60.62" height="11.85" rx="3.21" ry="3.21"/><ellipse class="e52f869e-56d3-4c4d-a4cc-1ff3dce643e9" cx="107.87" cy="30.46" rx="33.56" ry="5.05"/><ellipse class="16ecac43-e2a7-4574-917c-5832a995287c" cx="107.87" cy="22.27" rx="31.82" ry="4.79"/><line class="e52f869e-56d3-4c4d-a4cc-1ff3dce643e9" x1="131.55" y1="35.51" x2="143.17" y2="111.21"/><line class="e52f869e-56d3-4c4d-a4cc-1ff3dce643e9" x1="77.53" y1="185.54" x2="110.91" y2="185.54"/></svg>