<svg id="9e8c2919-eb49-4d29-85de-4400f0df9a87" data-name="圖層 1" xmlns="http://www.w3.org/2000/svg" viewBox="0 0 210.63 202"><defs><style>.\33 756651e-6d2b-42f1-a6b6-7b110d3937b3,.adedf808-bfc6-4a1d-9abd-feb05fe42e7d{fill:none;}.\33 756651e-6d2b-42f1-a6b6-7b110d3937b3,.\34 715a33a-681c-437a-965b-22ef0819b9cc,.\36 fa65ce2-b7f9-4cf4-91e8-934e1980dfe7,.\37 328221c-df27-4c4a-abe1-6fff22d118f7,.adedf808-bfc6-4a1d-9abd-feb05fe42e7d{stroke:#515050;stroke-miterlimit:10;}.\33 756651e-6d2b-42f1-a6b6-7b110d3937b3,.\36 fa65ce2-b7f9-4cf4-91e8-934e1980dfe7,.\37 328221c-df27-4c4a-abe1-6fff22d118f7{stroke-width:2px;}.\36 fa65ce2-b7f9-4cf4-91e8-934e1980dfe7{fill:#fff;}.\34 715a33a-681c-437a-965b-22ef0819b9cc,.\37 328221c-df27-4c4a-abe1-6fff22d118f7{fill:#f6d568;}</style></defs><title>icon</title><rect class="3756651e-6d2b-42f1-a6b6-7b110d3937b3" x="100.21" y="147.97" width="8.9" height="8.9"/><polygon class="6fa65ce2-b7f9-4cf4-91e8-934e1980dfe7" points="67.05 154.44 63.82 162.44 144.69 162.44 141.45 154.44 67.05 154.44"/><polygon class="3756651e-6d2b-42f1-a6b6-7b110d3937b3" points="64.64 166.44 63.82 162.44 144.69 162.44 143.87 166.44 64.64 166.44"/><path class="6fa65ce2-b7f9-4cf4-91e8-934e1980dfe7" d="M97.48,143.12h14.35v1.62l-2.15,2.43.24,10.51a19.43,19.43,0,0,1-10.52,0V147.17l-1.91-1.62Z"/><rect class="6fa65ce2-b7f9-4cf4-91e8-934e1980dfe7" x="10.38" y="35.57" width="187.74" height="111.6"/><rect class="7328221c-df27-4c4a-abe1-6fff22d118f7" x="19.18" y="41.9" width="170.14" height="98.13"/><line class="3756651e-6d2b-42f1-a6b6-7b110d3937b3" x1="102.98" y1="150.36" x2="102.98" y2="158.53"/><circle class="4715a33a-681c-437a-965b-22ef0819b9cc" cx="184.04" cy="143.56" r="1.22"/><circle class="adedf808-bfc6-4a1d-9abd-feb05fe42e7d" cx="188.11" cy="143.56" r="1.22"/></svg>