<svg id="7ca1b350-f940-4467-9080-4e9353c1fedb" data-name="圖層 1" xmlns="http://www.w3.org/2000/svg" viewBox="0 0 121.2 114.09"><defs><style>.\36 8353f7e-3a42-4cc1-bfae-19bce9e3c507{fill:#eecf6a;}.c2e3d132-d484-42da-a881-5ae91b7584d1,.dfd6ba72-3001-4441-991c-0c5d3f61dcc5{fill:none;}.\31 a22269d-a5f4-442a-8d8b-6964e593ad72,.c2e3d132-d484-42da-a881-5ae91b7584d1,.dfd6ba72-3001-4441-991c-0c5d3f61dcc5{stroke:#525050;stroke-miterlimit:10;}.c2e3d132-d484-42da-a881-5ae91b7584d1{stroke-width:2.25px;}.\31 a22269d-a5f4-442a-8d8b-6964e593ad72{fill:#fff;}.\31 a22269d-a5f4-442a-8d8b-6964e593ad72,.dfd6ba72-3001-4441-991c-0c5d3f61dcc5{stroke-width:2.6px;}</style></defs><title>advice_cata</title><circle class="68353f7e-3a42-4cc1-bfae-19bce9e3c507" cx="72.11" cy="27.14" r="14.06"/><circle class="c2e3d132-d484-42da-a881-5ae91b7584d1" cx="72.11" cy="27.14" r="8.44"/><polygon class="1a22269d-a5f4-442a-8d8b-6964e593ad72" points="25.71 95.67 33.1 86.9 34.81 62.53 40.48 50.52 44.53 46.57 48.71 39.36 49.99 41.59 50.77 47.09 60.04 36.45 70.85 26.49 73.77 25.12 75.14 27.18 73.94 31.47 70.34 36.27 63.47 45.37 55.58 54.98 60.04 51.72 62.96 47.77 66.22 46.74 68.62 47.94 70.17 51.38 69.14 53.61 72.57 53.95 75.14 55.67 75.14 58.76 71.88 63.11 74.28 62.02 77.03 63.11 77.03 66.14 74.8 70.6 67.76 80.55 58.5 94.45 54.03 98.4 45.97 104.92 40.18 113.53 25.71 95.67"/><line class="dfd6ba72-3001-4441-991c-0c5d3f61dcc5" x1="57.73" y1="52.37" x2="51.5" y2="59.94"/><line class="dfd6ba72-3001-4441-991c-0c5d3f61dcc5" x1="50.75" y1="46.64" x2="38.31" y2="61.78"/><line class="dfd6ba72-3001-4441-991c-0c5d3f61dcc5" x1="69.09" y1="53.51" x2="61.11" y2="63.23"/><line class="dfd6ba72-3001-4441-991c-0c5d3f61dcc5" x1="72.69" y1="62.4" x2="65.1" y2="71.63"/><line class="c2e3d132-d484-42da-a881-5ae91b7584d1" x1="72.11" y1="9.99" x2="72.11" y2="2.09"/><line class="c2e3d132-d484-42da-a881-5ae91b7584d1" x1="87.44" y1="27.14" x2="96.1" y2="27.14"/><line class="c2e3d132-d484-42da-a881-5ae91b7584d1" x1="85.42" y1="16.27" x2="90.78" y2="10.91"/><line class="c2e3d132-d484-42da-a881-5ae91b7584d1" x1="59.43" y1="15.28" x2="55.2" y2="11.05"/><line class="c2e3d132-d484-42da-a881-5ae91b7584d1" x1="84.08" y1="39.04" x2="88.98" y2="43.94"/><line class="c2e3d132-d484-42da-a881-5ae91b7584d1" x1="72.95" y1="42.98" x2="72.95" y2="49.57"/></svg>