<svg id="4378dbea-138d-44a1-89cb-8db89bf2ce57" data-name="圖層 1" xmlns="http://www.w3.org/2000/svg" viewBox="0 0 121.2 114.09"><defs><style>.\34 46a87b5-9987-4281-a733-8086dbda1942{fill:#eecf6a;}.a314afc8-8a57-4da0-874e-40c6c8cf8649{fill:none;}.\33 f1bfbb3-b666-4ff0-826d-69ec96c8e79e,.a314afc8-8a57-4da0-874e-40c6c8cf8649{stroke:#525050;stroke-miterlimit:10;stroke-width:2.43px;}.\33 f1bfbb3-b666-4ff0-826d-69ec96c8e79e{fill:#fff;}</style></defs><title>advice_cata</title><circle class="446a87b5-9987-4281-a733-8086dbda1942" cx="56.59" cy="57.04" r="45.66"/><circle class="a314afc8-8a57-4da0-874e-40c6c8cf8649" cx="57.76" cy="57.04" r="45.66"/><path class="3f1bfbb3-b666-4ff0-826d-69ec96c8e79e" d="M65.35,46.86c-.5-6.9-3.24-10.5-7.91-10.5a5,5,0,0,0-5.1,5.32c0,3.52,2.3,5.61,10.14,8.77C73.83,55.06,78,59.59,78,67.5,78,77.35,72.25,84,62.33,85.19v6.54H54.42V85c-9.28-1.29-14.88-6.54-16.9-15.75l12-3.31c1.08,6.69,4.39,10,10.07,10,4,0,6.33-2.3,6.33-5.82s-2.52-5.9-10.57-9.49c-11.14-5-15.24-9.42-15.24-16.61,0-8.56,5.54-14.52,14.31-16V21.27h7.91V28c8.56,1.22,13.8,6.9,15.1,16.25Z"/><path class="a314afc8-8a57-4da0-874e-40c6c8cf8649" d="M63.4,11.39A45.66,45.66,0,0,1,109.05,57"/><path class="a314afc8-8a57-4da0-874e-40c6c8cf8649" d="M109.05,57A45.66,45.66,0,0,1,63.4,102.7"/><circle class="a314afc8-8a57-4da0-874e-40c6c8cf8649" cx="63.4" cy="57.04" r="45.66"/></svg>