<svg id="61cbb457-95b6-4cad-8394-b3427b36b194" data-name="圖層 1" xmlns="http://www.w3.org/2000/svg" viewBox="0 0 121.2 114.09"><defs><style>.a385725a-cf51-4f7c-a6ef-36563ac65fe1{fill:#eecf6a;}.\36 409e6a7-3f01-400f-9585-075fd8fc0c79{fill:none;}.\31 6f3450d-89e5-45c0-b77b-7c929791506c,.\36 409e6a7-3f01-400f-9585-075fd8fc0c79{stroke:#525050;stroke-miterlimit:10;stroke-width:2.43px;}.\31 6f3450d-89e5-45c0-b77b-7c929791506c{fill:#fff;}</style></defs><title>advice_cata</title><circle class="a385725a-cf51-4f7c-a6ef-36563ac65fe1" cx="56.02" cy="57.04" r="53.26"/><circle class="6409e6a7-3f01-400f-9585-075fd8fc0c79" cx="57.39" cy="57.04" r="53.26"/><path class="16f3450d-89e5-45c0-b77b-7c929791506c" d="M66.24,45.17c-.59-8.05-3.77-12.24-9.23-12.24-3.77,0-6,2.94-6,6.21,0,4.11,2.68,6.54,11.83,10.23C76.13,54.73,81,60,81,69.24c0,11.49-6.71,19.29-18.28,20.63V97.5H53.49V89.7c-10.82-1.51-17.36-7.63-19.71-18.37l14-3.86C49,75.28,52.9,79.14,59.53,79.14c4.7,0,7.38-2.68,7.38-6.79,0-4.28-2.94-6.88-12.33-11.07-13-5.79-17.78-11-17.78-19.37,0-10,6.46-16.94,16.69-18.62v-8h9.23v7.8c10,1.43,16.1,8.05,17.61,19Z"/><path class="6409e6a7-3f01-400f-9585-075fd8fc0c79" d="M64,3.79A53.26,53.26,0,0,1,117.22,57"/><path class="6409e6a7-3f01-400f-9585-075fd8fc0c79" d="M117.22,57A53.26,53.26,0,0,1,64,110.3"/><circle class="6409e6a7-3f01-400f-9585-075fd8fc0c79" cx="63.97" cy="57.04" r="53.26"/></svg>