<svg id="440a1c96-c57c-4828-9685-5f7b65e375ac" data-name="圖層 1" xmlns="http://www.w3.org/2000/svg" viewBox="0 0 121.2 114.09"><defs><style>.\30 df56b7b-7b4d-45ee-b7b1-0f00617b96f5{fill:#eecf6a;}.\32 d1ccb13-6d29-410e-ae5e-d8354e63458c,.f8c60575-7183-4a07-8895-b4c00492f87b{fill:none;}.\32 d1ccb13-6d29-410e-ae5e-d8354e63458c,.c6ee2540-a453-498e-a03c-a0f61566cc62,.f8c60575-7183-4a07-8895-b4c00492f87b{stroke:#525050;stroke-miterlimit:10;}.f8c60575-7183-4a07-8895-b4c00492f87b{stroke-width:2.25px;}.c6ee2540-a453-498e-a03c-a0f61566cc62{fill:#fff;}.\32 d1ccb13-6d29-410e-ae5e-d8354e63458c,.c6ee2540-a453-498e-a03c-a0f61566cc62{stroke-width:2.6px;}</style></defs><title>advice_cata</title><circle class="0df56b7b-7b4d-45ee-b7b1-0f00617b96f5" cx="71.32" cy="29.31" r="13.06"/><circle class="f8c60575-7183-4a07-8895-b4c00492f87b" cx="71.32" cy="29.31" r="7.84"/><polygon class="c6ee2540-a453-498e-a03c-a0f61566cc62" points="28.2 92.98 35.07 84.84 36.66 62.2 41.92 51.03 45.69 47.37 49.58 40.67 50.76 42.74 51.49 47.85 60.1 37.96 70.15 28.71 72.86 27.44 74.13 29.35 73.02 33.34 69.67 37.8 63.29 46.25 55.96 55.18 60.1 52.15 62.81 48.48 65.84 47.53 68.08 48.64 69.51 51.83 68.55 53.91 71.74 54.22 74.13 55.82 74.13 58.69 71.1 62.73 73.34 61.72 75.89 62.73 75.89 65.55 73.81 69.69 67.28 78.94 58.67 91.85 54.52 95.52 47.03 101.58 41.65 109.58 28.2 92.98"/><line class="2d1ccb13-6d29-410e-ae5e-d8354e63458c" x1="57.95" y1="52.75" x2="52.17" y2="59.79"/><line class="2d1ccb13-6d29-410e-ae5e-d8354e63458c" x1="51.47" y1="47.43" x2="39.91" y2="61.5"/><line class="2d1ccb13-6d29-410e-ae5e-d8354e63458c" x1="68.51" y1="53.82" x2="61.1" y2="62.84"/><line class="2d1ccb13-6d29-410e-ae5e-d8354e63458c" x1="71.85" y1="62.07" x2="64.8" y2="70.65"/><line class="f8c60575-7183-4a07-8895-b4c00492f87b" x1="71.32" y1="13.38" x2="71.32" y2="6.04"/><line class="f8c60575-7183-4a07-8895-b4c00492f87b" x1="85.56" y1="29.31" x2="93.61" y2="29.31"/><line class="f8c60575-7183-4a07-8895-b4c00492f87b" x1="83.68" y1="19.21" x2="88.66" y2="14.23"/><line class="f8c60575-7183-4a07-8895-b4c00492f87b" x1="59.54" y1="18.3" x2="55.61" y2="14.37"/><line class="f8c60575-7183-4a07-8895-b4c00492f87b" x1="82.44" y1="40.37" x2="86.99" y2="44.92"/><line class="f8c60575-7183-4a07-8895-b4c00492f87b" x1="72.1" y1="44.03" x2="72.1" y2="50.15"/></svg>