<svg id="圖層_1" data-name="圖層 1" xmlns="http://www.w3.org/2000/svg" viewBox="0 0 313 165"><defs><style>.cls-1{fill:#f4ba16;}.cls-2{fill:#f5dabf;}.cls-3{fill:#f27953;}.cls-4{fill:none;}.cls-4,.cls-5{stroke:#515050;stroke-miterlimit:10;stroke-width:1.85px;}.cls-5{fill:#f5da4e;}.cls-6{fill:#525050;}.cls-7{fill:#fff;}</style></defs><title>watch</title><path class="cls-1" d="M107.55,53.14a115.09,115.09,0,0,1,94.76,1.69l11.75-20.35A138.49,138.49,0,0,0,96.91,32.23Z"/><path class="cls-2" d="M87.45,36.89A138.19,138.19,0,0,0,15,152.69H38.44A114.81,114.81,0,0,1,98.08,57.77Z"/><path class="cls-3" d="M223.34,39.5,211.62,59.79a114.75,114.75,0,0,1,56.1,92.9h23.44A138.16,138.16,0,0,0,223.34,39.5Z"/><path class="cls-4" d="M107.55,44.71a115,115,0,0,1,94.76,1.69l11.75-20.35A138.49,138.49,0,0,0,96.91,23.8Z"/><path class="cls-5" d="M87.45,28.45A138.22,138.22,0,0,0,15,144.25H38.44A114.79,114.79,0,0,1,98.08,49.34Z"/><path class="cls-4" d="M223.34,31.07,211.62,51.36a114.75,114.75,0,0,1,56.1,92.89h23.44A138.16,138.16,0,0,0,223.34,31.07Z"/><g class="pointer" id="pointer"><path class="cls-6" d="M80.39,143.74s68.57,6.82,69.9,6.77a9.49,9.49,0,1,0-.74-19C148.22,131.6,80.39,143.74,80.39,143.74Z"/><circle class="cls-7" cx="150.6" cy="141" r="4.07"/></g></svg>