<svg id="96438089-1f4e-46e1-99ae-2e0978eca08e" data-name="圖層 1" xmlns="http://www.w3.org/2000/svg" viewBox="0 0 564 578"><defs><style>.\30 3c86d00-d01a-406d-af02-6a74426e2586,.\33 5c00d09-256a-4aae-9dcb-a09a8b2e09df,.b9686232-55ad-4b23-afb1-8bbbc39bd87b{fill:none;}.\30 3c86d00-d01a-406d-af02-6a74426e2586,.\32 90e35fc-98a4-4eeb-b380-7c08eeee2f33,.b9686232-55ad-4b23-afb1-8bbbc39bd87b{stroke:#515050;}.\30 3c86d00-d01a-406d-af02-6a74426e2586,.\32 90e35fc-98a4-4eeb-b380-7c08eeee2f33,.\33 07c9729-f328-4853-b9b6-bdb83719a834,.\33 5c00d09-256a-4aae-9dcb-a09a8b2e09df,.b9686232-55ad-4b23-afb1-8bbbc39bd87b{stroke-miterlimit:10;}.\30 3c86d00-d01a-406d-af02-6a74426e2586{stroke-width:4px;}.\33 07c9729-f328-4853-b9b6-bdb83719a834,.a523c56f-5006-48b8-8c26-74f7b01cca25{fill:#433f3f;}.\32 90e35fc-98a4-4eeb-b380-7c08eeee2f33{fill:#fff;}.\32 90e35fc-98a4-4eeb-b380-7c08eeee2f33,.\33 07c9729-f328-4853-b9b6-bdb83719a834,.\33 5c00d09-256a-4aae-9dcb-a09a8b2e09df,.b9686232-55ad-4b23-afb1-8bbbc39bd87b{stroke-width:3px;}.\33 07c9729-f328-4853-b9b6-bdb83719a834{stroke:#ddddde;}.\33 5c00d09-256a-4aae-9dcb-a09a8b2e09df{stroke:#433f3f;}.ca353d3d-cd06-4fa2-be74-94cb9fcd716b{font-size:98.56px;font-family:AndaleMono, Andale Mono;}.\35 d3cf88b-7648-4bdd-82e7-91c183c3249d,.ca353d3d-cd06-4fa2-be74-94cb9fcd716b,.da767bef-f30c-4d29-a94c-5764c4bcc15b{fill:#515050;}.da767bef-f30c-4d29-a94c-5764c4bcc15b{font-size:45.62px;font-family:LiHeiPro, LiHei Pro;}</style></defs><title>elec_watch</title><circle class="03c86d00-d01a-406d-af02-6a74426e2586" cx="287.29" cy="288.57" r="276.37"/><rect class="a523c56f-5006-48b8-8c26-74f7b01cca25" x="10.93" y="288.57" width="552.73" height="31.58"/><circle class="290e35fc-98a4-4eeb-b380-7c08eeee2f33" cx="113.34" cy="210.59" r="56.25"/><line class="b9686232-55ad-4b23-afb1-8bbbc39bd87b" x1="113.34" y1="154.35" x2="113.34" y2="168.09"/><line class="b9686232-55ad-4b23-afb1-8bbbc39bd87b" x1="113.34" y1="252.49" x2="113.34" y2="266.23"/><line class="b9686232-55ad-4b23-afb1-8bbbc39bd87b" x1="147" y1="165.53" x2="142.27" y2="171.86"/><line class="b9686232-55ad-4b23-afb1-8bbbc39bd87b" x1="84.41" y1="249.32" x2="79.68" y2="255.65"/><line class="b9686232-55ad-4b23-afb1-8bbbc39bd87b" x1="167.1" y1="194.06" x2="159.55" y2="196.38"/><line class="b9686232-55ad-4b23-afb1-8bbbc39bd87b" x1="67.13" y1="224.8" x2="59.58" y2="227.13"/><line class="b9686232-55ad-4b23-afb1-8bbbc39bd87b" x1="166.71" y1="228.37" x2="159.21" y2="225.87"/><line class="b9686232-55ad-4b23-afb1-8bbbc39bd87b" x1="67.48" y1="195.31" x2="59.98" y2="192.82"/><line class="b9686232-55ad-4b23-afb1-8bbbc39bd87b" x1="146.11" y1="256.31" x2="141.5" y2="249.89"/><line class="b9686232-55ad-4b23-afb1-8bbbc39bd87b" x1="85.18" y1="171.3" x2="80.58" y2="164.87"/><circle class="290e35fc-98a4-4eeb-b380-7c08eeee2f33" cx="231.44" cy="210.59" r="56.25"/><line class="b9686232-55ad-4b23-afb1-8bbbc39bd87b" x1="231.44" y1="154.35" x2="231.44" y2="168.09"/><line class="b9686232-55ad-4b23-afb1-8bbbc39bd87b" x1="231.44" y1="252.49" x2="231.44" y2="266.23"/><line class="b9686232-55ad-4b23-afb1-8bbbc39bd87b" x1="265.1" y1="165.53" x2="260.37" y2="171.86"/><line class="b9686232-55ad-4b23-afb1-8bbbc39bd87b" x1="202.5" y1="249.32" x2="197.78" y2="255.65"/><line class="b9686232-55ad-4b23-afb1-8bbbc39bd87b" x1="285.2" y1="194.06" x2="277.65" y2="196.38"/><line class="b9686232-55ad-4b23-afb1-8bbbc39bd87b" x1="185.23" y1="224.8" x2="177.68" y2="227.13"/><line class="b9686232-55ad-4b23-afb1-8bbbc39bd87b" x1="284.8" y1="228.37" x2="277.3" y2="225.87"/><line class="b9686232-55ad-4b23-afb1-8bbbc39bd87b" x1="185.57" y1="195.31" x2="178.07" y2="192.82"/><line class="b9686232-55ad-4b23-afb1-8bbbc39bd87b" x1="264.2" y1="256.31" x2="259.6" y2="249.89"/><line class="b9686232-55ad-4b23-afb1-8bbbc39bd87b" x1="203.28" y1="171.3" x2="198.67" y2="164.87"/><circle class="290e35fc-98a4-4eeb-b380-7c08eeee2f33" cx="343.93" cy="210.59" r="56.25"/><line class="b9686232-55ad-4b23-afb1-8bbbc39bd87b" x1="343.93" y1="154.35" x2="343.93" y2="168.09"/><line class="b9686232-55ad-4b23-afb1-8bbbc39bd87b" x1="343.93" y1="252.49" x2="343.93" y2="266.23"/><line class="b9686232-55ad-4b23-afb1-8bbbc39bd87b" x1="377.59" y1="165.53" x2="372.86" y2="171.86"/><line class="b9686232-55ad-4b23-afb1-8bbbc39bd87b" x1="315" y1="249.32" x2="310.27" y2="255.65"/><line class="b9686232-55ad-4b23-afb1-8bbbc39bd87b" x1="397.69" y1="194.06" x2="390.14" y2="196.38"/><line class="b9686232-55ad-4b23-afb1-8bbbc39bd87b" x1="297.72" y1="224.8" x2="290.17" y2="227.13"/><line class="b9686232-55ad-4b23-afb1-8bbbc39bd87b" x1="397.29" y1="228.37" x2="389.8" y2="225.87"/><line class="b9686232-55ad-4b23-afb1-8bbbc39bd87b" x1="298.06" y1="195.31" x2="290.57" y2="192.82"/><line class="b9686232-55ad-4b23-afb1-8bbbc39bd87b" x1="376.69" y1="256.31" x2="372.09" y2="249.89"/><line class="b9686232-55ad-4b23-afb1-8bbbc39bd87b" x1="315.77" y1="171.3" x2="311.17" y2="164.87"/><circle class="290e35fc-98a4-4eeb-b380-7c08eeee2f33" cx="462.02" cy="210.59" r="56.25"/><line class="b9686232-55ad-4b23-afb1-8bbbc39bd87b" x1="462.02" y1="154.35" x2="462.02" y2="168.09"/><line class="b9686232-55ad-4b23-afb1-8bbbc39bd87b" x1="462.02" y1="252.49" x2="462.02" y2="266.23"/><line class="b9686232-55ad-4b23-afb1-8bbbc39bd87b" x1="495.68" y1="165.53" x2="490.96" y2="171.86"/><line class="b9686232-55ad-4b23-afb1-8bbbc39bd87b" x1="433.09" y1="249.32" x2="428.36" y2="255.65"/><line class="b9686232-55ad-4b23-afb1-8bbbc39bd87b" x1="515.79" y1="194.06" x2="508.23" y2="196.38"/><line class="b9686232-55ad-4b23-afb1-8bbbc39bd87b" x1="415.81" y1="224.8" x2="408.26" y2="227.13"/><line class="b9686232-55ad-4b23-afb1-8bbbc39bd87b" x1="515.39" y1="228.37" x2="507.89" y2="225.87"/><line class="b9686232-55ad-4b23-afb1-8bbbc39bd87b" x1="416.16" y1="195.31" x2="408.66" y2="192.82"/><line class="b9686232-55ad-4b23-afb1-8bbbc39bd87b" x1="494.79" y1="256.31" x2="490.19" y2="249.89"/><line class="b9686232-55ad-4b23-afb1-8bbbc39bd87b" x1="433.86" y1="171.3" x2="429.26" y2="164.87"/><line class="307c9729-f328-4853-b9b6-bdb83719a834" x1="40.09" y1="304.36" x2="534.49" y2="304.36"/><polygon id="e96afdae-bb84-4e40-ac65-b8c4382369a4" data-name="running_block" class="a523c56f-5006-48b8-8c26-74f7b01cca25" points="160.2 296.95 170.91 314.68 201 314.68 202.72 294.62 160.2 296.95"/><line class="35c00d09-256a-4aae-9dcb-a09a8b2e09df" x1="286.95" y1="320.16" x2="286.95" y2="337.07"/><polyline class="35c00d09-256a-4aae-9dcb-a09a8b2e09df" points="210.85 335.37 363.04 335.37 339.28 342.76"/><g id="b78a4930-a9aa-4ee0-a2ed-ed87263b475d" data-name="kwh_texts"><text class="ca353d3d-cd06-4fa2-be74-94cb9fcd716b" transform="translate(122.55 460.6)"><tspan xml:space="preserve"> 0000</tspan></text><text class="da767bef-f30c-4d29-a94c-5764c4bcc15b" transform="translate(424.23 447.03)">度</text></g><line class="03c86d00-d01a-406d-af02-6a74426e2586" x1="-0.07" y1="25.21" x2="85.48" y2="101.65"/><path id="2492998f-6411-4694-82a9-74b79d104f42" data-name="pointer_4" class="5d3cf88b-7648-4bdd-82e7-91c183c3249d" d="M128.4,210.28v4.32c-.45.56-.34,1.26-.47,1.9-1.1,5.23-4,8.76-9.31,10.12-5.8,1.5-11.16.28-16.11-2.86a11.29,11.29,0,0,1-5.29-8.56c0-.22.06-.5-.25-.6v-2.16c.32-.1.22-.38.25-.59a24.82,24.82,0,0,1,1.2-5.23q3.09-8.85,6.18-17.71,5-14.27,9.89-28.55h.24a1.89,1.89,0,0,0,.16,1q6.18,21.86,12.37,43.71C127.74,206.82,127.86,208.59,128.4,210.28ZM113,207.6a3.76,3.76,0,1,0,0,7.52,3.76,3.76,0,1,0,0-7.52Z"/><path id="d26b6b4f-846b-4a35-a8c2-c243466fa1a1" data-name="pointer_3" class="5d3cf88b-7648-4bdd-82e7-91c183c3249d" d="M247.4,210.28v4.32c-.45.56-.34,1.26-.47,1.9-1.1,5.23-4,8.76-9.31,10.12-5.8,1.5-11.16.28-16.11-2.86a11.29,11.29,0,0,1-5.29-8.56c0-.22.06-.5-.25-.6v-2.16c.32-.1.22-.38.25-.59a24.82,24.82,0,0,1,1.2-5.23q3.09-8.85,6.18-17.71,5-14.27,9.89-28.55h.24a1.89,1.89,0,0,0,.16,1q6.18,21.86,12.37,43.71C246.74,206.82,246.86,208.59,247.4,210.28ZM232,207.6a3.76,3.76,0,1,0,0,7.52,3.76,3.76,0,1,0,0-7.52Z"/><path id="759982a4-6084-4a88-a005-30d8b8f3a8e8" data-name="pointer_2" class="5d3cf88b-7648-4bdd-82e7-91c183c3249d" d="M359.4,210.28v4.32c-.45.56-.34,1.26-.47,1.9-1.1,5.23-4,8.76-9.31,10.12-5.8,1.5-11.16.28-16.11-2.86a11.29,11.29,0,0,1-5.29-8.56c0-.22.06-.5-.25-.6v-2.16c.32-.1.22-.38.25-.59a24.82,24.82,0,0,1,1.2-5.23q3.09-8.85,6.18-17.71,5-14.27,9.89-28.55h.24a1.89,1.89,0,0,0,.16,1q6.18,21.86,12.37,43.71C358.74,206.82,358.86,208.59,359.4,210.28ZM344,207.6a3.76,3.76,0,1,0,0,7.52,3.76,3.76,0,1,0,0-7.52Z"/><path id="da253309-1699-458e-ab79-c5ccf4ae78c5" data-name="pointer_1" class="5d3cf88b-7648-4bdd-82e7-91c183c3249d" d="M477.4,210.28v4.32c-.45.56-.34,1.26-.47,1.9-1.1,5.23-4,8.76-9.31,10.12-5.8,1.5-11.16.28-16.11-2.86a11.29,11.29,0,0,1-5.29-8.56c0-.22.06-.5-.25-.6v-2.16c.32-.1.22-.38.25-.59a24.82,24.82,0,0,1,1.2-5.23q3.09-8.85,6.18-17.71,5-14.27,9.89-28.55h.24a1.89,1.89,0,0,0,.16,1q6.18,21.86,12.37,43.71C476.74,206.82,476.86,208.59,477.4,210.28ZM462,207.6a3.76,3.76,0,1,0,0,7.52,3.76,3.76,0,1,0,0-7.52Z"/></svg>