<?xml version="1.0" encoding="utf-8"?>
<!-- Generator: Adobe Illustrator 21.1.0, SVG Export Plug-In . SVG Version: 6.00 Build 0)  -->
<svg version="1.1" id="圖層_1" xmlns="http://www.w3.org/2000/svg" xmlns:xlink="http://www.w3.org/1999/xlink" x="0px" y="0px"
	 viewBox="0 0 604 592" style="enable-background:new 0 0 604 592;" xml:space="preserve">
<style type="text/css">
	.st0{fill:none;stroke:#515050;stroke-width:4;stroke-miterlimit:10;}
	.st1{fill:#433F3F;}
	.st2{fill:#FFFFFF;stroke:#515050;stroke-width:3;stroke-miterlimit:10;}
	.st3{fill:#515050;}
	.st4{fill:#DAE5E9;}
	.st5{fill:none;stroke:#515050;stroke-width:3;stroke-miterlimit:10;}
	.st6{fill:#433F3F;stroke:#DDDDDE;stroke-width:3;stroke-miterlimit:10;}
	.st7{fill:none;stroke:#433F3F;stroke-width:3;stroke-miterlimit:10;}
</style>
<g>
	<circle class="st0" cx="302.3" cy="295.6" r="276.4"/>
	<rect x="25.9" y="295.6" class="st1" width="552.7" height="31.6"/>
	<g>
		<circle class="st2" cx="128.3" cy="217.6" r="56.2"/>
		<path class="st3" d="M120.2,233.6c0,0-13.6-1.1-6.8-21.4l32.8-40l-3.2,48.5C143,220.8,141.6,239.7,120.2,233.6z"/>
		<circle class="st4" cx="127.1" cy="219.5" r="3.7"/>
		<g>
			<line class="st5" x1="128.3" y1="161.3" x2="128.3" y2="175.1"/>
		</g>
		<g>
			<line class="st5" x1="128.3" y1="259.5" x2="128.3" y2="273.2"/>
		</g>
		<g>
			<line class="st5" x1="162" y1="172.5" x2="157.3" y2="178.9"/>
			<line class="st5" x1="99.4" y1="256.3" x2="94.7" y2="262.7"/>
		</g>
		<g>
			<line class="st5" x1="182.1" y1="201.1" x2="174.6" y2="203.4"/>
			<line class="st5" x1="82.1" y1="231.8" x2="74.6" y2="234.1"/>
		</g>
		<g>
			<line class="st5" x1="181.7" y1="235.4" x2="174.2" y2="232.9"/>
			<line class="st5" x1="82.5" y1="202.3" x2="75" y2="199.8"/>
		</g>
		<g>
			<line class="st5" x1="161.1" y1="263.3" x2="156.5" y2="256.9"/>
			<line class="st5" x1="100.2" y1="178.3" x2="95.6" y2="171.9"/>
		</g>
	</g>
	<g>
		<circle class="st2" cx="246.4" cy="217.6" r="56.2"/>
		<path class="st3" d="M262.6,222.8c0,0,2.6,13.4-18.9,12.2L196.5,214l47.7-9.8C244.1,204.2,262.7,200.5,262.6,222.8z"/>
		
			<ellipse transform="matrix(0.9642 -0.2652 0.2652 0.9642 -49.4423 73.4024)" class="st4" cx="247.1" cy="219.8" rx="3.7" ry="3.7"/>
		<g>
			<line class="st5" x1="246.4" y1="161.3" x2="246.4" y2="175.1"/>
		</g>
		<g>
			<line class="st5" x1="246.4" y1="259.5" x2="246.4" y2="273.2"/>
		</g>
		<g>
			<line class="st5" x1="280.1" y1="172.5" x2="275.4" y2="178.9"/>
			<line class="st5" x1="217.5" y1="256.3" x2="212.8" y2="262.7"/>
		</g>
		<g>
			<line class="st5" x1="300.2" y1="201.1" x2="292.6" y2="203.4"/>
			<line class="st5" x1="200.2" y1="231.8" x2="192.7" y2="234.1"/>
		</g>
		<g>
			<line class="st5" x1="299.8" y1="235.4" x2="292.3" y2="232.9"/>
			<line class="st5" x1="200.6" y1="202.3" x2="193.1" y2="199.8"/>
		</g>
		<g>
			<line class="st5" x1="279.2" y1="263.3" x2="274.6" y2="256.9"/>
			<line class="st5" x1="218.3" y1="178.3" x2="213.7" y2="171.9"/>
		</g>
	</g>
	<g>
		<circle class="st2" cx="358.9" cy="217.6" r="56.2"/>
		<path class="st3" d="M362.5,205.1c0,0,13.4-2.1,11.6,19.2l-22.6,46.6l-8.2-47.9C343.3,223,340.3,204.3,362.5,205.1z"/>
		<ellipse transform="matrix(0.9722 -0.234 0.234 0.9722 -41.6268 90.1387)" class="st4" cx="359" cy="220.5" rx="3.7" ry="3.7"/>
		<g>
			<line class="st5" x1="358.9" y1="161.3" x2="358.9" y2="175.1"/>
		</g>
		<g>
			<line class="st5" x1="358.9" y1="259.5" x2="358.9" y2="273.2"/>
		</g>
		<g>
			<line class="st5" x1="392.6" y1="172.5" x2="387.9" y2="178.9"/>
			<line class="st5" x1="330" y1="256.3" x2="325.3" y2="262.7"/>
		</g>
		<g>
			<line class="st5" x1="412.7" y1="201.1" x2="405.1" y2="203.4"/>
			<line class="st5" x1="312.7" y1="231.8" x2="305.2" y2="234.1"/>
		</g>
		<g>
			<line class="st5" x1="412.3" y1="235.4" x2="404.8" y2="232.9"/>
			<line class="st5" x1="313.1" y1="202.3" x2="305.6" y2="199.8"/>
		</g>
		<g>
			<line class="st5" x1="391.7" y1="263.3" x2="387.1" y2="256.9"/>
			<line class="st5" x1="330.8" y1="178.3" x2="326.2" y2="171.9"/>
		</g>
	</g>
	<g>
		<circle class="st2" cx="477" cy="217.6" r="56.2"/>
		<path class="st3" d="M489.8,223.9c0,0-3.7,13.1-22.3,2.4l-32.7-40.1l47,12.7C481.7,199,500,204.1,489.8,223.9z"/>
		
			<ellipse transform="matrix(0.1977 -0.9803 0.9803 0.1977 172.9258 639.8179)" class="st4" cx="477.3" cy="214.3" rx="3.7" ry="3.7"/>
		<g>
			<line class="st5" x1="477" y1="161.3" x2="477" y2="175.1"/>
		</g>
		<g>
			<line class="st5" x1="477" y1="259.5" x2="477" y2="273.2"/>
		</g>
		<g>
			<line class="st5" x1="510.7" y1="172.5" x2="506" y2="178.9"/>
			<line class="st5" x1="448.1" y1="256.3" x2="443.4" y2="262.7"/>
		</g>
		<g>
			<line class="st5" x1="530.8" y1="201.1" x2="523.2" y2="203.4"/>
			<line class="st5" x1="430.8" y1="231.8" x2="423.3" y2="234.1"/>
		</g>
		<g>
			<line class="st5" x1="530.4" y1="235.4" x2="522.9" y2="232.9"/>
			<line class="st5" x1="431.2" y1="202.3" x2="423.7" y2="199.8"/>
		</g>
		<g>
			<line class="st5" x1="509.8" y1="263.3" x2="505.2" y2="256.9"/>
			<line class="st5" x1="448.9" y1="178.3" x2="444.3" y2="171.9"/>
		</g>
	</g>
	<line class="st6" x1="55.1" y1="311.4" x2="549.5" y2="311.4"/>
	<polygon class="st1" points="175.2,304 185.9,321.7 216,321.7 217.7,301.6 	"/>
	<line class="st7" x1="301.9" y1="327.2" x2="301.9" y2="344.1"/>
	<polyline class="st7" points="225.9,340.4 378,340.4 354.3,347.8 	"/>
</g>
</svg>
